<svg width="443" height="80" viewBox="0 0 443 80" fill="none" xmlns="http://www.w3.org/2000/svg">
<g clip-path="url(#clip0)">
<path d="M219.167 3.8291H165.833V56.92H219.167V3.8291Z" fill="white" stroke="black" stroke-width="3"/>
<path d="M225.278 9.35938H171.944V62.4503H225.278V9.35938Z" fill="white" stroke="black" stroke-width="3"/>
<path d="M233.056 16.5488H179.722V69.6397H233.056V16.5488Z" fill="white" stroke="black" stroke-width="3"/>
<path d="M239.167 22.0791H185.833V75.17H239.167V22.0791Z" fill="white" stroke="black" stroke-width="3"/>
<path d="M207.342 36.5186L206.424 41.6902H209.939L209.217 45.8121H205.701L203.904 56.3499C203.826 57.0109 203.878 57.5164 204.061 57.8663C204.243 58.2164 204.686 58.4045 205.389 58.4299C205.597 58.4432 206.157 58.4106 207.068 58.3332L206.678 62.6297C205.701 62.9537 204.646 63.103 203.514 63.0771C201.704 63.0511 200.356 62.487 199.471 61.3853C198.585 60.2837 198.221 58.7933 198.377 56.9137L200.193 45.8121H197.205L197.928 41.6902H200.916L201.814 36.5186H207.342ZM221.736 56.797C221.945 55.7601 221.222 55.0083 219.568 54.5417L217.791 54.0945C213.585 52.941 211.541 50.906 211.658 47.9896C211.723 46.0065 212.602 44.3928 214.295 43.1484C216.001 41.8911 218.051 41.2754 220.447 41.3014C222.83 41.3273 224.757 41.9559 226.229 43.1873C227.7 44.4186 228.449 46.0583 228.475 48.1063L223.006 48.0868C223.032 46.2851 222.134 45.3713 220.311 45.3454C219.451 45.3454 218.702 45.5593 218.064 45.987C217.439 46.4148 217.055 46.9916 216.912 47.7174C216.717 48.7543 217.505 49.4867 219.275 49.9144L220.057 50.0894C221.854 50.5171 223.227 51.0097 224.178 51.567C225.128 52.1114 225.857 52.7919 226.365 53.6085C226.886 54.4251 227.127 55.4036 227.088 56.5443C227.049 57.8793 226.612 59.046 225.779 60.0437C224.959 61.0419 223.826 61.8134 222.381 62.3576C220.949 62.9017 219.438 63.1545 217.85 63.1158C215.506 63.0898 213.553 62.4223 211.99 61.1132C210.428 59.7909 209.633 58.0867 209.607 55.9999L214.803 56.0387C214.855 58.0479 215.936 59.0654 218.045 59.0914C219.061 59.0914 219.894 58.884 220.545 58.4692C221.209 58.0543 221.606 57.497 221.736 56.797Z" fill="black"/>
</g>
<g clip-path="url(#clip1)">
<g style="mix-blend-mode:hard-light">
<g style="mix-blend-mode:hard-light">
<path d="M79.7966 0H0V53.4579H79.7966V0Z" fill="#FFE600"/>
</g>
</g>
<g style="mix-blend-mode:hard-light">
<g style="mix-blend-mode:hard-light">
<path d="M99.5591 26.542H35.7964V79.9999H99.5591V26.542Z" fill="#EC008C"/>
</g>
</g>
<g style="mix-blend-mode:difference">
<g style="mix-blend-mode:difference">
<path d="M110 3.36426H68.6104V50.0932H110V3.36426Z" fill="#5BEF00"/>
</g>
</g>
</g>
<path d="M308.686 33.9302C308.936 32.6345 308.242 31.6314 306.604 30.9204L303.805 29.7509C299.88 27.9737 298.014 25.5544 298.208 22.493C298.287 21.0941 298.765 19.8501 299.641 18.7608C300.517 17.6601 301.729 16.8059 303.276 16.1982C304.823 15.5905 306.513 15.2981 308.345 15.3211C310.802 15.3669 312.776 16.0893 314.266 17.4881C315.768 18.887 316.507 20.7616 316.485 23.1121H310.682C310.717 22.149 310.512 21.3808 310.068 20.8075C309.636 20.2227 308.919 19.9189 307.918 19.896C306.939 19.873 306.075 20.1024 305.324 20.5839C304.573 21.0655 304.129 21.7133 303.993 22.5274C303.777 23.674 304.619 24.6142 306.519 25.348C308.43 26.0817 309.818 26.7125 310.682 27.2398C313.402 28.8795 314.676 31.0924 314.505 33.8786C314.414 35.3233 313.953 36.5903 313.123 37.6795C312.292 38.7687 311.138 39.6116 309.659 40.2078C308.191 40.8039 306.541 41.0906 304.71 41.0678C303.367 41.0448 302.121 40.8327 300.972 40.4314C299.823 40.0301 298.839 39.4453 298.02 38.6771C296.359 37.1292 295.563 35.094 295.631 32.5714L301.484 32.5887C301.416 33.8729 301.661 34.8475 302.218 35.5126C302.776 36.166 303.714 36.4929 305.034 36.4929C306.012 36.4929 306.826 36.2693 307.474 35.822C308.134 35.3634 308.538 34.7328 308.686 33.9302ZM339.621 41.0505C337.038 40.9932 334.968 40.1333 333.409 38.4708C331.851 36.8081 330.969 34.5838 330.764 31.7976C330.65 30.4217 330.758 28.8049 331.088 26.9476C331.418 25.0786 332.004 23.3587 332.846 21.7878C333.688 20.217 334.74 18.9099 336.003 17.8665C338.119 16.1122 340.554 15.2638 343.307 15.3211C345.002 15.3555 346.481 15.7511 347.744 16.5078C349.018 17.2531 350.036 18.3309 350.798 19.7412C351.561 21.1515 352.004 22.7567 352.13 24.5569C352.22 25.8296 352.141 27.28 351.891 28.9082C351.652 30.5249 351.202 32.0727 350.543 33.5519C349.894 35.0194 349.052 36.3151 348.017 37.4387C346.982 38.5624 345.759 39.4568 344.348 40.1218C342.949 40.7754 341.373 41.0848 339.621 41.0505ZM346.276 24.5053C346.162 21.6388 345.059 20.1482 342.966 20.0335C341.35 19.9533 340.013 20.6011 338.955 21.977C337.897 23.3415 337.198 25.3595 336.856 28.031C336.64 29.682 336.56 30.9605 336.617 31.8664C336.731 34.7786 337.846 36.2749 339.962 36.3552C341.35 36.424 342.545 35.9254 343.546 34.859C344.547 33.7812 345.269 32.2217 345.713 30.1809C346.157 28.1284 346.345 26.2366 346.276 24.5053ZM372.518 36.0628H382.638L381.836 40.7065H365.88L370.18 15.665H376.034L372.518 36.0628ZM403.607 40.7065H397.771L402.088 15.665H407.907L403.607 40.7065ZM420.719 40.7065L425.02 15.665L432.323 15.6823C434.474 15.6823 436.351 16.2556 437.955 17.4021C439.559 18.5373 440.697 20.0909 441.368 22.063C441.948 23.7944 442.124 25.6633 441.897 27.6698L441.777 28.719C441.47 30.9663 440.731 33.0015 439.559 34.8246C438.387 36.6476 436.88 38.0808 435.037 39.1242C433.194 40.1563 431.203 40.6835 429.064 40.7065H420.719ZM430.071 20.3259L427.357 36.0628L429.064 36.0801C431.066 36.0801 432.67 35.3003 433.876 33.741C435.094 32.1816 435.816 29.7967 436.044 26.5864L436.078 26.0188C436.157 24.1842 435.873 22.7911 435.224 21.8394C434.576 20.8878 433.603 20.389 432.306 20.3431L430.071 20.3259Z" fill="#212121"/>
<path d="M312.106 54.9241C312.356 53.0896 311.412 51.7481 309.273 50.8997L306.321 49.8162L305.331 49.3861C302.009 47.8611 300.456 45.717 300.672 42.9538C300.786 41.5664 301.258 40.3395 302.089 39.2731C302.919 38.2069 304.017 37.3871 305.382 36.8138C306.759 36.229 308.221 35.9539 309.768 35.9882C311.27 36.0227 312.606 36.3609 313.778 37.003C314.961 37.6451 315.86 38.5451 316.475 39.7032C317.089 40.8497 317.362 42.1454 317.294 43.5901L314.068 43.5729C314.182 42.0365 313.841 40.8497 313.044 40.0128C312.248 39.1642 311.11 38.7286 309.631 38.7056C308.073 38.6828 306.77 39.0496 305.724 39.8063C304.677 40.5631 304.074 41.595 303.915 42.9022C303.687 44.6105 304.728 45.9062 307.038 46.7892L309.58 47.7006L310.86 48.2511C314.068 49.7416 315.553 51.9546 315.314 54.8898C315.189 56.3001 314.717 57.5211 313.898 58.5532C313.079 59.5736 311.964 60.3646 310.553 60.9266C309.154 61.4884 307.646 61.752 306.031 61.7177C304.472 61.7062 303.044 61.3737 301.747 60.7201C300.462 60.0552 299.483 59.1493 298.812 58.0027C298.141 56.8562 297.845 55.5547 297.925 54.0987L301.133 54.1158C301.031 55.6065 301.429 56.7931 302.328 57.676C303.238 58.5474 304.518 58.9945 306.167 59.0175C307.817 59.0404 309.176 58.6793 310.246 57.9339C311.315 57.1886 311.935 56.1855 312.106 54.9241ZM340.498 61.7177C338.917 61.6834 337.54 61.2991 336.369 60.5654C335.208 59.8316 334.292 58.7537 333.621 57.332C332.95 55.8988 332.58 54.2935 332.512 52.5163C332.443 51.129 332.597 49.4147 332.973 47.3739C333.348 45.333 333.996 43.4927 334.918 41.8531C335.839 40.2134 336.96 38.9006 338.28 37.9145C340.066 36.5845 342.102 35.9424 344.389 35.9882C346.812 36.034 348.724 36.8826 350.123 38.5336C351.522 40.1733 352.273 42.3978 352.376 45.2068C352.421 46.4107 352.296 47.9415 352 49.7989C351.716 51.6564 351.198 53.382 350.447 54.9757C349.708 56.5695 348.763 57.9053 347.614 58.983C345.612 60.8635 343.24 61.775 340.498 61.7177ZM349.218 45.9979C349.287 43.7391 348.894 41.9907 348.041 40.7523C347.188 39.5026 345.919 38.8548 344.236 38.8089C342.711 38.7629 341.346 39.1757 340.14 40.0471C338.945 40.9186 337.961 42.2258 337.188 43.9684C336.425 45.6999 335.942 47.8956 335.737 50.5557L335.686 51.6735C335.618 53.921 336.016 55.6809 336.88 56.9536C337.745 58.2263 339.002 58.8856 340.652 58.9315C342.802 58.9888 344.583 58.2092 345.993 56.5925C347.415 54.9644 348.36 52.6826 348.826 49.7474C349.054 48.3027 349.184 47.0528 349.218 45.9979ZM371.484 58.6736H382.918L382.44 61.3737H367.798L372.116 36.3322H375.341L371.484 58.6736ZM402.59 61.3737H399.399L403.716 36.3322H406.907L402.59 61.3737ZM421.477 61.3737L425.795 36.3322L432.245 36.3494C434.27 36.3494 436.011 36.8596 437.467 37.8802C438.935 38.9006 439.987 40.311 440.624 42.1109C441.261 43.8998 441.449 45.9062 441.187 48.1307L441.017 49.3861C440.516 53.0323 439.111 55.9447 436.802 58.1231C434.492 60.2902 431.591 61.3737 428.098 61.3737H421.477ZM428.525 39.0496L425.146 58.6736L428.303 58.6906C430.715 58.6906 432.757 57.9339 434.429 56.4205C436.113 54.907 437.205 52.8316 437.706 50.1945C438.104 48.0847 438.241 46.2903 438.116 44.8113C437.945 43.0341 437.359 41.6467 436.358 40.6492C435.357 39.6401 434.014 39.1126 432.33 39.0668L428.525 39.0496Z" fill="#EA5E46"/>
<defs>
<clipPath id="clip0">
<rect width="75" height="73" fill="white" transform="translate(165 3)"/>
</clipPath>
<clipPath id="clip1">
<rect width="110" height="80" fill="white"/>
</clipPath>
</defs>
</svg>
