<svg width="617" height="341" viewBox="0 0 617 341" fill="none" xmlns="http://www.w3.org/2000/svg">
<rect width="617" height="341" fill="white"/>
<g style="mix-blend-mode:hard-light">
<rect x="23" y="28" width="214" height="143" fill="#FFE600"/>
</g>
<g style="mix-blend-mode:hard-light">
<rect x="119" y="99" width="171" height="143" fill="#EC008C"/>
</g>
<path d="M50.8467 228V190.32H62.9839C66.3136 190.32 69.307 191.079 71.9639 192.598C74.6208 194.099 76.6911 196.229 78.1748 198.99C79.6758 201.733 80.4349 204.812 80.4521 208.229V209.962C80.4521 213.413 79.7189 216.51 78.2524 219.253C76.8032 221.979 74.7502 224.118 72.0933 225.671C69.4536 227.206 66.5034 227.983 63.2427 228H50.8467ZM59.9302 197.333V221.013H63.0874C65.6925 221.013 67.6938 220.09 69.0913 218.244C70.4888 216.38 71.1875 213.62 71.1875 209.962V208.332C71.1875 204.692 70.4888 201.949 69.0913 200.103C67.6938 198.257 65.658 197.333 62.9839 197.333H59.9302ZM83.6094 213.741C83.6094 210.946 84.1528 208.461 85.2397 206.288C86.3267 204.097 87.888 202.414 89.9238 201.241C91.9596 200.068 94.3491 199.481 97.0923 199.481C101.285 199.481 104.589 200.784 107.004 203.389C109.419 205.977 110.627 209.505 110.627 213.974V214.284C110.627 218.649 109.411 222.117 106.978 224.688C104.563 227.241 101.285 228.518 97.144 228.518C93.1587 228.518 89.9583 227.327 87.543 224.946C85.1276 222.548 83.825 219.305 83.6353 215.216L83.6094 213.741ZM92.3306 214.284C92.3306 216.872 92.736 218.77 93.5469 219.978C94.3577 221.185 95.5568 221.789 97.144 221.789C100.25 221.789 101.837 219.4 101.906 214.621V213.741C101.906 208.72 100.301 206.21 97.0923 206.21C94.1766 206.21 92.598 208.375 92.3564 212.706L92.3306 214.284ZM122.712 199.999L122.997 203.286C124.981 200.75 127.647 199.481 130.994 199.481C134.53 199.481 136.92 200.888 138.162 203.7C140.06 200.888 142.803 199.481 146.392 199.481C152.068 199.481 154.983 202.915 155.139 209.781V228H146.392V210.325C146.392 208.893 146.15 207.849 145.667 207.193C145.184 206.538 144.304 206.21 143.027 206.21C141.302 206.21 140.017 206.978 139.171 208.513L139.197 208.875V228H130.45V210.376C130.45 208.91 130.217 207.849 129.751 207.193C129.286 206.538 128.397 206.21 127.086 206.21C125.412 206.21 124.136 206.978 123.256 208.513V228H114.535V199.999H122.712ZM175.894 228C175.583 227.431 175.307 226.594 175.065 225.49C173.461 227.508 171.218 228.518 168.337 228.518C165.697 228.518 163.454 227.724 161.608 226.137C159.762 224.532 158.839 222.522 158.839 220.107C158.839 217.07 159.961 214.776 162.204 213.223C164.446 211.67 167.707 210.894 171.986 210.894H174.677V209.419C174.677 206.848 173.564 205.563 171.339 205.563C169.269 205.563 168.233 206.581 168.233 208.617H159.512C159.512 205.908 160.66 203.708 162.954 202.018C165.266 200.327 168.208 199.481 171.779 199.481C175.35 199.481 178.171 200.353 180.241 202.095C182.312 203.838 183.373 206.227 183.424 209.264V221.66C183.459 224.23 183.856 226.197 184.615 227.56V228H175.894ZM170.433 222.307C171.52 222.307 172.417 222.074 173.125 221.608C173.849 221.142 174.367 220.616 174.677 220.029V215.552H172.141C169.105 215.552 167.586 216.915 167.586 219.641C167.586 220.435 167.854 221.082 168.389 221.582C168.924 222.065 169.605 222.307 170.433 222.307ZM197.477 228H188.729V199.999H197.477V228ZM188.212 192.779C188.212 191.537 188.66 190.519 189.558 189.725C190.455 188.931 191.619 188.535 193.051 188.535C194.483 188.535 195.648 188.931 196.545 189.725C197.442 190.519 197.891 191.537 197.891 192.779C197.891 194.021 197.442 195.039 196.545 195.833C195.648 196.626 194.483 197.023 193.051 197.023C191.619 197.023 190.455 196.626 189.558 195.833C188.66 195.039 188.212 194.021 188.212 192.779ZM210.882 199.999L211.167 203.286C213.099 200.75 215.764 199.481 219.163 199.481C222.079 199.481 224.253 200.353 225.685 202.095C227.134 203.838 227.884 206.46 227.936 209.962V228H219.189V210.325C219.189 208.91 218.904 207.875 218.335 207.219C217.766 206.546 216.73 206.21 215.229 206.21C213.521 206.21 212.253 206.883 211.425 208.229V228H202.704V199.999H210.882ZM249.83 215.138H234.276V208.384H249.83V215.138ZM257.05 228V190.32H269.187C272.517 190.32 275.51 191.079 278.167 192.598C280.824 194.099 282.894 196.229 284.378 198.99C285.879 201.733 286.638 204.812 286.655 208.229V209.962C286.655 213.413 285.922 216.51 284.456 219.253C283.006 221.979 280.953 224.118 278.296 225.671C275.657 227.206 272.707 227.983 269.446 228H257.05ZM266.133 197.333V221.013H269.291C271.896 221.013 273.897 220.09 275.294 218.244C276.692 216.38 277.391 213.62 277.391 209.962V208.332C277.391 204.692 276.692 201.949 275.294 200.103C273.897 198.257 271.861 197.333 269.187 197.333H266.133ZM307.85 207.892L304.978 207.685C302.234 207.685 300.475 208.548 299.698 210.273V228H290.977V199.999H299.155L299.439 203.596C300.906 200.853 302.95 199.481 305.573 199.481C306.504 199.481 307.315 199.585 308.005 199.792L307.85 207.892ZM320.194 228H311.447V199.999H320.194V228ZM310.93 192.779C310.93 191.537 311.378 190.519 312.275 189.725C313.173 188.931 314.337 188.535 315.769 188.535C317.201 188.535 318.366 188.931 319.263 189.725C320.16 190.519 320.608 191.537 320.608 192.779C320.608 194.021 320.16 195.039 319.263 195.833C318.366 196.626 317.201 197.023 315.769 197.023C314.337 197.023 313.173 196.626 312.275 195.833C311.378 195.039 310.93 194.021 310.93 192.779ZM336.757 217.623L341.182 199.999H350.369L341.234 228H332.332L323.196 199.999H332.409L336.757 217.623ZM366.155 228.518C361.859 228.518 358.383 227.241 355.726 224.688C353.069 222.117 351.741 218.778 351.741 214.672V213.948C351.741 211.084 352.267 208.556 353.319 206.365C354.389 204.174 355.942 202.483 357.978 201.293C360.013 200.085 362.429 199.481 365.224 199.481C369.157 199.481 372.263 200.706 374.54 203.156C376.817 205.589 377.956 208.988 377.956 213.353V216.743H360.617C360.928 218.313 361.609 219.546 362.662 220.443C363.714 221.34 365.077 221.789 366.75 221.789C369.511 221.789 371.667 220.823 373.22 218.891L377.206 223.601C376.119 225.102 374.575 226.301 372.573 227.198C370.589 228.078 368.45 228.518 366.155 228.518ZM365.172 206.21C362.618 206.21 361.1 207.901 360.617 211.282H369.416V210.609C369.451 209.212 369.097 208.134 368.355 207.375C367.613 206.598 366.552 206.21 365.172 206.21ZM389.498 199.999L389.783 203.286C391.715 200.75 394.381 199.481 397.779 199.481C400.695 199.481 402.869 200.353 404.301 202.095C405.75 203.838 406.5 206.46 406.552 209.962V228H397.805V210.325C397.805 208.91 397.521 207.875 396.951 207.219C396.382 206.546 395.347 206.21 393.846 206.21C392.138 206.21 390.87 206.883 390.042 208.229V228H381.32V199.999H389.498ZM425.004 228V190.32H437.141C440.471 190.32 443.464 191.079 446.121 192.598C448.778 194.099 450.848 196.229 452.332 198.99C453.833 201.733 454.592 204.812 454.609 208.229V209.962C454.609 213.413 453.876 216.51 452.41 219.253C450.96 221.979 448.907 224.118 446.25 225.671C443.611 227.206 440.661 227.983 437.4 228H425.004ZM434.087 197.333V221.013H437.245C439.85 221.013 441.851 220.09 443.249 218.244C444.646 216.38 445.345 213.62 445.345 209.962V208.332C445.345 204.692 444.646 201.949 443.249 200.103C441.851 198.257 439.815 197.333 437.141 197.333H434.087ZM472.414 228.518C468.118 228.518 464.642 227.241 461.985 224.688C459.328 222.117 458 218.778 458 214.672V213.948C458 211.084 458.526 208.556 459.578 206.365C460.648 204.174 462.201 202.483 464.236 201.293C466.272 200.085 468.688 199.481 471.482 199.481C475.416 199.481 478.521 200.706 480.799 203.156C483.076 205.589 484.215 208.988 484.215 213.353V216.743H466.876C467.187 218.313 467.868 219.546 468.92 220.443C469.973 221.34 471.336 221.789 473.009 221.789C475.77 221.789 477.926 220.823 479.479 218.891L483.464 223.601C482.377 225.102 480.833 226.301 478.832 227.198C476.848 228.078 474.709 228.518 472.414 228.518ZM471.431 206.21C468.877 206.21 467.359 207.901 466.876 211.282H475.675V210.609C475.709 209.212 475.356 208.134 474.614 207.375C473.872 206.598 472.811 206.21 471.431 206.21ZM502.408 220.133C502.408 219.391 502.02 218.796 501.243 218.347C500.467 217.899 498.992 217.433 496.818 216.95C494.644 216.467 492.85 215.837 491.435 215.061C490.02 214.267 488.942 213.309 488.2 212.188C487.458 211.067 487.087 209.781 487.087 208.332C487.087 205.761 488.148 203.648 490.271 201.992C492.393 200.318 495.17 199.481 498.604 199.481C502.296 199.481 505.263 200.318 507.506 201.992C509.749 203.665 510.87 205.865 510.87 208.591H502.123C502.123 206.348 500.941 205.227 498.578 205.227C497.663 205.227 496.896 205.485 496.274 206.003C495.653 206.503 495.343 207.133 495.343 207.892C495.343 208.668 495.722 209.298 496.481 209.781C497.241 210.264 498.448 210.661 500.104 210.972C501.778 211.282 503.244 211.653 504.504 212.084C508.714 213.534 510.818 216.13 510.818 219.874C510.818 222.427 509.68 224.506 507.402 226.111C505.142 227.715 502.209 228.518 498.604 228.518C496.205 228.518 494.066 228.086 492.186 227.224C490.305 226.361 488.839 225.188 487.786 223.704C486.734 222.22 486.208 220.659 486.208 219.02H494.359C494.394 220.314 494.825 221.263 495.653 221.867C496.481 222.453 497.542 222.747 498.836 222.747C500.027 222.747 500.915 222.505 501.502 222.022C502.106 221.539 502.408 220.909 502.408 220.133ZM524.12 228H515.373V199.999H524.12V228ZM514.855 192.779C514.855 191.537 515.304 190.519 516.201 189.725C517.098 188.931 518.263 188.535 519.695 188.535C521.127 188.535 522.291 188.931 523.188 189.725C524.086 190.519 524.534 191.537 524.534 192.779C524.534 194.021 524.086 195.039 523.188 195.833C522.291 196.626 521.127 197.023 519.695 197.023C518.263 197.023 517.098 196.626 516.201 195.833C515.304 195.039 514.855 194.021 514.855 192.779ZM528.494 213.792C528.494 210.963 528.959 208.461 529.891 206.288C530.823 204.114 532.16 202.44 533.902 201.267C535.645 200.077 537.672 199.481 539.984 199.481C542.9 199.481 545.177 200.465 546.816 202.432L547.126 199.999H555.045V226.939C555.045 229.406 554.467 231.545 553.312 233.357C552.173 235.186 550.517 236.583 548.343 237.549C546.169 238.533 543.65 239.024 540.786 239.024C538.733 239.024 536.74 238.636 534.808 237.86C532.893 237.083 531.427 236.074 530.409 234.832L534.058 229.708C535.679 231.623 537.819 232.581 540.476 232.581C544.34 232.581 546.272 230.597 546.272 226.628V225.749C544.599 227.595 542.486 228.518 539.932 228.518C536.516 228.518 533.756 227.215 531.651 224.61C529.546 221.987 528.494 218.485 528.494 214.103V213.792ZM537.241 214.336C537.241 216.631 537.672 218.451 538.535 219.796C539.397 221.125 540.605 221.789 542.158 221.789C544.038 221.789 545.41 221.159 546.272 219.9V208.125C545.427 206.848 544.073 206.21 542.209 206.21C540.657 206.21 539.44 206.909 538.561 208.306C537.681 209.686 537.241 211.696 537.241 214.336ZM568.011 199.999L568.295 203.286C570.228 200.75 572.893 199.481 576.292 199.481C579.208 199.481 581.382 200.353 582.813 202.095C584.263 203.838 585.013 206.46 585.065 209.962V228H576.318V210.325C576.318 208.91 576.033 207.875 575.464 207.219C574.895 206.546 573.859 206.21 572.358 206.21C570.65 206.21 569.382 206.883 568.554 208.229V228H559.833V199.999H568.011Z" fill="black"/>
<path d="M329.426 243.333H318.117V274H309.034V243.333H297.932V236.32H329.426V243.333ZM341.952 261.785L346.61 245.999H355.952L344.54 278.684L344.048 279.875C342.426 283.498 339.562 285.309 335.456 285.309C334.317 285.309 333.118 285.137 331.859 284.792V278.555H332.998C334.222 278.555 335.154 278.374 335.792 278.011C336.448 277.666 336.931 277.036 337.242 276.122L337.94 274.259L328.21 245.999H337.526L341.952 261.785ZM384.238 260.207C384.238 264.554 383.254 268.031 381.288 270.636C379.338 273.224 376.698 274.518 373.369 274.518C370.798 274.518 368.685 273.577 367.028 271.697V284.766H358.307V245.999H366.459L366.718 248.587C368.391 246.517 370.591 245.481 373.317 245.481C376.767 245.481 379.45 246.758 381.365 249.312C383.28 251.848 384.238 255.341 384.238 259.792V260.207ZM375.517 259.663C375.517 254.694 374.067 252.21 371.169 252.21C369.099 252.21 367.718 252.952 367.028 254.436V265.46C367.787 267.013 369.185 267.789 371.221 267.789C373.998 267.789 375.43 265.391 375.517 260.595V259.663ZM401.654 274.518C397.358 274.518 393.882 273.241 391.225 270.688C388.568 268.117 387.24 264.778 387.24 260.672V259.948C387.24 257.084 387.766 254.556 388.818 252.365C389.888 250.174 391.441 248.483 393.477 247.293C395.512 246.085 397.928 245.481 400.723 245.481C404.656 245.481 407.762 246.706 410.039 249.156C412.316 251.589 413.455 254.988 413.455 259.353V262.743H396.116C396.427 264.313 397.108 265.546 398.161 266.443C399.213 267.34 400.576 267.789 402.25 267.789C405.01 267.789 407.167 266.823 408.719 264.891L412.705 269.601C411.618 271.102 410.074 272.301 408.072 273.198C406.088 274.078 403.949 274.518 401.654 274.518ZM400.671 252.21C398.118 252.21 396.599 253.901 396.116 257.282H404.915V256.609C404.95 255.212 404.596 254.134 403.854 253.375C403.112 252.598 402.051 252.21 400.671 252.21ZM436.824 263.985C436.824 262.656 436.349 261.621 435.4 260.879C434.469 260.138 432.821 259.37 430.458 258.576C428.094 257.783 426.162 257.015 424.661 256.273C419.778 253.875 417.337 250.58 417.337 246.387C417.337 244.3 417.941 242.462 419.148 240.875C420.373 239.271 422.099 238.028 424.324 237.148C426.55 236.251 429.051 235.803 431.829 235.803C434.538 235.803 436.962 236.286 439.101 237.252C441.258 238.218 442.931 239.598 444.122 241.393C445.312 243.17 445.907 245.205 445.907 247.5H436.85C436.85 245.965 436.375 244.774 435.426 243.929C434.495 243.083 433.227 242.661 431.622 242.661C430 242.661 428.715 243.023 427.766 243.748C426.834 244.455 426.369 245.361 426.369 246.465C426.369 247.431 426.886 248.311 427.921 249.104C428.957 249.881 430.777 250.692 433.382 251.537C435.987 252.365 438.126 253.262 439.8 254.229C443.871 256.575 445.907 259.81 445.907 263.933C445.907 267.228 444.665 269.816 442.181 271.697C439.696 273.577 436.289 274.518 431.958 274.518C428.905 274.518 426.136 273.974 423.651 272.887C421.184 271.783 419.321 270.282 418.062 268.384C416.819 266.469 416.198 264.27 416.198 261.785H425.308C425.308 263.804 425.825 265.296 426.86 266.262C427.913 267.211 429.612 267.686 431.958 267.686C433.459 267.686 434.641 267.366 435.504 266.728C436.384 266.072 436.824 265.158 436.824 263.985ZM462.004 267.789C463.229 267.789 464.178 267.461 464.851 266.806C465.523 266.133 465.851 265.201 465.834 264.011H474.012C474.012 267.082 472.908 269.601 470.699 271.567C468.508 273.534 465.679 274.518 462.211 274.518C458.139 274.518 454.93 273.241 452.584 270.688C450.238 268.134 449.064 264.597 449.064 260.077V259.715C449.064 256.885 449.582 254.392 450.617 252.236C451.67 250.062 453.179 248.397 455.146 247.241C457.113 246.068 459.442 245.481 462.133 245.481C465.774 245.481 468.663 246.491 470.803 248.509C472.942 250.528 474.012 253.262 474.012 256.713H465.834C465.834 255.264 465.48 254.151 464.773 253.375C464.066 252.598 463.117 252.21 461.926 252.21C459.666 252.21 458.346 253.651 457.967 256.532C457.846 257.446 457.786 258.706 457.786 260.31C457.786 263.122 458.122 265.072 458.795 266.159C459.468 267.246 460.537 267.789 462.004 267.789ZM494.637 253.892L491.765 253.685C489.021 253.685 487.262 254.548 486.485 256.273V274H477.764V245.999H485.942L486.227 249.596C487.693 246.853 489.737 245.481 492.36 245.481C493.292 245.481 494.102 245.585 494.792 245.792L494.637 253.892ZM506.981 274H498.234V245.999H506.981V274ZM497.717 238.779C497.717 237.537 498.165 236.519 499.062 235.725C499.96 234.931 501.124 234.535 502.556 234.535C503.988 234.535 505.153 234.931 506.05 235.725C506.947 236.519 507.396 237.537 507.396 238.779C507.396 240.021 506.947 241.039 506.05 241.833C505.153 242.626 503.988 243.023 502.556 243.023C501.124 243.023 499.96 242.626 499.062 241.833C498.165 241.039 497.717 240.021 497.717 238.779ZM538.373 260.207C538.373 264.554 537.389 268.031 535.422 270.636C533.473 273.224 530.833 274.518 527.503 274.518C524.933 274.518 522.819 273.577 521.163 271.697V284.766H512.442V245.999H520.594L520.853 248.587C522.526 246.517 524.726 245.481 527.452 245.481C530.902 245.481 533.585 246.758 535.5 249.312C537.415 251.848 538.373 255.341 538.373 259.792V260.207ZM529.651 259.663C529.651 254.694 528.202 252.21 525.304 252.21C523.233 252.21 521.853 252.952 521.163 254.436V265.46C521.922 267.013 523.32 267.789 525.355 267.789C528.133 267.789 529.565 265.391 529.651 260.595V259.663ZM552.399 239.038V245.999H557.005V252.055H552.399V264.865C552.399 265.917 552.589 266.65 552.968 267.064C553.348 267.479 554.098 267.686 555.22 267.686C556.082 267.686 556.807 267.634 557.394 267.53V273.767C555.824 274.267 554.185 274.518 552.477 274.518C549.475 274.518 547.258 273.81 545.826 272.396C544.394 270.981 543.678 268.833 543.678 265.952V252.055H540.106V245.999H543.678V239.038H552.399Z" fill="black"/>
<path d="M256.059 268.797L257.336 261.32H261.121L258.133 274H254.793L252.695 266.477L250.586 274H247.246L244.258 261.32H248.043L249.297 268.973L251.312 261.32H254.066L256.059 268.797ZM266.711 274H262.75V261.32H266.711V274ZM262.516 258.051C262.516 257.488 262.719 257.027 263.125 256.668C263.531 256.309 264.059 256.129 264.707 256.129C265.355 256.129 265.883 256.309 266.289 256.668C266.695 257.027 266.898 257.488 266.898 258.051C266.898 258.613 266.695 259.074 266.289 259.434C265.883 259.793 265.355 259.973 264.707 259.973C264.059 259.973 263.531 259.793 263.125 259.434C262.719 259.074 262.516 258.613 262.516 258.051ZM273.754 258.168V261.32H275.84V264.062H273.754V269.863C273.754 270.34 273.84 270.672 274.012 270.859C274.184 271.047 274.523 271.141 275.031 271.141C275.422 271.141 275.75 271.117 276.016 271.07V273.895C275.305 274.121 274.562 274.234 273.789 274.234C272.43 274.234 271.426 273.914 270.777 273.273C270.129 272.633 269.805 271.66 269.805 270.355V264.062H268.188V261.32H269.805V258.168H273.754ZM281.266 262.68C282.109 261.617 283.188 261.086 284.5 261.086C285.898 261.086 286.953 261.5 287.664 262.328C288.375 263.156 288.738 264.379 288.754 265.996V274H284.793V266.09C284.793 265.418 284.656 264.926 284.383 264.613C284.109 264.293 283.645 264.133 282.988 264.133C282.176 264.133 281.602 264.391 281.266 264.906V274H277.316V256H281.266V262.68Z" fill="black"/>
<g style="mix-blend-mode:difference">
<rect x="207" y="37" width="111" height="125" fill="#5BEF00"/>
</g>
<path d="M374.865 115.039L379.963 96.4062H386.854L378.24 122H371.49L362.947 96.4062H369.785L374.865 115.039ZM398.367 122C398.156 121.613 397.969 121.045 397.805 120.295C396.715 121.666 395.191 122.352 393.234 122.352C391.441 122.352 389.918 121.812 388.664 120.734C387.41 119.645 386.783 118.279 386.783 116.639C386.783 114.576 387.545 113.018 389.068 111.963C390.592 110.908 392.807 110.381 395.713 110.381H397.541V109.379C397.541 107.633 396.785 106.76 395.273 106.76C393.867 106.76 393.164 107.451 393.164 108.834H387.24C387.24 106.994 388.02 105.5 389.578 104.352C391.148 103.203 393.146 102.629 395.572 102.629C397.998 102.629 399.914 103.221 401.32 104.404C402.727 105.588 403.447 107.211 403.482 109.273V117.693C403.506 119.439 403.775 120.775 404.291 121.701V122H398.367ZM394.658 118.133C395.396 118.133 396.006 117.975 396.486 117.658C396.979 117.342 397.33 116.984 397.541 116.586V113.545H395.818C393.756 113.545 392.725 114.471 392.725 116.322C392.725 116.861 392.906 117.301 393.27 117.641C393.633 117.969 394.096 118.133 394.658 118.133ZM413.027 122H407.086V95H413.027V122ZM428.021 119.943C426.768 121.549 425.074 122.352 422.941 122.352C420.855 122.352 419.273 121.748 418.195 120.541C417.129 119.322 416.596 117.576 416.596 115.303V102.98H422.52V115.338C422.52 116.967 423.311 117.781 424.893 117.781C426.252 117.781 427.219 117.295 427.793 116.322V102.98H433.752V122H428.197L428.021 119.943ZM446.215 122.352C443.297 122.352 440.936 121.484 439.131 119.75C437.326 118.004 436.424 115.736 436.424 112.947V112.455C436.424 110.51 436.781 108.793 437.496 107.305C438.223 105.816 439.277 104.668 440.66 103.859C442.043 103.039 443.684 102.629 445.582 102.629C448.254 102.629 450.363 103.461 451.91 105.125C453.457 106.777 454.23 109.086 454.23 112.051V114.354H442.453C442.664 115.42 443.127 116.258 443.842 116.867C444.557 117.477 445.482 117.781 446.619 117.781C448.494 117.781 449.959 117.125 451.014 115.812L453.721 119.012C452.982 120.031 451.934 120.846 450.574 121.455C449.227 122.053 447.773 122.352 446.215 122.352ZM445.547 107.199C443.812 107.199 442.781 108.348 442.453 110.645H448.43V110.188C448.453 109.238 448.213 108.506 447.709 107.99C447.205 107.463 446.484 107.199 445.547 107.199ZM487.541 109.73C487.541 112.227 487.078 114.436 486.152 116.357C485.227 118.279 483.908 119.762 482.197 120.805C480.498 121.836 478.559 122.352 476.379 122.352C474.199 122.352 472.266 121.854 470.578 120.857C468.891 119.85 467.572 118.414 466.623 116.551C465.686 114.688 465.193 112.549 465.146 110.135V108.693C465.146 106.186 465.604 103.977 466.518 102.066C467.443 100.145 468.762 98.6621 470.473 97.6191C472.195 96.5762 474.152 96.0547 476.344 96.0547C478.512 96.0547 480.445 96.5703 482.145 97.6016C483.844 98.6328 485.162 100.104 486.1 102.014C487.049 103.912 487.529 106.092 487.541 108.553V109.73ZM481.266 108.658C481.266 106.115 480.838 104.188 479.982 102.875C479.139 101.551 477.926 100.889 476.344 100.889C473.25 100.889 471.615 103.209 471.439 107.85L471.422 109.73C471.422 112.238 471.838 114.166 472.67 115.514C473.502 116.861 474.738 117.535 476.379 117.535C477.938 117.535 479.139 116.873 479.982 115.549C480.826 114.225 481.254 112.32 481.266 109.836V108.658ZM508.107 112.648C508.107 115.766 507.463 118.162 506.174 119.838C504.885 121.514 503.068 122.352 500.725 122.352C498.791 122.352 497.232 121.584 496.049 120.049L495.803 122H490.494V95H496.418V104.51C497.52 103.256 498.943 102.629 500.689 102.629C503.057 102.629 504.885 103.479 506.174 105.178C507.463 106.877 508.107 109.268 508.107 112.35V112.648ZM502.166 112.279C502.166 110.451 501.92 109.15 501.428 108.377C500.947 107.592 500.203 107.199 499.195 107.199C497.859 107.199 496.934 107.709 496.418 108.729V116.287C496.922 117.295 497.859 117.799 499.23 117.799C500.625 117.799 501.51 117.119 501.885 115.76C502.072 115.092 502.166 113.932 502.166 112.279ZM517.107 102.98V122.65C517.096 124.9 516.451 126.635 515.174 127.854C513.896 129.072 512.115 129.682 509.83 129.682C508.846 129.682 507.914 129.582 507.035 129.383V124.9C507.715 125.006 508.271 125.059 508.705 125.059C510.346 125.059 511.166 124.244 511.166 122.615V102.98H517.107ZM510.727 98.0762C510.727 97.2324 511.031 96.541 511.641 96.002C512.25 95.4629 513.041 95.1934 514.014 95.1934C514.986 95.1934 515.777 95.4629 516.387 96.002C516.996 96.541 517.301 97.2324 517.301 98.0762C517.301 98.9199 516.996 99.6113 516.387 100.15C515.777 100.689 514.986 100.959 514.014 100.959C513.041 100.959 512.25 100.689 511.641 100.15C511.031 99.6113 510.727 98.9199 510.727 98.0762ZM529.676 122.352C526.758 122.352 524.396 121.484 522.592 119.75C520.787 118.004 519.885 115.736 519.885 112.947V112.455C519.885 110.51 520.242 108.793 520.957 107.305C521.684 105.816 522.738 104.668 524.121 103.859C525.504 103.039 527.145 102.629 529.043 102.629C531.715 102.629 533.824 103.461 535.371 105.125C536.918 106.777 537.691 109.086 537.691 112.051V114.354H525.914C526.125 115.42 526.588 116.258 527.303 116.867C528.018 117.477 528.943 117.781 530.08 117.781C531.955 117.781 533.42 117.125 534.475 115.812L537.182 119.012C536.443 120.031 535.395 120.846 534.035 121.455C532.688 122.053 531.234 122.352 529.676 122.352ZM529.008 107.199C527.273 107.199 526.242 108.348 525.914 110.645H531.891V110.188C531.914 109.238 531.674 108.506 531.17 107.99C530.666 107.463 529.945 107.199 529.008 107.199ZM548.133 117.781C548.965 117.781 549.609 117.559 550.066 117.113C550.523 116.656 550.746 116.023 550.734 115.215H556.289C556.289 117.301 555.539 119.012 554.039 120.348C552.551 121.684 550.629 122.352 548.273 122.352C545.508 122.352 543.328 121.484 541.734 119.75C540.141 118.016 539.344 115.613 539.344 112.543V112.297C539.344 110.375 539.695 108.682 540.398 107.217C541.113 105.74 542.139 104.609 543.475 103.824C544.811 103.027 546.393 102.629 548.221 102.629C550.693 102.629 552.656 103.314 554.109 104.686C555.562 106.057 556.289 107.914 556.289 110.258H550.734C550.734 109.273 550.494 108.518 550.014 107.99C549.533 107.463 548.889 107.199 548.08 107.199C546.545 107.199 545.648 108.178 545.391 110.135C545.309 110.756 545.268 111.611 545.268 112.701C545.268 114.611 545.496 115.936 545.953 116.674C546.41 117.412 547.137 117.781 548.133 117.781ZM565.693 98.252V102.98H568.822V107.094H565.693V115.795C565.693 116.51 565.822 117.008 566.08 117.289C566.338 117.57 566.848 117.711 567.609 117.711C568.195 117.711 568.688 117.676 569.086 117.605V121.842C568.02 122.182 566.906 122.352 565.746 122.352C563.707 122.352 562.201 121.871 561.229 120.91C560.256 119.949 559.77 118.49 559.77 116.533V107.094H557.344V102.98H559.77V98.252H565.693ZM581.127 116.656C581.127 116.152 580.863 115.748 580.336 115.443C579.809 115.139 578.807 114.822 577.33 114.494C575.854 114.166 574.635 113.738 573.674 113.211C572.713 112.672 571.98 112.021 571.477 111.26C570.973 110.498 570.721 109.625 570.721 108.641C570.721 106.895 571.441 105.459 572.883 104.334C574.324 103.197 576.211 102.629 578.543 102.629C581.051 102.629 583.066 103.197 584.59 104.334C586.113 105.471 586.875 106.965 586.875 108.816H580.934C580.934 107.293 580.131 106.531 578.525 106.531C577.904 106.531 577.383 106.707 576.961 107.059C576.539 107.398 576.328 107.826 576.328 108.342C576.328 108.869 576.586 109.297 577.102 109.625C577.617 109.953 578.438 110.223 579.562 110.434C580.699 110.645 581.695 110.896 582.551 111.189C585.41 112.174 586.84 113.938 586.84 116.48C586.84 118.215 586.066 119.627 584.52 120.717C582.984 121.807 580.992 122.352 578.543 122.352C576.914 122.352 575.461 122.059 574.184 121.473C572.906 120.887 571.91 120.09 571.195 119.082C570.48 118.074 570.123 117.014 570.123 115.9H575.66C575.684 116.779 575.977 117.424 576.539 117.834C577.102 118.232 577.822 118.432 578.701 118.432C579.51 118.432 580.113 118.268 580.512 117.939C580.922 117.611 581.127 117.184 581.127 116.656Z" fill="black"/>
</svg>
