<svg width="788" height="287" viewBox="0 0 788 287" fill="none" xmlns="http://www.w3.org/2000/svg">
<rect x="626.5" y="41.5" width="160" height="57" rx="2.5" fill="#7DE77B" stroke="black" stroke-width="3"/>
<path d="M684.703 68.5195V67.3418H689.543V68.5195H687.856V73.8105H689.543V75H684.703V73.8105H686.391V68.5195H684.703ZM695.022 75V71.666H692.42V75H690.979V67.3418H692.42V70.418H695.022V67.3418H696.463V75H695.022ZM699.252 69.0469V72.9258C699.252 73.25 699.313 73.4961 699.434 73.6641C699.555 73.8281 699.739 73.9102 699.985 73.9102C700.223 73.9102 700.452 73.8125 700.67 73.6172C700.893 73.418 701.127 73.1504 701.373 72.8145V69.0469H702.803V75H701.567L701.532 74.1211C701.407 74.2734 701.28 74.4121 701.151 74.5371C701.022 74.6621 700.881 74.7695 700.729 74.8594C700.58 74.9453 700.416 75.0117 700.237 75.0586C700.061 75.1094 699.866 75.1348 699.651 75.1348C699.346 75.1348 699.078 75.0859 698.848 74.9883C698.621 74.8867 698.432 74.7441 698.28 74.5605C698.127 74.377 698.012 74.1582 697.934 73.9043C697.86 73.6465 697.823 73.3594 697.823 73.043V69.0469H699.252ZM707.983 75V71.1211C707.983 70.4688 707.741 70.1426 707.256 70.1426C707.014 70.1426 706.782 70.2402 706.559 70.4355C706.34 70.6309 706.108 70.8965 705.862 71.2324V75H704.432V69.0469H705.668L705.703 69.9258C705.825 69.7734 705.95 69.6348 706.078 69.5098C706.211 69.3848 706.354 69.2793 706.506 69.1934C706.659 69.1035 706.823 69.0352 706.998 68.9883C707.174 68.9414 707.371 68.918 707.59 68.918C707.895 68.918 708.161 68.9688 708.387 69.0703C708.614 69.168 708.803 69.3086 708.955 69.4922C709.108 69.6719 709.221 69.8906 709.295 70.1484C709.373 70.4023 709.412 70.6875 709.412 71.0039V75H707.983ZM715.94 74.9414C715.682 75 715.422 75.0469 715.161 75.082C714.899 75.1172 714.651 75.1348 714.416 75.1348C714.026 75.1348 713.688 75.0938 713.403 75.0117C713.121 74.9297 712.887 74.8047 712.7 74.6367C712.516 74.4688 712.379 74.2559 712.289 73.998C712.203 73.7363 712.161 73.4258 712.161 73.0664V70.1602H710.561V69.0469H712.161V67.5234L713.625 67.1426V69.0469H715.94V70.1602H713.625V72.9609C713.625 73.3008 713.703 73.5586 713.86 73.7344C714.016 73.9062 714.278 73.9922 714.645 73.9922C714.879 73.9922 715.108 73.9727 715.33 73.9336C715.553 73.8945 715.756 73.8496 715.94 73.7988V74.9414ZM722.813 71.5664C722.813 71.6641 722.809 71.791 722.801 71.9473C722.797 72.1035 722.789 72.25 722.778 72.3867H718.864C718.864 72.6484 718.903 72.8789 718.981 73.0781C719.063 73.2773 719.176 73.4453 719.321 73.582C719.469 73.7148 719.645 73.8164 719.848 73.8867C720.055 73.957 720.284 73.9922 720.534 73.9922C720.823 73.9922 721.131 73.9707 721.459 73.9277C721.791 73.8809 722.135 73.8066 722.491 73.7051V74.8418C722.338 74.8848 722.172 74.9238 721.993 74.959C721.813 74.9941 721.629 75.0254 721.442 75.0527C721.254 75.0801 721.065 75.0996 720.873 75.1113C720.682 75.127 720.496 75.1348 720.317 75.1348C719.864 75.1348 719.457 75.0703 719.098 74.9414C718.739 74.8125 718.434 74.623 718.184 74.373C717.934 74.1191 717.743 73.8066 717.61 73.4355C717.477 73.0645 717.411 72.6348 717.411 72.1465C717.411 71.6621 717.477 71.2227 717.61 70.8281C717.743 70.4297 717.93 70.0898 718.172 69.8086C718.414 69.5234 718.707 69.3047 719.051 69.1523C719.399 68.9961 719.786 68.918 720.211 68.918C720.633 68.918 721.006 68.9844 721.33 69.1172C721.655 69.2461 721.926 69.4277 722.145 69.6621C722.364 69.8965 722.53 70.1758 722.643 70.5C722.756 70.8242 722.813 71.1797 722.813 71.5664ZM721.36 71.3613C721.364 71.127 721.334 70.9238 721.272 70.752C721.209 70.5762 721.123 70.4316 721.014 70.3184C720.909 70.2051 720.784 70.1211 720.639 70.0664C720.498 70.0117 720.346 69.9844 720.182 69.9844C719.823 69.9844 719.528 70.1055 719.297 70.3477C719.067 70.5859 718.93 70.9238 718.887 71.3613H721.36ZM728.057 71.3613C728.065 71.1387 728.053 70.9492 728.022 70.793C727.994 70.6367 727.948 70.5078 727.881 70.4062C727.819 70.3047 727.741 70.2305 727.647 70.1836C727.553 70.1367 727.446 70.1133 727.325 70.1133C727.114 70.1133 726.895 70.2012 726.668 70.377C726.446 70.5488 726.2 70.834 725.93 71.2324V75H724.465V69.0469H725.76L725.813 69.9141C725.911 69.7617 726.02 69.625 726.141 69.5039C726.266 69.3828 726.403 69.2793 726.551 69.1934C726.703 69.1035 726.871 69.0352 727.055 68.9883C727.239 68.9414 727.44 68.918 727.659 68.918C727.959 68.918 728.225 68.9707 728.455 69.0762C728.69 69.1777 728.885 69.3301 729.041 69.5332C729.202 69.7363 729.319 69.9922 729.393 70.3008C729.471 70.6055 729.504 70.959 729.493 71.3613H728.057Z" fill="black"/>
<rect x="-8.9407e-08" y="2.15697" width="27.5216" height="27.5216" rx="1.5" transform="matrix(0.695022 0.718988 -0.695022 0.718988 760.712 23.0199)" fill="#FFFD54" stroke="black" stroke-width="3"/>
<path d="M756.293 41.7055V40.5278H761.133V41.7055H759.445V46.9966H761.133V48.186H756.293V46.9966H757.98V41.7055H756.293Z" fill="black"/>
<rect x="372.5" y="20.5" width="232" height="80" rx="2.5" fill="#7DE77B" stroke="black" stroke-width="3"/>
<path d="M469.826 49L469.404 47.4883H466.732L466.298 49H464.869L467.136 41.3418H469.152L471.419 49H469.826ZM468.085 42.748L467.078 46.3105H469.081L468.085 42.748ZM475.808 49V45.1211C475.808 44.4688 475.566 44.1426 475.081 44.1426C474.839 44.1426 474.607 44.2402 474.384 44.4355C474.165 44.6309 473.933 44.8965 473.687 45.2324V49H472.257V43.0469H473.494L473.529 43.9258C473.65 43.7734 473.775 43.6348 473.904 43.5098C474.036 43.3848 474.179 43.2793 474.331 43.1934C474.484 43.1035 474.648 43.0352 474.824 42.9883C474.999 42.9414 475.197 42.918 475.415 42.918C475.72 42.918 475.986 42.9688 476.212 43.0703C476.439 43.168 476.628 43.3086 476.781 43.4922C476.933 43.6719 477.046 43.8906 477.12 44.1484C477.199 44.4023 477.238 44.6875 477.238 45.0039V49H475.808ZM482.359 41.418C482.359 41.5469 482.335 41.668 482.288 41.7812C482.242 41.8945 482.175 41.9941 482.089 42.0801C482.007 42.1621 481.91 42.2285 481.796 42.2793C481.683 42.3262 481.56 42.3496 481.427 42.3496C481.294 42.3496 481.169 42.3262 481.052 42.2793C480.939 42.2285 480.839 42.1621 480.753 42.0801C480.671 41.9941 480.607 41.8945 480.56 41.7812C480.513 41.668 480.49 41.5469 480.49 41.418C480.49 41.2891 480.513 41.168 480.56 41.0547C480.607 40.9414 480.671 40.8418 480.753 40.7559C480.839 40.6699 480.939 40.6035 481.052 40.5566C481.169 40.5059 481.294 40.4805 481.427 40.4805C481.56 40.4805 481.683 40.5059 481.796 40.5566C481.91 40.6035 482.007 40.6699 482.089 40.7559C482.175 40.8418 482.242 40.9414 482.288 41.0547C482.335 41.168 482.359 41.2891 482.359 41.418ZM480.777 44.1602H479.095V43.0469H482.242V47.8867H483.958V49H478.89V47.8867H480.777V44.1602ZM489.654 49V44.9453C489.654 44.7969 489.65 44.668 489.642 44.5586C489.634 44.4453 489.619 44.3516 489.595 44.2773C489.572 44.2031 489.536 44.1484 489.49 44.1133C489.447 44.0742 489.386 44.0547 489.308 44.0547C489.187 44.0547 489.068 44.1367 488.951 44.3008C488.833 44.4648 488.701 44.7441 488.552 45.1387V49H487.328V44.9453C487.328 44.7969 487.324 44.668 487.316 44.5586C487.308 44.4453 487.292 44.3516 487.269 44.2773C487.245 44.2031 487.21 44.1484 487.163 44.1133C487.117 44.0742 487.054 44.0547 486.976 44.0547C486.874 44.0547 486.761 44.1367 486.636 44.3008C486.511 44.4648 486.372 44.7441 486.22 45.1387V49H484.984V43.0469H486.044L486.068 43.9141C486.154 43.7383 486.24 43.5879 486.326 43.4629C486.411 43.3379 486.503 43.2363 486.601 43.1582C486.699 43.0762 486.802 43.0176 486.911 42.9824C487.025 42.9473 487.152 42.9297 487.292 42.9297C487.624 42.9297 487.876 43.0176 488.048 43.1934C488.224 43.3652 488.324 43.6055 488.347 43.9141C488.441 43.7383 488.533 43.5879 488.622 43.4629C488.716 43.3379 488.812 43.2363 488.91 43.1582C489.011 43.0762 489.119 43.0176 489.232 42.9824C489.349 42.9473 489.478 42.9297 489.619 42.9297C490.052 42.9297 490.372 43.082 490.579 43.3867C490.786 43.6875 490.89 44.1348 490.89 44.7285V49H489.654ZM495.783 49L495.747 48.2207C495.622 48.3535 495.492 48.4766 495.355 48.5898C495.218 48.6992 495.068 48.7949 494.904 48.877C494.74 48.959 494.56 49.0215 494.365 49.0645C494.173 49.1113 493.962 49.1348 493.732 49.1348C493.427 49.1348 493.16 49.0898 492.929 49C492.699 48.9102 492.505 48.7852 492.349 48.625C492.193 48.4648 492.074 48.2715 491.992 48.0449C491.913 47.8184 491.874 47.5684 491.874 47.2949C491.874 47.0137 491.933 46.7539 492.05 46.5156C492.171 46.2773 492.353 46.0723 492.595 45.9004C492.841 45.7285 493.146 45.5938 493.509 45.4961C493.876 45.3984 494.306 45.3496 494.798 45.3496H495.578V44.9922C495.578 44.8398 495.556 44.7031 495.513 44.582C495.47 44.457 495.4 44.3516 495.302 44.2656C495.208 44.1797 495.085 44.1133 494.933 44.0664C494.781 44.0195 494.593 43.9961 494.37 43.9961C494.019 43.9961 493.671 44.0371 493.328 44.1191C492.988 44.1973 492.658 44.3086 492.337 44.4531V43.3105C492.622 43.1973 492.951 43.1035 493.322 43.0293C493.697 42.9551 494.085 42.918 494.488 42.918C494.929 42.918 495.308 42.9609 495.624 43.0469C495.941 43.1289 496.201 43.2539 496.404 43.4219C496.611 43.5898 496.763 43.8008 496.861 44.0547C496.958 44.3047 497.007 44.5977 497.007 44.9336V49H495.783ZM495.578 46.3691H494.704C494.462 46.3691 494.257 46.3926 494.089 46.4395C493.921 46.4863 493.785 46.5508 493.679 46.6328C493.574 46.7148 493.495 46.8105 493.445 46.9199C493.398 47.0254 493.374 47.1387 493.374 47.2598C493.374 47.502 493.453 47.6875 493.609 47.8164C493.765 47.9414 493.978 48.0039 494.247 48.0039C494.447 48.0039 494.654 47.9316 494.869 47.7871C495.083 47.6426 495.32 47.4355 495.578 47.166V46.3691ZM500.57 41.834H498.888V40.7207H502.035V47.8867H503.751V49H498.683V47.8867H500.57V41.834Z" fill="black"/>
<line x1="371" y1="69.5" x2="606" y2="69.5" stroke="black" stroke-width="3"/>
<path d="M420.663 86.3984V88.6777H419.344V86.3984H417.159V85.2207H419.344V82.9531H420.663V85.2207H422.848V86.3984H420.663ZM434.913 89V84.9453C434.913 84.7969 434.909 84.668 434.901 84.5586C434.893 84.4453 434.878 84.3516 434.854 84.2773C434.831 84.2031 434.796 84.1484 434.749 84.1133C434.706 84.0742 434.645 84.0547 434.567 84.0547C434.446 84.0547 434.327 84.1367 434.21 84.3008C434.092 84.4648 433.96 84.7441 433.811 85.1387V89H432.587V84.9453C432.587 84.7969 432.583 84.668 432.575 84.5586C432.567 84.4453 432.551 84.3516 432.528 84.2773C432.505 84.2031 432.469 84.1484 432.423 84.1133C432.376 84.0742 432.313 84.0547 432.235 84.0547C432.133 84.0547 432.02 84.1367 431.895 84.3008C431.77 84.4648 431.632 84.7441 431.479 85.1387V89H430.243V83.0469H431.303L431.327 83.9141C431.413 83.7383 431.499 83.5879 431.585 83.4629C431.671 83.3379 431.762 83.2363 431.86 83.1582C431.958 83.0762 432.061 83.0176 432.171 82.9824C432.284 82.9473 432.411 82.9297 432.551 82.9297C432.883 82.9297 433.135 83.0176 433.307 83.1934C433.483 83.3652 433.583 83.6055 433.606 83.9141C433.7 83.7383 433.792 83.5879 433.882 83.4629C433.975 83.3379 434.071 83.2363 434.169 83.1582C434.27 83.0762 434.378 83.0176 434.491 82.9824C434.608 82.9473 434.737 82.9297 434.878 82.9297C435.311 82.9297 435.632 83.082 435.839 83.3867C436.046 83.6875 436.149 84.1348 436.149 84.7285V89H434.913ZM441.042 89L441.007 88.2207C440.882 88.3535 440.751 88.4766 440.614 88.5898C440.477 88.6992 440.327 88.7949 440.163 88.877C439.999 88.959 439.819 89.0215 439.624 89.0645C439.432 89.1113 439.221 89.1348 438.991 89.1348C438.686 89.1348 438.419 89.0898 438.188 89C437.958 88.9102 437.764 88.7852 437.608 88.625C437.452 88.4648 437.333 88.2715 437.251 88.0449C437.173 87.8184 437.133 87.5684 437.133 87.2949C437.133 87.0137 437.192 86.7539 437.309 86.5156C437.43 86.2773 437.612 86.0723 437.854 85.9004C438.1 85.7285 438.405 85.5938 438.768 85.4961C439.135 85.3984 439.565 85.3496 440.057 85.3496H440.837V84.9922C440.837 84.8398 440.815 84.7031 440.772 84.582C440.729 84.457 440.659 84.3516 440.561 84.2656C440.467 84.1797 440.344 84.1133 440.192 84.0664C440.04 84.0195 439.852 83.9961 439.63 83.9961C439.278 83.9961 438.93 84.0371 438.587 84.1191C438.247 84.1973 437.917 84.3086 437.596 84.4531V83.3105C437.882 83.1973 438.21 83.1035 438.581 83.0293C438.956 82.9551 439.344 82.918 439.747 82.918C440.188 82.918 440.567 82.9609 440.883 83.0469C441.2 83.1289 441.46 83.2539 441.663 83.4219C441.87 83.5898 442.022 83.8008 442.12 84.0547C442.217 84.3047 442.266 84.5977 442.266 84.9336V89H441.042ZM440.837 86.3691H439.964C439.721 86.3691 439.516 86.3926 439.348 86.4395C439.18 86.4863 439.044 86.5508 438.938 86.6328C438.833 86.7148 438.755 86.8105 438.704 86.9199C438.657 87.0254 438.633 87.1387 438.633 87.2598C438.633 87.502 438.712 87.6875 438.868 87.8164C439.024 87.9414 439.237 88.0039 439.507 88.0039C439.706 88.0039 439.913 87.9316 440.128 87.7871C440.342 87.6426 440.579 87.4355 440.837 87.166V86.3691ZM447.592 89L445.395 86.0234V89H443.966V80.7207H445.395V85.5664L447.475 83.0469H449.262L446.848 85.7598L449.462 89H447.592ZM455.69 85.5664C455.69 85.6641 455.686 85.791 455.678 85.9473C455.675 86.1035 455.667 86.25 455.655 86.3867H451.741C451.741 86.6484 451.78 86.8789 451.858 87.0781C451.94 87.2773 452.053 87.4453 452.198 87.582C452.346 87.7148 452.522 87.8164 452.725 87.8867C452.932 87.957 453.161 87.9922 453.411 87.9922C453.7 87.9922 454.008 87.9707 454.337 87.9277C454.669 87.8809 455.012 87.8066 455.368 87.7051V88.8418C455.216 88.8848 455.05 88.9238 454.87 88.959C454.69 88.9941 454.507 89.0254 454.319 89.0527C454.132 89.0801 453.942 89.0996 453.751 89.1113C453.559 89.127 453.374 89.1348 453.194 89.1348C452.741 89.1348 452.335 89.0703 451.975 88.9414C451.616 88.8125 451.311 88.623 451.061 88.373C450.811 88.1191 450.62 87.8066 450.487 87.4355C450.354 87.0645 450.288 86.6348 450.288 86.1465C450.288 85.6621 450.354 85.2227 450.487 84.8281C450.62 84.4297 450.807 84.0898 451.05 83.8086C451.292 83.5234 451.585 83.3047 451.928 83.1523C452.276 82.9961 452.663 82.918 453.089 82.918C453.51 82.918 453.883 82.9844 454.208 83.1172C454.532 83.2461 454.803 83.4277 455.022 83.6621C455.241 83.8965 455.407 84.1758 455.52 84.5C455.633 84.8242 455.69 85.1797 455.69 85.5664ZM454.237 85.3613C454.241 85.127 454.212 84.9238 454.149 84.752C454.087 84.5762 454.001 84.4316 453.891 84.3184C453.786 84.2051 453.661 84.1211 453.516 84.0664C453.376 84.0117 453.223 83.9844 453.059 83.9844C452.7 83.9844 452.405 84.1055 452.175 84.3477C451.944 84.5859 451.807 84.9238 451.764 85.3613H454.237ZM460.624 89L458.573 84.4297L458.151 83.4453V86.6211V89H456.839V81.3418H458.608L460.7 85.9414L461.069 86.8379V83.457V81.3418H462.382V89H460.624ZM469.061 85.9766C469.061 86.4453 468.995 86.875 468.862 87.2656C468.729 87.6523 468.538 87.9844 468.288 88.2617C468.038 88.5391 467.731 88.7539 467.368 88.9062C467.005 89.0586 466.591 89.1348 466.126 89.1348C465.684 89.1348 465.29 89.0703 464.942 88.9414C464.594 88.8125 464.3 88.6211 464.057 88.3672C463.815 88.1094 463.63 87.7891 463.501 87.4062C463.372 87.0195 463.307 86.5703 463.307 86.0586C463.307 85.5859 463.374 85.1562 463.507 84.7695C463.643 84.3828 463.837 84.0527 464.087 83.7793C464.341 83.5059 464.649 83.2949 465.012 83.1465C465.376 82.9941 465.786 82.918 466.243 82.918C466.688 82.918 467.085 82.9844 467.432 83.1172C467.78 83.2461 468.075 83.4395 468.317 83.6973C468.559 83.9551 468.743 84.2754 468.868 84.6582C468.997 85.0371 469.061 85.4766 469.061 85.9766ZM467.573 86.0117C467.573 85.3945 467.456 84.9316 467.221 84.623C466.991 84.3105 466.649 84.1543 466.196 84.1543C465.946 84.1543 465.733 84.2031 465.557 84.3008C465.382 84.3984 465.237 84.5332 465.124 84.7051C465.01 84.873 464.926 85.0703 464.872 85.2969C464.821 85.5234 464.796 85.7656 464.796 86.0234C464.796 86.6445 464.921 87.1133 465.171 87.4297C465.421 87.7422 465.762 87.8984 466.196 87.8984C466.434 87.8984 466.641 87.8516 466.817 87.7578C466.993 87.6602 467.135 87.5273 467.245 87.3594C467.354 87.1875 467.436 86.9863 467.491 86.7559C467.546 86.5254 467.573 86.2773 467.573 86.0117ZM473.801 81.418C473.801 81.5469 473.778 81.668 473.731 81.7812C473.684 81.8945 473.618 81.9941 473.532 82.0801C473.45 82.1621 473.352 82.2285 473.239 82.2793C473.126 82.3262 473.003 82.3496 472.87 82.3496C472.737 82.3496 472.612 82.3262 472.495 82.2793C472.382 82.2285 472.282 82.1621 472.196 82.0801C472.114 81.9941 472.05 81.8945 472.003 81.7812C471.956 81.668 471.932 81.5469 471.932 81.418C471.932 81.2891 471.956 81.168 472.003 81.0547C472.05 80.9414 472.114 80.8418 472.196 80.7559C472.282 80.6699 472.382 80.6035 472.495 80.5566C472.612 80.5059 472.737 80.4805 472.87 80.4805C473.003 80.4805 473.126 80.5059 473.239 80.5566C473.352 80.6035 473.45 80.6699 473.532 80.7559C473.618 80.8418 473.684 80.9414 473.731 81.0547C473.778 81.168 473.801 81.2891 473.801 81.418ZM472.219 84.1602H470.538V83.0469H473.684V87.8867H475.401V89H470.333V87.8867H472.219V84.1602ZM481.805 87.248C481.805 87.5879 481.729 87.8789 481.577 88.1211C481.428 88.3594 481.229 88.5547 480.979 88.707C480.733 88.8555 480.452 88.9629 480.135 89.0293C479.823 89.0996 479.503 89.1348 479.175 89.1348C478.737 89.1348 478.342 89.1133 477.991 89.0703C477.639 89.0312 477.307 88.9727 476.995 88.8945V87.6055C477.362 87.7578 477.727 87.8691 478.091 87.9395C478.458 88.0059 478.803 88.0391 479.128 88.0391C479.503 88.0391 479.782 87.9805 479.966 87.8633C480.153 87.7422 480.247 87.5859 480.247 87.3945C480.247 87.3047 480.227 87.2227 480.188 87.1484C480.149 87.0742 480.075 87.0039 479.966 86.9375C479.86 86.8672 479.71 86.7969 479.514 86.7266C479.319 86.6523 479.063 86.5703 478.747 86.4805C478.454 86.3984 478.196 86.3066 477.973 86.2051C477.755 86.0996 477.573 85.9766 477.428 85.8359C477.284 85.6953 477.175 85.5332 477.1 85.3496C477.03 85.1621 476.995 84.9434 476.995 84.6934C476.995 84.4512 477.05 84.2227 477.159 84.0078C477.268 83.793 477.43 83.6055 477.645 83.4453C477.864 83.2812 478.135 83.1523 478.46 83.0586C478.784 82.9648 479.163 82.918 479.596 82.918C479.971 82.918 480.303 82.9375 480.592 82.9766C480.882 83.0156 481.137 83.0586 481.36 83.1055V84.2715C481.02 84.1621 480.7 84.0859 480.399 84.043C480.102 83.9961 479.807 83.9727 479.514 83.9727C479.221 83.9727 478.985 84.0254 478.805 84.1309C478.63 84.2363 478.542 84.3828 478.542 84.5703C478.542 84.6602 478.559 84.7402 478.594 84.8105C478.63 84.8809 478.698 84.9492 478.8 85.0156C478.905 85.082 479.05 85.1523 479.233 85.2266C479.421 85.2969 479.667 85.375 479.971 85.4609C480.315 85.5586 480.604 85.6641 480.839 85.7773C481.073 85.8867 481.26 86.0117 481.401 86.1523C481.546 86.293 481.649 86.4531 481.712 86.6328C481.774 86.8125 481.805 87.0176 481.805 87.248ZM488.678 85.5664C488.678 85.6641 488.675 85.791 488.667 85.9473C488.663 86.1035 488.655 86.25 488.643 86.3867H484.729C484.729 86.6484 484.768 86.8789 484.846 87.0781C484.928 87.2773 485.042 87.4453 485.186 87.582C485.335 87.7148 485.51 87.8164 485.714 87.8867C485.921 87.957 486.149 87.9922 486.399 87.9922C486.688 87.9922 486.997 87.9707 487.325 87.9277C487.657 87.8809 488.001 87.8066 488.356 87.7051V88.8418C488.204 88.8848 488.038 88.9238 487.858 88.959C487.678 88.9941 487.495 89.0254 487.307 89.0527C487.12 89.0801 486.93 89.0996 486.739 89.1113C486.548 89.127 486.362 89.1348 486.182 89.1348C485.729 89.1348 485.323 89.0703 484.964 88.9414C484.604 88.8125 484.3 88.623 484.05 88.373C483.8 88.1191 483.608 87.8066 483.475 87.4355C483.342 87.0645 483.276 86.6348 483.276 86.1465C483.276 85.6621 483.342 85.2227 483.475 84.8281C483.608 84.4297 483.796 84.0898 484.038 83.8086C484.28 83.5234 484.573 83.3047 484.917 83.1523C485.264 82.9961 485.651 82.918 486.077 82.918C486.499 82.918 486.872 82.9844 487.196 83.1172C487.52 83.2461 487.792 83.4277 488.01 83.6621C488.229 83.8965 488.395 84.1758 488.508 84.5C488.622 84.8242 488.678 85.1797 488.678 85.5664ZM487.225 85.3613C487.229 85.127 487.2 84.9238 487.137 84.752C487.075 84.5762 486.989 84.4316 486.88 84.3184C486.774 84.2051 486.649 84.1211 486.505 84.0664C486.364 84.0117 486.212 83.9844 486.048 83.9844C485.688 83.9844 485.393 84.1055 485.163 84.3477C484.932 84.5859 484.796 84.9238 484.753 85.3613H487.225ZM493.717 91.4609C492.768 90.6562 492.055 89.793 491.579 88.8711C491.106 87.9492 490.87 86.957 490.87 85.8945C490.87 85.3008 490.94 84.7402 491.081 84.2129C491.221 83.6816 491.419 83.1836 491.673 82.7188C491.93 82.2539 492.235 81.8184 492.587 81.4121C492.942 81.002 493.331 80.6191 493.753 80.2637L494.567 81.0781C493.805 81.7617 493.233 82.5 492.85 83.293C492.467 84.0859 492.276 84.9199 492.276 85.7949C492.276 86.6816 492.467 87.5352 492.85 88.3555C493.233 89.1719 493.805 89.918 494.567 90.5938L493.717 91.4609ZM498.059 80.2637C499.016 81.0605 499.729 81.9219 500.198 82.8477C500.667 83.7695 500.901 84.7637 500.901 85.8301C500.901 86.4238 500.831 86.9844 500.69 87.5117C500.55 88.0391 500.352 88.5371 500.098 89.0059C499.848 89.4746 499.548 89.9121 499.196 90.3184C498.844 90.7285 498.458 91.1094 498.036 91.4609L497.216 90.6465C497.981 89.9629 498.555 89.2227 498.938 88.4258C499.321 87.6289 499.512 86.793 499.512 85.918C499.512 85.0352 499.321 84.1836 498.938 83.3633C498.555 82.543 497.981 81.793 497.216 81.1133L498.059 80.2637ZM512.368 82.9883C512.516 82.9883 512.655 83.0156 512.784 83.0703C512.913 83.125 513.024 83.2012 513.118 83.2988C513.212 83.3926 513.286 83.5039 513.341 83.6328C513.395 83.7617 513.423 83.8984 513.423 84.043C513.423 84.1914 513.395 84.3301 513.341 84.459C513.286 84.5879 513.212 84.6992 513.118 84.793C513.024 84.8867 512.913 84.9609 512.784 85.0156C512.655 85.0703 512.516 85.0977 512.368 85.0977C512.219 85.0977 512.081 85.0703 511.952 85.0156C511.827 84.9609 511.716 84.8867 511.618 84.793C511.524 84.6992 511.45 84.5879 511.395 84.459C511.341 84.3301 511.313 84.1914 511.313 84.043C511.313 83.8984 511.341 83.7617 511.395 83.6328C511.45 83.5039 511.524 83.3926 511.618 83.2988C511.716 83.2012 511.827 83.125 511.952 83.0703C512.081 83.0156 512.219 82.9883 512.368 82.9883ZM512.368 87.0254C512.516 87.0254 512.655 87.0527 512.784 87.1074C512.913 87.1621 513.024 87.2363 513.118 87.3301C513.212 87.4238 513.286 87.5352 513.341 87.6641C513.395 87.793 513.423 87.9297 513.423 88.0742C513.423 88.2227 513.395 88.3613 513.341 88.4902C513.286 88.6191 513.212 88.7324 513.118 88.8301C513.024 88.9238 512.913 88.998 512.784 89.0527C512.655 89.1074 512.516 89.1348 512.368 89.1348C512.219 89.1348 512.081 89.1074 511.952 89.0527C511.827 88.998 511.716 88.9238 511.618 88.8301C511.524 88.7324 511.45 88.6191 511.395 88.4902C511.341 88.3613 511.313 88.2227 511.313 88.0742C511.313 87.9297 511.341 87.793 511.395 87.6641C511.45 87.5352 511.524 87.4238 511.618 87.3301C511.716 87.2363 511.827 87.1621 511.952 87.1074C512.081 87.0527 512.219 87.0254 512.368 87.0254ZM527.989 87.248C527.989 87.5879 527.913 87.8789 527.76 88.1211C527.612 88.3594 527.413 88.5547 527.163 88.707C526.917 88.8555 526.635 88.9629 526.319 89.0293C526.007 89.0996 525.686 89.1348 525.358 89.1348C524.921 89.1348 524.526 89.1133 524.174 89.0703C523.823 89.0312 523.491 88.9727 523.178 88.8945V87.6055C523.546 87.7578 523.911 87.8691 524.274 87.9395C524.641 88.0059 524.987 88.0391 525.311 88.0391C525.686 88.0391 525.966 87.9805 526.149 87.8633C526.337 87.7422 526.43 87.5859 526.43 87.3945C526.43 87.3047 526.411 87.2227 526.372 87.1484C526.333 87.0742 526.258 87.0039 526.149 86.9375C526.044 86.8672 525.893 86.7969 525.698 86.7266C525.503 86.6523 525.247 86.5703 524.93 86.4805C524.637 86.3984 524.38 86.3066 524.157 86.2051C523.938 86.0996 523.757 85.9766 523.612 85.8359C523.467 85.6953 523.358 85.5332 523.284 85.3496C523.214 85.1621 523.178 84.9434 523.178 84.6934C523.178 84.4512 523.233 84.2227 523.342 84.0078C523.452 83.793 523.614 83.6055 523.829 83.4453C524.048 83.2812 524.319 83.1523 524.643 83.0586C524.967 82.9648 525.346 82.918 525.78 82.918C526.155 82.918 526.487 82.9375 526.776 82.9766C527.065 83.0156 527.321 83.0586 527.544 83.1055V84.2715C527.204 84.1621 526.883 84.0859 526.583 84.043C526.286 83.9961 525.991 83.9727 525.698 83.9727C525.405 83.9727 525.169 84.0254 524.989 84.1309C524.813 84.2363 524.725 84.3828 524.725 84.5703C524.725 84.6602 524.743 84.7402 524.778 84.8105C524.813 84.8809 524.882 84.9492 524.983 85.0156C525.089 85.082 525.233 85.1523 525.417 85.2266C525.604 85.2969 525.85 85.375 526.155 85.4609C526.499 85.5586 526.788 85.6641 527.022 85.7773C527.257 85.8867 527.444 86.0117 527.585 86.1523C527.729 86.293 527.833 86.4531 527.895 86.6328C527.958 86.8125 527.989 87.0176 527.989 87.248ZM534.587 88.9414C534.329 89 534.069 89.0469 533.807 89.082C533.546 89.1172 533.298 89.1348 533.063 89.1348C532.673 89.1348 532.335 89.0938 532.049 89.0117C531.768 88.9297 531.534 88.8047 531.346 88.6367C531.163 88.4688 531.026 88.2559 530.936 87.998C530.85 87.7363 530.807 87.4258 530.807 87.0664V84.1602H529.208V83.0469H530.807V81.5234L532.272 81.1426V83.0469H534.587V84.1602H532.272V86.9609C532.272 87.3008 532.35 87.5586 532.507 87.7344C532.663 87.9062 532.924 87.9922 533.292 87.9922C533.526 87.9922 533.755 87.9727 533.977 87.9336C534.2 87.8945 534.403 87.8496 534.587 87.7988V88.9414ZM540.106 85.3613C540.114 85.1387 540.102 84.9492 540.071 84.793C540.044 84.6367 539.997 84.5078 539.93 84.4062C539.868 84.3047 539.79 84.2305 539.696 84.1836C539.602 84.1367 539.495 84.1133 539.374 84.1133C539.163 84.1133 538.944 84.2012 538.717 84.377C538.495 84.5488 538.249 84.834 537.979 85.2324V89H536.514V83.0469H537.809L537.862 83.9141C537.96 83.7617 538.069 83.625 538.19 83.5039C538.315 83.3828 538.452 83.2793 538.6 83.1934C538.753 83.1035 538.921 83.0352 539.104 82.9883C539.288 82.9414 539.489 82.918 539.708 82.918C540.008 82.918 540.274 82.9707 540.505 83.0762C540.739 83.1777 540.934 83.3301 541.091 83.5332C541.251 83.7363 541.368 83.9922 541.442 84.3008C541.52 84.6055 541.553 84.959 541.542 85.3613H540.106ZM546.376 81.418C546.376 81.5469 546.352 81.668 546.305 81.7812C546.258 81.8945 546.192 81.9941 546.106 82.0801C546.024 82.1621 545.926 82.2285 545.813 82.2793C545.7 82.3262 545.577 82.3496 545.444 82.3496C545.311 82.3496 545.186 82.3262 545.069 82.2793C544.956 82.2285 544.856 82.1621 544.77 82.0801C544.688 81.9941 544.624 81.8945 544.577 81.7812C544.53 81.668 544.507 81.5469 544.507 81.418C544.507 81.2891 544.53 81.168 544.577 81.0547C544.624 80.9414 544.688 80.8418 544.77 80.7559C544.856 80.6699 544.956 80.6035 545.069 80.5566C545.186 80.5059 545.311 80.4805 545.444 80.4805C545.577 80.4805 545.7 80.5059 545.813 80.5566C545.926 80.6035 546.024 80.6699 546.106 80.7559C546.192 80.8418 546.258 80.9414 546.305 81.0547C546.352 81.168 546.376 81.2891 546.376 81.418ZM544.794 84.1602H543.112V83.0469H546.258V87.8867H547.975V89H542.907V87.8867H544.794V84.1602ZM553.02 89V85.1211C553.02 84.4688 552.778 84.1426 552.294 84.1426C552.051 84.1426 551.819 84.2402 551.596 84.4355C551.378 84.6309 551.145 84.8965 550.899 85.2324V89H549.469V83.0469H550.706L550.741 83.9258C550.862 83.7734 550.987 83.6348 551.116 83.5098C551.249 83.3848 551.391 83.2793 551.544 83.1934C551.696 83.1035 551.86 83.0352 552.036 82.9883C552.212 82.9414 552.409 82.918 552.628 82.918C552.932 82.918 553.198 82.9688 553.424 83.0703C553.651 83.168 553.841 83.3086 553.993 83.4922C554.145 83.6719 554.258 83.8906 554.333 84.1484C554.411 84.4023 554.45 84.6875 554.45 85.0039V89H553.02ZM560.532 84.0898C560.641 84.2266 560.717 84.3711 560.76 84.5234C560.807 84.6719 560.831 84.8242 560.831 84.9805C560.831 85.3125 560.772 85.6055 560.655 85.8594C560.542 86.1133 560.38 86.3262 560.169 86.498C559.962 86.6699 559.712 86.8008 559.419 86.8906C559.13 86.9766 558.809 87.0195 558.458 87.0195C558.251 87.0195 558.059 87 557.883 86.9609C557.708 86.918 557.575 86.8691 557.485 86.8145C557.419 86.8809 557.362 86.9551 557.315 87.0371C557.268 87.1152 557.245 87.2051 557.245 87.3066C557.245 87.3691 557.26 87.4316 557.292 87.4941C557.323 87.5566 557.368 87.6133 557.426 87.6641C557.489 87.7109 557.561 87.75 557.643 87.7812C557.729 87.8125 557.825 87.8301 557.93 87.834L559.342 87.8867C559.659 87.8945 559.944 87.9355 560.198 88.0098C560.456 88.0801 560.676 88.1816 560.86 88.3145C561.044 88.4473 561.184 88.6094 561.282 88.8008C561.383 88.9883 561.434 89.2031 561.434 89.4453C561.434 89.7227 561.372 89.9844 561.247 90.2305C561.122 90.4766 560.932 90.6895 560.678 90.8691C560.428 91.0527 560.116 91.1973 559.741 91.3027C559.366 91.4082 558.93 91.4609 558.434 91.4609C557.954 91.4609 557.54 91.4219 557.192 91.3438C556.848 91.2695 556.565 91.1641 556.342 91.0273C556.124 90.8906 555.962 90.7266 555.856 90.5352C555.751 90.3477 555.698 90.1406 555.698 89.9141C555.698 89.7773 555.716 89.6504 555.751 89.5332C555.786 89.416 555.839 89.3027 555.909 89.1934C555.979 89.0879 556.067 88.9844 556.173 88.8828C556.278 88.7812 556.403 88.6797 556.548 88.5781C556.356 88.4688 556.21 88.3281 556.108 88.1562C556.01 87.9844 555.962 87.8008 555.962 87.6055C555.962 87.4727 555.979 87.3496 556.014 87.2363C556.049 87.1191 556.094 87.0078 556.149 86.9023C556.208 86.7969 556.274 86.6953 556.348 86.5977C556.423 86.5 556.501 86.4043 556.583 86.3105C556.438 86.166 556.317 85.9922 556.219 85.7891C556.126 85.582 556.079 85.3242 556.079 85.0156C556.079 84.6836 556.137 84.3887 556.255 84.1309C556.376 83.8691 556.542 83.6504 556.753 83.4746C556.964 83.2949 557.214 83.1602 557.503 83.0703C557.796 82.9766 558.114 82.9297 558.458 82.9297C558.633 82.9297 558.801 82.9395 558.962 82.959C559.126 82.9746 559.274 83.0039 559.407 83.0469H561.469V84.0898H560.532ZM557.163 89.791C557.163 90.0215 557.278 90.1914 557.508 90.3008C557.743 90.4102 558.071 90.4648 558.493 90.4648C558.762 90.4648 558.989 90.4395 559.173 90.3887C559.36 90.3379 559.512 90.2715 559.63 90.1895C559.747 90.1074 559.831 90.0117 559.882 89.9023C559.932 89.793 559.958 89.6797 559.958 89.5625C559.958 89.457 559.932 89.3672 559.882 89.293C559.835 89.2227 559.766 89.1621 559.676 89.1113C559.591 89.0645 559.487 89.0273 559.366 89C559.249 88.9766 559.118 88.9609 558.973 88.9531L557.714 88.9297C557.6 89.0078 557.507 89.082 557.432 89.1523C557.362 89.2227 557.305 89.291 557.262 89.3574C557.223 89.4277 557.196 89.498 557.18 89.5684C557.169 89.6387 557.163 89.7129 557.163 89.791ZM557.403 85.0156C557.403 85.332 557.495 85.584 557.678 85.7715C557.866 85.9551 558.126 86.0469 558.458 86.0469C558.633 86.0469 558.786 86.0176 558.915 85.959C559.048 85.9004 559.157 85.8223 559.243 85.7246C559.329 85.627 559.393 85.5137 559.436 85.3848C559.479 85.2559 559.501 85.1211 559.501 84.9805C559.501 84.6484 559.407 84.3906 559.219 84.207C559.036 84.0195 558.778 83.9258 558.446 83.9258C558.27 83.9258 558.116 83.9551 557.983 84.0137C557.854 84.0723 557.747 84.1523 557.661 84.2539C557.575 84.3516 557.51 84.4668 557.467 84.5996C557.424 84.7324 557.403 84.8711 557.403 85.0156Z" fill="black"/>
<rect x="-8.9407e-08" y="2.15697" width="27.5216" height="27.5216" rx="1.5" transform="matrix(0.695022 0.718988 -0.695022 0.718988 557.712 -0.393868)" fill="#FFFD54" stroke="black" stroke-width="3"/>
<path d="M553.293 18.2917V17.114H558.133V18.2917H556.445V23.5827H558.133V24.7722H553.293V23.5827H554.98V18.2917H553.293Z" fill="black"/>
<rect x="10.5" y="114.5" width="232" height="103" rx="2.5" fill="#7DE77B" stroke="black" stroke-width="3"/>
<path d="M107.826 143L107.404 141.488H104.732L104.298 143H102.869L105.136 135.342H107.152L109.419 143H107.826ZM106.085 136.748L105.078 140.311H107.081L106.085 136.748ZM113.808 143V139.121C113.808 138.469 113.566 138.143 113.081 138.143C112.839 138.143 112.607 138.24 112.384 138.436C112.165 138.631 111.933 138.896 111.687 139.232V143H110.257V137.047H111.494L111.529 137.926C111.65 137.773 111.775 137.635 111.904 137.51C112.036 137.385 112.179 137.279 112.331 137.193C112.484 137.104 112.648 137.035 112.824 136.988C112.999 136.941 113.197 136.918 113.415 136.918C113.72 136.918 113.986 136.969 114.212 137.07C114.439 137.168 114.628 137.309 114.781 137.492C114.933 137.672 115.046 137.891 115.12 138.148C115.199 138.402 115.238 138.688 115.238 139.004V143H113.808ZM120.359 135.418C120.359 135.547 120.335 135.668 120.288 135.781C120.242 135.895 120.175 135.994 120.089 136.08C120.007 136.162 119.91 136.229 119.796 136.279C119.683 136.326 119.56 136.35 119.427 136.35C119.294 136.35 119.169 136.326 119.052 136.279C118.939 136.229 118.839 136.162 118.753 136.08C118.671 135.994 118.607 135.895 118.56 135.781C118.513 135.668 118.49 135.547 118.49 135.418C118.49 135.289 118.513 135.168 118.56 135.055C118.607 134.941 118.671 134.842 118.753 134.756C118.839 134.67 118.939 134.604 119.052 134.557C119.169 134.506 119.294 134.48 119.427 134.48C119.56 134.48 119.683 134.506 119.796 134.557C119.91 134.604 120.007 134.67 120.089 134.756C120.175 134.842 120.242 134.941 120.288 135.055C120.335 135.168 120.359 135.289 120.359 135.418ZM118.777 138.16H117.095V137.047H120.242V141.887H121.958V143H116.89V141.887H118.777V138.16ZM127.654 143V138.945C127.654 138.797 127.65 138.668 127.642 138.559C127.634 138.445 127.619 138.352 127.595 138.277C127.572 138.203 127.536 138.148 127.49 138.113C127.447 138.074 127.386 138.055 127.308 138.055C127.187 138.055 127.068 138.137 126.951 138.301C126.833 138.465 126.701 138.744 126.552 139.139V143H125.328V138.945C125.328 138.797 125.324 138.668 125.316 138.559C125.308 138.445 125.292 138.352 125.269 138.277C125.245 138.203 125.21 138.148 125.163 138.113C125.117 138.074 125.054 138.055 124.976 138.055C124.874 138.055 124.761 138.137 124.636 138.301C124.511 138.465 124.372 138.744 124.22 139.139V143H122.984V137.047H124.044L124.068 137.914C124.154 137.738 124.24 137.588 124.326 137.463C124.411 137.338 124.503 137.236 124.601 137.158C124.699 137.076 124.802 137.018 124.911 136.982C125.025 136.947 125.152 136.93 125.292 136.93C125.624 136.93 125.876 137.018 126.048 137.193C126.224 137.365 126.324 137.605 126.347 137.914C126.441 137.738 126.533 137.588 126.622 137.463C126.716 137.338 126.812 137.236 126.91 137.158C127.011 137.076 127.119 137.018 127.232 136.982C127.349 136.947 127.478 136.93 127.619 136.93C128.052 136.93 128.372 137.082 128.579 137.387C128.786 137.688 128.89 138.135 128.89 138.729V143H127.654ZM133.783 143L133.747 142.221C133.622 142.354 133.492 142.477 133.355 142.59C133.218 142.699 133.068 142.795 132.904 142.877C132.74 142.959 132.56 143.021 132.365 143.064C132.173 143.111 131.962 143.135 131.732 143.135C131.427 143.135 131.16 143.09 130.929 143C130.699 142.91 130.505 142.785 130.349 142.625C130.193 142.465 130.074 142.271 129.992 142.045C129.913 141.818 129.874 141.568 129.874 141.295C129.874 141.014 129.933 140.754 130.05 140.516C130.171 140.277 130.353 140.072 130.595 139.9C130.841 139.729 131.146 139.594 131.509 139.496C131.876 139.398 132.306 139.35 132.798 139.35H133.578V138.992C133.578 138.84 133.556 138.703 133.513 138.582C133.47 138.457 133.4 138.352 133.302 138.266C133.208 138.18 133.085 138.113 132.933 138.066C132.781 138.02 132.593 137.996 132.37 137.996C132.019 137.996 131.671 138.037 131.328 138.119C130.988 138.197 130.658 138.309 130.337 138.453V137.311C130.622 137.197 130.951 137.104 131.322 137.029C131.697 136.955 132.085 136.918 132.488 136.918C132.929 136.918 133.308 136.961 133.624 137.047C133.941 137.129 134.201 137.254 134.404 137.422C134.611 137.59 134.763 137.801 134.861 138.055C134.958 138.305 135.007 138.598 135.007 138.934V143H133.783ZM133.578 140.369H132.704C132.462 140.369 132.257 140.393 132.089 140.439C131.921 140.486 131.785 140.551 131.679 140.633C131.574 140.715 131.495 140.811 131.445 140.92C131.398 141.025 131.374 141.139 131.374 141.26C131.374 141.502 131.453 141.688 131.609 141.816C131.765 141.941 131.978 142.004 132.247 142.004C132.447 142.004 132.654 141.932 132.869 141.787C133.083 141.643 133.32 141.436 133.578 141.166V140.369ZM138.57 135.834H136.888V134.721H140.035V141.887H141.751V143H136.683V141.887H138.57V135.834Z" fill="black"/>
<line x1="9" y1="163.5" x2="244" y2="163.5" stroke="black" stroke-width="3"/>
<path d="M58.6628 180.398V182.678H57.3444V180.398H55.1589V179.221H57.3444V176.953H58.6628V179.221H60.8483V180.398H58.6628ZM72.9128 183V178.945C72.9128 178.797 72.9089 178.668 72.9011 178.559C72.8933 178.445 72.8776 178.352 72.8542 178.277C72.8308 178.203 72.7956 178.148 72.7487 178.113C72.7058 178.074 72.6452 178.055 72.5671 178.055C72.446 178.055 72.3269 178.137 72.2097 178.301C72.0925 178.465 71.9597 178.744 71.8112 179.139V183H70.5866V178.945C70.5866 178.797 70.5827 178.668 70.5749 178.559C70.5671 178.445 70.5515 178.352 70.528 178.277C70.5046 178.203 70.4694 178.148 70.4226 178.113C70.3757 178.074 70.3132 178.055 70.2351 178.055C70.1335 178.055 70.0202 178.137 69.8952 178.301C69.7702 178.465 69.6315 178.744 69.4792 179.139V183H68.2429V177.047H69.3034L69.3269 177.914C69.4128 177.738 69.4987 177.588 69.5847 177.463C69.6706 177.338 69.7624 177.236 69.8601 177.158C69.9577 177.076 70.0612 177.018 70.1706 176.982C70.2839 176.947 70.4108 176.93 70.5515 176.93C70.8835 176.93 71.1354 177.018 71.3073 177.193C71.4831 177.365 71.5827 177.605 71.6061 177.914C71.6999 177.738 71.7917 177.588 71.8815 177.463C71.9753 177.338 72.071 177.236 72.1686 177.158C72.2702 177.076 72.3776 177.018 72.4909 176.982C72.6081 176.947 72.737 176.93 72.8776 176.93C73.3112 176.93 73.6315 177.082 73.8386 177.387C74.0456 177.688 74.1491 178.135 74.1491 178.729V183H72.9128ZM79.0417 183L79.0065 182.221C78.8815 182.354 78.7507 182.477 78.614 182.59C78.4772 182.699 78.3269 182.795 78.1628 182.877C77.9987 182.959 77.819 183.021 77.6237 183.064C77.4323 183.111 77.2214 183.135 76.9909 183.135C76.6862 183.135 76.4186 183.09 76.1882 183C75.9577 182.91 75.7644 182.785 75.6081 182.625C75.4519 182.465 75.3327 182.271 75.2507 182.045C75.1726 181.818 75.1335 181.568 75.1335 181.295C75.1335 181.014 75.1921 180.754 75.3093 180.516C75.4304 180.277 75.612 180.072 75.8542 179.9C76.1003 179.729 76.405 179.594 76.7683 179.496C77.1354 179.398 77.5651 179.35 78.0573 179.35H78.8366V178.992C78.8366 178.84 78.8151 178.703 78.7722 178.582C78.7292 178.457 78.6589 178.352 78.5612 178.266C78.4675 178.18 78.3444 178.113 78.1921 178.066C78.0397 178.02 77.8522 177.996 77.6296 177.996C77.278 177.996 76.9304 178.037 76.5866 178.119C76.2468 178.197 75.9167 178.309 75.5964 178.453V177.311C75.8815 177.197 76.2097 177.104 76.5808 177.029C76.9558 176.955 77.3444 176.918 77.7468 176.918C78.1882 176.918 78.5671 176.961 78.8835 177.047C79.1999 177.129 79.4597 177.254 79.6628 177.422C79.8698 177.59 80.0222 177.801 80.1198 178.055C80.2175 178.305 80.2663 178.598 80.2663 178.934V183H79.0417ZM78.8366 180.369H77.9636C77.7214 180.369 77.5163 180.393 77.3483 180.439C77.1804 180.486 77.0436 180.551 76.9382 180.633C76.8327 180.715 76.7546 180.811 76.7038 180.92C76.6569 181.025 76.6335 181.139 76.6335 181.26C76.6335 181.502 76.7116 181.688 76.8679 181.816C77.0241 181.941 77.237 182.004 77.5065 182.004C77.7058 182.004 77.9128 181.932 78.1276 181.787C78.3425 181.643 78.5788 181.436 78.8366 181.166V180.369ZM85.5925 183L83.3952 180.023V183H81.9655V174.721H83.3952V179.566L85.4753 177.047H87.2624L84.8483 179.76L87.4616 183H85.5925ZM93.6901 179.566C93.6901 179.664 93.6862 179.791 93.6784 179.947C93.6745 180.104 93.6667 180.25 93.655 180.387H89.7409C89.7409 180.648 89.78 180.879 89.8581 181.078C89.9401 181.277 90.0534 181.445 90.1979 181.582C90.3464 181.715 90.5222 181.816 90.7253 181.887C90.9323 181.957 91.1608 181.992 91.4108 181.992C91.6999 181.992 92.0085 181.971 92.3366 181.928C92.6686 181.881 93.0124 181.807 93.3679 181.705V182.842C93.2155 182.885 93.0495 182.924 92.8698 182.959C92.6901 182.994 92.5065 183.025 92.319 183.053C92.1315 183.08 91.9421 183.1 91.7507 183.111C91.5593 183.127 91.3737 183.135 91.194 183.135C90.7409 183.135 90.3347 183.07 89.9753 182.941C89.6159 182.812 89.3112 182.623 89.0612 182.373C88.8112 182.119 88.6198 181.807 88.487 181.436C88.3542 181.064 88.2878 180.635 88.2878 180.146C88.2878 179.662 88.3542 179.223 88.487 178.828C88.6198 178.43 88.8073 178.09 89.0495 177.809C89.2917 177.523 89.5847 177.305 89.9284 177.152C90.2761 176.996 90.6628 176.918 91.0886 176.918C91.5104 176.918 91.8835 176.984 92.2077 177.117C92.5319 177.246 92.8034 177.428 93.0222 177.662C93.2409 177.896 93.4069 178.176 93.5202 178.5C93.6335 178.824 93.6901 179.18 93.6901 179.566ZM92.237 179.361C92.2409 179.127 92.2116 178.924 92.1491 178.752C92.0866 178.576 92.0007 178.432 91.8913 178.318C91.7858 178.205 91.6608 178.121 91.5163 178.066C91.3757 178.012 91.2233 177.984 91.0593 177.984C90.6999 177.984 90.405 178.105 90.1745 178.348C89.944 178.586 89.8073 178.924 89.7644 179.361H92.237ZM98.6237 183L96.5729 178.43L96.1511 177.445V180.621V183H94.8386V175.342H96.6081L98.6999 179.941L99.069 180.838V177.457V175.342H100.382V183H98.6237ZM107.061 179.977C107.061 180.445 106.995 180.875 106.862 181.266C106.729 181.652 106.538 181.984 106.288 182.262C106.038 182.539 105.731 182.754 105.368 182.906C105.005 183.059 104.591 183.135 104.126 183.135C103.684 183.135 103.29 183.07 102.942 182.941C102.594 182.812 102.3 182.621 102.057 182.367C101.815 182.109 101.63 181.789 101.501 181.406C101.372 181.02 101.307 180.57 101.307 180.059C101.307 179.586 101.374 179.156 101.507 178.77C101.643 178.383 101.837 178.053 102.087 177.779C102.341 177.506 102.649 177.295 103.012 177.146C103.376 176.994 103.786 176.918 104.243 176.918C104.688 176.918 105.085 176.984 105.432 177.117C105.78 177.246 106.075 177.439 106.317 177.697C106.559 177.955 106.743 178.275 106.868 178.658C106.997 179.037 107.061 179.477 107.061 179.977ZM105.573 180.012C105.573 179.395 105.456 178.932 105.221 178.623C104.991 178.311 104.649 178.154 104.196 178.154C103.946 178.154 103.733 178.203 103.557 178.301C103.382 178.398 103.237 178.533 103.124 178.705C103.01 178.873 102.926 179.07 102.872 179.297C102.821 179.523 102.796 179.766 102.796 180.023C102.796 180.645 102.921 181.113 103.171 181.43C103.421 181.742 103.762 181.898 104.196 181.898C104.434 181.898 104.641 181.852 104.817 181.758C104.993 181.66 105.135 181.527 105.245 181.359C105.354 181.188 105.436 180.986 105.491 180.756C105.546 180.525 105.573 180.277 105.573 180.012ZM111.801 175.418C111.801 175.547 111.778 175.668 111.731 175.781C111.684 175.895 111.618 175.994 111.532 176.08C111.45 176.162 111.352 176.229 111.239 176.279C111.126 176.326 111.003 176.35 110.87 176.35C110.737 176.35 110.612 176.326 110.495 176.279C110.382 176.229 110.282 176.162 110.196 176.08C110.114 175.994 110.05 175.895 110.003 175.781C109.956 175.668 109.932 175.547 109.932 175.418C109.932 175.289 109.956 175.168 110.003 175.055C110.05 174.941 110.114 174.842 110.196 174.756C110.282 174.67 110.382 174.604 110.495 174.557C110.612 174.506 110.737 174.48 110.87 174.48C111.003 174.48 111.126 174.506 111.239 174.557C111.352 174.604 111.45 174.67 111.532 174.756C111.618 174.842 111.684 174.941 111.731 175.055C111.778 175.168 111.801 175.289 111.801 175.418ZM110.219 178.16H108.538V177.047H111.684V181.887H113.401V183H108.333V181.887H110.219V178.16ZM119.805 181.248C119.805 181.588 119.729 181.879 119.577 182.121C119.428 182.359 119.229 182.555 118.979 182.707C118.733 182.855 118.452 182.963 118.135 183.029C117.823 183.1 117.503 183.135 117.175 183.135C116.737 183.135 116.342 183.113 115.991 183.07C115.639 183.031 115.307 182.973 114.995 182.895V181.605C115.362 181.758 115.727 181.869 116.091 181.939C116.458 182.006 116.803 182.039 117.128 182.039C117.503 182.039 117.782 181.98 117.966 181.863C118.153 181.742 118.247 181.586 118.247 181.395C118.247 181.305 118.227 181.223 118.188 181.148C118.149 181.074 118.075 181.004 117.966 180.938C117.86 180.867 117.71 180.797 117.514 180.727C117.319 180.652 117.063 180.57 116.747 180.48C116.454 180.398 116.196 180.307 115.973 180.205C115.755 180.1 115.573 179.977 115.428 179.836C115.284 179.695 115.175 179.533 115.1 179.35C115.03 179.162 114.995 178.943 114.995 178.693C114.995 178.451 115.05 178.223 115.159 178.008C115.268 177.793 115.43 177.605 115.645 177.445C115.864 177.281 116.135 177.152 116.46 177.059C116.784 176.965 117.163 176.918 117.596 176.918C117.971 176.918 118.303 176.938 118.592 176.977C118.882 177.016 119.137 177.059 119.36 177.105V178.271C119.02 178.162 118.7 178.086 118.399 178.043C118.102 177.996 117.807 177.973 117.514 177.973C117.221 177.973 116.985 178.025 116.805 178.131C116.63 178.236 116.542 178.383 116.542 178.57C116.542 178.66 116.559 178.74 116.594 178.811C116.63 178.881 116.698 178.949 116.8 179.016C116.905 179.082 117.05 179.152 117.233 179.227C117.421 179.297 117.667 179.375 117.971 179.461C118.315 179.559 118.604 179.664 118.839 179.777C119.073 179.887 119.26 180.012 119.401 180.152C119.546 180.293 119.649 180.453 119.712 180.633C119.774 180.812 119.805 181.018 119.805 181.248ZM126.678 179.566C126.678 179.664 126.675 179.791 126.667 179.947C126.663 180.104 126.655 180.25 126.643 180.387H122.729C122.729 180.648 122.768 180.879 122.846 181.078C122.928 181.277 123.042 181.445 123.186 181.582C123.335 181.715 123.51 181.816 123.714 181.887C123.921 181.957 124.149 181.992 124.399 181.992C124.688 181.992 124.997 181.971 125.325 181.928C125.657 181.881 126.001 181.807 126.356 181.705V182.842C126.204 182.885 126.038 182.924 125.858 182.959C125.678 182.994 125.495 183.025 125.307 183.053C125.12 183.08 124.93 183.1 124.739 183.111C124.548 183.127 124.362 183.135 124.182 183.135C123.729 183.135 123.323 183.07 122.964 182.941C122.604 182.812 122.3 182.623 122.05 182.373C121.8 182.119 121.608 181.807 121.475 181.436C121.342 181.064 121.276 180.635 121.276 180.146C121.276 179.662 121.342 179.223 121.475 178.828C121.608 178.43 121.796 178.09 122.038 177.809C122.28 177.523 122.573 177.305 122.917 177.152C123.264 176.996 123.651 176.918 124.077 176.918C124.499 176.918 124.872 176.984 125.196 177.117C125.52 177.246 125.792 177.428 126.01 177.662C126.229 177.896 126.395 178.176 126.508 178.5C126.622 178.824 126.678 179.18 126.678 179.566ZM125.225 179.361C125.229 179.127 125.2 178.924 125.137 178.752C125.075 178.576 124.989 178.432 124.88 178.318C124.774 178.205 124.649 178.121 124.505 178.066C124.364 178.012 124.212 177.984 124.048 177.984C123.688 177.984 123.393 178.105 123.163 178.348C122.932 178.586 122.796 178.924 122.753 179.361H125.225ZM131.717 185.461C130.768 184.656 130.055 183.793 129.579 182.871C129.106 181.949 128.87 180.957 128.87 179.895C128.87 179.301 128.94 178.74 129.081 178.213C129.221 177.682 129.419 177.184 129.673 176.719C129.93 176.254 130.235 175.818 130.587 175.412C130.942 175.002 131.331 174.619 131.753 174.264L132.567 175.078C131.805 175.762 131.233 176.5 130.85 177.293C130.467 178.086 130.276 178.92 130.276 179.795C130.276 180.682 130.467 181.535 130.85 182.355C131.233 183.172 131.805 183.918 132.567 184.594L131.717 185.461ZM136.059 174.264C137.016 175.061 137.729 175.922 138.198 176.848C138.667 177.77 138.901 178.764 138.901 179.83C138.901 180.424 138.831 180.984 138.69 181.512C138.55 182.039 138.352 182.537 138.098 183.006C137.848 183.475 137.548 183.912 137.196 184.318C136.844 184.729 136.458 185.109 136.036 185.461L135.216 184.646C135.981 183.963 136.555 183.223 136.938 182.426C137.321 181.629 137.512 180.793 137.512 179.918C137.512 179.035 137.321 178.184 136.938 177.363C136.555 176.543 135.981 175.793 135.216 175.113L136.059 174.264ZM150.368 176.988C150.516 176.988 150.655 177.016 150.784 177.07C150.913 177.125 151.024 177.201 151.118 177.299C151.212 177.393 151.286 177.504 151.341 177.633C151.395 177.762 151.423 177.898 151.423 178.043C151.423 178.191 151.395 178.33 151.341 178.459C151.286 178.588 151.212 178.699 151.118 178.793C151.024 178.887 150.913 178.961 150.784 179.016C150.655 179.07 150.516 179.098 150.368 179.098C150.219 179.098 150.081 179.07 149.952 179.016C149.827 178.961 149.716 178.887 149.618 178.793C149.524 178.699 149.45 178.588 149.395 178.459C149.341 178.33 149.313 178.191 149.313 178.043C149.313 177.898 149.341 177.762 149.395 177.633C149.45 177.504 149.524 177.393 149.618 177.299C149.716 177.201 149.827 177.125 149.952 177.07C150.081 177.016 150.219 176.988 150.368 176.988ZM150.368 181.025C150.516 181.025 150.655 181.053 150.784 181.107C150.913 181.162 151.024 181.236 151.118 181.33C151.212 181.424 151.286 181.535 151.341 181.664C151.395 181.793 151.423 181.93 151.423 182.074C151.423 182.223 151.395 182.361 151.341 182.49C151.286 182.619 151.212 182.732 151.118 182.83C151.024 182.924 150.913 182.998 150.784 183.053C150.655 183.107 150.516 183.135 150.368 183.135C150.219 183.135 150.081 183.107 149.952 183.053C149.827 182.998 149.716 182.924 149.618 182.83C149.524 182.732 149.45 182.619 149.395 182.49C149.341 182.361 149.313 182.223 149.313 182.074C149.313 181.93 149.341 181.793 149.395 181.664C149.45 181.535 149.524 181.424 149.618 181.33C149.716 181.236 149.827 181.162 149.952 181.107C150.081 181.053 150.219 181.025 150.368 181.025ZM165.989 181.248C165.989 181.588 165.913 181.879 165.76 182.121C165.612 182.359 165.413 182.555 165.163 182.707C164.917 182.855 164.635 182.963 164.319 183.029C164.007 183.1 163.686 183.135 163.358 183.135C162.921 183.135 162.526 183.113 162.174 183.07C161.823 183.031 161.491 182.973 161.178 182.895V181.605C161.546 181.758 161.911 181.869 162.274 181.939C162.641 182.006 162.987 182.039 163.311 182.039C163.686 182.039 163.966 181.98 164.149 181.863C164.337 181.742 164.43 181.586 164.43 181.395C164.43 181.305 164.411 181.223 164.372 181.148C164.333 181.074 164.258 181.004 164.149 180.938C164.044 180.867 163.893 180.797 163.698 180.727C163.503 180.652 163.247 180.57 162.93 180.48C162.637 180.398 162.38 180.307 162.157 180.205C161.938 180.1 161.757 179.977 161.612 179.836C161.467 179.695 161.358 179.533 161.284 179.35C161.214 179.162 161.178 178.943 161.178 178.693C161.178 178.451 161.233 178.223 161.342 178.008C161.452 177.793 161.614 177.605 161.829 177.445C162.048 177.281 162.319 177.152 162.643 177.059C162.967 176.965 163.346 176.918 163.78 176.918C164.155 176.918 164.487 176.938 164.776 176.977C165.065 177.016 165.321 177.059 165.544 177.105V178.271C165.204 178.162 164.883 178.086 164.583 178.043C164.286 177.996 163.991 177.973 163.698 177.973C163.405 177.973 163.169 178.025 162.989 178.131C162.813 178.236 162.725 178.383 162.725 178.57C162.725 178.66 162.743 178.74 162.778 178.811C162.813 178.881 162.882 178.949 162.983 179.016C163.089 179.082 163.233 179.152 163.417 179.227C163.604 179.297 163.85 179.375 164.155 179.461C164.499 179.559 164.788 179.664 165.022 179.777C165.257 179.887 165.444 180.012 165.585 180.152C165.729 180.293 165.833 180.453 165.895 180.633C165.958 180.812 165.989 181.018 165.989 181.248ZM172.587 182.941C172.329 183 172.069 183.047 171.807 183.082C171.546 183.117 171.298 183.135 171.063 183.135C170.673 183.135 170.335 183.094 170.049 183.012C169.768 182.93 169.534 182.805 169.346 182.637C169.163 182.469 169.026 182.256 168.936 181.998C168.85 181.736 168.807 181.426 168.807 181.066V178.16H167.208V177.047H168.807V175.523L170.272 175.143V177.047H172.587V178.16H170.272V180.961C170.272 181.301 170.35 181.559 170.507 181.734C170.663 181.906 170.924 181.992 171.292 181.992C171.526 181.992 171.755 181.973 171.977 181.934C172.2 181.895 172.403 181.85 172.587 181.799V182.941ZM178.106 179.361C178.114 179.139 178.102 178.949 178.071 178.793C178.044 178.637 177.997 178.508 177.93 178.406C177.868 178.305 177.79 178.23 177.696 178.184C177.602 178.137 177.495 178.113 177.374 178.113C177.163 178.113 176.944 178.201 176.717 178.377C176.495 178.549 176.249 178.834 175.979 179.232V183H174.514V177.047H175.809L175.862 177.914C175.96 177.762 176.069 177.625 176.19 177.504C176.315 177.383 176.452 177.279 176.6 177.193C176.753 177.104 176.921 177.035 177.104 176.988C177.288 176.941 177.489 176.918 177.708 176.918C178.008 176.918 178.274 176.971 178.505 177.076C178.739 177.178 178.934 177.33 179.091 177.533C179.251 177.736 179.368 177.992 179.442 178.301C179.52 178.605 179.553 178.959 179.542 179.361H178.106ZM184.376 175.418C184.376 175.547 184.352 175.668 184.305 175.781C184.258 175.895 184.192 175.994 184.106 176.08C184.024 176.162 183.926 176.229 183.813 176.279C183.7 176.326 183.577 176.35 183.444 176.35C183.311 176.35 183.186 176.326 183.069 176.279C182.956 176.229 182.856 176.162 182.77 176.08C182.688 175.994 182.624 175.895 182.577 175.781C182.53 175.668 182.507 175.547 182.507 175.418C182.507 175.289 182.53 175.168 182.577 175.055C182.624 174.941 182.688 174.842 182.77 174.756C182.856 174.67 182.956 174.604 183.069 174.557C183.186 174.506 183.311 174.48 183.444 174.48C183.577 174.48 183.7 174.506 183.813 174.557C183.926 174.604 184.024 174.67 184.106 174.756C184.192 174.842 184.258 174.941 184.305 175.055C184.352 175.168 184.376 175.289 184.376 175.418ZM182.794 178.16H181.112V177.047H184.258V181.887H185.975V183H180.907V181.887H182.794V178.16ZM191.02 183V179.121C191.02 178.469 190.778 178.143 190.294 178.143C190.051 178.143 189.819 178.24 189.596 178.436C189.378 178.631 189.145 178.896 188.899 179.232V183H187.469V177.047H188.706L188.741 177.926C188.862 177.773 188.987 177.635 189.116 177.51C189.249 177.385 189.391 177.279 189.544 177.193C189.696 177.104 189.86 177.035 190.036 176.988C190.212 176.941 190.409 176.918 190.628 176.918C190.932 176.918 191.198 176.969 191.424 177.07C191.651 177.168 191.841 177.309 191.993 177.492C192.145 177.672 192.258 177.891 192.333 178.148C192.411 178.402 192.45 178.688 192.45 179.004V183H191.02ZM198.532 178.09C198.641 178.227 198.717 178.371 198.76 178.523C198.807 178.672 198.831 178.824 198.831 178.98C198.831 179.312 198.772 179.605 198.655 179.859C198.542 180.113 198.38 180.326 198.169 180.498C197.962 180.67 197.712 180.801 197.419 180.891C197.13 180.977 196.809 181.02 196.458 181.02C196.251 181.02 196.059 181 195.883 180.961C195.708 180.918 195.575 180.869 195.485 180.814C195.419 180.881 195.362 180.955 195.315 181.037C195.268 181.115 195.245 181.205 195.245 181.307C195.245 181.369 195.26 181.432 195.292 181.494C195.323 181.557 195.368 181.613 195.426 181.664C195.489 181.711 195.561 181.75 195.643 181.781C195.729 181.812 195.825 181.83 195.93 181.834L197.342 181.887C197.659 181.895 197.944 181.936 198.198 182.01C198.456 182.08 198.676 182.182 198.86 182.314C199.044 182.447 199.184 182.609 199.282 182.801C199.383 182.988 199.434 183.203 199.434 183.445C199.434 183.723 199.372 183.984 199.247 184.23C199.122 184.477 198.932 184.689 198.678 184.869C198.428 185.053 198.116 185.197 197.741 185.303C197.366 185.408 196.93 185.461 196.434 185.461C195.954 185.461 195.54 185.422 195.192 185.344C194.848 185.27 194.565 185.164 194.342 185.027C194.124 184.891 193.962 184.727 193.856 184.535C193.751 184.348 193.698 184.141 193.698 183.914C193.698 183.777 193.716 183.65 193.751 183.533C193.786 183.416 193.839 183.303 193.909 183.193C193.979 183.088 194.067 182.984 194.173 182.883C194.278 182.781 194.403 182.68 194.548 182.578C194.356 182.469 194.21 182.328 194.108 182.156C194.01 181.984 193.962 181.801 193.962 181.605C193.962 181.473 193.979 181.35 194.014 181.236C194.049 181.119 194.094 181.008 194.149 180.902C194.208 180.797 194.274 180.695 194.348 180.598C194.423 180.5 194.501 180.404 194.583 180.311C194.438 180.166 194.317 179.992 194.219 179.789C194.126 179.582 194.079 179.324 194.079 179.016C194.079 178.684 194.137 178.389 194.255 178.131C194.376 177.869 194.542 177.65 194.753 177.475C194.964 177.295 195.214 177.16 195.503 177.07C195.796 176.977 196.114 176.93 196.458 176.93C196.633 176.93 196.801 176.939 196.962 176.959C197.126 176.975 197.274 177.004 197.407 177.047H199.469V178.09H198.532ZM195.163 183.791C195.163 184.021 195.278 184.191 195.508 184.301C195.743 184.41 196.071 184.465 196.493 184.465C196.762 184.465 196.989 184.439 197.173 184.389C197.36 184.338 197.512 184.271 197.63 184.189C197.747 184.107 197.831 184.012 197.882 183.902C197.932 183.793 197.958 183.68 197.958 183.562C197.958 183.457 197.932 183.367 197.882 183.293C197.835 183.223 197.766 183.162 197.676 183.111C197.591 183.064 197.487 183.027 197.366 183C197.249 182.977 197.118 182.961 196.973 182.953L195.714 182.93C195.6 183.008 195.507 183.082 195.432 183.152C195.362 183.223 195.305 183.291 195.262 183.357C195.223 183.428 195.196 183.498 195.18 183.568C195.169 183.639 195.163 183.713 195.163 183.791ZM195.403 179.016C195.403 179.332 195.495 179.584 195.678 179.771C195.866 179.955 196.126 180.047 196.458 180.047C196.633 180.047 196.786 180.018 196.915 179.959C197.048 179.9 197.157 179.822 197.243 179.725C197.329 179.627 197.393 179.514 197.436 179.385C197.479 179.256 197.501 179.121 197.501 178.98C197.501 178.648 197.407 178.391 197.219 178.207C197.036 178.02 196.778 177.926 196.446 177.926C196.27 177.926 196.116 177.955 195.983 178.014C195.854 178.072 195.747 178.152 195.661 178.254C195.575 178.352 195.51 178.467 195.467 178.6C195.424 178.732 195.403 178.871 195.403 179.016Z" fill="black"/>
<path d="M59.7546 198.398V200.678H58.4362V198.398H56.2507V197.221H58.4362V194.953H59.7546V197.221H61.9401V198.398H59.7546ZM73.3542 201V197.121C73.3542 196.469 73.112 196.143 72.6276 196.143C72.3854 196.143 72.153 196.24 71.9304 196.436C71.7116 196.631 71.4792 196.896 71.2331 197.232V201H69.8034V192.721H71.2331V194.76L71.1628 195.838C71.2839 195.693 71.4069 195.564 71.5319 195.451C71.6569 195.334 71.7917 195.236 71.9362 195.158C72.0808 195.08 72.237 195.021 72.405 194.982C72.5729 194.939 72.7585 194.918 72.9616 194.918C73.2663 194.918 73.5319 194.969 73.7585 195.07C73.9851 195.168 74.1745 195.309 74.3269 195.492C74.4792 195.672 74.5925 195.891 74.6667 196.148C74.7448 196.402 74.7839 196.688 74.7839 197.004V201H73.3542ZM77.819 195.047V198.926C77.819 199.25 77.8796 199.496 78.0007 199.664C78.1218 199.828 78.3054 199.91 78.5515 199.91C78.7897 199.91 79.0183 199.812 79.237 199.617C79.4597 199.418 79.694 199.15 79.9401 198.814V195.047H81.3698V201H80.1335L80.0983 200.121C79.9733 200.273 79.8464 200.412 79.7175 200.537C79.5886 200.662 79.4479 200.77 79.2956 200.859C79.1472 200.945 78.9831 201.012 78.8034 201.059C78.6276 201.109 78.4323 201.135 78.2175 201.135C77.9128 201.135 77.6452 201.086 77.4147 200.988C77.1882 200.887 76.9987 200.744 76.8464 200.561C76.694 200.377 76.5788 200.158 76.5007 199.904C76.4265 199.646 76.3894 199.359 76.3894 199.043V195.047H77.819ZM86.5495 201V197.121C86.5495 196.469 86.3073 196.143 85.8229 196.143C85.5808 196.143 85.3483 196.24 85.1257 196.436C84.9069 196.631 84.6745 196.896 84.4284 197.232V201H82.9987V195.047H84.2351L84.2702 195.926C84.3913 195.773 84.5163 195.635 84.6452 195.51C84.778 195.385 84.9206 195.279 85.0729 195.193C85.2253 195.104 85.3894 195.035 85.5651 194.988C85.7409 194.941 85.9382 194.918 86.1569 194.918C86.4616 194.918 86.7272 194.969 86.9538 195.07C87.1804 195.168 87.3698 195.309 87.5222 195.492C87.6745 195.672 87.7878 195.891 87.862 196.148C87.9401 196.402 87.9792 196.688 87.9792 197.004V201H86.5495ZM94.5065 200.941C94.2487 201 93.989 201.047 93.7272 201.082C93.4655 201.117 93.2175 201.135 92.9831 201.135C92.5925 201.135 92.2546 201.094 91.9694 201.012C91.6882 200.93 91.4538 200.805 91.2663 200.637C91.0827 200.469 90.946 200.256 90.8561 199.998C90.7702 199.736 90.7272 199.426 90.7272 199.066V196.16H89.1276V195.047H90.7272V193.523L92.1921 193.143V195.047H94.5065V196.16H92.1921V198.961C92.1921 199.301 92.2702 199.559 92.4265 199.734C92.5827 199.906 92.8444 199.992 93.2116 199.992C93.446 199.992 93.6745 199.973 93.8972 199.934C94.1198 199.895 94.3229 199.85 94.5065 199.799V200.941ZM99.821 203.461C98.8718 202.656 98.1589 201.793 97.6823 200.871C97.2097 199.949 96.9733 198.957 96.9733 197.895C96.9733 197.301 97.0436 196.74 97.1843 196.213C97.3249 195.682 97.5222 195.184 97.7761 194.719C98.0339 194.254 98.3386 193.818 98.6901 193.412C99.0456 193.002 99.4343 192.619 99.8561 192.264L100.671 193.078C99.9089 193.762 99.3366 194.5 98.9538 195.293C98.571 196.086 98.3796 196.92 98.3796 197.795C98.3796 198.682 98.571 199.535 98.9538 200.355C99.3366 201.172 99.9089 201.918 100.671 202.594L99.821 203.461ZM104.163 192.264C105.12 193.061 105.833 193.922 106.301 194.848C106.77 195.77 107.005 196.764 107.005 197.83C107.005 198.424 106.934 198.984 106.794 199.512C106.653 200.039 106.456 200.537 106.202 201.006C105.952 201.475 105.651 201.912 105.3 202.318C104.948 202.729 104.561 203.109 104.139 203.461L103.319 202.646C104.085 201.963 104.659 201.223 105.042 200.426C105.425 199.629 105.616 198.793 105.616 197.918C105.616 197.035 105.425 196.184 105.042 195.363C104.659 194.543 104.085 193.793 103.319 193.113L104.163 192.264ZM118.471 194.988C118.62 194.988 118.758 195.016 118.887 195.07C119.016 195.125 119.128 195.201 119.221 195.299C119.315 195.393 119.389 195.504 119.444 195.633C119.499 195.762 119.526 195.898 119.526 196.043C119.526 196.191 119.499 196.33 119.444 196.459C119.389 196.588 119.315 196.699 119.221 196.793C119.128 196.887 119.016 196.961 118.887 197.016C118.758 197.07 118.62 197.098 118.471 197.098C118.323 197.098 118.184 197.07 118.055 197.016C117.93 196.961 117.819 196.887 117.721 196.793C117.628 196.699 117.553 196.588 117.499 196.459C117.444 196.33 117.417 196.191 117.417 196.043C117.417 195.898 117.444 195.762 117.499 195.633C117.553 195.504 117.628 195.393 117.721 195.299C117.819 195.201 117.93 195.125 118.055 195.07C118.184 195.016 118.323 194.988 118.471 194.988ZM118.471 199.025C118.62 199.025 118.758 199.053 118.887 199.107C119.016 199.162 119.128 199.236 119.221 199.33C119.315 199.424 119.389 199.535 119.444 199.664C119.499 199.793 119.526 199.93 119.526 200.074C119.526 200.223 119.499 200.361 119.444 200.49C119.389 200.619 119.315 200.732 119.221 200.83C119.128 200.924 119.016 200.998 118.887 201.053C118.758 201.107 118.62 201.135 118.471 201.135C118.323 201.135 118.184 201.107 118.055 201.053C117.93 200.998 117.819 200.924 117.721 200.83C117.628 200.732 117.553 200.619 117.499 200.49C117.444 200.361 117.417 200.223 117.417 200.074C117.417 199.93 117.444 199.793 117.499 199.664C117.553 199.535 117.628 199.424 117.721 199.33C117.819 199.236 117.93 199.162 118.055 199.107C118.184 199.053 118.323 199.025 118.471 199.025ZM132.51 201H130.864L128.503 195.047H130.096L131.333 198.422L131.702 199.512L132.065 198.469L133.313 195.047H134.848L132.51 201ZM141.141 197.977C141.141 198.445 141.075 198.875 140.942 199.266C140.809 199.652 140.618 199.984 140.368 200.262C140.118 200.539 139.811 200.754 139.448 200.906C139.085 201.059 138.671 201.135 138.206 201.135C137.764 201.135 137.37 201.07 137.022 200.941C136.674 200.812 136.38 200.621 136.137 200.367C135.895 200.109 135.71 199.789 135.581 199.406C135.452 199.02 135.387 198.57 135.387 198.059C135.387 197.586 135.454 197.156 135.587 196.77C135.723 196.383 135.917 196.053 136.167 195.779C136.421 195.506 136.729 195.295 137.092 195.146C137.456 194.994 137.866 194.918 138.323 194.918C138.768 194.918 139.165 194.984 139.512 195.117C139.86 195.246 140.155 195.439 140.397 195.697C140.639 195.955 140.823 196.275 140.948 196.658C141.077 197.037 141.141 197.477 141.141 197.977ZM139.653 198.012C139.653 197.395 139.536 196.932 139.301 196.623C139.071 196.311 138.729 196.154 138.276 196.154C138.026 196.154 137.813 196.203 137.637 196.301C137.462 196.398 137.317 196.533 137.204 196.705C137.091 196.873 137.007 197.07 136.952 197.297C136.901 197.523 136.876 197.766 136.876 198.023C136.876 198.645 137.001 199.113 137.251 199.43C137.501 199.742 137.842 199.898 138.276 199.898C138.514 199.898 138.721 199.852 138.897 199.758C139.073 199.66 139.216 199.527 139.325 199.359C139.434 199.188 139.516 198.986 139.571 198.756C139.626 198.525 139.653 198.277 139.653 198.012ZM145.882 193.418C145.882 193.547 145.858 193.668 145.811 193.781C145.764 193.895 145.698 193.994 145.612 194.08C145.53 194.162 145.432 194.229 145.319 194.279C145.206 194.326 145.083 194.35 144.95 194.35C144.817 194.35 144.692 194.326 144.575 194.279C144.462 194.229 144.362 194.162 144.276 194.08C144.194 193.994 144.13 193.895 144.083 193.781C144.036 193.668 144.012 193.547 144.012 193.418C144.012 193.289 144.036 193.168 144.083 193.055C144.13 192.941 144.194 192.842 144.276 192.756C144.362 192.67 144.462 192.604 144.575 192.557C144.692 192.506 144.817 192.48 144.95 192.48C145.083 192.48 145.206 192.506 145.319 192.557C145.432 192.604 145.53 192.67 145.612 192.756C145.698 192.842 145.764 192.941 145.811 193.055C145.858 193.168 145.882 193.289 145.882 193.418ZM144.299 196.16H142.618V195.047H145.764V199.887H147.481V201H142.413V199.887H144.299V196.16ZM152.719 201L152.684 200.121C152.559 200.273 152.43 200.412 152.298 200.537C152.165 200.662 152.022 200.77 151.87 200.859C151.717 200.945 151.553 201.012 151.378 201.059C151.206 201.109 151.014 201.135 150.803 201.135C150.452 201.135 150.139 201.064 149.866 200.924C149.592 200.783 149.362 200.584 149.174 200.326C148.991 200.064 148.85 199.748 148.753 199.377C148.655 199.006 148.606 198.592 148.606 198.135C148.606 197.588 148.682 197.115 148.835 196.717C148.991 196.314 149.206 195.982 149.479 195.721C149.753 195.455 150.077 195.26 150.452 195.135C150.827 195.006 151.235 194.941 151.676 194.941C151.825 194.941 151.973 194.951 152.122 194.971C152.274 194.99 152.409 195.016 152.526 195.047V192.721H153.956V201H152.719ZM150.106 198.07C150.106 198.398 150.128 198.68 150.171 198.914C150.217 199.145 150.284 199.334 150.37 199.482C150.46 199.631 150.569 199.74 150.698 199.811C150.827 199.877 150.973 199.91 151.137 199.91C151.38 199.91 151.61 199.812 151.829 199.617C152.048 199.422 152.28 199.154 152.526 198.814V196.213C152.413 196.17 152.272 196.135 152.104 196.107C151.94 196.08 151.774 196.066 151.606 196.066C151.376 196.066 151.169 196.113 150.985 196.207C150.801 196.301 150.643 196.434 150.51 196.605C150.382 196.777 150.282 196.988 150.212 197.238C150.141 197.484 150.106 197.762 150.106 198.07Z" fill="black"/>
<rect x="515.5" y="233.5" width="160" height="52" rx="2.5" fill="#7DE77B" stroke="black" stroke-width="3"/>
<path d="M588.698 265H587.004L586.248 262.639L585.973 261.678L585.709 262.662L584.965 265H583.342L582.914 257.342H584.186L584.368 262.252L584.414 263.594L584.76 262.398L585.604 259.674H586.512L587.403 262.562L587.69 263.582L587.713 262.387L587.907 257.342H589.131L588.698 265ZM595.494 261.977C595.494 262.445 595.428 262.875 595.295 263.266C595.162 263.652 594.971 263.984 594.721 264.262C594.471 264.539 594.164 264.754 593.801 264.906C593.438 265.059 593.024 265.135 592.559 265.135C592.118 265.135 591.723 265.07 591.375 264.941C591.028 264.812 590.733 264.621 590.491 264.367C590.248 264.109 590.063 263.789 589.934 263.406C589.805 263.02 589.741 262.57 589.741 262.059C589.741 261.586 589.807 261.156 589.94 260.77C590.077 260.383 590.27 260.053 590.52 259.779C590.774 259.506 591.082 259.295 591.446 259.146C591.809 258.994 592.219 258.918 592.676 258.918C593.121 258.918 593.518 258.984 593.866 259.117C594.213 259.246 594.508 259.439 594.75 259.697C594.993 259.955 595.176 260.275 595.301 260.658C595.43 261.037 595.494 261.477 595.494 261.977ZM594.006 262.012C594.006 261.395 593.889 260.932 593.655 260.623C593.424 260.311 593.082 260.154 592.629 260.154C592.379 260.154 592.166 260.203 591.991 260.301C591.815 260.398 591.67 260.533 591.557 260.705C591.444 260.873 591.36 261.07 591.305 261.297C591.254 261.523 591.229 261.766 591.229 262.023C591.229 262.645 591.354 263.113 591.604 263.43C591.854 263.742 592.196 263.898 592.629 263.898C592.868 263.898 593.075 263.852 593.25 263.758C593.426 263.66 593.569 263.527 593.678 263.359C593.787 263.188 593.869 262.986 593.924 262.756C593.979 262.525 594.006 262.277 594.006 262.012ZM598.653 257.834H596.971V256.721H600.118V263.887H601.834V265H596.766V263.887H598.653V257.834ZM608.672 257.934C608.5 257.879 608.295 257.834 608.057 257.799C607.823 257.76 607.582 257.74 607.336 257.74C607.168 257.74 607.012 257.764 606.868 257.811C606.723 257.854 606.598 257.924 606.493 258.021C606.387 258.119 606.303 258.244 606.241 258.396C606.182 258.545 606.153 258.727 606.153 258.941V259.902H608.491V261.016H606.153V265H604.711V261.016H602.983V259.902H604.711V259C604.711 258.578 604.772 258.217 604.893 257.916C605.018 257.611 605.192 257.363 605.414 257.172C605.641 256.977 605.912 256.834 606.229 256.744C606.545 256.654 606.899 256.609 607.289 256.609C607.547 256.609 607.791 256.627 608.022 256.662C608.256 256.693 608.473 256.732 608.672 256.779V257.934Z" fill="black"/>
<path d="M661.415 102.503C661.141 101.722 660.285 101.31 659.503 101.585L646.765 106.053C645.983 106.327 645.571 107.183 645.846 107.965C646.12 108.747 646.976 109.158 647.758 108.884L659.081 104.912L663.053 116.235C663.327 117.017 664.183 117.429 664.965 117.154C665.747 116.88 666.158 116.024 665.884 115.242L661.415 102.503ZM599.352 232.65L661.352 103.65L658.648 102.35L596.648 231.35L599.352 232.65Z" fill="black"/>
<path d="M537.484 106.58C536.699 106.313 535.847 106.732 535.58 107.516L531.228 120.296C530.961 121.08 531.38 121.932 532.165 122.199C532.949 122.466 533.801 122.047 534.068 121.263L537.936 109.903L549.296 113.772C550.08 114.039 550.932 113.62 551.199 112.835C551.466 112.051 551.047 111.199 550.263 110.932L537.484 106.58ZM599.346 231.338L538.346 107.338L535.654 108.662L596.654 232.662L599.346 231.338Z" fill="black"/>
<path d="M333.121 172.701C333.121 173.678 332.983 174.573 332.706 175.387C332.429 176.192 332.031 176.884 331.51 177.462C330.989 178.04 330.35 178.487 329.593 178.805C328.836 179.122 327.974 179.281 327.005 179.281C326.086 179.281 325.264 179.146 324.54 178.878C323.815 178.609 323.201 178.211 322.696 177.682C322.192 177.145 321.805 176.477 321.537 175.68C321.268 174.874 321.134 173.938 321.134 172.872C321.134 171.887 321.272 170.992 321.549 170.187C321.834 169.381 322.236 168.693 322.757 168.124C323.286 167.554 323.929 167.114 324.686 166.805C325.443 166.488 326.297 166.329 327.25 166.329C328.177 166.329 329.003 166.467 329.728 166.744C330.452 167.013 331.066 167.416 331.571 167.953C332.075 168.49 332.458 169.157 332.718 169.955C332.987 170.744 333.121 171.66 333.121 172.701ZM330.021 172.774C330.021 171.489 329.776 170.524 329.288 169.881C328.808 169.23 328.096 168.905 327.152 168.905C326.631 168.905 326.188 169.007 325.821 169.21C325.455 169.413 325.154 169.694 324.918 170.052C324.682 170.402 324.507 170.813 324.393 171.285C324.287 171.757 324.234 172.262 324.234 172.799C324.234 174.093 324.495 175.069 325.016 175.729C325.536 176.38 326.249 176.705 327.152 176.705C327.648 176.705 328.08 176.607 328.446 176.412C328.812 176.209 329.109 175.932 329.337 175.582C329.565 175.224 329.736 174.805 329.85 174.325C329.964 173.845 330.021 173.328 330.021 172.774ZM343.68 171.419C343.696 170.956 343.672 170.561 343.607 170.235C343.55 169.91 343.452 169.641 343.314 169.43C343.184 169.218 343.021 169.063 342.826 168.966C342.63 168.868 342.407 168.819 342.154 168.819C341.715 168.819 341.259 169.002 340.787 169.369C340.323 169.727 339.811 170.321 339.249 171.151V179H336.197V166.598H338.895L339.005 168.404C339.208 168.087 339.436 167.802 339.688 167.55C339.949 167.298 340.234 167.082 340.543 166.903C340.86 166.716 341.21 166.573 341.593 166.476C341.975 166.378 342.394 166.329 342.85 166.329C343.477 166.329 344.03 166.439 344.51 166.659C344.999 166.87 345.405 167.188 345.731 167.611C346.065 168.034 346.309 168.567 346.463 169.21C346.626 169.845 346.695 170.581 346.671 171.419H343.68Z" fill="black"/>
</svg>
