<svg width="800" height="633" viewBox="0 0 800 633" fill="none" xmlns="http://www.w3.org/2000/svg">
<line x1="367" y1="44.5" x2="223" y2="44.5" stroke="black" stroke-width="3"/>
<line x1="367" y1="155.5" x2="223" y2="155.5" stroke="black" stroke-width="3"/>
<line x1="367" y1="273.5" x2="223" y2="273.5" stroke="black" stroke-width="3"/>
<line x1="367" y1="388.5" x2="223" y2="388.5" stroke="black" stroke-width="3"/>
<path d="M365.586 516.414C366.367 517.195 367.633 517.195 368.414 516.414L381.142 503.686C381.923 502.905 381.923 501.639 381.142 500.858C380.361 500.077 379.095 500.077 378.314 500.858L367 512.172L355.686 500.858C354.905 500.077 353.639 500.077 352.858 500.858C352.077 501.639 352.077 502.905 352.858 503.686L365.586 516.414ZM365 43L365 515L369 515L369 43L365 43Z" fill="black"/>
<rect x="260.5" y="560.5" width="213" height="52" rx="2.5" fill="#7DE77B" stroke="black" stroke-width="3"/>
<path d="M320.074 589.709C320.074 590.068 320.017 590.396 319.904 590.693C319.79 590.99 319.624 591.244 319.406 591.455C319.187 591.666 318.915 591.83 318.591 591.947C318.267 592.061 317.89 592.117 317.46 592.117C317.144 592.117 316.839 592.08 316.546 592.006C316.253 591.932 315.997 591.838 315.779 591.725V590.33C315.876 590.412 315.99 590.488 316.118 590.559C316.251 590.629 316.392 590.691 316.54 590.746C316.689 590.797 316.841 590.838 316.997 590.869C317.154 590.896 317.308 590.91 317.46 590.91C317.589 590.91 317.722 590.887 317.859 590.84C317.999 590.793 318.124 590.715 318.234 590.605C318.343 590.496 318.433 590.354 318.503 590.178C318.574 589.998 318.609 589.777 318.609 589.516V585.531H315.837V584.342H320.074V589.709ZM327.544 588.977C327.544 589.445 327.478 589.875 327.345 590.266C327.212 590.652 327.021 590.984 326.771 591.262C326.521 591.539 326.214 591.754 325.851 591.906C325.488 592.059 325.074 592.135 324.609 592.135C324.167 592.135 323.773 592.07 323.425 591.941C323.077 591.812 322.782 591.621 322.54 591.367C322.298 591.109 322.113 590.789 321.984 590.406C321.855 590.02 321.79 589.57 321.79 589.059C321.79 588.586 321.857 588.156 321.99 587.77C322.126 587.383 322.32 587.053 322.57 586.779C322.824 586.506 323.132 586.295 323.495 586.146C323.859 585.994 324.269 585.918 324.726 585.918C325.171 585.918 325.568 585.984 325.915 586.117C326.263 586.246 326.558 586.439 326.8 586.697C327.042 586.955 327.226 587.275 327.351 587.658C327.48 588.037 327.544 588.477 327.544 588.977ZM326.056 589.012C326.056 588.395 325.939 587.932 325.704 587.623C325.474 587.311 325.132 587.154 324.679 587.154C324.429 587.154 324.216 587.203 324.04 587.301C323.865 587.398 323.72 587.533 323.607 587.705C323.493 587.873 323.409 588.07 323.355 588.297C323.304 588.523 323.279 588.766 323.279 589.023C323.279 589.645 323.404 590.113 323.654 590.43C323.904 590.742 324.245 590.898 324.679 590.898C324.917 590.898 325.124 590.852 325.3 590.758C325.476 590.66 325.618 590.527 325.728 590.359C325.837 590.188 325.919 589.986 325.974 589.756C326.029 589.525 326.056 589.277 326.056 589.012ZM334.136 588.918C334.136 589.465 334.058 589.938 333.902 590.336C333.749 590.734 333.534 591.066 333.257 591.332C332.984 591.594 332.659 591.789 332.284 591.918C331.909 592.043 331.501 592.105 331.06 592.105C330.626 592.105 330.222 592.072 329.847 592.006C329.476 591.943 329.12 591.857 328.781 591.748V583.721H330.21V585.666L330.152 586.838C330.366 586.561 330.616 586.338 330.902 586.17C331.191 586.002 331.536 585.918 331.939 585.918C332.29 585.918 332.603 585.988 332.876 586.129C333.15 586.27 333.378 586.471 333.562 586.732C333.749 586.99 333.892 587.305 333.99 587.676C334.087 588.043 334.136 588.457 334.136 588.918ZM332.636 588.977C332.636 588.648 332.613 588.369 332.566 588.139C332.519 587.908 332.45 587.719 332.361 587.57C332.275 587.422 332.167 587.314 332.038 587.248C331.913 587.178 331.769 587.143 331.605 587.143C331.363 587.143 331.13 587.24 330.907 587.436C330.689 587.631 330.456 587.896 330.21 588.232V590.834C330.324 590.877 330.462 590.912 330.626 590.939C330.794 590.967 330.964 590.98 331.136 590.98C331.363 590.98 331.568 590.934 331.751 590.84C331.939 590.746 332.097 590.613 332.226 590.441C332.359 590.27 332.46 590.061 332.531 589.814C332.601 589.564 332.636 589.285 332.636 588.977ZM338.812 592H336.902L334.564 584.342H336.199L337.493 588.953L337.909 590.465L338.343 588.865L339.626 584.342H341.161L338.812 592ZM347.161 588.566C347.161 588.664 347.157 588.791 347.15 588.947C347.146 589.104 347.138 589.25 347.126 589.387H343.212C343.212 589.648 343.251 589.879 343.329 590.078C343.411 590.277 343.525 590.445 343.669 590.582C343.818 590.715 343.993 590.816 344.197 590.887C344.404 590.957 344.632 590.992 344.882 590.992C345.171 590.992 345.48 590.971 345.808 590.928C346.14 590.881 346.484 590.807 346.839 590.705V591.842C346.687 591.885 346.521 591.924 346.341 591.959C346.161 591.994 345.978 592.025 345.79 592.053C345.603 592.08 345.413 592.1 345.222 592.111C345.031 592.127 344.845 592.135 344.665 592.135C344.212 592.135 343.806 592.07 343.447 591.941C343.087 591.812 342.782 591.623 342.532 591.373C342.282 591.119 342.091 590.807 341.958 590.436C341.825 590.064 341.759 589.635 341.759 589.146C341.759 588.662 341.825 588.223 341.958 587.828C342.091 587.43 342.279 587.09 342.521 586.809C342.763 586.523 343.056 586.305 343.4 586.152C343.747 585.996 344.134 585.918 344.56 585.918C344.982 585.918 345.355 585.984 345.679 586.117C346.003 586.246 346.275 586.428 346.493 586.662C346.712 586.896 346.878 587.176 346.991 587.5C347.105 587.824 347.161 588.18 347.161 588.566ZM345.708 588.361C345.712 588.127 345.683 587.924 345.62 587.752C345.558 587.576 345.472 587.432 345.363 587.318C345.257 587.205 345.132 587.121 344.988 587.066C344.847 587.012 344.695 586.984 344.531 586.984C344.171 586.984 343.876 587.105 343.646 587.348C343.415 587.586 343.279 587.924 343.236 588.361H345.708ZM352.406 588.361C352.413 588.139 352.402 587.949 352.37 587.793C352.343 587.637 352.296 587.508 352.23 587.406C352.167 587.305 352.089 587.23 351.995 587.184C351.902 587.137 351.794 587.113 351.673 587.113C351.462 587.113 351.243 587.201 351.017 587.377C350.794 587.549 350.548 587.834 350.279 588.232V592H348.814V586.047H350.109L350.161 586.914C350.259 586.762 350.368 586.625 350.49 586.504C350.615 586.383 350.751 586.279 350.9 586.193C351.052 586.104 351.22 586.035 351.404 585.988C351.587 585.941 351.788 585.918 352.007 585.918C352.308 585.918 352.574 585.971 352.804 586.076C353.038 586.178 353.234 586.33 353.39 586.533C353.55 586.736 353.667 586.992 353.741 587.301C353.82 587.605 353.853 587.959 353.841 588.361H352.406ZM358.675 584.418C358.675 584.547 358.652 584.668 358.605 584.781C358.558 584.895 358.491 584.994 358.406 585.08C358.324 585.162 358.226 585.229 358.113 585.279C357.999 585.326 357.876 585.35 357.743 585.35C357.611 585.35 357.486 585.326 357.368 585.279C357.255 585.229 357.156 585.162 357.07 585.08C356.988 584.994 356.923 584.895 356.876 584.781C356.829 584.668 356.806 584.547 356.806 584.418C356.806 584.289 356.829 584.168 356.876 584.055C356.923 583.941 356.988 583.842 357.07 583.756C357.156 583.67 357.255 583.604 357.368 583.557C357.486 583.506 357.611 583.48 357.743 583.48C357.876 583.48 357.999 583.506 358.113 583.557C358.226 583.604 358.324 583.67 358.406 583.756C358.491 583.842 358.558 583.941 358.605 584.055C358.652 584.168 358.675 584.289 358.675 584.418ZM357.093 587.16H355.411V586.047H358.558V590.887H360.275V592H355.206V590.887H357.093V587.16ZM367.113 584.934C366.941 584.879 366.736 584.834 366.497 584.799C366.263 584.76 366.023 584.74 365.777 584.74C365.609 584.74 365.452 584.764 365.308 584.811C365.163 584.854 365.038 584.924 364.933 585.021C364.827 585.119 364.743 585.244 364.681 585.396C364.622 585.545 364.593 585.727 364.593 585.941V586.902H366.931V588.016H364.593V592H363.152V588.016H361.423V586.902H363.152V586C363.152 585.578 363.212 585.217 363.333 584.916C363.458 584.611 363.632 584.363 363.855 584.172C364.081 583.977 364.353 583.834 364.669 583.744C364.986 583.654 365.339 583.609 365.73 583.609C365.988 583.609 366.232 583.627 366.462 583.662C366.697 583.693 366.913 583.732 367.113 583.779V584.934ZM371.87 584.418C371.87 584.547 371.847 584.668 371.8 584.781C371.753 584.895 371.687 584.994 371.601 585.08C371.519 585.162 371.421 585.229 371.308 585.279C371.195 585.326 371.072 585.35 370.939 585.35C370.806 585.35 370.681 585.326 370.564 585.279C370.45 585.229 370.351 585.162 370.265 585.08C370.183 584.994 370.118 584.895 370.072 584.781C370.025 584.668 370.001 584.547 370.001 584.418C370.001 584.289 370.025 584.168 370.072 584.055C370.118 583.941 370.183 583.842 370.265 583.756C370.351 583.67 370.45 583.604 370.564 583.557C370.681 583.506 370.806 583.48 370.939 583.48C371.072 583.48 371.195 583.506 371.308 583.557C371.421 583.604 371.519 583.67 371.601 583.756C371.687 583.842 371.753 583.941 371.8 584.055C371.847 584.168 371.87 584.289 371.87 584.418ZM370.288 587.16H368.607V586.047H371.753V590.887H373.47V592H368.402V590.887H370.288V587.16ZM380.15 588.566C380.15 588.664 380.146 588.791 380.138 588.947C380.134 589.104 380.126 589.25 380.115 589.387H376.2C376.2 589.648 376.24 589.879 376.318 590.078C376.4 590.277 376.513 590.445 376.657 590.582C376.806 590.715 376.982 590.816 377.185 590.887C377.392 590.957 377.62 590.992 377.87 590.992C378.159 590.992 378.468 590.971 378.796 590.928C379.128 590.881 379.472 590.807 379.827 590.705V591.842C379.675 591.885 379.509 591.924 379.329 591.959C379.15 591.994 378.966 592.025 378.779 592.053C378.591 592.08 378.402 592.1 378.21 592.111C378.019 592.127 377.833 592.135 377.654 592.135C377.2 592.135 376.794 592.07 376.435 591.941C376.075 591.812 375.771 591.623 375.521 591.373C375.271 591.119 375.079 590.807 374.947 590.436C374.814 590.064 374.747 589.635 374.747 589.146C374.747 588.662 374.814 588.223 374.947 587.828C375.079 587.43 375.267 587.09 375.509 586.809C375.751 586.523 376.044 586.305 376.388 586.152C376.736 585.996 377.122 585.918 377.548 585.918C377.97 585.918 378.343 585.984 378.667 586.117C378.991 586.246 379.263 586.428 379.482 586.662C379.7 586.896 379.866 587.176 379.98 587.5C380.093 587.824 380.15 588.18 380.15 588.566ZM378.697 588.361C378.7 588.127 378.671 587.924 378.609 587.752C378.546 587.576 378.46 587.432 378.351 587.318C378.245 587.205 378.12 587.121 377.976 587.066C377.835 587.012 377.683 586.984 377.519 586.984C377.159 586.984 376.865 587.105 376.634 587.348C376.404 587.586 376.267 587.924 376.224 588.361H378.697ZM385.306 592L385.271 591.121C385.146 591.273 385.017 591.412 384.884 591.537C384.751 591.662 384.609 591.77 384.456 591.859C384.304 591.945 384.14 592.012 383.964 592.059C383.792 592.109 383.601 592.135 383.39 592.135C383.038 592.135 382.726 592.064 382.452 591.924C382.179 591.783 381.949 591.584 381.761 591.326C381.577 591.064 381.437 590.748 381.339 590.377C381.241 590.006 381.193 589.592 381.193 589.135C381.193 588.588 381.269 588.115 381.421 587.717C381.577 587.314 381.792 586.982 382.066 586.721C382.339 586.455 382.663 586.26 383.038 586.135C383.413 586.006 383.822 585.941 384.263 585.941C384.411 585.941 384.56 585.951 384.708 585.971C384.861 585.99 384.995 586.016 385.113 586.047V583.721H386.542V592H385.306ZM382.693 589.07C382.693 589.398 382.714 589.68 382.757 589.914C382.804 590.145 382.87 590.334 382.956 590.482C383.046 590.631 383.156 590.74 383.284 590.811C383.413 590.877 383.56 590.91 383.724 590.91C383.966 590.91 384.197 590.812 384.415 590.617C384.634 590.422 384.866 590.154 385.113 589.814V587.213C384.999 587.17 384.859 587.135 384.691 587.107C384.527 587.08 384.361 587.066 384.193 587.066C383.962 587.066 383.755 587.113 383.572 587.207C383.388 587.301 383.23 587.434 383.097 587.605C382.968 587.777 382.868 587.988 382.798 588.238C382.728 588.484 382.693 588.762 382.693 589.07ZM388.423 592V584.342H393.034V585.561H389.888V587.465H392.888V588.654H389.888V590.781H393.034V592H388.423ZM398.085 592H396.439L394.077 586.047H395.671L396.907 589.422L397.277 590.512L397.64 589.469L398.888 586.047H400.423L398.085 592ZM406.54 588.566C406.54 588.664 406.536 588.791 406.529 588.947C406.525 589.104 406.517 589.25 406.505 589.387H402.591C402.591 589.648 402.63 589.879 402.708 590.078C402.79 590.277 402.904 590.445 403.048 590.582C403.197 590.715 403.372 590.816 403.575 590.887C403.782 590.957 404.011 590.992 404.261 590.992C404.55 590.992 404.859 590.971 405.187 590.928C405.519 590.881 405.863 590.807 406.218 590.705V591.842C406.066 591.885 405.9 591.924 405.72 591.959C405.54 591.994 405.357 592.025 405.169 592.053C404.982 592.08 404.792 592.1 404.601 592.111C404.409 592.127 404.224 592.135 404.044 592.135C403.591 592.135 403.185 592.07 402.825 591.941C402.466 591.812 402.161 591.623 401.911 591.373C401.661 591.119 401.47 590.807 401.337 590.436C401.204 590.064 401.138 589.635 401.138 589.146C401.138 588.662 401.204 588.223 401.337 587.828C401.47 587.43 401.657 587.09 401.9 586.809C402.142 586.523 402.435 586.305 402.779 586.152C403.126 585.996 403.513 585.918 403.939 585.918C404.361 585.918 404.734 585.984 405.058 586.117C405.382 586.246 405.654 586.428 405.872 586.662C406.091 586.896 406.257 587.176 406.37 587.5C406.484 587.824 406.54 588.18 406.54 588.566ZM405.087 588.361C405.091 588.127 405.062 587.924 404.999 587.752C404.937 587.576 404.851 587.432 404.741 587.318C404.636 587.205 404.511 587.121 404.366 587.066C404.226 587.012 404.074 586.984 403.909 586.984C403.55 586.984 403.255 587.105 403.025 587.348C402.794 587.586 402.657 587.924 402.615 588.361H405.087ZM411.503 592V588.121C411.503 587.469 411.261 587.143 410.777 587.143C410.534 587.143 410.302 587.24 410.079 587.436C409.861 587.631 409.628 587.896 409.382 588.232V592H407.952V586.047H409.189L409.224 586.926C409.345 586.773 409.47 586.635 409.599 586.51C409.732 586.385 409.874 586.279 410.027 586.193C410.179 586.104 410.343 586.035 410.519 585.988C410.695 585.941 410.892 585.918 411.111 585.918C411.415 585.918 411.681 585.969 411.907 586.07C412.134 586.168 412.324 586.309 412.476 586.492C412.628 586.672 412.741 586.891 412.816 587.148C412.894 587.402 412.933 587.688 412.933 588.004V592H411.503ZM419.46 591.941C419.202 592 418.943 592.047 418.681 592.082C418.419 592.117 418.171 592.135 417.937 592.135C417.546 592.135 417.208 592.094 416.923 592.012C416.642 591.93 416.407 591.805 416.22 591.637C416.036 591.469 415.9 591.256 415.81 590.998C415.724 590.736 415.681 590.426 415.681 590.066V587.16H414.081V586.047H415.681V584.523L417.146 584.143V586.047H419.46V587.16H417.146V589.961C417.146 590.301 417.224 590.559 417.38 590.734C417.536 590.906 417.798 590.992 418.165 590.992C418.4 590.992 418.628 590.973 418.851 590.934C419.074 590.895 419.277 590.85 419.46 590.799V591.941Z" fill="black"/>
<path d="M524.695 554.766C524.695 555.557 524.596 556.276 524.398 556.922C524.206 557.568 523.901 558.12 523.484 558.578C523.073 559.031 522.544 559.383 521.898 559.633C521.253 559.878 520.479 560 519.578 560H516.984V549.789H520.008C520.789 549.789 521.471 549.888 522.055 550.086C522.643 550.279 523.133 550.578 523.523 550.984C523.914 551.391 524.206 551.906 524.398 552.531C524.596 553.156 524.695 553.901 524.695 554.766ZM522.633 554.891C522.633 554.339 522.589 553.846 522.5 553.414C522.411 552.982 522.26 552.617 522.047 552.32C521.839 552.018 521.557 551.789 521.203 551.633C520.849 551.477 520.409 551.398 519.883 551.398H518.906V558.391H519.75C520.693 558.391 521.409 558.109 521.898 557.547C522.388 556.984 522.633 556.099 522.633 554.891ZM530.867 549.891C530.867 550.062 530.836 550.224 530.773 550.375C530.711 550.526 530.622 550.659 530.508 550.773C530.398 550.883 530.268 550.971 530.117 551.039C529.966 551.102 529.802 551.133 529.625 551.133C529.448 551.133 529.281 551.102 529.125 551.039C528.974 550.971 528.841 550.883 528.727 550.773C528.617 550.659 528.531 550.526 528.469 550.375C528.406 550.224 528.375 550.062 528.375 549.891C528.375 549.719 528.406 549.557 528.469 549.406C528.531 549.255 528.617 549.122 528.727 549.008C528.841 548.893 528.974 548.805 529.125 548.742C529.281 548.674 529.448 548.641 529.625 548.641C529.802 548.641 529.966 548.674 530.117 548.742C530.268 548.805 530.398 548.893 530.508 549.008C530.622 549.122 530.711 549.255 530.773 549.406C530.836 549.557 530.867 549.719 530.867 549.891ZM528.758 553.547H526.516V552.062H530.711V558.516H533V560H526.242V558.516H528.758V553.547ZM541.539 557.664C541.539 558.117 541.438 558.505 541.234 558.828C541.036 559.146 540.771 559.406 540.438 559.609C540.109 559.807 539.734 559.951 539.312 560.039C538.896 560.133 538.469 560.18 538.031 560.18C537.448 560.18 536.922 560.151 536.453 560.094C535.984 560.042 535.542 559.964 535.125 559.859V558.141C535.615 558.344 536.102 558.492 536.586 558.586C537.076 558.674 537.536 558.719 537.969 558.719C538.469 558.719 538.841 558.641 539.086 558.484C539.336 558.323 539.461 558.115 539.461 557.859C539.461 557.74 539.435 557.63 539.383 557.531C539.331 557.432 539.232 557.339 539.086 557.25C538.945 557.156 538.745 557.062 538.484 556.969C538.224 556.87 537.883 556.76 537.461 556.641C537.07 556.531 536.727 556.409 536.43 556.273C536.138 556.133 535.896 555.969 535.703 555.781C535.51 555.594 535.365 555.378 535.266 555.133C535.172 554.883 535.125 554.591 535.125 554.258C535.125 553.935 535.198 553.63 535.344 553.344C535.49 553.057 535.706 552.807 535.992 552.594C536.284 552.375 536.646 552.203 537.078 552.078C537.51 551.953 538.016 551.891 538.594 551.891C539.094 551.891 539.536 551.917 539.922 551.969C540.307 552.021 540.648 552.078 540.945 552.141V553.695C540.492 553.549 540.065 553.448 539.664 553.391C539.268 553.328 538.875 553.297 538.484 553.297C538.094 553.297 537.779 553.367 537.539 553.508C537.305 553.648 537.188 553.844 537.188 554.094C537.188 554.214 537.211 554.32 537.258 554.414C537.305 554.508 537.396 554.599 537.531 554.688C537.672 554.776 537.865 554.87 538.109 554.969C538.359 555.062 538.688 555.167 539.094 555.281C539.552 555.411 539.938 555.552 540.25 555.703C540.562 555.849 540.812 556.016 541 556.203C541.193 556.391 541.331 556.604 541.414 556.844C541.497 557.083 541.539 557.357 541.539 557.664ZM550.93 555.891C550.93 556.62 550.826 557.25 550.617 557.781C550.414 558.312 550.128 558.755 549.758 559.109C549.393 559.458 548.961 559.719 548.461 559.891C547.961 560.057 547.417 560.141 546.828 560.141C546.63 560.141 546.432 560.128 546.234 560.102C546.036 560.076 545.857 560.042 545.695 560V563.102H543.789V552.062H545.438L545.484 553.234C545.646 553.031 545.812 552.846 545.984 552.68C546.161 552.513 546.352 552.372 546.555 552.258C546.758 552.138 546.977 552.047 547.211 551.984C547.445 551.922 547.708 551.891 548 551.891C548.469 551.891 548.885 551.984 549.25 552.172C549.615 552.359 549.919 552.628 550.164 552.977C550.414 553.32 550.604 553.74 550.734 554.234C550.865 554.724 550.93 555.276 550.93 555.891ZM548.93 555.969C548.93 555.531 548.898 555.159 548.836 554.852C548.773 554.544 548.682 554.292 548.562 554.094C548.448 553.896 548.305 553.753 548.133 553.664C547.966 553.57 547.773 553.523 547.555 553.523C547.232 553.523 546.922 553.654 546.625 553.914C546.333 554.174 546.023 554.529 545.695 554.977V558.445C545.846 558.503 546.031 558.549 546.25 558.586C546.474 558.622 546.701 558.641 546.93 558.641C547.232 558.641 547.505 558.578 547.75 558.453C548 558.328 548.211 558.151 548.383 557.922C548.56 557.693 548.695 557.414 548.789 557.086C548.883 556.753 548.93 556.38 548.93 555.969ZM557.562 560L557.516 558.961C557.349 559.138 557.174 559.302 556.992 559.453C556.81 559.599 556.609 559.727 556.391 559.836C556.172 559.945 555.932 560.029 555.672 560.086C555.417 560.148 555.135 560.18 554.828 560.18C554.422 560.18 554.065 560.12 553.758 560C553.451 559.88 553.193 559.714 552.984 559.5C552.776 559.286 552.617 559.029 552.508 558.727C552.404 558.424 552.352 558.091 552.352 557.727C552.352 557.352 552.43 557.005 552.586 556.688C552.747 556.37 552.99 556.096 553.312 555.867C553.641 555.638 554.047 555.458 554.531 555.328C555.021 555.198 555.594 555.133 556.25 555.133H557.289V554.656C557.289 554.453 557.26 554.271 557.203 554.109C557.146 553.943 557.052 553.802 556.922 553.688C556.797 553.573 556.633 553.484 556.43 553.422C556.227 553.359 555.977 553.328 555.68 553.328C555.211 553.328 554.747 553.383 554.289 553.492C553.836 553.596 553.396 553.745 552.969 553.938V552.414C553.349 552.263 553.786 552.138 554.281 552.039C554.781 551.94 555.299 551.891 555.836 551.891C556.424 551.891 556.93 551.948 557.352 552.062C557.773 552.172 558.12 552.339 558.391 552.562C558.667 552.786 558.87 553.068 559 553.406C559.13 553.74 559.195 554.13 559.195 554.578V560H557.562ZM557.289 556.492H556.125C555.802 556.492 555.529 556.523 555.305 556.586C555.081 556.648 554.898 556.734 554.758 556.844C554.617 556.953 554.513 557.081 554.445 557.227C554.383 557.367 554.352 557.518 554.352 557.68C554.352 558.003 554.456 558.25 554.664 558.422C554.872 558.589 555.156 558.672 555.516 558.672C555.781 558.672 556.057 558.576 556.344 558.383C556.63 558.19 556.945 557.914 557.289 557.555V556.492ZM567.93 559.922C567.586 560 567.24 560.062 566.891 560.109C566.542 560.156 566.211 560.18 565.898 560.18C565.378 560.18 564.927 560.125 564.547 560.016C564.172 559.906 563.859 559.74 563.609 559.516C563.365 559.292 563.182 559.008 563.062 558.664C562.948 558.315 562.891 557.901 562.891 557.422V553.547H560.758V552.062H562.891V550.031L564.844 549.523V552.062H567.93V553.547H564.844V557.281C564.844 557.734 564.948 558.078 565.156 558.312C565.365 558.542 565.714 558.656 566.203 558.656C566.516 558.656 566.82 558.63 567.117 558.578C567.414 558.526 567.685 558.466 567.93 558.398V559.922ZM576.602 559.695C576.227 559.846 575.839 559.958 575.438 560.031C575.036 560.104 574.617 560.141 574.18 560.141C573.549 560.141 572.984 560.055 572.484 559.883C571.984 559.711 571.56 559.456 571.211 559.117C570.862 558.779 570.594 558.359 570.406 557.859C570.224 557.359 570.133 556.781 570.133 556.125C570.133 555.49 570.232 554.914 570.43 554.398C570.633 553.883 570.917 553.443 571.281 553.078C571.646 552.714 572.083 552.432 572.594 552.234C573.109 552.036 573.682 551.938 574.312 551.938C574.828 551.938 575.26 551.966 575.609 552.023C575.964 552.076 576.281 552.143 576.562 552.227V554.078C576.24 553.917 575.888 553.792 575.508 553.703C575.133 553.615 574.776 553.57 574.438 553.57C574.083 553.57 573.766 553.63 573.484 553.75C573.203 553.87 572.966 554.036 572.773 554.25C572.581 554.464 572.432 554.724 572.328 555.031C572.229 555.333 572.18 555.667 572.18 556.031C572.18 556.411 572.234 556.753 572.344 557.055C572.453 557.357 572.607 557.615 572.805 557.828C573.008 558.036 573.25 558.198 573.531 558.312C573.812 558.422 574.125 558.477 574.469 558.477C574.635 558.477 574.81 558.466 574.992 558.445C575.18 558.419 575.365 558.385 575.547 558.344C575.734 558.297 575.917 558.245 576.094 558.188C576.276 558.13 576.445 558.068 576.602 558V559.695ZM583.711 560V554.828C583.711 553.958 583.388 553.523 582.742 553.523C582.419 553.523 582.109 553.654 581.812 553.914C581.521 554.174 581.211 554.529 580.883 554.977V560H578.977V548.961H580.883V551.68L580.789 553.117C580.951 552.924 581.115 552.753 581.281 552.602C581.448 552.445 581.628 552.315 581.82 552.211C582.013 552.107 582.221 552.029 582.445 551.977C582.669 551.919 582.917 551.891 583.188 551.891C583.594 551.891 583.948 551.958 584.25 552.094C584.552 552.224 584.805 552.411 585.008 552.656C585.211 552.896 585.362 553.188 585.461 553.531C585.565 553.87 585.617 554.25 585.617 554.672V560H583.711Z" fill="black"/>
<path d="M399.289 232.914C399.289 233.471 399.185 233.956 398.977 234.367C398.773 234.779 398.487 235.12 398.117 235.391C397.747 235.656 397.307 235.854 396.797 235.984C396.286 236.115 395.729 236.18 395.125 236.18C394.589 236.18 394.07 236.148 393.57 236.086C393.07 236.023 392.576 235.919 392.086 235.773V233.875C392.326 233.958 392.576 234.036 392.836 234.109C393.096 234.182 393.357 234.247 393.617 234.305C393.883 234.357 394.146 234.398 394.406 234.43C394.667 234.461 394.919 234.477 395.164 234.477C395.529 234.477 395.839 234.445 396.094 234.383C396.349 234.32 396.557 234.234 396.719 234.125C396.88 234.016 396.997 233.885 397.07 233.734C397.143 233.583 397.18 233.417 397.18 233.234C397.18 232.984 397.107 232.776 396.961 232.609C396.82 232.438 396.633 232.286 396.398 232.156C396.164 232.026 395.896 231.909 395.594 231.805C395.297 231.701 394.992 231.589 394.68 231.469C394.372 231.349 394.068 231.214 393.766 231.062C393.469 230.911 393.203 230.724 392.969 230.5C392.734 230.276 392.544 230.01 392.398 229.703C392.258 229.391 392.188 229.016 392.188 228.578C392.188 228.177 392.26 227.797 392.406 227.438C392.552 227.078 392.781 226.766 393.094 226.5C393.406 226.229 393.807 226.016 394.297 225.859C394.786 225.698 395.378 225.617 396.07 225.617C396.273 225.617 396.484 225.628 396.703 225.648C396.927 225.664 397.146 225.688 397.359 225.719C397.578 225.745 397.786 225.779 397.984 225.82C398.188 225.857 398.372 225.896 398.539 225.938V227.695C398.372 227.633 398.19 227.576 397.992 227.523C397.794 227.471 397.589 227.427 397.375 227.391C397.167 227.349 396.956 227.318 396.742 227.297C396.529 227.276 396.326 227.266 396.133 227.266C395.794 227.266 395.508 227.294 395.273 227.352C395.039 227.404 394.846 227.479 394.695 227.578C394.544 227.672 394.435 227.789 394.367 227.93C394.299 228.07 394.266 228.227 394.266 228.398C394.266 228.612 394.336 228.797 394.477 228.953C394.622 229.104 394.812 229.242 395.047 229.367C395.286 229.487 395.555 229.602 395.852 229.711C396.154 229.815 396.461 229.93 396.773 230.055C397.091 230.174 397.398 230.312 397.695 230.469C397.997 230.625 398.266 230.815 398.5 231.039C398.74 231.263 398.93 231.529 399.07 231.836C399.216 232.138 399.289 232.497 399.289 232.914ZM403.094 228.062V233.234C403.094 233.667 403.174 233.995 403.336 234.219C403.497 234.438 403.742 234.547 404.07 234.547C404.388 234.547 404.693 234.417 404.984 234.156C405.281 233.891 405.594 233.534 405.922 233.086V228.062H407.828V236H406.18L406.133 234.828C405.966 235.031 405.797 235.216 405.625 235.383C405.453 235.549 405.266 235.693 405.062 235.812C404.865 235.927 404.646 236.016 404.406 236.078C404.172 236.146 403.911 236.18 403.625 236.18C403.219 236.18 402.862 236.115 402.555 235.984C402.253 235.849 402 235.659 401.797 235.414C401.594 235.169 401.44 234.878 401.336 234.539C401.237 234.195 401.188 233.812 401.188 233.391V228.062H403.094ZM417.141 231.891C417.141 232.62 417.036 233.25 416.828 233.781C416.625 234.312 416.339 234.755 415.969 235.109C415.604 235.458 415.172 235.719 414.672 235.891C414.172 236.057 413.628 236.141 413.039 236.141C412.461 236.141 411.922 236.096 411.422 236.008C410.927 235.924 410.453 235.81 410 235.664V224.961H411.906V227.555L411.828 229.117C412.115 228.747 412.448 228.451 412.828 228.227C413.214 228.003 413.674 227.891 414.211 227.891C414.68 227.891 415.096 227.984 415.461 228.172C415.826 228.359 416.13 228.628 416.375 228.977C416.625 229.32 416.815 229.74 416.945 230.234C417.076 230.724 417.141 231.276 417.141 231.891ZM415.141 231.969C415.141 231.531 415.109 231.159 415.047 230.852C414.984 230.544 414.893 230.292 414.773 230.094C414.659 229.896 414.516 229.753 414.344 229.664C414.177 229.57 413.984 229.523 413.766 229.523C413.443 229.523 413.133 229.654 412.836 229.914C412.544 230.174 412.234 230.529 411.906 230.977V234.445C412.057 234.503 412.242 234.549 412.461 234.586C412.685 234.622 412.911 234.641 413.141 234.641C413.443 234.641 413.716 234.578 413.961 234.453C414.211 234.328 414.422 234.151 414.594 233.922C414.771 233.693 414.906 233.414 415 233.086C415.094 232.753 415.141 232.38 415.141 231.969ZM425.344 233.664C425.344 234.117 425.242 234.505 425.039 234.828C424.841 235.146 424.576 235.406 424.242 235.609C423.914 235.807 423.539 235.951 423.117 236.039C422.701 236.133 422.273 236.18 421.836 236.18C421.253 236.18 420.727 236.151 420.258 236.094C419.789 236.042 419.346 235.964 418.93 235.859V234.141C419.419 234.344 419.906 234.492 420.391 234.586C420.88 234.674 421.341 234.719 421.773 234.719C422.273 234.719 422.646 234.641 422.891 234.484C423.141 234.323 423.266 234.115 423.266 233.859C423.266 233.74 423.24 233.63 423.188 233.531C423.135 233.432 423.036 233.339 422.891 233.25C422.75 233.156 422.549 233.062 422.289 232.969C422.029 232.87 421.688 232.76 421.266 232.641C420.875 232.531 420.531 232.409 420.234 232.273C419.943 232.133 419.701 231.969 419.508 231.781C419.315 231.594 419.169 231.378 419.07 231.133C418.977 230.883 418.93 230.591 418.93 230.258C418.93 229.935 419.003 229.63 419.148 229.344C419.294 229.057 419.51 228.807 419.797 228.594C420.089 228.375 420.451 228.203 420.883 228.078C421.315 227.953 421.82 227.891 422.398 227.891C422.898 227.891 423.341 227.917 423.727 227.969C424.112 228.021 424.453 228.078 424.75 228.141V229.695C424.297 229.549 423.87 229.448 423.469 229.391C423.073 229.328 422.68 229.297 422.289 229.297C421.898 229.297 421.583 229.367 421.344 229.508C421.109 229.648 420.992 229.844 420.992 230.094C420.992 230.214 421.016 230.32 421.062 230.414C421.109 230.508 421.201 230.599 421.336 230.688C421.477 230.776 421.669 230.87 421.914 230.969C422.164 231.062 422.492 231.167 422.898 231.281C423.357 231.411 423.742 231.552 424.055 231.703C424.367 231.849 424.617 232.016 424.805 232.203C424.997 232.391 425.135 232.604 425.219 232.844C425.302 233.083 425.344 233.357 425.344 233.664ZM434.016 235.695C433.641 235.846 433.253 235.958 432.852 236.031C432.451 236.104 432.031 236.141 431.594 236.141C430.964 236.141 430.398 236.055 429.898 235.883C429.398 235.711 428.974 235.456 428.625 235.117C428.276 234.779 428.008 234.359 427.82 233.859C427.638 233.359 427.547 232.781 427.547 232.125C427.547 231.49 427.646 230.914 427.844 230.398C428.047 229.883 428.331 229.443 428.695 229.078C429.06 228.714 429.497 228.432 430.008 228.234C430.523 228.036 431.096 227.938 431.727 227.938C432.242 227.938 432.674 227.966 433.023 228.023C433.378 228.076 433.695 228.143 433.977 228.227V230.078C433.654 229.917 433.302 229.792 432.922 229.703C432.547 229.615 432.19 229.57 431.852 229.57C431.497 229.57 431.18 229.63 430.898 229.75C430.617 229.87 430.38 230.036 430.188 230.25C429.995 230.464 429.846 230.724 429.742 231.031C429.643 231.333 429.594 231.667 429.594 232.031C429.594 232.411 429.648 232.753 429.758 233.055C429.867 233.357 430.021 233.615 430.219 233.828C430.422 234.036 430.664 234.198 430.945 234.312C431.227 234.422 431.539 234.477 431.883 234.477C432.049 234.477 432.224 234.466 432.406 234.445C432.594 234.419 432.779 234.385 432.961 234.344C433.148 234.297 433.331 234.245 433.508 234.188C433.69 234.13 433.859 234.068 434.016 234V235.695ZM441.5 231.148C441.51 230.852 441.495 230.599 441.453 230.391C441.417 230.182 441.354 230.01 441.266 229.875C441.182 229.74 441.078 229.641 440.953 229.578C440.828 229.516 440.685 229.484 440.523 229.484C440.242 229.484 439.951 229.602 439.648 229.836C439.352 230.065 439.023 230.445 438.664 230.977V236H436.711V228.062H438.438L438.508 229.219C438.638 229.016 438.784 228.833 438.945 228.672C439.112 228.51 439.294 228.372 439.492 228.258C439.695 228.138 439.919 228.047 440.164 227.984C440.409 227.922 440.677 227.891 440.969 227.891C441.37 227.891 441.724 227.961 442.031 228.102C442.344 228.237 442.604 228.44 442.812 228.711C443.026 228.982 443.182 229.323 443.281 229.734C443.385 230.141 443.43 230.612 443.414 231.148H441.5ZM449.859 225.891C449.859 226.062 449.828 226.224 449.766 226.375C449.703 226.526 449.615 226.659 449.5 226.773C449.391 226.883 449.26 226.971 449.109 227.039C448.958 227.102 448.794 227.133 448.617 227.133C448.44 227.133 448.273 227.102 448.117 227.039C447.966 226.971 447.833 226.883 447.719 226.773C447.609 226.659 447.523 226.526 447.461 226.375C447.398 226.224 447.367 226.062 447.367 225.891C447.367 225.719 447.398 225.557 447.461 225.406C447.523 225.255 447.609 225.122 447.719 225.008C447.833 224.893 447.966 224.805 448.117 224.742C448.273 224.674 448.44 224.641 448.617 224.641C448.794 224.641 448.958 224.674 449.109 224.742C449.26 224.805 449.391 224.893 449.5 225.008C449.615 225.122 449.703 225.255 449.766 225.406C449.828 225.557 449.859 225.719 449.859 225.891ZM447.75 229.547H445.508V228.062H449.703V234.516H451.992V236H445.234V234.516H447.75V229.547ZM461.125 231.891C461.125 232.62 461.021 233.25 460.812 233.781C460.609 234.312 460.323 234.755 459.953 235.109C459.589 235.458 459.156 235.719 458.656 235.891C458.156 236.057 457.612 236.141 457.023 236.141C456.826 236.141 456.628 236.128 456.43 236.102C456.232 236.076 456.052 236.042 455.891 236V239.102H453.984V228.062H455.633L455.68 229.234C455.841 229.031 456.008 228.846 456.18 228.68C456.357 228.513 456.547 228.372 456.75 228.258C456.953 228.138 457.172 228.047 457.406 227.984C457.641 227.922 457.904 227.891 458.195 227.891C458.664 227.891 459.081 227.984 459.445 228.172C459.81 228.359 460.115 228.628 460.359 228.977C460.609 229.32 460.799 229.74 460.93 230.234C461.06 230.724 461.125 231.276 461.125 231.891ZM459.125 231.969C459.125 231.531 459.094 231.159 459.031 230.852C458.969 230.544 458.878 230.292 458.758 230.094C458.643 229.896 458.5 229.753 458.328 229.664C458.161 229.57 457.969 229.523 457.75 229.523C457.427 229.523 457.117 229.654 456.82 229.914C456.529 230.174 456.219 230.529 455.891 230.977V234.445C456.042 234.503 456.227 234.549 456.445 234.586C456.669 234.622 456.896 234.641 457.125 234.641C457.427 234.641 457.701 234.578 457.945 234.453C458.195 234.328 458.406 234.151 458.578 233.922C458.755 233.693 458.891 233.414 458.984 233.086C459.078 232.753 459.125 232.38 459.125 231.969ZM469.328 235.922C468.984 236 468.638 236.062 468.289 236.109C467.94 236.156 467.609 236.18 467.297 236.18C466.776 236.18 466.326 236.125 465.945 236.016C465.57 235.906 465.258 235.74 465.008 235.516C464.763 235.292 464.581 235.008 464.461 234.664C464.346 234.315 464.289 233.901 464.289 233.422V229.547H462.156V228.062H464.289V226.031L466.242 225.523V228.062H469.328V229.547H466.242V233.281C466.242 233.734 466.346 234.078 466.555 234.312C466.763 234.542 467.112 234.656 467.602 234.656C467.914 234.656 468.219 234.63 468.516 234.578C468.812 234.526 469.083 234.466 469.328 234.398V235.922ZM476.25 225.891C476.25 226.062 476.219 226.224 476.156 226.375C476.094 226.526 476.005 226.659 475.891 226.773C475.781 226.883 475.651 226.971 475.5 227.039C475.349 227.102 475.185 227.133 475.008 227.133C474.831 227.133 474.664 227.102 474.508 227.039C474.357 226.971 474.224 226.883 474.109 226.773C474 226.659 473.914 226.526 473.852 226.375C473.789 226.224 473.758 226.062 473.758 225.891C473.758 225.719 473.789 225.557 473.852 225.406C473.914 225.255 474 225.122 474.109 225.008C474.224 224.893 474.357 224.805 474.508 224.742C474.664 224.674 474.831 224.641 475.008 224.641C475.185 224.641 475.349 224.674 475.5 224.742C475.651 224.805 475.781 224.893 475.891 225.008C476.005 225.122 476.094 225.255 476.156 225.406C476.219 225.557 476.25 225.719 476.25 225.891ZM474.141 229.547H471.898V228.062H476.094V234.516H478.383V236H471.625V234.516H474.141V229.547ZM487.523 231.969C487.523 232.594 487.435 233.167 487.258 233.688C487.081 234.203 486.826 234.646 486.492 235.016C486.159 235.385 485.75 235.672 485.266 235.875C484.781 236.078 484.229 236.18 483.609 236.18C483.021 236.18 482.495 236.094 482.031 235.922C481.568 235.75 481.174 235.495 480.852 235.156C480.529 234.812 480.281 234.385 480.109 233.875C479.938 233.359 479.852 232.76 479.852 232.078C479.852 231.448 479.94 230.875 480.117 230.359C480.299 229.844 480.557 229.404 480.891 229.039C481.229 228.674 481.641 228.393 482.125 228.195C482.609 227.992 483.156 227.891 483.766 227.891C484.359 227.891 484.888 227.979 485.352 228.156C485.815 228.328 486.208 228.586 486.531 228.93C486.854 229.273 487.099 229.701 487.266 230.211C487.438 230.716 487.523 231.302 487.523 231.969ZM485.539 232.016C485.539 231.193 485.383 230.576 485.07 230.164C484.763 229.747 484.307 229.539 483.703 229.539C483.37 229.539 483.086 229.604 482.852 229.734C482.617 229.865 482.424 230.044 482.273 230.273C482.122 230.497 482.01 230.76 481.938 231.062C481.87 231.365 481.836 231.688 481.836 232.031C481.836 232.859 482.003 233.484 482.336 233.906C482.669 234.323 483.125 234.531 483.703 234.531C484.021 234.531 484.297 234.469 484.531 234.344C484.766 234.214 484.956 234.036 485.102 233.812C485.247 233.583 485.357 233.315 485.43 233.008C485.503 232.701 485.539 232.37 485.539 232.016ZM493.906 236V230.828C493.906 229.958 493.583 229.523 492.938 229.523C492.615 229.523 492.305 229.654 492.008 229.914C491.716 230.174 491.406 230.529 491.078 230.977V236H489.172V228.062H490.82L490.867 229.234C491.029 229.031 491.195 228.846 491.367 228.68C491.544 228.513 491.734 228.372 491.938 228.258C492.141 228.138 492.359 228.047 492.594 227.984C492.828 227.922 493.091 227.891 493.383 227.891C493.789 227.891 494.143 227.958 494.445 228.094C494.747 228.224 495 228.411 495.203 228.656C495.406 228.896 495.557 229.188 495.656 229.531C495.76 229.87 495.812 230.25 495.812 230.672V236H493.906ZM504.516 233.664C504.516 234.117 504.414 234.505 504.211 234.828C504.013 235.146 503.747 235.406 503.414 235.609C503.086 235.807 502.711 235.951 502.289 236.039C501.872 236.133 501.445 236.18 501.008 236.18C500.424 236.18 499.898 236.151 499.43 236.094C498.961 236.042 498.518 235.964 498.102 235.859V234.141C498.591 234.344 499.078 234.492 499.562 234.586C500.052 234.674 500.513 234.719 500.945 234.719C501.445 234.719 501.818 234.641 502.062 234.484C502.312 234.323 502.438 234.115 502.438 233.859C502.438 233.74 502.411 233.63 502.359 233.531C502.307 233.432 502.208 233.339 502.062 233.25C501.922 233.156 501.721 233.062 501.461 232.969C501.201 232.87 500.859 232.76 500.438 232.641C500.047 232.531 499.703 232.409 499.406 232.273C499.115 232.133 498.872 231.969 498.68 231.781C498.487 231.594 498.341 231.378 498.242 231.133C498.148 230.883 498.102 230.591 498.102 230.258C498.102 229.935 498.174 229.63 498.32 229.344C498.466 229.057 498.682 228.807 498.969 228.594C499.26 228.375 499.622 228.203 500.055 228.078C500.487 227.953 500.992 227.891 501.57 227.891C502.07 227.891 502.513 227.917 502.898 227.969C503.284 228.021 503.625 228.078 503.922 228.141V229.695C503.469 229.549 503.042 229.448 502.641 229.391C502.245 229.328 501.852 229.297 501.461 229.297C501.07 229.297 500.755 229.367 500.516 229.508C500.281 229.648 500.164 229.844 500.164 230.094C500.164 230.214 500.188 230.32 500.234 230.414C500.281 230.508 500.372 230.599 500.508 230.688C500.648 230.776 500.841 230.87 501.086 230.969C501.336 231.062 501.664 231.167 502.07 231.281C502.529 231.411 502.914 231.552 503.227 231.703C503.539 231.849 503.789 232.016 503.977 232.203C504.169 232.391 504.307 232.604 504.391 232.844C504.474 233.083 504.516 233.357 504.516 233.664Z" fill="black"/>
<path d="M497.939 584.939C497.354 585.525 497.354 586.475 497.939 587.061L507.485 596.607C508.071 597.192 509.021 597.192 509.607 596.607C510.192 596.021 510.192 595.071 509.607 594.485L501.121 586L509.607 577.515C510.192 576.929 510.192 575.979 509.607 575.393C509.021 574.808 508.071 574.808 507.485 575.393L497.939 584.939ZM604 584.5L499 584.5L499 587.5L604 587.5L604 584.5Z" fill="black"/>
<rect x="638.5" y="539.5" width="160" height="92" rx="2.5" fill="#7DE77B" stroke="black" stroke-width="3"/>
<path d="M708.477 584.945C708.477 585.424 708.401 585.862 708.25 586.258C708.099 586.654 707.878 586.992 707.586 587.273C707.294 587.555 706.932 587.773 706.5 587.93C706.068 588.081 705.565 588.156 704.992 588.156C704.57 588.156 704.164 588.107 703.773 588.008C703.383 587.909 703.042 587.784 702.75 587.633V585.773C702.88 585.883 703.031 585.984 703.203 586.078C703.38 586.172 703.568 586.255 703.766 586.328C703.964 586.396 704.167 586.451 704.375 586.492C704.583 586.529 704.789 586.547 704.992 586.547C705.164 586.547 705.341 586.516 705.523 586.453C705.711 586.391 705.878 586.286 706.023 586.141C706.169 585.995 706.289 585.805 706.383 585.57C706.477 585.331 706.523 585.036 706.523 584.688V579.375H702.828V577.789H708.477V584.945ZM718.438 583.969C718.438 584.594 718.349 585.167 718.172 585.688C717.995 586.203 717.74 586.646 717.406 587.016C717.073 587.385 716.664 587.672 716.18 587.875C715.695 588.078 715.143 588.18 714.523 588.18C713.935 588.18 713.409 588.094 712.945 587.922C712.482 587.75 712.089 587.495 711.766 587.156C711.443 586.812 711.195 586.385 711.023 585.875C710.852 585.359 710.766 584.76 710.766 584.078C710.766 583.448 710.854 582.875 711.031 582.359C711.214 581.844 711.471 581.404 711.805 581.039C712.143 580.674 712.555 580.393 713.039 580.195C713.523 579.992 714.07 579.891 714.68 579.891C715.273 579.891 715.802 579.979 716.266 580.156C716.729 580.328 717.122 580.586 717.445 580.93C717.768 581.273 718.013 581.701 718.18 582.211C718.352 582.716 718.438 583.302 718.438 583.969ZM716.453 584.016C716.453 583.193 716.297 582.576 715.984 582.164C715.677 581.747 715.221 581.539 714.617 581.539C714.284 581.539 714 581.604 713.766 581.734C713.531 581.865 713.339 582.044 713.188 582.273C713.036 582.497 712.924 582.76 712.852 583.062C712.784 583.365 712.75 583.688 712.75 584.031C712.75 584.859 712.917 585.484 713.25 585.906C713.583 586.323 714.039 586.531 714.617 586.531C714.935 586.531 715.211 586.469 715.445 586.344C715.68 586.214 715.87 586.036 716.016 585.812C716.161 585.583 716.271 585.315 716.344 585.008C716.417 584.701 716.453 584.37 716.453 584.016ZM727.227 583.891C727.227 584.62 727.122 585.25 726.914 585.781C726.711 586.312 726.424 586.755 726.055 587.109C725.69 587.458 725.258 587.719 724.758 587.891C724.258 588.057 723.714 588.141 723.125 588.141C722.547 588.141 722.008 588.096 721.508 588.008C721.013 587.924 720.539 587.81 720.086 587.664V576.961H721.992V579.555L721.914 581.117C722.201 580.747 722.534 580.451 722.914 580.227C723.299 580.003 723.76 579.891 724.297 579.891C724.766 579.891 725.182 579.984 725.547 580.172C725.911 580.359 726.216 580.628 726.461 580.977C726.711 581.32 726.901 581.74 727.031 582.234C727.161 582.724 727.227 583.276 727.227 583.891ZM725.227 583.969C725.227 583.531 725.195 583.159 725.133 582.852C725.07 582.544 724.979 582.292 724.859 582.094C724.745 581.896 724.602 581.753 724.43 581.664C724.263 581.57 724.07 581.523 723.852 581.523C723.529 581.523 723.219 581.654 722.922 581.914C722.63 582.174 722.32 582.529 721.992 582.977V586.445C722.143 586.503 722.328 586.549 722.547 586.586C722.771 586.622 722.997 586.641 723.227 586.641C723.529 586.641 723.802 586.578 724.047 586.453C724.297 586.328 724.508 586.151 724.68 585.922C724.857 585.693 724.992 585.414 725.086 585.086C725.18 584.753 725.227 584.38 725.227 583.969ZM735.43 585.664C735.43 586.117 735.328 586.505 735.125 586.828C734.927 587.146 734.661 587.406 734.328 587.609C734 587.807 733.625 587.951 733.203 588.039C732.786 588.133 732.359 588.18 731.922 588.18C731.339 588.18 730.812 588.151 730.344 588.094C729.875 588.042 729.432 587.964 729.016 587.859V586.141C729.505 586.344 729.992 586.492 730.477 586.586C730.966 586.674 731.427 586.719 731.859 586.719C732.359 586.719 732.732 586.641 732.977 586.484C733.227 586.323 733.352 586.115 733.352 585.859C733.352 585.74 733.326 585.63 733.273 585.531C733.221 585.432 733.122 585.339 732.977 585.25C732.836 585.156 732.635 585.062 732.375 584.969C732.115 584.87 731.773 584.76 731.352 584.641C730.961 584.531 730.617 584.409 730.32 584.273C730.029 584.133 729.786 583.969 729.594 583.781C729.401 583.594 729.255 583.378 729.156 583.133C729.062 582.883 729.016 582.591 729.016 582.258C729.016 581.935 729.089 581.63 729.234 581.344C729.38 581.057 729.596 580.807 729.883 580.594C730.174 580.375 730.536 580.203 730.969 580.078C731.401 579.953 731.906 579.891 732.484 579.891C732.984 579.891 733.427 579.917 733.812 579.969C734.198 580.021 734.539 580.078 734.836 580.141V581.695C734.383 581.549 733.956 581.448 733.555 581.391C733.159 581.328 732.766 581.297 732.375 581.297C731.984 581.297 731.669 581.367 731.43 581.508C731.195 581.648 731.078 581.844 731.078 582.094C731.078 582.214 731.102 582.32 731.148 582.414C731.195 582.508 731.286 582.599 731.422 582.688C731.562 582.776 731.755 582.87 732 582.969C732.25 583.062 732.578 583.167 732.984 583.281C733.443 583.411 733.828 583.552 734.141 583.703C734.453 583.849 734.703 584.016 734.891 584.203C735.083 584.391 735.221 584.604 735.305 584.844C735.388 585.083 735.43 585.357 735.43 585.664Z" fill="black"/>
<rect x="605.5" y="592.5" width="62" height="22" rx="2.5" fill="#FFFD54" stroke="black" stroke-width="3"/>
<rect x="605.5" y="554.5" width="62" height="23" rx="2.5" fill="#FFFD54" stroke="black" stroke-width="3"/>
<rect x="39.3828" y="1.5" width="184.117" height="92" rx="2.5" fill="#7DE77B" stroke="black" stroke-width="3"/>
<path d="M102.234 50V39.7891H105.531C106.692 39.7891 107.562 39.9922 108.14 40.3984C108.723 40.8047 109.015 41.4193 109.015 42.2422C109.015 42.4974 108.984 42.7474 108.921 42.9922C108.864 43.2318 108.773 43.4531 108.648 43.6562C108.523 43.8594 108.367 44.0391 108.179 44.1953C107.992 44.3516 107.77 44.474 107.515 44.5625C107.77 44.6042 108.013 44.6875 108.242 44.8125C108.476 44.9323 108.679 45.0911 108.851 45.2891C109.028 45.4818 109.166 45.7109 109.265 45.9766C109.369 46.2422 109.421 46.5391 109.421 46.8672C109.421 47.9089 109.072 48.6927 108.375 49.2188C107.677 49.7396 106.669 50 105.351 50H102.234ZM107.015 42.5781C107.015 42.3854 106.984 42.2109 106.921 42.0547C106.859 41.8984 106.757 41.7656 106.617 41.6562C106.481 41.5469 106.304 41.4635 106.085 41.4062C105.872 41.3438 105.612 41.3125 105.304 41.3125H104.14V44.0156H105.304C105.617 44.0156 105.88 43.9792 106.093 43.9062C106.312 43.8281 106.489 43.724 106.625 43.5938C106.765 43.4583 106.864 43.3047 106.921 43.1328C106.984 42.9609 107.015 42.776 107.015 42.5781ZM105.484 48.4297C105.791 48.4297 106.059 48.3906 106.289 48.3125C106.523 48.2344 106.718 48.1276 106.875 47.9922C107.031 47.8516 107.148 47.6875 107.226 47.5C107.309 47.3125 107.351 47.112 107.351 46.8984C107.351 46.4557 107.184 46.1094 106.851 45.8594C106.523 45.6094 106.018 45.4844 105.335 45.4844H104.14V48.4297H105.484ZM115.781 39.8906C115.781 40.0625 115.75 40.224 115.687 40.375C115.625 40.526 115.536 40.6589 115.421 40.7734C115.312 40.8828 115.182 40.9714 115.031 41.0391C114.88 41.1016 114.716 41.1328 114.539 41.1328C114.362 41.1328 114.195 41.1016 114.039 41.0391C113.888 40.9714 113.755 40.8828 113.64 40.7734C113.531 40.6589 113.445 40.526 113.382 40.375C113.32 40.224 113.289 40.0625 113.289 39.8906C113.289 39.7188 113.32 39.5573 113.382 39.4062C113.445 39.2552 113.531 39.1224 113.64 39.0078C113.755 38.8932 113.888 38.8047 114.039 38.7422C114.195 38.6745 114.362 38.6406 114.539 38.6406C114.716 38.6406 114.88 38.6745 115.031 38.7422C115.182 38.8047 115.312 38.8932 115.421 39.0078C115.536 39.1224 115.625 39.2552 115.687 39.4062C115.75 39.5573 115.781 39.7188 115.781 39.8906ZM113.671 43.5469H111.429V42.0625H115.625V48.5156H117.914V50H111.156V48.5156H113.671V43.5469ZM122.468 40.4453H120.226V38.9609H124.421V48.5156H126.71V50H119.953V48.5156H122.468V40.4453ZM131.265 40.4453H129.023V38.9609H133.218V48.5156H135.507V50H128.75V48.5156H131.265V40.4453ZM142.171 39.8906C142.171 40.0625 142.14 40.224 142.078 40.375C142.015 40.526 141.927 40.6589 141.812 40.7734C141.703 40.8828 141.572 40.9714 141.421 41.0391C141.27 41.1016 141.106 41.1328 140.929 41.1328C140.752 41.1328 140.585 41.1016 140.429 41.0391C140.278 40.9714 140.145 40.8828 140.031 40.7734C139.921 40.6589 139.835 40.526 139.773 40.375C139.71 40.224 139.679 40.0625 139.679 39.8906C139.679 39.7188 139.71 39.5573 139.773 39.4062C139.835 39.2552 139.921 39.1224 140.031 39.0078C140.145 38.8932 140.278 38.8047 140.429 38.7422C140.585 38.6745 140.752 38.6406 140.929 38.6406C141.106 38.6406 141.27 38.6745 141.421 38.7422C141.572 38.8047 141.703 38.8932 141.812 39.0078C141.927 39.1224 142.015 39.2552 142.078 39.4062C142.14 39.5573 142.171 39.7188 142.171 39.8906ZM140.062 43.5469H137.82V42.0625H142.015V48.5156H144.304V50H137.546V48.5156H140.062V43.5469ZM151.031 50V44.8281C151.031 43.9583 150.708 43.5234 150.062 43.5234C149.739 43.5234 149.429 43.6536 149.132 43.9141C148.841 44.1745 148.531 44.5286 148.203 44.9766V50H146.296V42.0625H147.945L147.992 43.2344C148.153 43.0312 148.32 42.8464 148.492 42.6797C148.669 42.513 148.859 42.3724 149.062 42.2578C149.265 42.138 149.484 42.0469 149.718 41.9844C149.953 41.9219 150.216 41.8906 150.507 41.8906C150.914 41.8906 151.268 41.9583 151.57 42.0938C151.872 42.224 152.125 42.4115 152.328 42.6562C152.531 42.8958 152.682 43.1875 152.781 43.5312C152.885 43.8698 152.937 44.25 152.937 44.6719V50H151.031ZM161.046 43.4531C161.192 43.6354 161.294 43.8281 161.351 44.0312C161.414 44.2292 161.445 44.4323 161.445 44.6406C161.445 45.0833 161.367 45.474 161.21 45.8125C161.059 46.151 160.843 46.4349 160.562 46.6641C160.286 46.8932 159.953 47.0677 159.562 47.1875C159.177 47.3021 158.75 47.3594 158.281 47.3594C158.005 47.3594 157.75 47.3333 157.515 47.2812C157.281 47.224 157.104 47.1589 156.984 47.0859C156.895 47.1745 156.82 47.2734 156.757 47.3828C156.695 47.487 156.664 47.6068 156.664 47.7422C156.664 47.8255 156.684 47.9089 156.726 47.9922C156.768 48.0755 156.828 48.151 156.906 48.2188C156.989 48.2812 157.085 48.3333 157.195 48.375C157.309 48.4167 157.437 48.4401 157.578 48.4453L159.46 48.5156C159.882 48.526 160.263 48.5807 160.601 48.6797C160.945 48.7734 161.239 48.9089 161.484 49.0859C161.729 49.263 161.916 49.4792 162.046 49.7344C162.182 49.9844 162.25 50.2708 162.25 50.5938C162.25 50.9635 162.166 51.3125 162 51.6406C161.833 51.9688 161.58 52.2526 161.242 52.4922C160.908 52.737 160.492 52.9297 159.992 53.0703C159.492 53.2109 158.911 53.2812 158.25 53.2812C157.609 53.2812 157.057 53.2292 156.593 53.125C156.135 53.026 155.757 52.8854 155.46 52.7031C155.169 52.5208 154.953 52.3021 154.812 52.0469C154.671 51.7969 154.601 51.5208 154.601 51.2188C154.601 51.0365 154.625 50.8672 154.671 50.7109C154.718 50.5547 154.789 50.4036 154.882 50.2578C154.976 50.1172 155.093 49.9792 155.234 49.8438C155.375 49.7083 155.541 49.5729 155.734 49.4375C155.479 49.2917 155.283 49.1042 155.148 48.875C155.018 48.6458 154.953 48.401 154.953 48.1406C154.953 47.9635 154.976 47.7995 155.023 47.6484C155.07 47.4922 155.13 47.3438 155.203 47.2031C155.281 47.0625 155.369 46.9271 155.468 46.7969C155.567 46.6667 155.671 46.5391 155.781 46.4141C155.588 46.2214 155.427 45.9896 155.296 45.7188C155.171 45.4427 155.109 45.099 155.109 44.6875C155.109 44.2448 155.187 43.8516 155.343 43.5078C155.505 43.1589 155.726 42.8672 156.007 42.6328C156.289 42.3932 156.622 42.2135 157.007 42.0938C157.398 41.9688 157.822 41.9062 158.281 41.9062C158.515 41.9062 158.739 41.9193 158.953 41.9453C159.171 41.9661 159.369 42.0052 159.546 42.0625H162.296V43.4531H161.046ZM156.554 51.0547C156.554 51.362 156.708 51.5885 157.015 51.7344C157.328 51.8802 157.765 51.9531 158.328 51.9531C158.687 51.9531 158.989 51.9193 159.234 51.8516C159.484 51.7839 159.687 51.6953 159.843 51.5859C160 51.4766 160.112 51.349 160.179 51.2031C160.247 51.0573 160.281 50.9062 160.281 50.75C160.281 50.6094 160.247 50.4896 160.179 50.3906C160.117 50.2969 160.026 50.2161 159.906 50.1484C159.791 50.0859 159.653 50.0365 159.492 50C159.335 49.9688 159.161 49.9479 158.968 49.9375L157.289 49.9062C157.138 50.0104 157.013 50.1094 156.914 50.2031C156.82 50.2969 156.744 50.388 156.687 50.4766C156.635 50.5703 156.599 50.6641 156.578 50.7578C156.562 50.8516 156.554 50.9505 156.554 51.0547ZM156.875 44.6875C156.875 45.1094 156.997 45.4453 157.242 45.6953C157.492 45.9401 157.838 46.0625 158.281 46.0625C158.515 46.0625 158.718 46.0234 158.89 45.9453C159.067 45.8672 159.213 45.763 159.328 45.6328C159.442 45.5026 159.528 45.3516 159.585 45.1797C159.643 45.0078 159.671 44.8281 159.671 44.6406C159.671 44.1979 159.546 43.8542 159.296 43.6094C159.052 43.3594 158.708 43.2344 158.265 43.2344C158.031 43.2344 157.825 43.2734 157.648 43.3516C157.476 43.4297 157.333 43.5365 157.218 43.6719C157.104 43.8021 157.018 43.9557 156.96 44.1328C156.903 44.3099 156.875 44.4948 156.875 44.6875Z" fill="black"/>
<rect x="1.5" y="54.5" width="71.6173" height="22" rx="2.5" fill="#FFFD54" stroke="black" stroke-width="3"/>
<rect x="1.5" y="16.5" width="71.6173" height="23" rx="2.5" fill="#FFFD54" stroke="black" stroke-width="3"/>
<rect x="39.3828" y="343.5" width="184.117" height="92" rx="2.5" fill="#7DE77B" stroke="black" stroke-width="3"/>
<path d="M90.273 392L89.7105 389.984H86.148L85.5699 392H83.6636L86.687 381.789H89.3745L92.398 392H90.273ZM87.9527 383.664L86.6089 388.414H89.2808L87.9527 383.664ZM100.656 387.891C100.656 388.62 100.552 389.25 100.343 389.781C100.14 390.312 99.8537 390.755 99.4839 391.109C99.1193 391.458 98.687 391.719 98.187 391.891C97.687 392.057 97.1428 392.141 96.5542 392.141C96.3563 392.141 96.1584 392.128 95.9605 392.102C95.7626 392.076 95.5829 392.042 95.4214 392V395.102H93.5152V384.062H95.1636L95.2105 385.234C95.3719 385.031 95.5386 384.846 95.7105 384.68C95.8876 384.513 96.0777 384.372 96.2808 384.258C96.4839 384.138 96.7027 384.047 96.937 383.984C97.1714 383.922 97.4344 383.891 97.7261 383.891C98.1949 383.891 98.6115 383.984 98.9761 384.172C99.3407 384.359 99.6454 384.628 99.8902 384.977C100.14 385.32 100.33 385.74 100.46 386.234C100.591 386.724 100.656 387.276 100.656 387.891ZM98.6558 387.969C98.6558 387.531 98.6245 387.159 98.562 386.852C98.4995 386.544 98.4084 386.292 98.2886 386.094C98.174 385.896 98.0308 385.753 97.8589 385.664C97.6922 385.57 97.4995 385.523 97.2808 385.523C96.9579 385.523 96.648 385.654 96.3511 385.914C96.0594 386.174 95.7495 386.529 95.4214 386.977V390.445C95.5725 390.503 95.7574 390.549 95.9761 390.586C96.2001 390.622 96.4266 390.641 96.6558 390.641C96.9579 390.641 97.2313 390.578 97.4761 390.453C97.7261 390.328 97.937 390.151 98.1089 389.922C98.286 389.693 98.4214 389.414 98.5152 389.086C98.6089 388.753 98.6558 388.38 98.6558 387.969ZM109.453 387.891C109.453 388.62 109.348 389.25 109.14 389.781C108.937 390.312 108.651 390.755 108.281 391.109C107.916 391.458 107.484 391.719 106.984 391.891C106.484 392.057 105.94 392.141 105.351 392.141C105.153 392.141 104.955 392.128 104.757 392.102C104.559 392.076 104.38 392.042 104.218 392V395.102H102.312V384.062H103.96L104.007 385.234C104.169 385.031 104.335 384.846 104.507 384.68C104.684 384.513 104.875 384.372 105.078 384.258C105.281 384.138 105.5 384.047 105.734 383.984C105.968 383.922 106.231 383.891 106.523 383.891C106.992 383.891 107.408 383.984 107.773 384.172C108.138 384.359 108.442 384.628 108.687 384.977C108.937 385.32 109.127 385.74 109.257 386.234C109.388 386.724 109.453 387.276 109.453 387.891ZM107.453 387.969C107.453 387.531 107.421 387.159 107.359 386.852C107.296 386.544 107.205 386.292 107.085 386.094C106.971 385.896 106.828 385.753 106.656 385.664C106.489 385.57 106.296 385.523 106.078 385.523C105.755 385.523 105.445 385.654 105.148 385.914C104.856 386.174 104.546 386.529 104.218 386.977V390.445C104.369 390.503 104.554 390.549 104.773 390.586C104.997 390.622 105.223 390.641 105.453 390.641C105.755 390.641 106.028 390.578 106.273 390.453C106.523 390.328 106.734 390.151 106.906 389.922C107.083 389.693 107.218 389.414 107.312 389.086C107.406 388.753 107.453 388.38 107.453 387.969ZM113.671 382.445H111.429V380.961H115.625V390.516H117.914V392H111.156V390.516H113.671V382.445ZM124.578 381.891C124.578 382.062 124.546 382.224 124.484 382.375C124.421 382.526 124.333 382.659 124.218 382.773C124.109 382.883 123.979 382.971 123.828 383.039C123.677 383.102 123.513 383.133 123.335 383.133C123.158 383.133 122.992 383.102 122.835 383.039C122.684 382.971 122.552 382.883 122.437 382.773C122.328 382.659 122.242 382.526 122.179 382.375C122.117 382.224 122.085 382.062 122.085 381.891C122.085 381.719 122.117 381.557 122.179 381.406C122.242 381.255 122.328 381.122 122.437 381.008C122.552 380.893 122.684 380.805 122.835 380.742C122.992 380.674 123.158 380.641 123.335 380.641C123.513 380.641 123.677 380.674 123.828 380.742C123.979 380.805 124.109 380.893 124.218 381.008C124.333 381.122 124.421 381.255 124.484 381.406C124.546 381.557 124.578 381.719 124.578 381.891ZM122.468 385.547H120.226V384.062H124.421V390.516H126.71V392H119.953V390.516H122.468V385.547ZM135.125 391.695C134.75 391.846 134.362 391.958 133.96 392.031C133.559 392.104 133.14 392.141 132.703 392.141C132.072 392.141 131.507 392.055 131.007 391.883C130.507 391.711 130.083 391.456 129.734 391.117C129.385 390.779 129.117 390.359 128.929 389.859C128.747 389.359 128.656 388.781 128.656 388.125C128.656 387.49 128.755 386.914 128.953 386.398C129.156 385.883 129.44 385.443 129.804 385.078C130.169 384.714 130.606 384.432 131.117 384.234C131.632 384.036 132.205 383.938 132.835 383.938C133.351 383.938 133.783 383.966 134.132 384.023C134.487 384.076 134.804 384.143 135.085 384.227V386.078C134.763 385.917 134.411 385.792 134.031 385.703C133.656 385.615 133.299 385.57 132.96 385.57C132.606 385.57 132.289 385.63 132.007 385.75C131.726 385.87 131.489 386.036 131.296 386.25C131.104 386.464 130.955 386.724 130.851 387.031C130.752 387.333 130.703 387.667 130.703 388.031C130.703 388.411 130.757 388.753 130.867 389.055C130.976 389.357 131.13 389.615 131.328 389.828C131.531 390.036 131.773 390.198 132.054 390.312C132.335 390.422 132.648 390.477 132.992 390.477C133.158 390.477 133.333 390.466 133.515 390.445C133.703 390.419 133.888 390.385 134.07 390.344C134.257 390.297 134.44 390.245 134.617 390.188C134.799 390.13 134.968 390.068 135.125 390V391.695ZM142.476 392L142.429 390.961C142.263 391.138 142.088 391.302 141.906 391.453C141.724 391.599 141.523 391.727 141.304 391.836C141.085 391.945 140.846 392.029 140.585 392.086C140.33 392.148 140.049 392.18 139.742 392.18C139.335 392.18 138.979 392.12 138.671 392C138.364 391.88 138.106 391.714 137.898 391.5C137.69 391.286 137.531 391.029 137.421 390.727C137.317 390.424 137.265 390.091 137.265 389.727C137.265 389.352 137.343 389.005 137.5 388.688C137.661 388.37 137.903 388.096 138.226 387.867C138.554 387.638 138.96 387.458 139.445 387.328C139.934 387.198 140.507 387.133 141.164 387.133H142.203V386.656C142.203 386.453 142.174 386.271 142.117 386.109C142.059 385.943 141.966 385.802 141.835 385.688C141.71 385.573 141.546 385.484 141.343 385.422C141.14 385.359 140.89 385.328 140.593 385.328C140.125 385.328 139.661 385.383 139.203 385.492C138.75 385.596 138.309 385.745 137.882 385.938V384.414C138.263 384.263 138.7 384.138 139.195 384.039C139.695 383.94 140.213 383.891 140.75 383.891C141.338 383.891 141.843 383.948 142.265 384.062C142.687 384.172 143.033 384.339 143.304 384.562C143.58 384.786 143.783 385.068 143.914 385.406C144.044 385.74 144.109 386.13 144.109 386.578V392H142.476ZM142.203 388.492H141.039C140.716 388.492 140.442 388.523 140.218 388.586C139.994 388.648 139.812 388.734 139.671 388.844C139.531 388.953 139.427 389.081 139.359 389.227C139.296 389.367 139.265 389.518 139.265 389.68C139.265 390.003 139.369 390.25 139.578 390.422C139.786 390.589 140.07 390.672 140.429 390.672C140.695 390.672 140.971 390.576 141.257 390.383C141.544 390.19 141.859 389.914 142.203 389.555V388.492ZM152.843 391.922C152.5 392 152.153 392.062 151.804 392.109C151.455 392.156 151.125 392.18 150.812 392.18C150.291 392.18 149.841 392.125 149.46 392.016C149.085 391.906 148.773 391.74 148.523 391.516C148.278 391.292 148.096 391.008 147.976 390.664C147.862 390.315 147.804 389.901 147.804 389.422V385.547H145.671V384.062H147.804V382.031L149.757 381.523V384.062H152.843V385.547H149.757V389.281C149.757 389.734 149.862 390.078 150.07 390.312C150.278 390.542 150.627 390.656 151.117 390.656C151.429 390.656 151.734 390.63 152.031 390.578C152.328 390.526 152.599 390.466 152.843 390.398V391.922ZM159.765 381.891C159.765 382.062 159.734 382.224 159.671 382.375C159.609 382.526 159.52 382.659 159.406 382.773C159.296 382.883 159.166 382.971 159.015 383.039C158.864 383.102 158.7 383.133 158.523 383.133C158.346 383.133 158.179 383.102 158.023 383.039C157.872 382.971 157.739 382.883 157.625 382.773C157.515 382.659 157.429 382.526 157.367 382.375C157.304 382.224 157.273 382.062 157.273 381.891C157.273 381.719 157.304 381.557 157.367 381.406C157.429 381.255 157.515 381.122 157.625 381.008C157.739 380.893 157.872 380.805 158.023 380.742C158.179 380.674 158.346 380.641 158.523 380.641C158.7 380.641 158.864 380.674 159.015 380.742C159.166 380.805 159.296 380.893 159.406 381.008C159.52 381.122 159.609 381.255 159.671 381.406C159.734 381.557 159.765 381.719 159.765 381.891ZM157.656 385.547H155.414V384.062H159.609V390.516H161.898V392H155.14V390.516H157.656V385.547ZM171.039 387.969C171.039 388.594 170.95 389.167 170.773 389.688C170.596 390.203 170.341 390.646 170.007 391.016C169.674 391.385 169.265 391.672 168.781 391.875C168.296 392.078 167.744 392.18 167.125 392.18C166.536 392.18 166.01 392.094 165.546 391.922C165.083 391.75 164.69 391.495 164.367 391.156C164.044 390.812 163.796 390.385 163.625 389.875C163.453 389.359 163.367 388.76 163.367 388.078C163.367 387.448 163.455 386.875 163.632 386.359C163.815 385.844 164.072 385.404 164.406 385.039C164.744 384.674 165.156 384.393 165.64 384.195C166.125 383.992 166.671 383.891 167.281 383.891C167.875 383.891 168.403 383.979 168.867 384.156C169.33 384.328 169.724 384.586 170.046 384.93C170.369 385.273 170.614 385.701 170.781 386.211C170.953 386.716 171.039 387.302 171.039 387.969ZM169.054 388.016C169.054 387.193 168.898 386.576 168.585 386.164C168.278 385.747 167.822 385.539 167.218 385.539C166.885 385.539 166.601 385.604 166.367 385.734C166.132 385.865 165.94 386.044 165.789 386.273C165.638 386.497 165.526 386.76 165.453 387.062C165.385 387.365 165.351 387.688 165.351 388.031C165.351 388.859 165.518 389.484 165.851 389.906C166.184 390.323 166.64 390.531 167.218 390.531C167.536 390.531 167.812 390.469 168.046 390.344C168.281 390.214 168.471 390.036 168.617 389.812C168.763 389.583 168.872 389.315 168.945 389.008C169.018 388.701 169.054 388.37 169.054 388.016ZM177.421 392V386.828C177.421 385.958 177.099 385.523 176.453 385.523C176.13 385.523 175.82 385.654 175.523 385.914C175.231 386.174 174.921 386.529 174.593 386.977V392H172.687V384.062H174.335L174.382 385.234C174.544 385.031 174.71 384.846 174.882 384.68C175.059 384.513 175.25 384.372 175.453 384.258C175.656 384.138 175.875 384.047 176.109 383.984C176.343 383.922 176.606 383.891 176.898 383.891C177.304 383.891 177.658 383.958 177.96 384.094C178.263 384.224 178.515 384.411 178.718 384.656C178.921 384.896 179.072 385.188 179.171 385.531C179.276 385.87 179.328 386.25 179.328 386.672V392H177.421Z" fill="black"/>
<rect x="1.5" y="396.5" width="71.6173" height="22" rx="2.5" fill="#FFFD54" stroke="black" stroke-width="3"/>
<rect x="1.5" y="358.5" width="71.6173" height="23" rx="2.5" fill="#FFFD54" stroke="black" stroke-width="3"/>
<rect x="39.3828" y="229.5" width="184.117" height="92" rx="2.5" fill="#7DE77B" stroke="black" stroke-width="3"/>
<path d="M118.14 274.242C118.14 274.893 118.052 275.466 117.875 275.961C117.703 276.451 117.453 276.859 117.125 277.188C116.802 277.516 116.406 277.763 115.937 277.93C115.468 278.096 114.942 278.18 114.359 278.18C113.703 278.18 113.14 278.096 112.671 277.93C112.203 277.763 111.822 277.523 111.531 277.211C111.239 276.898 111.028 276.518 110.898 276.07C110.768 275.622 110.703 275.12 110.703 274.562V267.789H112.625V274.445C112.625 274.789 112.653 275.094 112.71 275.359C112.773 275.625 112.877 275.852 113.023 276.039C113.174 276.221 113.362 276.359 113.585 276.453C113.809 276.547 114.091 276.594 114.429 276.594C114.747 276.594 115.015 276.555 115.234 276.477C115.453 276.393 115.635 276.263 115.781 276.086C115.927 275.904 116.036 275.672 116.109 275.391C116.182 275.109 116.218 274.768 116.218 274.367V267.789H118.14V274.242ZM126.453 275.664C126.453 276.117 126.351 276.505 126.148 276.828C125.95 277.146 125.684 277.406 125.351 277.609C125.023 277.807 124.648 277.951 124.226 278.039C123.809 278.133 123.382 278.18 122.945 278.18C122.362 278.18 121.835 278.151 121.367 278.094C120.898 278.042 120.455 277.964 120.039 277.859V276.141C120.528 276.344 121.015 276.492 121.5 276.586C121.989 276.674 122.45 276.719 122.882 276.719C123.382 276.719 123.755 276.641 124 276.484C124.25 276.323 124.375 276.115 124.375 275.859C124.375 275.74 124.348 275.63 124.296 275.531C124.244 275.432 124.145 275.339 124 275.25C123.859 275.156 123.658 275.062 123.398 274.969C123.138 274.87 122.796 274.76 122.375 274.641C121.984 274.531 121.64 274.409 121.343 274.273C121.052 274.133 120.809 273.969 120.617 273.781C120.424 273.594 120.278 273.378 120.179 273.133C120.085 272.883 120.039 272.591 120.039 272.258C120.039 271.935 120.112 271.63 120.257 271.344C120.403 271.057 120.619 270.807 120.906 270.594C121.197 270.375 121.559 270.203 121.992 270.078C122.424 269.953 122.929 269.891 123.507 269.891C124.007 269.891 124.45 269.917 124.835 269.969C125.221 270.021 125.562 270.078 125.859 270.141V271.695C125.406 271.549 124.979 271.448 124.578 271.391C124.182 271.328 123.789 271.297 123.398 271.297C123.007 271.297 122.692 271.367 122.453 271.508C122.218 271.648 122.101 271.844 122.101 272.094C122.101 272.214 122.125 272.32 122.171 272.414C122.218 272.508 122.309 272.599 122.445 272.688C122.585 272.776 122.778 272.87 123.023 272.969C123.273 273.062 123.601 273.167 124.007 273.281C124.466 273.411 124.851 273.552 125.164 273.703C125.476 273.849 125.726 274.016 125.914 274.203C126.106 274.391 126.244 274.604 126.328 274.844C126.411 275.083 126.453 275.357 126.453 275.664ZM135.617 273.422C135.617 273.552 135.612 273.721 135.601 273.93C135.596 274.138 135.585 274.333 135.57 274.516H130.351C130.351 274.865 130.403 275.172 130.507 275.438C130.617 275.703 130.768 275.927 130.96 276.109C131.158 276.286 131.393 276.422 131.664 276.516C131.94 276.609 132.244 276.656 132.578 276.656C132.963 276.656 133.375 276.628 133.812 276.57C134.255 276.508 134.713 276.409 135.187 276.273V277.789C134.984 277.846 134.763 277.898 134.523 277.945C134.283 277.992 134.039 278.034 133.789 278.07C133.539 278.107 133.286 278.133 133.031 278.148C132.776 278.169 132.528 278.18 132.289 278.18C131.684 278.18 131.143 278.094 130.664 277.922C130.184 277.75 129.778 277.497 129.445 277.164C129.112 276.826 128.856 276.409 128.679 275.914C128.502 275.419 128.414 274.846 128.414 274.195C128.414 273.549 128.502 272.964 128.679 272.438C128.856 271.906 129.106 271.453 129.429 271.078C129.752 270.698 130.143 270.406 130.601 270.203C131.065 269.995 131.58 269.891 132.148 269.891C132.71 269.891 133.208 269.979 133.64 270.156C134.072 270.328 134.434 270.57 134.726 270.883C135.018 271.195 135.239 271.568 135.39 272C135.541 272.432 135.617 272.906 135.617 273.422ZM133.679 273.148C133.684 272.836 133.645 272.565 133.562 272.336C133.479 272.102 133.364 271.909 133.218 271.758C133.078 271.607 132.911 271.495 132.718 271.422C132.531 271.349 132.328 271.312 132.109 271.312C131.63 271.312 131.237 271.474 130.929 271.797C130.622 272.115 130.44 272.565 130.382 273.148H133.679ZM142.609 273.148C142.619 272.852 142.604 272.599 142.562 272.391C142.526 272.182 142.463 272.01 142.375 271.875C142.291 271.74 142.187 271.641 142.062 271.578C141.937 271.516 141.794 271.484 141.632 271.484C141.351 271.484 141.059 271.602 140.757 271.836C140.46 272.065 140.132 272.445 139.773 272.977V278H137.82V270.062H139.546L139.617 271.219C139.747 271.016 139.893 270.833 140.054 270.672C140.221 270.51 140.403 270.372 140.601 270.258C140.804 270.138 141.028 270.047 141.273 269.984C141.518 269.922 141.786 269.891 142.078 269.891C142.479 269.891 142.833 269.961 143.14 270.102C143.453 270.237 143.713 270.44 143.921 270.711C144.135 270.982 144.291 271.323 144.39 271.734C144.494 272.141 144.539 272.612 144.523 273.148H142.609ZM152.843 275.664C152.843 276.117 152.742 276.505 152.539 276.828C152.341 277.146 152.075 277.406 151.742 277.609C151.414 277.807 151.039 277.951 150.617 278.039C150.2 278.133 149.773 278.18 149.335 278.18C148.752 278.18 148.226 278.151 147.757 278.094C147.289 278.042 146.846 277.964 146.429 277.859V276.141C146.919 276.344 147.406 276.492 147.89 276.586C148.38 276.674 148.841 276.719 149.273 276.719C149.773 276.719 150.145 276.641 150.39 276.484C150.64 276.323 150.765 276.115 150.765 275.859C150.765 275.74 150.739 275.63 150.687 275.531C150.635 275.432 150.536 275.339 150.39 275.25C150.25 275.156 150.049 275.062 149.789 274.969C149.528 274.87 149.187 274.76 148.765 274.641C148.375 274.531 148.031 274.409 147.734 274.273C147.442 274.133 147.2 273.969 147.007 273.781C146.815 273.594 146.669 273.378 146.57 273.133C146.476 272.883 146.429 272.591 146.429 272.258C146.429 271.935 146.502 271.63 146.648 271.344C146.794 271.057 147.01 270.807 147.296 270.594C147.588 270.375 147.95 270.203 148.382 270.078C148.815 269.953 149.32 269.891 149.898 269.891C150.398 269.891 150.841 269.917 151.226 269.969C151.612 270.021 151.953 270.078 152.25 270.141V271.695C151.796 271.549 151.369 271.448 150.968 271.391C150.572 271.328 150.179 271.297 149.789 271.297C149.398 271.297 149.083 271.367 148.843 271.508C148.609 271.648 148.492 271.844 148.492 272.094C148.492 272.214 148.515 272.32 148.562 272.414C148.609 272.508 148.7 272.599 148.835 272.688C148.976 272.776 149.169 272.87 149.414 272.969C149.664 273.062 149.992 273.167 150.398 273.281C150.856 273.411 151.242 273.552 151.554 273.703C151.867 273.849 152.117 274.016 152.304 274.203C152.497 274.391 152.635 274.604 152.718 274.844C152.802 275.083 152.843 275.357 152.843 275.664Z" fill="black"/>
<rect x="1.5" y="282.5" width="71.6173" height="22" rx="2.5" fill="#FFFD54" stroke="black" stroke-width="3"/>
<rect x="1.5" y="244.5" width="71.6173" height="23" rx="2.5" fill="#FFFD54" stroke="black" stroke-width="3"/>
<rect x="39.3828" y="115.5" width="184.117" height="92" rx="2.5" fill="#7DE77B" stroke="black" stroke-width="3"/>
<path d="M80.6167 164L77.8824 157.906L77.3199 156.594V160.828V164H75.5699V153.789H77.9292L80.7183 159.922L81.2105 161.117V156.609V153.789H82.9605V164H80.6167ZM91.8667 159.969C91.8667 160.594 91.7782 161.167 91.6011 161.688C91.424 162.203 91.1688 162.646 90.8355 163.016C90.5021 163.385 90.0933 163.672 89.6089 163.875C89.1245 164.078 88.5725 164.18 87.9527 164.18C87.3641 164.18 86.8381 164.094 86.3745 163.922C85.911 163.75 85.5178 163.495 85.1949 163.156C84.8719 162.812 84.6245 162.385 84.4527 161.875C84.2808 161.359 84.1949 160.76 84.1949 160.078C84.1949 159.448 84.2834 158.875 84.4605 158.359C84.6428 157.844 84.9006 157.404 85.2339 157.039C85.5725 156.674 85.9839 156.393 86.4683 156.195C86.9527 155.992 87.4995 155.891 88.1089 155.891C88.7027 155.891 89.2313 155.979 89.6949 156.156C90.1584 156.328 90.5516 156.586 90.8745 156.93C91.1975 157.273 91.4422 157.701 91.6089 158.211C91.7808 158.716 91.8667 159.302 91.8667 159.969ZM89.8824 160.016C89.8824 159.193 89.7261 158.576 89.4136 158.164C89.1063 157.747 88.6506 157.539 88.0464 157.539C87.7131 157.539 87.4292 157.604 87.1949 157.734C86.9605 157.865 86.7678 158.044 86.6167 158.273C86.4657 158.497 86.3537 158.76 86.2808 159.062C86.2131 159.365 86.1792 159.688 86.1792 160.031C86.1792 160.859 86.3459 161.484 86.6792 161.906C87.0126 162.323 87.4683 162.531 88.0464 162.531C88.3641 162.531 88.6402 162.469 88.8745 162.344C89.1089 162.214 89.299 162.036 89.4449 161.812C89.5907 161.583 89.7001 161.315 89.773 161.008C89.8459 160.701 89.8824 160.37 89.8824 160.016ZM100.062 163.922C99.7183 164 99.3719 164.062 99.023 164.109C98.674 164.156 98.3433 164.18 98.0308 164.18C97.51 164.18 97.0594 164.125 96.6792 164.016C96.3042 163.906 95.9917 163.74 95.7417 163.516C95.4969 163.292 95.3146 163.008 95.1949 162.664C95.0803 162.315 95.023 161.901 95.023 161.422V157.547H92.8902V156.062H95.023V154.031L96.9761 153.523V156.062H100.062V157.547H96.9761V161.281C96.9761 161.734 97.0803 162.078 97.2886 162.312C97.4969 162.542 97.8459 162.656 98.3355 162.656C98.648 162.656 98.9527 162.63 99.2495 162.578C99.5464 162.526 99.8172 162.466 100.062 162.398V163.922ZM106.984 153.891C106.984 154.062 106.953 154.224 106.89 154.375C106.828 154.526 106.739 154.659 106.625 154.773C106.515 154.883 106.385 154.971 106.234 155.039C106.083 155.102 105.919 155.133 105.742 155.133C105.565 155.133 105.398 155.102 105.242 155.039C105.091 154.971 104.958 154.883 104.843 154.773C104.734 154.659 104.648 154.526 104.585 154.375C104.523 154.224 104.492 154.062 104.492 153.891C104.492 153.719 104.523 153.557 104.585 153.406C104.648 153.255 104.734 153.122 104.843 153.008C104.958 152.893 105.091 152.805 105.242 152.742C105.398 152.674 105.565 152.641 105.742 152.641C105.919 152.641 106.083 152.674 106.234 152.742C106.385 152.805 106.515 152.893 106.625 153.008C106.739 153.122 106.828 153.255 106.89 153.406C106.953 153.557 106.984 153.719 106.984 153.891ZM104.875 157.547H102.632V156.062H106.828V162.516H109.117V164H102.359V162.516H104.875V157.547ZM118.234 154.578C118.005 154.505 117.731 154.445 117.414 154.398C117.101 154.346 116.781 154.32 116.453 154.32C116.229 154.32 116.02 154.352 115.828 154.414C115.635 154.471 115.468 154.565 115.328 154.695C115.187 154.826 115.075 154.992 114.992 155.195C114.914 155.393 114.875 155.635 114.875 155.922V157.203H117.992V158.688H114.875V164H112.953V158.688H110.648V157.203H112.953V156C112.953 155.438 113.033 154.956 113.195 154.555C113.362 154.148 113.593 153.818 113.89 153.562C114.192 153.302 114.554 153.112 114.976 152.992C115.398 152.872 115.869 152.812 116.39 152.812C116.734 152.812 117.059 152.836 117.367 152.883C117.679 152.924 117.968 152.977 118.234 153.039V154.578ZM124.578 153.891C124.578 154.062 124.546 154.224 124.484 154.375C124.421 154.526 124.333 154.659 124.218 154.773C124.109 154.883 123.979 154.971 123.828 155.039C123.677 155.102 123.513 155.133 123.335 155.133C123.158 155.133 122.992 155.102 122.835 155.039C122.684 154.971 122.552 154.883 122.437 154.773C122.328 154.659 122.242 154.526 122.179 154.375C122.117 154.224 122.085 154.062 122.085 153.891C122.085 153.719 122.117 153.557 122.179 153.406C122.242 153.255 122.328 153.122 122.437 153.008C122.552 152.893 122.684 152.805 122.835 152.742C122.992 152.674 123.158 152.641 123.335 152.641C123.513 152.641 123.677 152.674 123.828 152.742C123.979 152.805 124.109 152.893 124.218 153.008C124.333 153.122 124.421 153.255 124.484 153.406C124.546 153.557 124.578 153.719 124.578 153.891ZM122.468 157.547H120.226V156.062H124.421V162.516H126.71V164H119.953V162.516H122.468V157.547ZM135.125 163.695C134.75 163.846 134.362 163.958 133.96 164.031C133.559 164.104 133.14 164.141 132.703 164.141C132.072 164.141 131.507 164.055 131.007 163.883C130.507 163.711 130.083 163.456 129.734 163.117C129.385 162.779 129.117 162.359 128.929 161.859C128.747 161.359 128.656 160.781 128.656 160.125C128.656 159.49 128.755 158.914 128.953 158.398C129.156 157.883 129.44 157.443 129.804 157.078C130.169 156.714 130.606 156.432 131.117 156.234C131.632 156.036 132.205 155.938 132.835 155.938C133.351 155.938 133.783 155.966 134.132 156.023C134.487 156.076 134.804 156.143 135.085 156.227V158.078C134.763 157.917 134.411 157.792 134.031 157.703C133.656 157.615 133.299 157.57 132.96 157.57C132.606 157.57 132.289 157.63 132.007 157.75C131.726 157.87 131.489 158.036 131.296 158.25C131.104 158.464 130.955 158.724 130.851 159.031C130.752 159.333 130.703 159.667 130.703 160.031C130.703 160.411 130.757 160.753 130.867 161.055C130.976 161.357 131.13 161.615 131.328 161.828C131.531 162.036 131.773 162.198 132.054 162.312C132.335 162.422 132.648 162.477 132.992 162.477C133.158 162.477 133.333 162.466 133.515 162.445C133.703 162.419 133.888 162.385 134.07 162.344C134.257 162.297 134.44 162.245 134.617 162.188C134.799 162.13 134.968 162.068 135.125 162V163.695ZM142.476 164L142.429 162.961C142.263 163.138 142.088 163.302 141.906 163.453C141.724 163.599 141.523 163.727 141.304 163.836C141.085 163.945 140.846 164.029 140.585 164.086C140.33 164.148 140.049 164.18 139.742 164.18C139.335 164.18 138.979 164.12 138.671 164C138.364 163.88 138.106 163.714 137.898 163.5C137.69 163.286 137.531 163.029 137.421 162.727C137.317 162.424 137.265 162.091 137.265 161.727C137.265 161.352 137.343 161.005 137.5 160.688C137.661 160.37 137.903 160.096 138.226 159.867C138.554 159.638 138.96 159.458 139.445 159.328C139.934 159.198 140.507 159.133 141.164 159.133H142.203V158.656C142.203 158.453 142.174 158.271 142.117 158.109C142.059 157.943 141.966 157.802 141.835 157.688C141.71 157.573 141.546 157.484 141.343 157.422C141.14 157.359 140.89 157.328 140.593 157.328C140.125 157.328 139.661 157.383 139.203 157.492C138.75 157.596 138.309 157.745 137.882 157.938V156.414C138.263 156.263 138.7 156.138 139.195 156.039C139.695 155.94 140.213 155.891 140.75 155.891C141.338 155.891 141.843 155.948 142.265 156.062C142.687 156.172 143.033 156.339 143.304 156.562C143.58 156.786 143.783 157.068 143.914 157.406C144.044 157.74 144.109 158.13 144.109 158.578V164H142.476ZM142.203 160.492H141.039C140.716 160.492 140.442 160.523 140.218 160.586C139.994 160.648 139.812 160.734 139.671 160.844C139.531 160.953 139.427 161.081 139.359 161.227C139.296 161.367 139.265 161.518 139.265 161.68C139.265 162.003 139.369 162.25 139.578 162.422C139.786 162.589 140.07 162.672 140.429 162.672C140.695 162.672 140.971 162.576 141.257 162.383C141.544 162.19 141.859 161.914 142.203 161.555V160.492ZM152.843 163.922C152.5 164 152.153 164.062 151.804 164.109C151.455 164.156 151.125 164.18 150.812 164.18C150.291 164.18 149.841 164.125 149.46 164.016C149.085 163.906 148.773 163.74 148.523 163.516C148.278 163.292 148.096 163.008 147.976 162.664C147.862 162.315 147.804 161.901 147.804 161.422V157.547H145.671V156.062H147.804V154.031L149.757 153.523V156.062H152.843V157.547H149.757V161.281C149.757 161.734 149.862 162.078 150.07 162.312C150.278 162.542 150.627 162.656 151.117 162.656C151.429 162.656 151.734 162.63 152.031 162.578C152.328 162.526 152.599 162.466 152.843 162.398V163.922ZM159.765 153.891C159.765 154.062 159.734 154.224 159.671 154.375C159.609 154.526 159.52 154.659 159.406 154.773C159.296 154.883 159.166 154.971 159.015 155.039C158.864 155.102 158.7 155.133 158.523 155.133C158.346 155.133 158.179 155.102 158.023 155.039C157.872 154.971 157.739 154.883 157.625 154.773C157.515 154.659 157.429 154.526 157.367 154.375C157.304 154.224 157.273 154.062 157.273 153.891C157.273 153.719 157.304 153.557 157.367 153.406C157.429 153.255 157.515 153.122 157.625 153.008C157.739 152.893 157.872 152.805 158.023 152.742C158.179 152.674 158.346 152.641 158.523 152.641C158.7 152.641 158.864 152.674 159.015 152.742C159.166 152.805 159.296 152.893 159.406 153.008C159.52 153.122 159.609 153.255 159.671 153.406C159.734 153.557 159.765 153.719 159.765 153.891ZM157.656 157.547H155.414V156.062H159.609V162.516H161.898V164H155.14V162.516H157.656V157.547ZM171.039 159.969C171.039 160.594 170.95 161.167 170.773 161.688C170.596 162.203 170.341 162.646 170.007 163.016C169.674 163.385 169.265 163.672 168.781 163.875C168.296 164.078 167.744 164.18 167.125 164.18C166.536 164.18 166.01 164.094 165.546 163.922C165.083 163.75 164.69 163.495 164.367 163.156C164.044 162.812 163.796 162.385 163.625 161.875C163.453 161.359 163.367 160.76 163.367 160.078C163.367 159.448 163.455 158.875 163.632 158.359C163.815 157.844 164.072 157.404 164.406 157.039C164.744 156.674 165.156 156.393 165.64 156.195C166.125 155.992 166.671 155.891 167.281 155.891C167.875 155.891 168.403 155.979 168.867 156.156C169.33 156.328 169.724 156.586 170.046 156.93C170.369 157.273 170.614 157.701 170.781 158.211C170.953 158.716 171.039 159.302 171.039 159.969ZM169.054 160.016C169.054 159.193 168.898 158.576 168.585 158.164C168.278 157.747 167.822 157.539 167.218 157.539C166.885 157.539 166.601 157.604 166.367 157.734C166.132 157.865 165.94 158.044 165.789 158.273C165.638 158.497 165.526 158.76 165.453 159.062C165.385 159.365 165.351 159.688 165.351 160.031C165.351 160.859 165.518 161.484 165.851 161.906C166.184 162.323 166.64 162.531 167.218 162.531C167.536 162.531 167.812 162.469 168.046 162.344C168.281 162.214 168.471 162.036 168.617 161.812C168.763 161.583 168.872 161.315 168.945 161.008C169.018 160.701 169.054 160.37 169.054 160.016ZM177.421 164V158.828C177.421 157.958 177.099 157.523 176.453 157.523C176.13 157.523 175.82 157.654 175.523 157.914C175.231 158.174 174.921 158.529 174.593 158.977V164H172.687V156.062H174.335L174.382 157.234C174.544 157.031 174.71 156.846 174.882 156.68C175.059 156.513 175.25 156.372 175.453 156.258C175.656 156.138 175.875 156.047 176.109 155.984C176.343 155.922 176.606 155.891 176.898 155.891C177.304 155.891 177.658 155.958 177.96 156.094C178.263 156.224 178.515 156.411 178.718 156.656C178.921 156.896 179.072 157.188 179.171 157.531C179.276 157.87 179.328 158.25 179.328 158.672V164H177.421ZM188.031 161.664C188.031 162.117 187.929 162.505 187.726 162.828C187.528 163.146 187.263 163.406 186.929 163.609C186.601 163.807 186.226 163.951 185.804 164.039C185.388 164.133 184.96 164.18 184.523 164.18C183.94 164.18 183.414 164.151 182.945 164.094C182.476 164.042 182.033 163.964 181.617 163.859V162.141C182.106 162.344 182.593 162.492 183.078 162.586C183.567 162.674 184.028 162.719 184.46 162.719C184.96 162.719 185.333 162.641 185.578 162.484C185.828 162.323 185.953 162.115 185.953 161.859C185.953 161.74 185.927 161.63 185.875 161.531C185.822 161.432 185.724 161.339 185.578 161.25C185.437 161.156 185.237 161.062 184.976 160.969C184.716 160.87 184.375 160.76 183.953 160.641C183.562 160.531 183.218 160.409 182.921 160.273C182.63 160.133 182.388 159.969 182.195 159.781C182.002 159.594 181.856 159.378 181.757 159.133C181.664 158.883 181.617 158.591 181.617 158.258C181.617 157.935 181.69 157.63 181.835 157.344C181.981 157.057 182.197 156.807 182.484 156.594C182.776 156.375 183.138 156.203 183.57 156.078C184.002 155.953 184.507 155.891 185.085 155.891C185.585 155.891 186.028 155.917 186.414 155.969C186.799 156.021 187.14 156.078 187.437 156.141V157.695C186.984 157.549 186.557 157.448 186.156 157.391C185.76 157.328 185.367 157.297 184.976 157.297C184.585 157.297 184.27 157.367 184.031 157.508C183.796 157.648 183.679 157.844 183.679 158.094C183.679 158.214 183.703 158.32 183.75 158.414C183.796 158.508 183.888 158.599 184.023 158.688C184.164 158.776 184.356 158.87 184.601 158.969C184.851 159.062 185.179 159.167 185.585 159.281C186.044 159.411 186.429 159.552 186.742 159.703C187.054 159.849 187.304 160.016 187.492 160.203C187.684 160.391 187.822 160.604 187.906 160.844C187.989 161.083 188.031 161.357 188.031 161.664Z" fill="black"/>
<rect x="1.5" y="168.5" width="71.6173" height="22" rx="2.5" fill="#FFFD54" stroke="black" stroke-width="3"/>
<rect x="1.5" y="130.5" width="71.6173" height="23" rx="2.5" fill="#FFFD54" stroke="black" stroke-width="3"/>
</svg>
