<svg width="575" height="210" viewBox="0 0 575 210" fill="none" xmlns="http://www.w3.org/2000/svg">
<path d="M238.695 14.7656C238.695 15.5573 238.596 16.276 238.398 16.9219C238.206 17.5677 237.901 18.1198 237.484 18.5781C237.073 19.0312 236.544 19.3828 235.898 19.6328C235.253 19.8776 234.479 20 233.578 20H230.984V9.78906H234.008C234.789 9.78906 235.471 9.88802 236.055 10.0859C236.643 10.2786 237.133 10.5781 237.523 10.9844C237.914 11.3906 238.206 11.9062 238.398 12.5312C238.596 13.1562 238.695 13.901 238.695 14.7656ZM236.633 14.8906C236.633 14.3385 236.589 13.8464 236.5 13.4141C236.411 12.9818 236.26 12.6172 236.047 12.3203C235.839 12.0182 235.557 11.7891 235.203 11.6328C234.849 11.4766 234.409 11.3984 233.883 11.3984H232.906V18.3906H233.75C234.693 18.3906 235.409 18.1094 235.898 17.5469C236.388 16.9844 236.633 16.099 236.633 14.8906ZM244.867 9.89062C244.867 10.0625 244.836 10.224 244.773 10.375C244.711 10.526 244.622 10.6589 244.508 10.7734C244.398 10.8828 244.268 10.9714 244.117 11.0391C243.966 11.1016 243.802 11.1328 243.625 11.1328C243.448 11.1328 243.281 11.1016 243.125 11.0391C242.974 10.9714 242.841 10.8828 242.727 10.7734C242.617 10.6589 242.531 10.526 242.469 10.375C242.406 10.224 242.375 10.0625 242.375 9.89062C242.375 9.71875 242.406 9.55729 242.469 9.40625C242.531 9.25521 242.617 9.1224 242.727 9.00781C242.841 8.89323 242.974 8.80469 243.125 8.74219C243.281 8.67448 243.448 8.64062 243.625 8.64062C243.802 8.64062 243.966 8.67448 244.117 8.74219C244.268 8.80469 244.398 8.89323 244.508 9.00781C244.622 9.1224 244.711 9.25521 244.773 9.40625C244.836 9.55729 244.867 9.71875 244.867 9.89062ZM242.758 13.5469H240.516V12.0625H244.711V18.5156H247V20H240.242V18.5156H242.758V13.5469ZM255.539 17.6641C255.539 18.1172 255.438 18.5052 255.234 18.8281C255.036 19.1458 254.771 19.4062 254.438 19.6094C254.109 19.8073 253.734 19.9505 253.312 20.0391C252.896 20.1328 252.469 20.1797 252.031 20.1797C251.448 20.1797 250.922 20.151 250.453 20.0938C249.984 20.0417 249.542 19.9635 249.125 19.8594V18.1406C249.615 18.3438 250.102 18.4922 250.586 18.5859C251.076 18.6745 251.536 18.7188 251.969 18.7188C252.469 18.7188 252.841 18.6406 253.086 18.4844C253.336 18.3229 253.461 18.1146 253.461 17.8594C253.461 17.7396 253.435 17.6302 253.383 17.5312C253.331 17.4323 253.232 17.3385 253.086 17.25C252.945 17.1562 252.745 17.0625 252.484 16.9688C252.224 16.8698 251.883 16.7604 251.461 16.6406C251.07 16.5312 250.727 16.4089 250.43 16.2734C250.138 16.1328 249.896 15.9688 249.703 15.7812C249.51 15.5938 249.365 15.3776 249.266 15.1328C249.172 14.8828 249.125 14.5911 249.125 14.2578C249.125 13.9349 249.198 13.6302 249.344 13.3438C249.49 13.0573 249.706 12.8073 249.992 12.5938C250.284 12.375 250.646 12.2031 251.078 12.0781C251.51 11.9531 252.016 11.8906 252.594 11.8906C253.094 11.8906 253.536 11.9167 253.922 11.9688C254.307 12.0208 254.648 12.0781 254.945 12.1406V13.6953C254.492 13.5495 254.065 13.4479 253.664 13.3906C253.268 13.3281 252.875 13.2969 252.484 13.2969C252.094 13.2969 251.779 13.3672 251.539 13.5078C251.305 13.6484 251.188 13.8438 251.188 14.0938C251.188 14.2135 251.211 14.3203 251.258 14.4141C251.305 14.5078 251.396 14.599 251.531 14.6875C251.672 14.776 251.865 14.8698 252.109 14.9688C252.359 15.0625 252.688 15.1667 253.094 15.2812C253.552 15.4115 253.938 15.5521 254.25 15.7031C254.562 15.849 254.812 16.0156 255 16.2031C255.193 16.3906 255.331 16.6042 255.414 16.8438C255.497 17.0833 255.539 17.3568 255.539 17.6641ZM264.93 15.8906C264.93 16.6198 264.826 17.25 264.617 17.7812C264.414 18.3125 264.128 18.7552 263.758 19.1094C263.393 19.4583 262.961 19.7188 262.461 19.8906C261.961 20.0573 261.417 20.1406 260.828 20.1406C260.63 20.1406 260.432 20.1276 260.234 20.1016C260.036 20.0755 259.857 20.0417 259.695 20V23.1016H257.789V12.0625H259.438L259.484 13.2344C259.646 13.0312 259.812 12.8464 259.984 12.6797C260.161 12.513 260.352 12.3724 260.555 12.2578C260.758 12.138 260.977 12.0469 261.211 11.9844C261.445 11.9219 261.708 11.8906 262 11.8906C262.469 11.8906 262.885 11.9844 263.25 12.1719C263.615 12.3594 263.919 12.6276 264.164 12.9766C264.414 13.3203 264.604 13.7396 264.734 14.2344C264.865 14.724 264.93 15.276 264.93 15.8906ZM262.93 15.9688C262.93 15.5312 262.898 15.1589 262.836 14.8516C262.773 14.5443 262.682 14.2917 262.562 14.0938C262.448 13.8958 262.305 13.7526 262.133 13.6641C261.966 13.5703 261.773 13.5234 261.555 13.5234C261.232 13.5234 260.922 13.6536 260.625 13.9141C260.333 14.1745 260.023 14.5286 259.695 14.9766V18.4453C259.846 18.5026 260.031 18.5495 260.25 18.5859C260.474 18.6224 260.701 18.6406 260.93 18.6406C261.232 18.6406 261.505 18.5781 261.75 18.4531C262 18.3281 262.211 18.151 262.383 17.9219C262.56 17.6927 262.695 17.4141 262.789 17.0859C262.883 16.7526 262.93 16.3802 262.93 15.9688ZM271.562 20L271.516 18.9609C271.349 19.138 271.174 19.3021 270.992 19.4531C270.81 19.599 270.609 19.7266 270.391 19.8359C270.172 19.9453 269.932 20.0286 269.672 20.0859C269.417 20.1484 269.135 20.1797 268.828 20.1797C268.422 20.1797 268.065 20.1198 267.758 20C267.451 19.8802 267.193 19.7135 266.984 19.5C266.776 19.2865 266.617 19.0286 266.508 18.7266C266.404 18.4245 266.352 18.0911 266.352 17.7266C266.352 17.3516 266.43 17.0052 266.586 16.6875C266.747 16.3698 266.99 16.0964 267.312 15.8672C267.641 15.638 268.047 15.4583 268.531 15.3281C269.021 15.1979 269.594 15.1328 270.25 15.1328H271.289V14.6562C271.289 14.4531 271.26 14.2708 271.203 14.1094C271.146 13.9427 271.052 13.8021 270.922 13.6875C270.797 13.5729 270.633 13.4844 270.43 13.4219C270.227 13.3594 269.977 13.3281 269.68 13.3281C269.211 13.3281 268.747 13.3828 268.289 13.4922C267.836 13.5964 267.396 13.7448 266.969 13.9375V12.4141C267.349 12.263 267.786 12.138 268.281 12.0391C268.781 11.9401 269.299 11.8906 269.836 11.8906C270.424 11.8906 270.93 11.9479 271.352 12.0625C271.773 12.1719 272.12 12.3385 272.391 12.5625C272.667 12.7865 272.87 13.0677 273 13.4062C273.13 13.7396 273.195 14.1302 273.195 14.5781V20H271.562ZM271.289 16.4922H270.125C269.802 16.4922 269.529 16.5234 269.305 16.5859C269.081 16.6484 268.898 16.7344 268.758 16.8438C268.617 16.9531 268.513 17.0807 268.445 17.2266C268.383 17.3672 268.352 17.5182 268.352 17.6797C268.352 18.0026 268.456 18.25 268.664 18.4219C268.872 18.5885 269.156 18.6719 269.516 18.6719C269.781 18.6719 270.057 18.5755 270.344 18.3828C270.63 18.1901 270.945 17.9141 271.289 17.5547V16.4922ZM281.93 19.9219C281.586 20 281.24 20.0625 280.891 20.1094C280.542 20.1562 280.211 20.1797 279.898 20.1797C279.378 20.1797 278.927 20.125 278.547 20.0156C278.172 19.9062 277.859 19.7396 277.609 19.5156C277.365 19.2917 277.182 19.0078 277.062 18.6641C276.948 18.3151 276.891 17.901 276.891 17.4219V13.5469H274.758V12.0625H276.891V10.0312L278.844 9.52344V12.0625H281.93V13.5469H278.844V17.2812C278.844 17.7344 278.948 18.0781 279.156 18.3125C279.365 18.5417 279.714 18.6562 280.203 18.6562C280.516 18.6562 280.82 18.6302 281.117 18.5781C281.414 18.526 281.685 18.4661 281.93 18.3984V19.9219ZM290.602 19.6953C290.227 19.8464 289.839 19.9583 289.438 20.0312C289.036 20.1042 288.617 20.1406 288.18 20.1406C287.549 20.1406 286.984 20.0547 286.484 19.8828C285.984 19.7109 285.56 19.4557 285.211 19.1172C284.862 18.7786 284.594 18.3594 284.406 17.8594C284.224 17.3594 284.133 16.7812 284.133 16.125C284.133 15.4896 284.232 14.9141 284.43 14.3984C284.633 13.8828 284.917 13.4427 285.281 13.0781C285.646 12.7135 286.083 12.4323 286.594 12.2344C287.109 12.0365 287.682 11.9375 288.312 11.9375C288.828 11.9375 289.26 11.9661 289.609 12.0234C289.964 12.0755 290.281 12.1432 290.562 12.2266V14.0781C290.24 13.9167 289.888 13.7917 289.508 13.7031C289.133 13.6146 288.776 13.5703 288.438 13.5703C288.083 13.5703 287.766 13.6302 287.484 13.75C287.203 13.8698 286.966 14.0365 286.773 14.25C286.581 14.4635 286.432 14.724 286.328 15.0312C286.229 15.3333 286.18 15.6667 286.18 16.0312C286.18 16.4115 286.234 16.7526 286.344 17.0547C286.453 17.3568 286.607 17.6146 286.805 17.8281C287.008 18.0365 287.25 18.1979 287.531 18.3125C287.812 18.4219 288.125 18.4766 288.469 18.4766C288.635 18.4766 288.81 18.4661 288.992 18.4453C289.18 18.4193 289.365 18.3854 289.547 18.3438C289.734 18.2969 289.917 18.2448 290.094 18.1875C290.276 18.1302 290.445 18.0677 290.602 18V19.6953ZM297.711 20V14.8281C297.711 13.9583 297.388 13.5234 296.742 13.5234C296.419 13.5234 296.109 13.6536 295.812 13.9141C295.521 14.1745 295.211 14.5286 294.883 14.9766V20H292.977V8.96094H294.883V11.6797L294.789 13.1172C294.951 12.9245 295.115 12.7526 295.281 12.6016C295.448 12.4453 295.628 12.3151 295.82 12.2109C296.013 12.1068 296.221 12.0286 296.445 11.9766C296.669 11.9193 296.917 11.8906 297.188 11.8906C297.594 11.8906 297.948 11.9583 298.25 12.0938C298.552 12.224 298.805 12.4115 299.008 12.6562C299.211 12.8958 299.362 13.1875 299.461 13.5312C299.565 13.8698 299.617 14.25 299.617 14.6719V20H297.711Z" fill="black"/>
<rect x="352.318" y="116.5" width="220.641" height="92" rx="2.5" fill="#7DE77B" stroke="black" stroke-width="3"/>
<path d="M412.882 146.805L408.933 143.477L412.882 140.155L413.797 141.081L410.89 143.465L413.797 145.879L412.882 146.805ZM419.48 146.805L415.531 143.477L419.48 140.155L420.394 141.081L417.488 143.465L420.394 145.879L419.48 146.805ZM422.41 140.19V139.012H427.25V140.19H425.562V145.481H427.25V146.67H422.41V145.481H424.097V140.19H422.41ZM434.416 142.745C434.416 143.338 434.341 143.877 434.193 144.362C434.048 144.846 433.82 145.26 433.507 145.604C433.199 145.944 432.802 146.208 432.318 146.395C431.834 146.579 431.254 146.67 430.578 146.67H428.632V139.012H430.9C431.486 139.012 431.998 139.086 432.435 139.235C432.877 139.379 433.244 139.604 433.537 139.909C433.83 140.213 434.048 140.6 434.193 141.069C434.341 141.538 434.416 142.096 434.416 142.745ZM432.869 142.838C432.869 142.424 432.836 142.055 432.769 141.731C432.703 141.407 432.589 141.133 432.429 140.911C432.273 140.684 432.062 140.512 431.797 140.395C431.531 140.278 431.201 140.219 430.806 140.219H430.074V145.463H430.707C431.414 145.463 431.951 145.252 432.318 144.831C432.685 144.409 432.869 143.745 432.869 142.838ZM440.902 143.647C440.902 144.116 440.836 144.545 440.703 144.936C440.57 145.323 440.379 145.655 440.129 145.932C439.879 146.21 439.572 146.424 439.209 146.577C438.845 146.729 438.431 146.805 437.966 146.805C437.525 146.805 437.131 146.741 436.783 146.612C436.435 146.483 436.14 146.292 435.898 146.038C435.656 145.78 435.47 145.46 435.341 145.077C435.213 144.69 435.148 144.241 435.148 143.729C435.148 143.256 435.214 142.827 435.347 142.44C435.484 142.053 435.677 141.723 435.927 141.45C436.181 141.176 436.49 140.965 436.853 140.817C437.216 140.665 437.627 140.588 438.084 140.588C438.529 140.588 438.925 140.655 439.273 140.788C439.621 140.917 439.916 141.11 440.158 141.368C440.4 141.626 440.584 141.946 440.709 142.329C440.838 142.708 440.902 143.147 440.902 143.647ZM439.414 143.682C439.414 143.065 439.297 142.602 439.062 142.293C438.832 141.981 438.49 141.825 438.037 141.825C437.787 141.825 437.574 141.874 437.398 141.971C437.222 142.069 437.078 142.204 436.964 142.376C436.851 142.543 436.767 142.741 436.713 142.967C436.662 143.194 436.636 143.436 436.636 143.694C436.636 144.315 436.761 144.784 437.011 145.1C437.261 145.413 437.603 145.569 438.037 145.569C438.275 145.569 438.482 145.522 438.658 145.428C438.834 145.331 438.976 145.198 439.086 145.03C439.195 144.858 439.277 144.657 439.332 144.426C439.386 144.196 439.414 143.948 439.414 143.682ZM446.339 146.67V142.616C446.339 142.467 446.336 142.338 446.328 142.229C446.32 142.116 446.304 142.022 446.281 141.948C446.257 141.874 446.222 141.819 446.175 141.784C446.132 141.745 446.072 141.725 445.994 141.725C445.873 141.725 445.754 141.807 445.636 141.971C445.519 142.135 445.386 142.415 445.238 142.809V146.67H444.013V142.616C444.013 142.467 444.009 142.338 444.002 142.229C443.994 142.116 443.978 142.022 443.955 141.948C443.931 141.874 443.896 141.819 443.849 141.784C443.802 141.745 443.74 141.725 443.662 141.725C443.56 141.725 443.447 141.807 443.322 141.971C443.197 142.135 443.058 142.415 442.906 142.809V146.67H441.67V140.717H442.73L442.754 141.585C442.839 141.409 442.925 141.258 443.011 141.133C443.097 141.008 443.189 140.907 443.287 140.829C443.384 140.747 443.488 140.688 443.597 140.653C443.711 140.618 443.838 140.6 443.978 140.6C444.31 140.6 444.562 140.688 444.734 140.864C444.91 141.036 445.009 141.276 445.033 141.585C445.127 141.409 445.218 141.258 445.308 141.133C445.402 141.008 445.498 140.907 445.595 140.829C445.697 140.747 445.804 140.688 445.918 140.653C446.035 140.618 446.164 140.6 446.304 140.6C446.738 140.6 447.058 140.752 447.265 141.057C447.472 141.358 447.576 141.805 447.576 142.399V146.67H446.339ZM452.468 146.67L452.433 145.891C452.308 146.024 452.177 146.147 452.041 146.26C451.904 146.37 451.754 146.465 451.589 146.547C451.425 146.629 451.246 146.692 451.05 146.735C450.859 146.782 450.648 146.805 450.418 146.805C450.113 146.805 449.845 146.76 449.615 146.67C449.384 146.581 449.191 146.456 449.035 146.295C448.879 146.135 448.759 145.942 448.677 145.715C448.599 145.489 448.56 145.239 448.56 144.965C448.56 144.684 448.619 144.424 448.736 144.186C448.857 143.948 449.039 143.743 449.281 143.571C449.527 143.399 449.832 143.264 450.195 143.167C450.562 143.069 450.992 143.02 451.484 143.02H452.263V142.663C452.263 142.51 452.242 142.374 452.199 142.252C452.156 142.127 452.086 142.022 451.988 141.936C451.894 141.85 451.771 141.784 451.619 141.737C451.466 141.69 451.279 141.667 451.056 141.667C450.705 141.667 450.357 141.708 450.013 141.79C449.673 141.868 449.343 141.979 449.023 142.124V140.981C449.308 140.868 449.636 140.774 450.007 140.7C450.382 140.626 450.771 140.588 451.173 140.588C451.615 140.588 451.994 140.631 452.31 140.717C452.627 140.799 452.886 140.924 453.089 141.092C453.297 141.26 453.449 141.471 453.547 141.725C453.644 141.975 453.693 142.268 453.693 142.604V146.67H452.468ZM452.263 144.04H451.39C451.148 144.04 450.943 144.063 450.775 144.11C450.607 144.157 450.47 144.221 450.365 144.303C450.259 144.385 450.181 144.481 450.131 144.59C450.084 144.696 450.06 144.809 450.06 144.93C450.06 145.172 450.138 145.358 450.295 145.487C450.451 145.612 450.664 145.674 450.933 145.674C451.132 145.674 451.339 145.602 451.554 145.458C451.769 145.313 452.006 145.106 452.263 144.836V144.04ZM458.838 139.088C458.838 139.217 458.814 139.338 458.767 139.452C458.72 139.565 458.654 139.665 458.568 139.751C458.486 139.833 458.388 139.899 458.275 139.95C458.162 139.997 458.039 140.02 457.906 140.02C457.773 140.02 457.648 139.997 457.531 139.95C457.418 139.899 457.318 139.833 457.232 139.751C457.15 139.665 457.086 139.565 457.039 139.452C456.992 139.338 456.968 139.217 456.968 139.088C456.968 138.96 456.992 138.838 457.039 138.725C457.086 138.612 457.15 138.512 457.232 138.426C457.318 138.34 457.418 138.274 457.531 138.227C457.648 138.176 457.773 138.151 457.906 138.151C458.039 138.151 458.162 138.176 458.275 138.227C458.388 138.274 458.486 138.34 458.568 138.426C458.654 138.512 458.72 138.612 458.767 138.725C458.814 138.838 458.838 138.96 458.838 139.088ZM457.256 141.831H455.574V140.717H458.72V145.557H460.437V146.67H455.369V145.557H457.256V141.831ZM465.482 146.67V142.792C465.482 142.139 465.24 141.813 464.756 141.813C464.513 141.813 464.281 141.911 464.058 142.106C463.839 142.301 463.607 142.567 463.361 142.903V146.67H461.931V140.717H463.168L463.203 141.596C463.324 141.444 463.449 141.305 463.578 141.18C463.711 141.055 463.853 140.95 464.006 140.864C464.158 140.774 464.322 140.706 464.498 140.659C464.673 140.612 464.871 140.588 465.089 140.588C465.394 140.588 465.66 140.639 465.886 140.741C466.113 140.838 466.302 140.979 466.455 141.163C466.607 141.342 466.72 141.561 466.795 141.819C466.873 142.073 466.912 142.358 466.912 142.674V146.67H465.482ZM468.793 146.67V139.012H473.404V140.231H470.257V142.135H473.257V143.325H470.257V145.452H473.404V146.67H468.793ZM478.455 146.67H476.808L474.447 140.717H476.041L477.277 144.092L477.646 145.182L478.009 144.139L479.257 140.717H480.793L478.455 146.67ZM486.91 143.237C486.91 143.335 486.906 143.461 486.898 143.618C486.894 143.774 486.886 143.92 486.875 144.057H482.961C482.961 144.319 483 144.549 483.078 144.749C483.16 144.948 483.273 145.116 483.418 145.252C483.566 145.385 483.742 145.487 483.945 145.557C484.152 145.627 484.381 145.663 484.631 145.663C484.92 145.663 485.228 145.641 485.556 145.598C485.888 145.551 486.232 145.477 486.588 145.376V146.512C486.435 146.555 486.269 146.594 486.089 146.629C485.91 146.665 485.726 146.696 485.539 146.723C485.351 146.751 485.162 146.77 484.97 146.782C484.779 146.797 484.593 146.805 484.414 146.805C483.961 146.805 483.554 146.741 483.195 146.612C482.836 146.483 482.531 146.293 482.281 146.043C482.031 145.79 481.839 145.477 481.707 145.106C481.574 144.735 481.507 144.305 481.507 143.817C481.507 143.333 481.574 142.893 481.707 142.499C481.839 142.1 482.027 141.76 482.269 141.479C482.511 141.194 482.804 140.975 483.148 140.823C483.496 140.667 483.882 140.588 484.308 140.588C484.73 140.588 485.103 140.655 485.427 140.788C485.752 140.917 486.023 141.098 486.242 141.333C486.461 141.567 486.627 141.846 486.74 142.17C486.853 142.495 486.91 142.85 486.91 143.237ZM485.457 143.032C485.461 142.797 485.431 142.594 485.369 142.422C485.306 142.247 485.22 142.102 485.111 141.989C485.006 141.876 484.881 141.792 484.736 141.737C484.595 141.682 484.443 141.655 484.279 141.655C483.92 141.655 483.625 141.776 483.394 142.018C483.164 142.256 483.027 142.594 482.984 143.032H485.457ZM491.873 146.67V142.792C491.873 142.139 491.631 141.813 491.146 141.813C490.904 141.813 490.672 141.911 490.449 142.106C490.23 142.301 489.998 142.567 489.752 142.903V146.67H488.322V140.717H489.558L489.593 141.596C489.714 141.444 489.839 141.305 489.968 141.18C490.101 141.055 490.244 140.95 490.396 140.864C490.548 140.774 490.713 140.706 490.888 140.659C491.064 140.612 491.261 140.588 491.48 140.588C491.785 140.588 492.05 140.639 492.277 140.741C492.504 140.838 492.693 140.979 492.845 141.163C492.998 141.342 493.111 141.561 493.185 141.819C493.263 142.073 493.302 142.358 493.302 142.674V146.67H491.873ZM499.83 146.612C499.572 146.67 499.312 146.717 499.05 146.752C498.789 146.788 498.541 146.805 498.306 146.805C497.916 146.805 497.578 146.764 497.293 146.682C497.011 146.6 496.777 146.475 496.589 146.307C496.406 146.139 496.269 145.926 496.179 145.668C496.093 145.407 496.05 145.096 496.05 144.737V141.831H494.451V140.717H496.05V139.194L497.515 138.813V140.717H499.83V141.831H497.515V144.631C497.515 144.971 497.593 145.229 497.75 145.405C497.906 145.577 498.168 145.663 498.535 145.663C498.769 145.663 498.998 145.643 499.22 145.604C499.443 145.565 499.646 145.52 499.83 145.469V146.612ZM502.754 140.155L506.703 143.477L502.754 146.805L501.845 145.879L504.746 143.489L501.845 141.081L502.754 140.155ZM509.351 140.155L513.3 143.477L509.351 146.805L508.443 145.879L511.343 143.489L508.443 141.081L509.351 140.155Z" fill="black"/>
<line x1="351.132" y1="169.636" x2="574.773" y2="169.636" stroke="black" stroke-width="3"/>
<path d="M390.604 187.251V189.53H389.285V187.251H387.1V186.073H389.285V183.805H390.604V186.073H392.789V187.251H390.604ZM404.397 189.852L404.361 188.973C404.236 189.126 404.108 189.264 403.975 189.389C403.842 189.514 403.699 189.622 403.547 189.712C403.395 189.798 403.231 189.864 403.055 189.911C402.883 189.962 402.691 189.987 402.481 189.987C402.129 189.987 401.816 189.917 401.543 189.776C401.27 189.635 401.039 189.436 400.852 189.178C400.668 188.917 400.527 188.6 400.43 188.229C400.332 187.858 400.283 187.444 400.283 186.987C400.283 186.44 400.359 185.967 400.512 185.569C400.668 185.167 400.883 184.835 401.156 184.573C401.43 184.307 401.754 184.112 402.129 183.987C402.504 183.858 402.912 183.794 403.354 183.794C403.502 183.794 403.65 183.803 403.799 183.823C403.951 183.842 404.086 183.868 404.203 183.899V181.573H405.633V189.852H404.397ZM401.783 186.923C401.783 187.251 401.805 187.532 401.848 187.766C401.895 187.997 401.961 188.186 402.047 188.335C402.137 188.483 402.246 188.592 402.375 188.663C402.504 188.729 402.65 188.762 402.815 188.762C403.057 188.762 403.287 188.665 403.506 188.469C403.725 188.274 403.957 188.007 404.203 187.667V185.065C404.09 185.022 403.949 184.987 403.781 184.96C403.617 184.932 403.451 184.919 403.283 184.919C403.053 184.919 402.846 184.966 402.662 185.059C402.479 185.153 402.32 185.286 402.188 185.458C402.059 185.63 401.959 185.841 401.889 186.091C401.818 186.337 401.783 186.614 401.783 186.923ZM410.983 189.852L410.947 189.073C410.822 189.206 410.691 189.329 410.555 189.442C410.418 189.551 410.268 189.647 410.104 189.729C409.94 189.811 409.76 189.874 409.565 189.917C409.373 189.964 409.162 189.987 408.932 189.987C408.627 189.987 408.359 189.942 408.129 189.852C407.899 189.762 407.705 189.637 407.549 189.477C407.393 189.317 407.274 189.124 407.191 188.897C407.113 188.671 407.074 188.421 407.074 188.147C407.074 187.866 407.133 187.606 407.25 187.368C407.371 187.13 407.553 186.925 407.795 186.753C408.041 186.581 408.346 186.446 408.709 186.348C409.076 186.251 409.506 186.202 409.998 186.202H410.777V185.844C410.777 185.692 410.756 185.555 410.713 185.434C410.67 185.309 410.6 185.204 410.502 185.118C410.408 185.032 410.285 184.966 410.133 184.919C409.981 184.872 409.793 184.848 409.57 184.848C409.219 184.848 408.871 184.889 408.527 184.971C408.188 185.05 407.858 185.161 407.537 185.305V184.163C407.822 184.05 408.15 183.956 408.522 183.882C408.897 183.807 409.285 183.77 409.688 183.77C410.129 183.77 410.508 183.813 410.824 183.899C411.141 183.981 411.4 184.106 411.604 184.274C411.811 184.442 411.963 184.653 412.061 184.907C412.158 185.157 412.207 185.45 412.207 185.786V189.852H410.983ZM410.777 187.221H409.904C409.662 187.221 409.457 187.245 409.289 187.292C409.121 187.339 408.984 187.403 408.879 187.485C408.774 187.567 408.695 187.663 408.645 187.772C408.598 187.878 408.574 187.991 408.574 188.112C408.574 188.354 408.652 188.54 408.809 188.669C408.965 188.794 409.178 188.856 409.447 188.856C409.647 188.856 409.854 188.784 410.068 188.639C410.283 188.495 410.52 188.288 410.777 188.018V187.221ZM418.758 189.794C418.5 189.852 418.24 189.899 417.979 189.934C417.717 189.969 417.469 189.987 417.234 189.987C416.844 189.987 416.506 189.946 416.221 189.864C415.94 189.782 415.705 189.657 415.518 189.489C415.334 189.321 415.197 189.108 415.108 188.85C415.022 188.589 414.979 188.278 414.979 187.919V185.012H413.379V183.899H414.979V182.376L416.443 181.995V183.899H418.758V185.012H416.443V187.813C416.443 188.153 416.522 188.411 416.678 188.587C416.834 188.759 417.096 188.844 417.463 188.844C417.697 188.844 417.926 188.825 418.149 188.786C418.371 188.747 418.574 188.702 418.758 188.651V189.794ZM425.631 186.419C425.631 186.516 425.627 186.643 425.619 186.8C425.615 186.956 425.608 187.102 425.596 187.239H421.682C421.682 187.501 421.721 187.731 421.799 187.93C421.881 188.13 421.994 188.298 422.139 188.434C422.287 188.567 422.463 188.669 422.666 188.739C422.873 188.809 423.102 188.844 423.352 188.844C423.641 188.844 423.949 188.823 424.277 188.78C424.609 188.733 424.953 188.659 425.309 188.557V189.694C425.156 189.737 424.99 189.776 424.811 189.811C424.631 189.846 424.447 189.878 424.26 189.905C424.072 189.932 423.883 189.952 423.691 189.964C423.5 189.979 423.315 189.987 423.135 189.987C422.682 189.987 422.275 189.923 421.916 189.794C421.557 189.665 421.252 189.475 421.002 189.225C420.752 188.971 420.561 188.659 420.428 188.288C420.295 187.917 420.229 187.487 420.229 186.999C420.229 186.514 420.295 186.075 420.428 185.68C420.561 185.282 420.748 184.942 420.99 184.661C421.233 184.376 421.525 184.157 421.869 184.005C422.217 183.848 422.604 183.77 423.029 183.77C423.451 183.77 423.824 183.837 424.149 183.969C424.473 184.098 424.744 184.28 424.963 184.514C425.182 184.749 425.348 185.028 425.461 185.352C425.574 185.676 425.631 186.032 425.631 186.419ZM424.178 186.214C424.182 185.979 424.152 185.776 424.09 185.604C424.027 185.428 423.941 185.284 423.832 185.171C423.727 185.057 423.602 184.973 423.457 184.919C423.316 184.864 423.164 184.837 423 184.837C422.641 184.837 422.346 184.958 422.115 185.2C421.885 185.438 421.748 185.776 421.705 186.214H424.178ZM430.266 183.395V189.852H428.789V183.395H426.691V182.194H432.363V183.395H430.266ZM437.145 182.27C437.145 182.399 437.121 182.52 437.074 182.634C437.027 182.747 436.961 182.846 436.875 182.932C436.793 183.014 436.695 183.081 436.582 183.132C436.469 183.178 436.346 183.202 436.213 183.202C436.08 183.202 435.955 183.178 435.838 183.132C435.725 183.081 435.625 183.014 435.539 182.932C435.457 182.846 435.393 182.747 435.346 182.634C435.299 182.52 435.275 182.399 435.275 182.27C435.275 182.141 435.299 182.02 435.346 181.907C435.393 181.794 435.457 181.694 435.539 181.608C435.625 181.522 435.725 181.456 435.838 181.409C435.955 181.358 436.08 181.333 436.213 181.333C436.346 181.333 436.469 181.358 436.582 181.409C436.695 181.456 436.793 181.522 436.875 181.608C436.961 181.694 437.027 181.794 437.074 181.907C437.121 182.02 437.145 182.141 437.145 182.27ZM435.563 185.012H433.881V183.899H437.027V188.739H438.744V189.852H433.676V188.739H435.563V185.012ZM444.44 189.852V185.798C444.44 185.649 444.436 185.52 444.428 185.411C444.42 185.298 444.404 185.204 444.381 185.13C444.358 185.055 444.322 185.001 444.275 184.966C444.233 184.926 444.172 184.907 444.094 184.907C443.973 184.907 443.854 184.989 443.736 185.153C443.619 185.317 443.486 185.596 443.338 185.991V189.852H442.113V185.798C442.113 185.649 442.109 185.52 442.102 185.411C442.094 185.298 442.078 185.204 442.055 185.13C442.031 185.055 441.996 185.001 441.949 184.966C441.902 184.926 441.84 184.907 441.762 184.907C441.66 184.907 441.547 184.989 441.422 185.153C441.297 185.317 441.158 185.596 441.006 185.991V189.852H439.77V183.899H440.83L440.854 184.766C440.94 184.591 441.025 184.44 441.111 184.315C441.197 184.19 441.289 184.089 441.387 184.01C441.484 183.928 441.588 183.87 441.697 183.835C441.811 183.8 441.938 183.782 442.078 183.782C442.41 183.782 442.662 183.87 442.834 184.046C443.01 184.217 443.109 184.458 443.133 184.766C443.227 184.591 443.318 184.44 443.408 184.315C443.502 184.19 443.598 184.089 443.695 184.01C443.797 183.928 443.904 183.87 444.018 183.835C444.135 183.8 444.264 183.782 444.404 183.782C444.838 183.782 445.158 183.934 445.365 184.239C445.572 184.54 445.676 184.987 445.676 185.581V189.852H444.44ZM452.022 186.419C452.022 186.516 452.018 186.643 452.01 186.8C452.006 186.956 451.998 187.102 451.986 187.239H448.072C448.072 187.501 448.111 187.731 448.19 187.93C448.272 188.13 448.385 188.298 448.529 188.434C448.678 188.567 448.854 188.669 449.057 188.739C449.264 188.809 449.492 188.844 449.742 188.844C450.031 188.844 450.34 188.823 450.668 188.78C451 188.733 451.344 188.659 451.699 188.557V189.694C451.547 189.737 451.381 189.776 451.201 189.811C451.022 189.846 450.838 189.878 450.65 189.905C450.463 189.932 450.274 189.952 450.082 189.964C449.891 189.979 449.705 189.987 449.525 189.987C449.072 189.987 448.666 189.923 448.307 189.794C447.947 189.665 447.643 189.475 447.393 189.225C447.143 188.971 446.951 188.659 446.818 188.288C446.686 187.917 446.619 187.487 446.619 186.999C446.619 186.514 446.686 186.075 446.818 185.68C446.951 185.282 447.139 184.942 447.381 184.661C447.623 184.376 447.916 184.157 448.26 184.005C448.608 183.848 448.994 183.77 449.42 183.77C449.842 183.77 450.215 183.837 450.539 183.969C450.863 184.098 451.135 184.28 451.354 184.514C451.572 184.749 451.738 185.028 451.852 185.352C451.965 185.676 452.022 186.032 452.022 186.419ZM450.568 186.214C450.572 185.979 450.543 185.776 450.481 185.604C450.418 185.428 450.332 185.284 450.223 185.171C450.117 185.057 449.992 184.973 449.848 184.919C449.707 184.864 449.555 184.837 449.391 184.837C449.031 184.837 448.736 184.958 448.506 185.2C448.275 185.438 448.139 185.776 448.096 186.214H450.568ZM459 185.991C459 186.686 458.918 187.286 458.754 187.79C458.594 188.294 458.371 188.708 458.086 189.032C457.805 189.356 457.473 189.596 457.09 189.753C456.711 189.909 456.305 189.987 455.871 189.987C454.863 189.987 454.106 189.653 453.598 188.985C453.09 188.313 452.836 187.339 452.836 186.061C452.836 185.366 452.916 184.766 453.076 184.262C453.24 183.759 453.463 183.344 453.744 183.02C454.029 182.696 454.361 182.456 454.74 182.3C455.123 182.143 455.531 182.065 455.965 182.065C456.973 182.065 457.731 182.399 458.238 183.067C458.746 183.735 459 184.71 459 185.991ZM457.477 186.061C457.477 185.155 457.356 184.479 457.113 184.034C456.871 183.589 456.473 183.366 455.918 183.366C455.641 183.366 455.404 183.425 455.209 183.542C455.014 183.655 454.852 183.823 454.723 184.046C454.598 184.268 454.506 184.544 454.447 184.872C454.389 185.196 454.359 185.569 454.359 185.991C454.359 186.897 454.481 187.573 454.723 188.018C454.969 188.464 455.367 188.686 455.918 188.686C456.195 188.686 456.432 188.63 456.627 188.516C456.826 188.399 456.988 188.229 457.113 188.007C457.238 187.784 457.33 187.51 457.389 187.186C457.447 186.858 457.477 186.483 457.477 186.061ZM464.848 189.624C464.566 189.737 464.275 189.821 463.975 189.876C463.674 189.93 463.359 189.958 463.031 189.958C462.559 189.958 462.135 189.893 461.76 189.764C461.385 189.635 461.066 189.444 460.805 189.19C460.543 188.936 460.342 188.622 460.201 188.247C460.065 187.872 459.996 187.438 459.996 186.946C459.996 186.469 460.07 186.038 460.219 185.651C460.371 185.264 460.584 184.934 460.858 184.661C461.131 184.387 461.459 184.176 461.842 184.028C462.229 183.88 462.658 183.805 463.131 183.805C463.518 183.805 463.842 183.827 464.104 183.87C464.369 183.909 464.608 183.96 464.818 184.022V185.411C464.576 185.29 464.313 185.196 464.027 185.13C463.746 185.063 463.479 185.03 463.225 185.03C462.959 185.03 462.721 185.075 462.51 185.165C462.299 185.255 462.121 185.38 461.977 185.54C461.832 185.7 461.721 185.895 461.643 186.126C461.568 186.352 461.531 186.602 461.531 186.876C461.531 187.161 461.572 187.417 461.654 187.643C461.736 187.87 461.852 188.063 462 188.223C462.152 188.38 462.334 188.501 462.545 188.587C462.756 188.669 462.99 188.71 463.248 188.71C463.373 188.71 463.504 188.702 463.641 188.686C463.781 188.667 463.92 188.641 464.057 188.61C464.197 188.575 464.334 188.536 464.467 188.493C464.604 188.45 464.731 188.403 464.848 188.352V189.624ZM471.445 189.624C471.164 189.737 470.873 189.821 470.572 189.876C470.272 189.93 469.957 189.958 469.629 189.958C469.156 189.958 468.733 189.893 468.358 189.764C467.983 189.635 467.664 189.444 467.402 189.19C467.141 188.936 466.94 188.622 466.799 188.247C466.662 187.872 466.594 187.438 466.594 186.946C466.594 186.469 466.668 186.038 466.816 185.651C466.969 185.264 467.182 184.934 467.455 184.661C467.729 184.387 468.057 184.176 468.44 184.028C468.826 183.88 469.256 183.805 469.729 183.805C470.115 183.805 470.44 183.827 470.701 183.87C470.967 183.909 471.205 183.96 471.416 184.022V185.411C471.174 185.29 470.91 185.196 470.625 185.13C470.344 185.063 470.076 185.03 469.822 185.03C469.557 185.03 469.318 185.075 469.108 185.165C468.897 185.255 468.719 185.38 468.574 185.54C468.43 185.7 468.318 185.895 468.24 186.126C468.166 186.352 468.129 186.602 468.129 186.876C468.129 187.161 468.17 187.417 468.252 187.643C468.334 187.87 468.449 188.063 468.598 188.223C468.75 188.38 468.932 188.501 469.143 188.587C469.354 188.669 469.588 188.71 469.846 188.71C469.971 188.71 470.102 188.702 470.238 188.686C470.379 188.667 470.518 188.641 470.654 188.61C470.795 188.575 470.932 188.536 471.065 188.493C471.201 188.45 471.328 188.403 471.445 188.352V189.624ZM474.645 183.899V187.778C474.645 188.102 474.705 188.348 474.826 188.516C474.947 188.68 475.131 188.762 475.377 188.762C475.615 188.762 475.844 188.665 476.063 188.469C476.285 188.27 476.52 188.003 476.766 187.667V183.899H478.195V189.852H476.959L476.924 188.973C476.799 189.126 476.672 189.264 476.543 189.389C476.414 189.514 476.274 189.622 476.121 189.712C475.973 189.798 475.809 189.864 475.629 189.911C475.453 189.962 475.258 189.987 475.043 189.987C474.738 189.987 474.471 189.938 474.24 189.841C474.014 189.739 473.824 189.596 473.672 189.413C473.52 189.229 473.404 189.01 473.326 188.757C473.252 188.499 473.215 188.212 473.215 187.895V183.899H474.645ZM483.656 186.214C483.664 185.991 483.652 185.801 483.621 185.645C483.594 185.489 483.547 185.36 483.481 185.259C483.418 185.157 483.34 185.083 483.246 185.036C483.152 184.989 483.045 184.966 482.924 184.966C482.713 184.966 482.494 185.053 482.268 185.229C482.045 185.401 481.799 185.686 481.529 186.085V189.852H480.065V183.899H481.359L481.412 184.766C481.51 184.614 481.619 184.477 481.74 184.356C481.865 184.235 482.002 184.132 482.15 184.046C482.303 183.956 482.471 183.887 482.654 183.841C482.838 183.794 483.039 183.77 483.258 183.77C483.559 183.77 483.824 183.823 484.055 183.928C484.289 184.03 484.484 184.182 484.641 184.385C484.801 184.589 484.918 184.844 484.992 185.153C485.07 185.458 485.104 185.811 485.092 186.214H483.656ZM490.254 186.214C490.262 185.991 490.25 185.801 490.219 185.645C490.191 185.489 490.145 185.36 490.078 185.259C490.016 185.157 489.938 185.083 489.844 185.036C489.75 184.989 489.643 184.966 489.522 184.966C489.311 184.966 489.092 185.053 488.865 185.229C488.643 185.401 488.397 185.686 488.127 186.085V189.852H486.662V183.899H487.957L488.01 184.766C488.108 184.614 488.217 184.477 488.338 184.356C488.463 184.235 488.6 184.132 488.748 184.046C488.9 183.956 489.068 183.887 489.252 183.841C489.436 183.794 489.637 183.77 489.856 183.77C490.156 183.77 490.422 183.823 490.652 183.928C490.887 184.03 491.082 184.182 491.238 184.385C491.399 184.589 491.516 184.844 491.59 185.153C491.668 185.458 491.701 185.811 491.69 186.214H490.254ZM498.205 186.419C498.205 186.516 498.201 186.643 498.193 186.8C498.19 186.956 498.182 187.102 498.17 187.239H494.256C494.256 187.501 494.295 187.731 494.373 187.93C494.455 188.13 494.568 188.298 494.713 188.434C494.861 188.567 495.037 188.669 495.24 188.739C495.447 188.809 495.676 188.844 495.926 188.844C496.215 188.844 496.524 188.823 496.852 188.78C497.184 188.733 497.527 188.659 497.883 188.557V189.694C497.731 189.737 497.565 189.776 497.385 189.811C497.205 189.846 497.022 189.878 496.834 189.905C496.647 189.932 496.457 189.952 496.266 189.964C496.074 189.979 495.889 189.987 495.709 189.987C495.256 189.987 494.85 189.923 494.49 189.794C494.131 189.665 493.826 189.475 493.576 189.225C493.326 188.971 493.135 188.659 493.002 188.288C492.869 187.917 492.803 187.487 492.803 186.999C492.803 186.514 492.869 186.075 493.002 185.68C493.135 185.282 493.322 184.942 493.565 184.661C493.807 184.376 494.1 184.157 494.443 184.005C494.791 183.848 495.178 183.77 495.604 183.77C496.025 183.77 496.399 183.837 496.723 183.969C497.047 184.098 497.318 184.28 497.537 184.514C497.756 184.749 497.922 185.028 498.035 185.352C498.149 185.676 498.205 186.032 498.205 186.419ZM496.752 186.214C496.756 185.979 496.727 185.776 496.664 185.604C496.602 185.428 496.516 185.284 496.406 185.171C496.301 185.057 496.176 184.973 496.031 184.919C495.891 184.864 495.738 184.837 495.574 184.837C495.215 184.837 494.92 184.958 494.69 185.2C494.459 185.438 494.322 185.776 494.279 186.214H496.752ZM503.361 189.852L503.326 188.973C503.201 189.126 503.072 189.264 502.94 189.389C502.807 189.514 502.664 189.622 502.512 189.712C502.359 189.798 502.195 189.864 502.02 189.911C501.848 189.962 501.656 189.987 501.445 189.987C501.094 189.987 500.781 189.917 500.508 189.776C500.234 189.635 500.004 189.436 499.816 189.178C499.633 188.917 499.492 188.6 499.395 188.229C499.297 187.858 499.248 187.444 499.248 186.987C499.248 186.44 499.324 185.967 499.477 185.569C499.633 185.167 499.848 184.835 500.121 184.573C500.395 184.307 500.719 184.112 501.094 183.987C501.469 183.858 501.877 183.794 502.318 183.794C502.467 183.794 502.615 183.803 502.764 183.823C502.916 183.842 503.051 183.868 503.168 183.899V181.573H504.598V189.852H503.361ZM500.748 186.923C500.748 187.251 500.77 187.532 500.813 187.766C500.859 187.997 500.926 188.186 501.012 188.335C501.102 188.483 501.211 188.592 501.34 188.663C501.469 188.729 501.615 188.762 501.779 188.762C502.022 188.762 502.252 188.665 502.471 188.469C502.69 188.274 502.922 188.007 503.168 187.667V185.065C503.055 185.022 502.914 184.987 502.746 184.96C502.582 184.932 502.416 184.919 502.248 184.919C502.018 184.919 501.811 184.966 501.627 185.059C501.443 185.153 501.285 185.286 501.152 185.458C501.024 185.63 500.924 185.841 500.854 186.091C500.783 186.337 500.748 186.614 500.748 186.923ZM508.699 183.841C508.848 183.841 508.986 183.868 509.115 183.923C509.244 183.977 509.356 184.053 509.449 184.151C509.543 184.245 509.617 184.356 509.672 184.485C509.727 184.614 509.754 184.751 509.754 184.895C509.754 185.044 509.727 185.182 509.672 185.311C509.617 185.44 509.543 185.551 509.449 185.645C509.356 185.739 509.244 185.813 509.115 185.868C508.986 185.923 508.848 185.95 508.699 185.95C508.551 185.95 508.412 185.923 508.283 185.868C508.158 185.813 508.047 185.739 507.949 185.645C507.856 185.551 507.781 185.44 507.727 185.311C507.672 185.182 507.645 185.044 507.645 184.895C507.645 184.751 507.672 184.614 507.727 184.485C507.781 184.356 507.856 184.245 507.949 184.151C508.047 184.053 508.158 183.977 508.283 183.923C508.412 183.868 508.551 183.841 508.699 183.841ZM508.699 187.878C508.848 187.878 508.986 187.905 509.115 187.96C509.244 188.014 509.356 188.089 509.449 188.182C509.543 188.276 509.617 188.387 509.672 188.516C509.727 188.645 509.754 188.782 509.754 188.926C509.754 189.075 509.727 189.214 509.672 189.342C509.617 189.471 509.543 189.585 509.449 189.682C509.356 189.776 509.244 189.85 509.115 189.905C508.986 189.96 508.848 189.987 508.699 189.987C508.551 189.987 508.412 189.96 508.283 189.905C508.158 189.85 508.047 189.776 507.949 189.682C507.856 189.585 507.781 189.471 507.727 189.342C507.672 189.214 507.645 189.075 507.645 188.926C507.645 188.782 507.672 188.645 507.727 188.516C507.781 188.387 507.856 188.276 507.949 188.182C508.047 188.089 508.158 188.014 508.283 187.96C508.412 187.905 508.551 187.878 508.699 187.878ZM524.883 185.926C524.883 186.52 524.809 187.059 524.66 187.544C524.516 188.028 524.287 188.442 523.975 188.786C523.666 189.126 523.27 189.389 522.785 189.577C522.301 189.76 521.721 189.852 521.045 189.852H519.1V182.194H521.367C521.953 182.194 522.465 182.268 522.902 182.417C523.344 182.561 523.711 182.786 524.004 183.091C524.297 183.395 524.516 183.782 524.66 184.251C524.809 184.719 524.883 185.278 524.883 185.926ZM523.336 186.02C523.336 185.606 523.303 185.237 523.236 184.913C523.17 184.589 523.057 184.315 522.897 184.092C522.74 183.866 522.529 183.694 522.264 183.577C521.998 183.46 521.668 183.401 521.274 183.401H520.541V188.645H521.174C521.881 188.645 522.418 188.434 522.785 188.012C523.152 187.591 523.336 186.926 523.336 186.02ZM529.74 189.852L529.705 189.073C529.58 189.206 529.449 189.329 529.313 189.442C529.176 189.551 529.025 189.647 528.861 189.729C528.697 189.811 528.518 189.874 528.322 189.917C528.131 189.964 527.92 189.987 527.69 189.987C527.385 189.987 527.117 189.942 526.887 189.852C526.656 189.762 526.463 189.637 526.307 189.477C526.15 189.317 526.031 189.124 525.949 188.897C525.871 188.671 525.832 188.421 525.832 188.147C525.832 187.866 525.891 187.606 526.008 187.368C526.129 187.13 526.311 186.925 526.553 186.753C526.799 186.581 527.104 186.446 527.467 186.348C527.834 186.251 528.264 186.202 528.756 186.202H529.535V185.844C529.535 185.692 529.514 185.555 529.471 185.434C529.428 185.309 529.358 185.204 529.26 185.118C529.166 185.032 529.043 184.966 528.891 184.919C528.738 184.872 528.551 184.848 528.328 184.848C527.977 184.848 527.629 184.889 527.285 184.971C526.945 185.05 526.615 185.161 526.295 185.305V184.163C526.58 184.05 526.908 183.956 527.279 183.882C527.654 183.807 528.043 183.77 528.445 183.77C528.887 183.77 529.266 183.813 529.582 183.899C529.899 183.981 530.158 184.106 530.361 184.274C530.568 184.442 530.721 184.653 530.818 184.907C530.916 185.157 530.965 185.45 530.965 185.786V189.852H529.74ZM529.535 187.221H528.662C528.42 187.221 528.215 187.245 528.047 187.292C527.879 187.339 527.742 187.403 527.637 187.485C527.531 187.567 527.453 187.663 527.402 187.772C527.356 187.878 527.332 187.991 527.332 188.112C527.332 188.354 527.41 188.54 527.566 188.669C527.723 188.794 527.936 188.856 528.205 188.856C528.404 188.856 528.611 188.784 528.826 188.639C529.041 188.495 529.277 188.288 529.535 188.018V187.221ZM537.516 189.794C537.258 189.852 536.998 189.899 536.736 189.934C536.475 189.969 536.227 189.987 535.992 189.987C535.602 189.987 535.264 189.946 534.979 189.864C534.697 189.782 534.463 189.657 534.275 189.489C534.092 189.321 533.955 189.108 533.865 188.85C533.779 188.589 533.736 188.278 533.736 187.919V185.012H532.137V183.899H533.736V182.376L535.201 181.995V183.899H537.516V185.012H535.201V187.813C535.201 188.153 535.279 188.411 535.436 188.587C535.592 188.759 535.854 188.844 536.221 188.844C536.455 188.844 536.684 188.825 536.906 188.786C537.129 188.747 537.332 188.702 537.516 188.651V189.794ZM544.389 186.419C544.389 186.516 544.385 186.643 544.377 186.8C544.373 186.956 544.365 187.102 544.354 187.239H540.44C540.44 187.501 540.479 187.731 540.557 187.93C540.639 188.13 540.752 188.298 540.897 188.434C541.045 188.567 541.221 188.669 541.424 188.739C541.631 188.809 541.859 188.844 542.109 188.844C542.399 188.844 542.707 188.823 543.035 188.78C543.367 188.733 543.711 188.659 544.066 188.557V189.694C543.914 189.737 543.748 189.776 543.568 189.811C543.389 189.846 543.205 189.878 543.018 189.905C542.83 189.932 542.641 189.952 542.449 189.964C542.258 189.979 542.072 189.987 541.893 189.987C541.44 189.987 541.033 189.923 540.674 189.794C540.315 189.665 540.01 189.475 539.76 189.225C539.51 188.971 539.318 188.659 539.186 188.288C539.053 187.917 538.986 187.487 538.986 186.999C538.986 186.514 539.053 186.075 539.186 185.68C539.318 185.282 539.506 184.942 539.748 184.661C539.99 184.376 540.283 184.157 540.627 184.005C540.975 183.848 541.361 183.77 541.787 183.77C542.209 183.77 542.582 183.837 542.906 183.969C543.231 184.098 543.502 184.28 543.721 184.514C543.94 184.749 544.106 185.028 544.219 185.352C544.332 185.676 544.389 186.032 544.389 186.419ZM542.936 186.214C542.94 185.979 542.91 185.776 542.848 185.604C542.785 185.428 542.699 185.284 542.59 185.171C542.484 185.057 542.359 184.973 542.215 184.919C542.074 184.864 541.922 184.837 541.758 184.837C541.399 184.837 541.104 184.958 540.873 185.2C540.643 185.438 540.506 185.776 540.463 186.214H542.936Z" fill="black"/>
<rect x="-8.9407e-08" y="2.19928" width="29.3155" height="29.3155" rx="1.5" transform="matrix(0.680127 0.733094 -0.680127 0.733094 540.959 98.3143)" fill="#FFFD54" stroke="black" stroke-width="3"/>
<path d="M536.525 118.353V117.175H541.365V118.353H539.677V123.644H541.365V124.834H536.525V123.644H538.212V118.353H536.525Z" fill="black"/>
<rect x="359.5" y="8.5" width="213" height="52" rx="2.5" fill="#7DE77B" stroke="black" stroke-width="3"/>
<path d="M419.074 37.709C419.074 38.0684 419.017 38.3965 418.904 38.6934C418.79 38.9902 418.624 39.2441 418.406 39.4551C418.187 39.666 417.915 39.8301 417.591 39.9473C417.267 40.0605 416.89 40.1172 416.46 40.1172C416.144 40.1172 415.839 40.0801 415.546 40.0059C415.253 39.9316 414.997 39.8379 414.779 39.7246V38.3301C414.876 38.4121 414.99 38.4883 415.118 38.5586C415.251 38.6289 415.392 38.6914 415.54 38.7461C415.689 38.7969 415.841 38.8379 415.997 38.8691C416.154 38.8965 416.308 38.9102 416.46 38.9102C416.589 38.9102 416.722 38.8867 416.859 38.8398C416.999 38.793 417.124 38.7148 417.234 38.6055C417.343 38.4961 417.433 38.3535 417.503 38.1777C417.574 37.998 417.609 37.7773 417.609 37.5156V33.5312H414.837V32.3418H419.074V37.709ZM426.544 36.9766C426.544 37.4453 426.478 37.875 426.345 38.2656C426.212 38.6523 426.021 38.9844 425.771 39.2617C425.521 39.5391 425.214 39.7539 424.851 39.9062C424.488 40.0586 424.074 40.1348 423.609 40.1348C423.167 40.1348 422.773 40.0703 422.425 39.9414C422.077 39.8125 421.782 39.6211 421.54 39.3672C421.298 39.1094 421.113 38.7891 420.984 38.4062C420.855 38.0195 420.79 37.5703 420.79 37.0586C420.79 36.5859 420.857 36.1562 420.99 35.7695C421.126 35.3828 421.32 35.0527 421.57 34.7793C421.824 34.5059 422.132 34.2949 422.495 34.1465C422.859 33.9941 423.269 33.918 423.726 33.918C424.171 33.918 424.568 33.9844 424.915 34.1172C425.263 34.2461 425.558 34.4395 425.8 34.6973C426.042 34.9551 426.226 35.2754 426.351 35.6582C426.48 36.0371 426.544 36.4766 426.544 36.9766ZM425.056 37.0117C425.056 36.3945 424.939 35.9316 424.704 35.623C424.474 35.3105 424.132 35.1543 423.679 35.1543C423.429 35.1543 423.216 35.2031 423.04 35.3008C422.865 35.3984 422.72 35.5332 422.607 35.7051C422.493 35.873 422.409 36.0703 422.355 36.2969C422.304 36.5234 422.279 36.7656 422.279 37.0234C422.279 37.6445 422.404 38.1133 422.654 38.4297C422.904 38.7422 423.245 38.8984 423.679 38.8984C423.917 38.8984 424.124 38.8516 424.3 38.7578C424.476 38.6602 424.618 38.5273 424.728 38.3594C424.837 38.1875 424.919 37.9863 424.974 37.7559C425.029 37.5254 425.056 37.2773 425.056 37.0117ZM433.136 36.918C433.136 37.4648 433.058 37.9375 432.902 38.3359C432.749 38.7344 432.534 39.0664 432.257 39.332C431.984 39.5938 431.659 39.7891 431.284 39.918C430.909 40.043 430.501 40.1055 430.06 40.1055C429.626 40.1055 429.222 40.0723 428.847 40.0059C428.476 39.9434 428.12 39.8574 427.781 39.748V31.7207H429.21V33.666L429.152 34.8379C429.366 34.5605 429.616 34.3379 429.902 34.1699C430.191 34.002 430.536 33.918 430.939 33.918C431.29 33.918 431.603 33.9883 431.876 34.1289C432.15 34.2695 432.378 34.4707 432.562 34.7324C432.749 34.9902 432.892 35.3047 432.99 35.6758C433.087 36.043 433.136 36.457 433.136 36.918ZM431.636 36.9766C431.636 36.6484 431.613 36.3691 431.566 36.1387C431.519 35.9082 431.45 35.7188 431.361 35.5703C431.275 35.4219 431.167 35.3145 431.038 35.248C430.913 35.1777 430.769 35.1426 430.605 35.1426C430.363 35.1426 430.13 35.2402 429.907 35.4355C429.689 35.6309 429.456 35.8965 429.21 36.2324V38.834C429.324 38.877 429.462 38.9121 429.626 38.9395C429.794 38.9668 429.964 38.9805 430.136 38.9805C430.363 38.9805 430.568 38.9336 430.751 38.8398C430.939 38.7461 431.097 38.6133 431.226 38.4414C431.359 38.2695 431.46 38.0605 431.531 37.8145C431.601 37.5645 431.636 37.2852 431.636 36.9766ZM437.812 40H435.902L433.564 32.3418H435.199L436.493 36.9531L436.909 38.4648L437.343 36.8652L438.626 32.3418H440.161L437.812 40ZM446.161 36.5664C446.161 36.6641 446.157 36.791 446.15 36.9473C446.146 37.1035 446.138 37.25 446.126 37.3867H442.212C442.212 37.6484 442.251 37.8789 442.329 38.0781C442.411 38.2773 442.525 38.4453 442.669 38.582C442.818 38.7148 442.993 38.8164 443.197 38.8867C443.404 38.957 443.632 38.9922 443.882 38.9922C444.171 38.9922 444.48 38.9707 444.808 38.9277C445.14 38.8809 445.484 38.8066 445.839 38.7051V39.8418C445.687 39.8848 445.521 39.9238 445.341 39.959C445.161 39.9941 444.978 40.0254 444.79 40.0527C444.603 40.0801 444.413 40.0996 444.222 40.1113C444.031 40.127 443.845 40.1348 443.665 40.1348C443.212 40.1348 442.806 40.0703 442.447 39.9414C442.087 39.8125 441.782 39.623 441.532 39.373C441.282 39.1191 441.091 38.8066 440.958 38.4355C440.825 38.0645 440.759 37.6348 440.759 37.1465C440.759 36.6621 440.825 36.2227 440.958 35.8281C441.091 35.4297 441.279 35.0898 441.521 34.8086C441.763 34.5234 442.056 34.3047 442.4 34.1523C442.747 33.9961 443.134 33.918 443.56 33.918C443.982 33.918 444.355 33.9844 444.679 34.1172C445.003 34.2461 445.275 34.4277 445.493 34.6621C445.712 34.8965 445.878 35.1758 445.991 35.5C446.105 35.8242 446.161 36.1797 446.161 36.5664ZM444.708 36.3613C444.712 36.127 444.683 35.9238 444.62 35.752C444.558 35.5762 444.472 35.4316 444.363 35.3184C444.257 35.2051 444.132 35.1211 443.988 35.0664C443.847 35.0117 443.695 34.9844 443.531 34.9844C443.171 34.9844 442.876 35.1055 442.646 35.3477C442.415 35.5859 442.279 35.9238 442.236 36.3613H444.708ZM451.406 36.3613C451.413 36.1387 451.402 35.9492 451.37 35.793C451.343 35.6367 451.296 35.5078 451.23 35.4062C451.167 35.3047 451.089 35.2305 450.995 35.1836C450.902 35.1367 450.794 35.1133 450.673 35.1133C450.462 35.1133 450.243 35.2012 450.017 35.377C449.794 35.5488 449.548 35.834 449.279 36.2324V40H447.814V34.0469H449.109L449.161 34.9141C449.259 34.7617 449.368 34.625 449.49 34.5039C449.615 34.3828 449.751 34.2793 449.9 34.1934C450.052 34.1035 450.22 34.0352 450.404 33.9883C450.587 33.9414 450.788 33.918 451.007 33.918C451.308 33.918 451.574 33.9707 451.804 34.0762C452.038 34.1777 452.234 34.3301 452.39 34.5332C452.55 34.7363 452.667 34.9922 452.741 35.3008C452.82 35.6055 452.853 35.959 452.841 36.3613H451.406ZM457.675 32.418C457.675 32.5469 457.652 32.668 457.605 32.7812C457.558 32.8945 457.491 32.9941 457.406 33.0801C457.324 33.1621 457.226 33.2285 457.113 33.2793C456.999 33.3262 456.876 33.3496 456.743 33.3496C456.611 33.3496 456.486 33.3262 456.368 33.2793C456.255 33.2285 456.156 33.1621 456.07 33.0801C455.988 32.9941 455.923 32.8945 455.876 32.7812C455.829 32.668 455.806 32.5469 455.806 32.418C455.806 32.2891 455.829 32.168 455.876 32.0547C455.923 31.9414 455.988 31.8418 456.07 31.7559C456.156 31.6699 456.255 31.6035 456.368 31.5566C456.486 31.5059 456.611 31.4805 456.743 31.4805C456.876 31.4805 456.999 31.5059 457.113 31.5566C457.226 31.6035 457.324 31.6699 457.406 31.7559C457.491 31.8418 457.558 31.9414 457.605 32.0547C457.652 32.168 457.675 32.2891 457.675 32.418ZM456.093 35.1602H454.411V34.0469H457.558V38.8867H459.275V40H454.206V38.8867H456.093V35.1602ZM466.113 32.9336C465.941 32.8789 465.736 32.834 465.497 32.7988C465.263 32.7598 465.023 32.7402 464.777 32.7402C464.609 32.7402 464.452 32.7637 464.308 32.8105C464.163 32.8535 464.038 32.9238 463.933 33.0215C463.827 33.1191 463.743 33.2441 463.681 33.3965C463.622 33.5449 463.593 33.7266 463.593 33.9414V34.9023H465.931V36.0156H463.593V40H462.152V36.0156H460.423V34.9023H462.152V34C462.152 33.5781 462.212 33.2168 462.333 32.916C462.458 32.6113 462.632 32.3633 462.855 32.1719C463.081 31.9766 463.353 31.834 463.669 31.7441C463.986 31.6543 464.339 31.6094 464.73 31.6094C464.988 31.6094 465.232 31.627 465.462 31.6621C465.697 31.6934 465.913 31.7324 466.113 31.7793V32.9336ZM470.87 32.418C470.87 32.5469 470.847 32.668 470.8 32.7812C470.753 32.8945 470.687 32.9941 470.601 33.0801C470.519 33.1621 470.421 33.2285 470.308 33.2793C470.195 33.3262 470.072 33.3496 469.939 33.3496C469.806 33.3496 469.681 33.3262 469.564 33.2793C469.45 33.2285 469.351 33.1621 469.265 33.0801C469.183 32.9941 469.118 32.8945 469.072 32.7812C469.025 32.668 469.001 32.5469 469.001 32.418C469.001 32.2891 469.025 32.168 469.072 32.0547C469.118 31.9414 469.183 31.8418 469.265 31.7559C469.351 31.6699 469.45 31.6035 469.564 31.5566C469.681 31.5059 469.806 31.4805 469.939 31.4805C470.072 31.4805 470.195 31.5059 470.308 31.5566C470.421 31.6035 470.519 31.6699 470.601 31.7559C470.687 31.8418 470.753 31.9414 470.8 32.0547C470.847 32.168 470.87 32.2891 470.87 32.418ZM469.288 35.1602H467.607V34.0469H470.753V38.8867H472.47V40H467.402V38.8867H469.288V35.1602ZM479.15 36.5664C479.15 36.6641 479.146 36.791 479.138 36.9473C479.134 37.1035 479.126 37.25 479.115 37.3867H475.2C475.2 37.6484 475.24 37.8789 475.318 38.0781C475.4 38.2773 475.513 38.4453 475.657 38.582C475.806 38.7148 475.982 38.8164 476.185 38.8867C476.392 38.957 476.62 38.9922 476.87 38.9922C477.159 38.9922 477.468 38.9707 477.796 38.9277C478.128 38.8809 478.472 38.8066 478.827 38.7051V39.8418C478.675 39.8848 478.509 39.9238 478.329 39.959C478.15 39.9941 477.966 40.0254 477.779 40.0527C477.591 40.0801 477.402 40.0996 477.21 40.1113C477.019 40.127 476.833 40.1348 476.654 40.1348C476.2 40.1348 475.794 40.0703 475.435 39.9414C475.075 39.8125 474.771 39.623 474.521 39.373C474.271 39.1191 474.079 38.8066 473.947 38.4355C473.814 38.0645 473.747 37.6348 473.747 37.1465C473.747 36.6621 473.814 36.2227 473.947 35.8281C474.079 35.4297 474.267 35.0898 474.509 34.8086C474.751 34.5234 475.044 34.3047 475.388 34.1523C475.736 33.9961 476.122 33.918 476.548 33.918C476.97 33.918 477.343 33.9844 477.667 34.1172C477.991 34.2461 478.263 34.4277 478.482 34.6621C478.7 34.8965 478.866 35.1758 478.98 35.5C479.093 35.8242 479.15 36.1797 479.15 36.5664ZM477.697 36.3613C477.7 36.127 477.671 35.9238 477.609 35.752C477.546 35.5762 477.46 35.4316 477.351 35.3184C477.245 35.2051 477.12 35.1211 476.976 35.0664C476.835 35.0117 476.683 34.9844 476.519 34.9844C476.159 34.9844 475.865 35.1055 475.634 35.3477C475.404 35.5859 475.267 35.9238 475.224 36.3613H477.697ZM484.306 40L484.271 39.1211C484.146 39.2734 484.017 39.4121 483.884 39.5371C483.751 39.6621 483.609 39.7695 483.456 39.8594C483.304 39.9453 483.14 40.0117 482.964 40.0586C482.792 40.1094 482.601 40.1348 482.39 40.1348C482.038 40.1348 481.726 40.0645 481.452 39.9238C481.179 39.7832 480.949 39.584 480.761 39.3262C480.577 39.0645 480.437 38.748 480.339 38.377C480.241 38.0059 480.193 37.5918 480.193 37.1348C480.193 36.5879 480.269 36.1152 480.421 35.7168C480.577 35.3145 480.792 34.9824 481.066 34.7207C481.339 34.4551 481.663 34.2598 482.038 34.1348C482.413 34.0059 482.822 33.9414 483.263 33.9414C483.411 33.9414 483.56 33.9512 483.708 33.9707C483.861 33.9902 483.995 34.0156 484.113 34.0469V31.7207H485.542V40H484.306ZM481.693 37.0703C481.693 37.3984 481.714 37.6797 481.757 37.9141C481.804 38.1445 481.87 38.334 481.956 38.4824C482.046 38.6309 482.156 38.7402 482.284 38.8105C482.413 38.877 482.56 38.9102 482.724 38.9102C482.966 38.9102 483.197 38.8125 483.415 38.6172C483.634 38.4219 483.866 38.1543 484.113 37.8145V35.2129C483.999 35.1699 483.859 35.1348 483.691 35.1074C483.527 35.0801 483.361 35.0664 483.193 35.0664C482.962 35.0664 482.755 35.1133 482.572 35.207C482.388 35.3008 482.23 35.4336 482.097 35.6055C481.968 35.7773 481.868 35.9883 481.798 36.2383C481.728 36.4844 481.693 36.7617 481.693 37.0703ZM487.423 40V32.3418H492.034V33.5605H488.888V35.4648H491.888V36.6543H488.888V38.7812H492.034V40H487.423ZM497.085 40H495.439L493.077 34.0469H494.671L495.907 37.4219L496.277 38.5117L496.64 37.4688L497.888 34.0469H499.423L497.085 40ZM505.54 36.5664C505.54 36.6641 505.536 36.791 505.529 36.9473C505.525 37.1035 505.517 37.25 505.505 37.3867H501.591C501.591 37.6484 501.63 37.8789 501.708 38.0781C501.79 38.2773 501.904 38.4453 502.048 38.582C502.197 38.7148 502.372 38.8164 502.575 38.8867C502.782 38.957 503.011 38.9922 503.261 38.9922C503.55 38.9922 503.859 38.9707 504.187 38.9277C504.519 38.8809 504.863 38.8066 505.218 38.7051V39.8418C505.066 39.8848 504.9 39.9238 504.72 39.959C504.54 39.9941 504.357 40.0254 504.169 40.0527C503.982 40.0801 503.792 40.0996 503.601 40.1113C503.409 40.127 503.224 40.1348 503.044 40.1348C502.591 40.1348 502.185 40.0703 501.825 39.9414C501.466 39.8125 501.161 39.623 500.911 39.373C500.661 39.1191 500.47 38.8066 500.337 38.4355C500.204 38.0645 500.138 37.6348 500.138 37.1465C500.138 36.6621 500.204 36.2227 500.337 35.8281C500.47 35.4297 500.657 35.0898 500.9 34.8086C501.142 34.5234 501.435 34.3047 501.779 34.1523C502.126 33.9961 502.513 33.918 502.939 33.918C503.361 33.918 503.734 33.9844 504.058 34.1172C504.382 34.2461 504.654 34.4277 504.872 34.6621C505.091 34.8965 505.257 35.1758 505.37 35.5C505.484 35.8242 505.54 36.1797 505.54 36.5664ZM504.087 36.3613C504.091 36.127 504.062 35.9238 503.999 35.752C503.937 35.5762 503.851 35.4316 503.741 35.3184C503.636 35.2051 503.511 35.1211 503.366 35.0664C503.226 35.0117 503.074 34.9844 502.909 34.9844C502.55 34.9844 502.255 35.1055 502.025 35.3477C501.794 35.5859 501.657 35.9238 501.615 36.3613H504.087ZM510.503 40V36.1211C510.503 35.4688 510.261 35.1426 509.777 35.1426C509.534 35.1426 509.302 35.2402 509.079 35.4355C508.861 35.6309 508.628 35.8965 508.382 36.2324V40H506.952V34.0469H508.189L508.224 34.9258C508.345 34.7734 508.47 34.6348 508.599 34.5098C508.732 34.3848 508.874 34.2793 509.027 34.1934C509.179 34.1035 509.343 34.0352 509.519 33.9883C509.695 33.9414 509.892 33.918 510.111 33.918C510.415 33.918 510.681 33.9688 510.907 34.0703C511.134 34.168 511.324 34.3086 511.476 34.4922C511.628 34.6719 511.741 34.8906 511.816 35.1484C511.894 35.4023 511.933 35.6875 511.933 36.0039V40H510.503ZM518.46 39.9414C518.202 40 517.943 40.0469 517.681 40.082C517.419 40.1172 517.171 40.1348 516.937 40.1348C516.546 40.1348 516.208 40.0938 515.923 40.0117C515.642 39.9297 515.407 39.8047 515.22 39.6367C515.036 39.4688 514.9 39.2559 514.81 38.998C514.724 38.7363 514.681 38.4258 514.681 38.0664V35.1602H513.081V34.0469H514.681V32.5234L516.146 32.1426V34.0469H518.46V35.1602H516.146V37.9609C516.146 38.3008 516.224 38.5586 516.38 38.7344C516.536 38.9062 516.798 38.9922 517.165 38.9922C517.4 38.9922 517.628 38.9727 517.851 38.9336C518.074 38.8945 518.277 38.8496 518.46 38.7988V39.9414Z" fill="black"/>
<path d="M459.939 108.061C460.525 108.646 461.475 108.646 462.061 108.061L471.607 98.5147C472.192 97.9289 472.192 96.9792 471.607 96.3934C471.021 95.8076 470.071 95.8076 469.485 96.3934L461 104.879L452.515 96.3934C451.929 95.8076 450.979 95.8076 450.393 96.3934C449.808 96.9792 449.808 97.9289 450.393 98.5147L459.939 108.061ZM459.5 62L459.5 107L462.5 107L462.5 62L459.5 62Z" fill="black"/>
<path d="M334.061 41.0607C334.646 40.4749 334.646 39.5251 334.061 38.9393L324.515 29.3934C323.929 28.8076 322.979 28.8076 322.393 29.3934C321.808 29.9792 321.808 30.9289 322.393 31.5147L330.879 40L322.393 48.4853C321.808 49.0711 321.808 50.0208 322.393 50.6066C322.979 51.1924 323.929 51.1924 324.515 50.6066L334.061 41.0607ZM194 41.5H333V38.5H194V41.5Z" fill="black"/>
<rect x="34.5" y="1.5" width="160" height="92" rx="2.5" fill="#7DE77B" stroke="black" stroke-width="3"/>
<path d="M104.477 46.9453C104.477 47.4245 104.401 47.862 104.25 48.2578C104.099 48.6536 103.878 48.9922 103.586 49.2734C103.294 49.5547 102.932 49.7734 102.5 49.9297C102.068 50.0807 101.565 50.1562 100.992 50.1562C100.57 50.1562 100.164 50.1068 99.7734 50.0078C99.3828 49.9089 99.0417 49.7839 98.75 49.6328V47.7734C98.8802 47.8828 99.0312 47.9844 99.2031 48.0781C99.3802 48.1719 99.5677 48.2552 99.7656 48.3281C99.9635 48.3958 100.167 48.4505 100.375 48.4922C100.583 48.5286 100.789 48.5469 100.992 48.5469C101.164 48.5469 101.341 48.5156 101.523 48.4531C101.711 48.3906 101.878 48.2865 102.023 48.1406C102.169 47.9948 102.289 47.8047 102.383 47.5703C102.477 47.3307 102.523 47.0365 102.523 46.6875V41.375H98.8281V39.7891H104.477V46.9453ZM114.438 45.9688C114.438 46.5938 114.349 47.1667 114.172 47.6875C113.995 48.2031 113.74 48.6458 113.406 49.0156C113.073 49.3854 112.664 49.6719 112.18 49.875C111.695 50.0781 111.143 50.1797 110.523 50.1797C109.935 50.1797 109.409 50.0938 108.945 49.9219C108.482 49.75 108.089 49.4948 107.766 49.1562C107.443 48.8125 107.195 48.3854 107.023 47.875C106.852 47.3594 106.766 46.7604 106.766 46.0781C106.766 45.4479 106.854 44.875 107.031 44.3594C107.214 43.8438 107.471 43.4036 107.805 43.0391C108.143 42.6745 108.555 42.3932 109.039 42.1953C109.523 41.9922 110.07 41.8906 110.68 41.8906C111.273 41.8906 111.802 41.9792 112.266 42.1562C112.729 42.3281 113.122 42.5859 113.445 42.9297C113.768 43.2734 114.013 43.7005 114.18 44.2109C114.352 44.7161 114.438 45.3021 114.438 45.9688ZM112.453 46.0156C112.453 45.1927 112.297 44.5755 111.984 44.1641C111.677 43.7474 111.221 43.5391 110.617 43.5391C110.284 43.5391 110 43.6042 109.766 43.7344C109.531 43.8646 109.339 44.0443 109.188 44.2734C109.036 44.4974 108.924 44.7604 108.852 45.0625C108.784 45.3646 108.75 45.6875 108.75 46.0312C108.75 46.8594 108.917 47.4844 109.25 47.9062C109.583 48.3229 110.039 48.5312 110.617 48.5312C110.935 48.5312 111.211 48.4688 111.445 48.3438C111.68 48.2135 111.87 48.0365 112.016 47.8125C112.161 47.5833 112.271 47.3151 112.344 47.0078C112.417 46.7005 112.453 46.3698 112.453 46.0156ZM123.227 45.8906C123.227 46.6198 123.122 47.25 122.914 47.7812C122.711 48.3125 122.424 48.7552 122.055 49.1094C121.69 49.4583 121.258 49.7188 120.758 49.8906C120.258 50.0573 119.714 50.1406 119.125 50.1406C118.547 50.1406 118.008 50.0964 117.508 50.0078C117.013 49.9245 116.539 49.8099 116.086 49.6641V38.9609H117.992V41.5547L117.914 43.1172C118.201 42.7474 118.534 42.4505 118.914 42.2266C119.299 42.0026 119.76 41.8906 120.297 41.8906C120.766 41.8906 121.182 41.9844 121.547 42.1719C121.911 42.3594 122.216 42.6276 122.461 42.9766C122.711 43.3203 122.901 43.7396 123.031 44.2344C123.161 44.724 123.227 45.276 123.227 45.8906ZM121.227 45.9688C121.227 45.5312 121.195 45.1589 121.133 44.8516C121.07 44.5443 120.979 44.2917 120.859 44.0938C120.745 43.8958 120.602 43.7526 120.43 43.6641C120.263 43.5703 120.07 43.5234 119.852 43.5234C119.529 43.5234 119.219 43.6536 118.922 43.9141C118.63 44.1745 118.32 44.5286 117.992 44.9766V48.4453C118.143 48.5026 118.328 48.5495 118.547 48.5859C118.771 48.6224 118.997 48.6406 119.227 48.6406C119.529 48.6406 119.802 48.5781 120.047 48.4531C120.297 48.3281 120.508 48.151 120.68 47.9219C120.857 47.6927 120.992 47.4141 121.086 47.0859C121.18 46.7526 121.227 46.3802 121.227 45.9688ZM131.43 47.6641C131.43 48.1172 131.328 48.5052 131.125 48.8281C130.927 49.1458 130.661 49.4062 130.328 49.6094C130 49.8073 129.625 49.9505 129.203 50.0391C128.786 50.1328 128.359 50.1797 127.922 50.1797C127.339 50.1797 126.812 50.151 126.344 50.0938C125.875 50.0417 125.432 49.9635 125.016 49.8594V48.1406C125.505 48.3438 125.992 48.4922 126.477 48.5859C126.966 48.6745 127.427 48.7188 127.859 48.7188C128.359 48.7188 128.732 48.6406 128.977 48.4844C129.227 48.3229 129.352 48.1146 129.352 47.8594C129.352 47.7396 129.326 47.6302 129.273 47.5312C129.221 47.4323 129.122 47.3385 128.977 47.25C128.836 47.1562 128.635 47.0625 128.375 46.9688C128.115 46.8698 127.773 46.7604 127.352 46.6406C126.961 46.5312 126.617 46.4089 126.32 46.2734C126.029 46.1328 125.786 45.9688 125.594 45.7812C125.401 45.5938 125.255 45.3776 125.156 45.1328C125.062 44.8828 125.016 44.5911 125.016 44.2578C125.016 43.9349 125.089 43.6302 125.234 43.3438C125.38 43.0573 125.596 42.8073 125.883 42.5938C126.174 42.375 126.536 42.2031 126.969 42.0781C127.401 41.9531 127.906 41.8906 128.484 41.8906C128.984 41.8906 129.427 41.9167 129.812 41.9688C130.198 42.0208 130.539 42.0781 130.836 42.1406V43.6953C130.383 43.5495 129.956 43.4479 129.555 43.3906C129.159 43.3281 128.766 43.2969 128.375 43.2969C127.984 43.2969 127.669 43.3672 127.43 43.5078C127.195 43.6484 127.078 43.8438 127.078 44.0938C127.078 44.2135 127.102 44.3203 127.148 44.4141C127.195 44.5078 127.286 44.599 127.422 44.6875C127.562 44.776 127.755 44.8698 128 44.9688C128.25 45.0625 128.578 45.1667 128.984 45.2812C129.443 45.4115 129.828 45.5521 130.141 45.7031C130.453 45.849 130.703 46.0156 130.891 46.2031C131.083 46.3906 131.221 46.6042 131.305 46.8438C131.388 47.0833 131.43 47.3568 131.43 47.6641Z" fill="black"/>
<rect x="1.5" y="54.5" width="62" height="22" rx="2.5" fill="#FFFD54" stroke="black" stroke-width="3"/>
<rect x="1.5" y="16.5" width="62" height="23" rx="2.5" fill="#FFFD54" stroke="black" stroke-width="3"/>
</svg>
