<svg width="421" height="61" viewBox="0 0 421 61" fill="none" xmlns="http://www.w3.org/2000/svg">
<rect x="1.97803" y="1.5" width="160" height="55" rx="2.5" fill="#7DE77B" stroke="black" stroke-width="3"/>
<path d="M51.0878 31L50.6659 29.4883H47.994L47.5604 31H46.1307L48.3983 23.3418H50.4139L52.6815 31H51.0878ZM49.3475 24.748L48.3397 28.3105H50.3436L49.3475 24.748ZM58.8749 27.918C58.8749 28.4648 58.7967 28.9375 58.6405 29.3359C58.4881 29.7344 58.2733 30.0664 57.996 30.332C57.7225 30.5938 57.3983 30.7891 57.0233 30.918C56.6483 31.043 56.2401 31.1055 55.7987 31.1055C55.6503 31.1055 55.5018 31.0957 55.3534 31.0762C55.2049 31.0566 55.0702 31.0312 54.9491 31V33.3262H53.5194V25.0469H54.7557L54.7909 25.9258C54.912 25.7734 55.037 25.6348 55.1659 25.5098C55.2987 25.3848 55.4413 25.2793 55.5936 25.1934C55.746 25.1035 55.91 25.0352 56.0858 24.9883C56.2616 24.9414 56.4588 24.918 56.6776 24.918C57.0292 24.918 57.3417 24.9883 57.6151 25.1289C57.8885 25.2695 58.1171 25.4707 58.3006 25.7324C58.4881 25.9902 58.6307 26.3047 58.7284 26.6758C58.826 27.043 58.8749 27.457 58.8749 27.918ZM57.3749 27.9766C57.3749 27.6484 57.3514 27.3691 57.3046 27.1387C57.2577 26.9082 57.1893 26.7188 57.0995 26.5703C57.0135 26.4219 56.9061 26.3145 56.7772 26.248C56.6522 26.1777 56.5077 26.1426 56.3436 26.1426C56.1014 26.1426 55.869 26.2402 55.6463 26.4355C55.4276 26.6309 55.1952 26.8965 54.9491 27.2324V29.834C55.0624 29.877 55.201 29.9121 55.3651 29.9395C55.5331 29.9668 55.703 29.9805 55.8749 29.9805C56.1014 29.9805 56.3065 29.9336 56.4901 29.8398C56.6776 29.7461 56.8358 29.6133 56.9647 29.4414C57.0975 29.2695 57.1991 29.0605 57.2694 28.8145C57.3397 28.5645 57.3749 28.2852 57.3749 27.9766ZM65.4725 27.918C65.4725 28.4648 65.3944 28.9375 65.2381 29.3359C65.0858 29.7344 64.871 30.0664 64.5936 30.332C64.3202 30.5938 63.996 30.7891 63.621 30.918C63.246 31.043 62.8378 31.1055 62.3963 31.1055C62.2479 31.1055 62.0995 31.0957 61.951 31.0762C61.8026 31.0566 61.6678 31.0312 61.5467 31V33.3262H60.1171V25.0469H61.3534L61.3885 25.9258C61.5096 25.7734 61.6346 25.6348 61.7635 25.5098C61.8963 25.3848 62.0389 25.2793 62.1913 25.1934C62.3436 25.1035 62.5077 25.0352 62.6835 24.9883C62.8592 24.9414 63.0565 24.918 63.2753 24.918C63.6268 24.918 63.9393 24.9883 64.2128 25.1289C64.4862 25.2695 64.7147 25.4707 64.8983 25.7324C65.0858 25.9902 65.2284 26.3047 65.326 26.6758C65.4237 27.043 65.4725 27.457 65.4725 27.918ZM63.9725 27.9766C63.9725 27.6484 63.9491 27.3691 63.9022 27.1387C63.8553 26.9082 63.787 26.7188 63.6971 26.5703C63.6112 26.4219 63.5038 26.3145 63.3749 26.248C63.2499 26.1777 63.1053 26.1426 62.9413 26.1426C62.6991 26.1426 62.4667 26.2402 62.244 26.4355C62.0253 26.6309 61.7928 26.8965 61.5467 27.2324V29.834C61.66 29.877 61.7987 29.9121 61.9628 29.9395C62.1307 29.9668 62.3006 29.9805 62.4725 29.9805C62.6991 29.9805 62.9042 29.9336 63.0878 29.8398C63.2753 29.7461 63.4335 29.6133 63.5624 29.4414C63.6952 29.2695 63.7967 29.0605 63.8671 28.8145C63.9374 28.5645 63.9725 28.2852 63.9725 27.9766ZM68.6366 23.834H66.9549V22.7207H70.1014V29.8867H71.8182V31H66.7499V29.8867H68.6366V23.834ZM76.8163 23.418C76.8163 23.5469 76.7928 23.668 76.746 23.7812C76.6991 23.8945 76.6327 23.9941 76.5467 24.0801C76.4647 24.1621 76.3671 24.2285 76.2538 24.2793C76.1405 24.3262 76.0174 24.3496 75.8846 24.3496C75.7518 24.3496 75.6268 24.3262 75.5096 24.2793C75.3963 24.2285 75.2967 24.1621 75.2108 24.0801C75.1288 23.9941 75.0643 23.8945 75.0174 23.7812C74.9706 23.668 74.9471 23.5469 74.9471 23.418C74.9471 23.2891 74.9706 23.168 75.0174 23.0547C75.0643 22.9414 75.1288 22.8418 75.2108 22.7559C75.2967 22.6699 75.3963 22.6035 75.5096 22.5566C75.6268 22.5059 75.7518 22.4805 75.8846 22.4805C76.0174 22.4805 76.1405 22.5059 76.2538 22.5566C76.3671 22.6035 76.4647 22.6699 76.5467 22.7559C76.6327 22.8418 76.6991 22.9414 76.746 23.0547C76.7928 23.168 76.8163 23.2891 76.8163 23.418ZM75.2342 26.1602H73.5526V25.0469H76.6991V29.8867H78.4159V31H73.3475V29.8867H75.2342V26.1602ZM84.7264 30.7715C84.4452 30.8848 84.1542 30.9688 83.8534 31.0234C83.5526 31.0781 83.2381 31.1055 82.91 31.1055C82.4374 31.1055 82.0135 31.041 81.6385 30.9121C81.2635 30.7832 80.9452 30.5918 80.6835 30.3379C80.4217 30.084 80.2206 29.7695 80.0799 29.3945C79.9432 29.0195 79.8749 28.5859 79.8749 28.0938C79.8749 27.6172 79.9491 27.1855 80.0975 26.7988C80.2499 26.4121 80.4628 26.082 80.7362 25.8086C81.0096 25.5352 81.3378 25.3242 81.7206 25.1758C82.1073 25.0273 82.537 24.9531 83.0096 24.9531C83.3963 24.9531 83.7206 24.9746 83.9823 25.0176C84.2479 25.0566 84.4862 25.1074 84.6971 25.1699V26.5586C84.4549 26.4375 84.1913 26.3438 83.9061 26.2773C83.6249 26.2109 83.3573 26.1777 83.1034 26.1777C82.8378 26.1777 82.5995 26.2227 82.3885 26.3125C82.1776 26.4023 81.9999 26.5273 81.8553 26.6875C81.7108 26.8477 81.5995 27.043 81.5213 27.2734C81.4471 27.5 81.41 27.75 81.41 28.0234C81.41 28.3086 81.451 28.5645 81.5331 28.791C81.6151 29.0176 81.7303 29.2109 81.8788 29.3711C82.0311 29.5273 82.2128 29.6484 82.4237 29.7344C82.6346 29.8164 82.869 29.8574 83.1268 29.8574C83.2518 29.8574 83.3827 29.8496 83.5194 29.834C83.66 29.8145 83.7987 29.7891 83.9354 29.7578C84.076 29.7227 84.2128 29.6836 84.3456 29.6406C84.4823 29.5977 84.6092 29.5508 84.7264 29.5V30.7715ZM90.2401 31L90.2049 30.2207C90.0799 30.3535 89.9491 30.4766 89.8124 30.5898C89.6756 30.6992 89.5253 30.7949 89.3612 30.877C89.1971 30.959 89.0174 31.0215 88.8221 31.0645C88.6307 31.1113 88.4198 31.1348 88.1893 31.1348C87.8846 31.1348 87.6171 31.0898 87.3866 31C87.1561 30.9102 86.9628 30.7852 86.8065 30.625C86.6503 30.4648 86.5311 30.2715 86.4491 30.0449C86.371 29.8184 86.3319 29.5684 86.3319 29.2949C86.3319 29.0137 86.3905 28.7539 86.5077 28.5156C86.6288 28.2773 86.8104 28.0723 87.0526 27.9004C87.2987 27.7285 87.6034 27.5938 87.9667 27.4961C88.3338 27.3984 88.7635 27.3496 89.2557 27.3496H90.035V26.9922C90.035 26.8398 90.0135 26.7031 89.9706 26.582C89.9276 26.457 89.8573 26.3516 89.7596 26.2656C89.6659 26.1797 89.5428 26.1133 89.3905 26.0664C89.2381 26.0195 89.0506 25.9961 88.828 25.9961C88.4764 25.9961 88.1288 26.0371 87.785 26.1191C87.4452 26.1973 87.1151 26.3086 86.7948 26.4531V25.3105C87.0799 25.1973 87.4081 25.1035 87.7792 25.0293C88.1542 24.9551 88.5428 24.918 88.9452 24.918C89.3866 24.918 89.7655 24.9609 90.0819 25.0469C90.3983 25.1289 90.6581 25.2539 90.8612 25.4219C91.0682 25.5898 91.2206 25.8008 91.3182 26.0547C91.4159 26.3047 91.4647 26.5977 91.4647 26.9336V31H90.2401ZM90.035 28.3691H89.162C88.9198 28.3691 88.7147 28.3926 88.5467 28.4395C88.3788 28.4863 88.2421 28.5508 88.1366 28.6328C88.0311 28.7148 87.953 28.8105 87.9022 28.9199C87.8553 29.0254 87.8319 29.1387 87.8319 29.2598C87.8319 29.502 87.91 29.6875 88.0663 29.8164C88.2225 29.9414 88.4354 30.0039 88.7049 30.0039C88.9042 30.0039 89.1112 29.9316 89.326 29.7871C89.5409 29.6426 89.7772 29.4355 90.035 29.166V28.3691ZM98.0155 30.9414C97.7577 31 97.4979 31.0469 97.2362 31.082C96.9745 31.1172 96.7264 31.1348 96.4921 31.1348C96.1014 31.1348 95.7635 31.0938 95.4784 31.0117C95.1971 30.9297 94.9628 30.8047 94.7753 30.6367C94.5917 30.4688 94.4549 30.2559 94.3651 29.998C94.2792 29.7363 94.2362 29.4258 94.2362 29.0664V26.1602H92.6366V25.0469H94.2362V23.5234L95.701 23.1426V25.0469H98.0155V26.1602H95.701V28.9609C95.701 29.3008 95.7792 29.5586 95.9354 29.7344C96.0917 29.9062 96.3534 29.9922 96.7206 29.9922C96.9549 29.9922 97.1835 29.9727 97.4061 29.9336C97.6288 29.8945 97.8319 29.8496 98.0155 29.7988V30.9414ZM103.207 23.418C103.207 23.5469 103.183 23.668 103.137 23.7812C103.09 23.8945 103.023 23.9941 102.937 24.0801C102.855 24.1621 102.758 24.2285 102.644 24.2793C102.531 24.3262 102.408 24.3496 102.275 24.3496C102.142 24.3496 102.017 24.3262 101.9 24.2793C101.787 24.2285 101.687 24.1621 101.601 24.0801C101.519 23.9941 101.455 23.8945 101.408 23.7812C101.361 23.668 101.338 23.5469 101.338 23.418C101.338 23.2891 101.361 23.168 101.408 23.0547C101.455 22.9414 101.519 22.8418 101.601 22.7559C101.687 22.6699 101.787 22.6035 101.9 22.5566C102.017 22.5059 102.142 22.4805 102.275 22.4805C102.408 22.4805 102.531 22.5059 102.644 22.5566C102.758 22.6035 102.855 22.6699 102.937 22.7559C103.023 22.8418 103.09 22.9414 103.137 23.0547C103.183 23.168 103.207 23.2891 103.207 23.418ZM101.625 26.1602H99.9432V25.0469H103.09V29.8867H104.807V31H99.7381V29.8867H101.625V26.1602ZM111.662 27.9766C111.662 28.4453 111.596 28.875 111.463 29.2656C111.33 29.6523 111.139 29.9844 110.889 30.2617C110.639 30.5391 110.332 30.7539 109.969 30.9062C109.605 31.0586 109.191 31.1348 108.726 31.1348C108.285 31.1348 107.89 31.0703 107.543 30.9414C107.195 30.8125 106.9 30.6211 106.658 30.3672C106.416 30.1094 106.23 29.7891 106.101 29.4062C105.973 29.0195 105.908 28.5703 105.908 28.0586C105.908 27.5859 105.974 27.1562 106.107 26.7695C106.244 26.3828 106.437 26.0527 106.687 25.7793C106.941 25.5059 107.25 25.2949 107.613 25.1465C107.976 24.9941 108.387 24.918 108.844 24.918C109.289 24.918 109.685 24.9844 110.033 25.1172C110.381 25.2461 110.676 25.4395 110.918 25.6973C111.16 25.9551 111.344 26.2754 111.469 26.6582C111.598 27.0371 111.662 27.4766 111.662 27.9766ZM110.174 28.0117C110.174 27.3945 110.057 26.9316 109.822 26.623C109.592 26.3105 109.25 26.1543 108.797 26.1543C108.547 26.1543 108.334 26.2031 108.158 26.3008C107.982 26.3984 107.838 26.5332 107.724 26.7051C107.611 26.873 107.527 27.0703 107.473 27.2969C107.422 27.5234 107.396 27.7656 107.396 28.0234C107.396 28.6445 107.521 29.1133 107.771 29.4297C108.021 29.7422 108.363 29.8984 108.797 29.8984C109.035 29.8984 109.242 29.8516 109.418 29.7578C109.594 29.6602 109.736 29.5273 109.846 29.3594C109.955 29.1875 110.037 28.9863 110.092 28.7559C110.146 28.5254 110.174 28.2773 110.174 28.0117ZM116.449 31V27.1211C116.449 26.4688 116.207 26.1426 115.723 26.1426C115.48 26.1426 115.248 26.2402 115.025 26.4355C114.807 26.6309 114.574 26.8965 114.328 27.2324V31H112.898V25.0469H114.135L114.17 25.9258C114.291 25.7734 114.416 25.6348 114.545 25.5098C114.678 25.3848 114.82 25.2793 114.973 25.1934C115.125 25.1035 115.289 25.0352 115.465 24.9883C115.64 24.9414 115.838 24.918 116.057 24.918C116.361 24.918 116.627 24.9688 116.853 25.0703C117.08 25.168 117.269 25.3086 117.422 25.4922C117.574 25.6719 117.687 25.8906 117.762 26.1484C117.84 26.4023 117.879 26.6875 117.879 27.0039V31H116.449Z" fill="black"/>
<path d="M249.539 32.0607C250.124 31.4749 250.124 30.5251 249.539 29.9393L239.993 20.3934C239.407 19.8076 238.457 19.8076 237.871 20.3934C237.286 20.9792 237.286 21.9289 237.871 22.5147L246.357 31L237.871 39.4853C237.286 40.0711 237.286 41.0208 237.871 41.6066C238.457 42.1924 239.407 42.1924 239.993 41.6066L249.539 32.0607ZM163.478 32.5H248.478V29.5H163.478V32.5Z" fill="black"/>
<rect x="259.5" y="2.5" width="160" height="57" rx="2.5" fill="#7DE77B" stroke="black" stroke-width="3"/>
<path d="M315.289 27L315.149 22.6699L315.096 20.9414L314.727 22.1133L313.877 24.7207H312.975L312.207 22.1133L311.885 20.9414L311.844 22.6348L311.715 27H310.491L310.866 19.3418H312.494L313.168 21.5156L313.491 22.7402L313.813 21.5859L314.522 19.3418H316.18L316.561 27H315.289ZM321.371 27L321.336 26.2207C321.211 26.3535 321.08 26.4766 320.944 26.5898C320.807 26.6992 320.657 26.7949 320.493 26.877C320.328 26.959 320.149 27.0215 319.953 27.0645C319.762 27.1113 319.551 27.1348 319.321 27.1348C319.016 27.1348 318.748 27.0898 318.518 27C318.287 26.9102 318.094 26.7852 317.938 26.625C317.782 26.4648 317.662 26.2715 317.58 26.0449C317.502 25.8184 317.463 25.5684 317.463 25.2949C317.463 25.0137 317.522 24.7539 317.639 24.5156C317.76 24.2773 317.942 24.0723 318.184 23.9004C318.43 23.7285 318.735 23.5938 319.098 23.4961C319.465 23.3984 319.895 23.3496 320.387 23.3496H321.166V22.9922C321.166 22.8398 321.145 22.7031 321.102 22.582C321.059 22.457 320.989 22.3516 320.891 22.2656C320.797 22.1797 320.674 22.1133 320.522 22.0664C320.369 22.0195 320.182 21.9961 319.959 21.9961C319.608 21.9961 319.26 22.0371 318.916 22.1191C318.577 22.1973 318.246 22.3086 317.926 22.4531V21.3105C318.211 21.1973 318.539 21.1035 318.911 21.0293C319.286 20.9551 319.674 20.918 320.077 20.918C320.518 20.918 320.897 20.9609 321.213 21.0469C321.53 21.1289 321.789 21.2539 321.993 21.4219C322.2 21.5898 322.352 21.8008 322.45 22.0547C322.547 22.3047 322.596 22.5977 322.596 22.9336V27H321.371ZM321.166 24.3691H320.293C320.051 24.3691 319.846 24.3926 319.678 24.4395C319.51 24.4863 319.373 24.5508 319.268 24.6328C319.162 24.7148 319.084 24.8105 319.034 24.9199C318.987 25.0254 318.963 25.1387 318.963 25.2598C318.963 25.502 319.041 25.6875 319.198 25.8164C319.354 25.9414 319.567 26.0039 319.836 26.0039C320.036 26.0039 320.243 25.9316 320.457 25.7871C320.672 25.6426 320.909 25.4355 321.166 25.166V24.3691ZM327.741 19.418C327.741 19.5469 327.717 19.668 327.67 19.7812C327.623 19.8945 327.557 19.9941 327.471 20.0801C327.389 20.1621 327.291 20.2285 327.178 20.2793C327.065 20.3262 326.942 20.3496 326.809 20.3496C326.676 20.3496 326.551 20.3262 326.434 20.2793C326.321 20.2285 326.221 20.1621 326.135 20.0801C326.053 19.9941 325.989 19.8945 325.942 19.7812C325.895 19.668 325.871 19.5469 325.871 19.418C325.871 19.2891 325.895 19.168 325.942 19.0547C325.989 18.9414 326.053 18.8418 326.135 18.7559C326.221 18.6699 326.321 18.6035 326.434 18.5566C326.551 18.5059 326.676 18.4805 326.809 18.4805C326.942 18.4805 327.065 18.5059 327.178 18.5566C327.291 18.6035 327.389 18.6699 327.471 18.7559C327.557 18.8418 327.623 18.9414 327.67 19.0547C327.717 19.168 327.741 19.2891 327.741 19.418ZM326.159 22.1602H324.477V21.0469H327.623V25.8867H329.34V27H324.272V25.8867H326.159V22.1602ZM332.756 19.834H331.075V18.7207H334.221V25.8867H335.938V27H330.869V25.8867H332.756V19.834ZM342.248 26.7715C341.967 26.8848 341.676 26.9688 341.375 27.0234C341.075 27.0781 340.76 27.1055 340.432 27.1055C339.959 27.1055 339.536 27.041 339.161 26.9121C338.786 26.7832 338.467 26.5918 338.205 26.3379C337.944 26.084 337.743 25.7695 337.602 25.3945C337.465 25.0195 337.397 24.5859 337.397 24.0938C337.397 23.6172 337.471 23.1855 337.619 22.7988C337.772 22.4121 337.985 22.082 338.258 21.8086C338.532 21.5352 338.86 21.3242 339.243 21.1758C339.629 21.0273 340.059 20.9531 340.532 20.9531C340.918 20.9531 341.243 20.9746 341.504 21.0176C341.77 21.0566 342.008 21.1074 342.219 21.1699V22.5586C341.977 22.4375 341.713 22.3438 341.428 22.2773C341.147 22.2109 340.879 22.1777 340.625 22.1777C340.36 22.1777 340.121 22.2227 339.911 22.3125C339.7 22.4023 339.522 22.5273 339.377 22.6875C339.233 22.8477 339.121 23.043 339.043 23.2734C338.969 23.5 338.932 23.75 338.932 24.0234C338.932 24.3086 338.973 24.5645 339.055 24.791C339.137 25.0176 339.252 25.2109 339.401 25.3711C339.553 25.5273 339.735 25.6484 339.946 25.7344C340.157 25.8164 340.391 25.8574 340.649 25.8574C340.774 25.8574 340.905 25.8496 341.041 25.834C341.182 25.8145 341.321 25.7891 341.457 25.7578C341.598 25.7227 341.735 25.6836 341.868 25.6406C342.004 25.5977 342.131 25.5508 342.248 25.5V26.7715ZM347.58 27V23.1211C347.58 22.4688 347.338 22.1426 346.854 22.1426C346.612 22.1426 346.379 22.2402 346.157 22.4355C345.938 22.6309 345.705 22.8965 345.459 23.2324V27H344.03V18.7207H345.459V20.7598L345.389 21.8379C345.51 21.6934 345.633 21.5645 345.758 21.4512C345.883 21.334 346.018 21.2363 346.162 21.1582C346.307 21.0801 346.463 21.0215 346.631 20.9824C346.799 20.9395 346.985 20.918 347.188 20.918C347.493 20.918 347.758 20.9688 347.985 21.0703C348.211 21.168 348.401 21.3086 348.553 21.4922C348.705 21.6719 348.819 21.8906 348.893 22.1484C348.971 22.4023 349.01 22.6875 349.01 23.0039V27H347.58ZM354.131 19.418C354.131 19.5469 354.108 19.668 354.061 19.7812C354.014 19.8945 353.948 19.9941 353.862 20.0801C353.78 20.1621 353.682 20.2285 353.569 20.2793C353.455 20.3262 353.332 20.3496 353.2 20.3496C353.067 20.3496 352.942 20.3262 352.825 20.2793C352.711 20.2285 352.612 20.1621 352.526 20.0801C352.444 19.9941 352.379 19.8945 352.332 19.7812C352.286 19.668 352.262 19.5469 352.262 19.418C352.262 19.2891 352.286 19.168 352.332 19.0547C352.379 18.9414 352.444 18.8418 352.526 18.7559C352.612 18.6699 352.711 18.6035 352.825 18.5566C352.942 18.5059 353.067 18.4805 353.2 18.4805C353.332 18.4805 353.455 18.5059 353.569 18.5566C353.682 18.6035 353.78 18.6699 353.862 18.7559C353.948 18.8418 354.014 18.9414 354.061 19.0547C354.108 19.168 354.131 19.2891 354.131 19.418ZM352.549 22.1602H350.868V21.0469H354.014V25.8867H355.731V27H350.662V25.8867H352.549V22.1602ZM361.426 27V22.9453C361.426 22.7969 361.422 22.668 361.414 22.5586C361.407 22.4453 361.391 22.3516 361.368 22.2773C361.344 22.2031 361.309 22.1484 361.262 22.1133C361.219 22.0742 361.159 22.0547 361.08 22.0547C360.959 22.0547 360.84 22.1367 360.723 22.3008C360.606 22.4648 360.473 22.7441 360.325 23.1387V27H359.1V22.9453C359.1 22.7969 359.096 22.668 359.088 22.5586C359.08 22.4453 359.065 22.3516 359.041 22.2773C359.018 22.2031 358.983 22.1484 358.936 22.1133C358.889 22.0742 358.827 22.0547 358.748 22.0547C358.647 22.0547 358.534 22.1367 358.409 22.3008C358.284 22.4648 358.145 22.7441 357.993 23.1387V27H356.756V21.0469H357.817L357.84 21.9141C357.926 21.7383 358.012 21.5879 358.098 21.4629C358.184 21.3379 358.276 21.2363 358.373 21.1582C358.471 21.0762 358.575 21.0176 358.684 20.9824C358.797 20.9473 358.924 20.9297 359.065 20.9297C359.397 20.9297 359.649 21.0176 359.821 21.1934C359.996 21.3652 360.096 21.6055 360.119 21.9141C360.213 21.7383 360.305 21.5879 360.395 21.4629C360.489 21.3379 360.584 21.2363 360.682 21.1582C360.784 21.0762 360.891 21.0176 361.004 20.9824C361.121 20.9473 361.25 20.9297 361.391 20.9297C361.825 20.9297 362.145 21.082 362.352 21.3867C362.559 21.6875 362.662 22.1348 362.662 22.7285V27H361.426ZM369.178 23.918C369.178 24.4648 369.1 24.9375 368.944 25.3359C368.791 25.7344 368.577 26.0664 368.299 26.332C368.026 26.5938 367.702 26.7891 367.327 26.918C366.952 27.043 366.543 27.1055 366.102 27.1055C365.953 27.1055 365.805 27.0957 365.657 27.0762C365.508 27.0566 365.373 27.0312 365.252 27V29.3262H363.823V21.0469H365.059L365.094 21.9258C365.215 21.7734 365.34 21.6348 365.469 21.5098C365.602 21.3848 365.744 21.2793 365.897 21.1934C366.049 21.1035 366.213 21.0352 366.389 20.9883C366.565 20.9414 366.762 20.918 366.981 20.918C367.332 20.918 367.645 20.9883 367.918 21.1289C368.192 21.2695 368.42 21.4707 368.604 21.7324C368.791 21.9902 368.934 22.3047 369.032 22.6758C369.129 23.043 369.178 23.457 369.178 23.918ZM367.678 23.9766C367.678 23.6484 367.655 23.3691 367.608 23.1387C367.561 22.9082 367.493 22.7188 367.403 22.5703C367.317 22.4219 367.209 22.3145 367.08 22.248C366.955 22.1777 366.811 22.1426 366.647 22.1426C366.405 22.1426 366.172 22.2402 365.95 22.4355C365.731 22.6309 365.498 22.8965 365.252 23.2324V25.834C365.366 25.877 365.504 25.9121 365.668 25.9395C365.836 25.9668 366.006 25.9805 366.178 25.9805C366.405 25.9805 366.61 25.9336 366.793 25.8398C366.981 25.7461 367.139 25.6133 367.268 25.4414C367.401 25.2695 367.502 25.0605 367.573 24.8145C367.643 24.5645 367.678 24.2852 367.678 23.9766ZM322.801 38.6855C322.801 39.1035 322.723 39.4668 322.567 39.7754C322.414 40.084 322.2 40.3398 321.922 40.543C321.645 40.7422 321.315 40.8906 320.932 40.9883C320.549 41.0859 320.131 41.1348 319.678 41.1348C319.276 41.1348 318.887 41.1113 318.512 41.0645C318.137 41.0176 317.766 40.9395 317.399 40.8301V39.4062C317.578 39.4688 317.766 39.5273 317.961 39.582C318.157 39.6367 318.352 39.6855 318.547 39.7285C318.746 39.7676 318.944 39.7988 319.139 39.8223C319.334 39.8457 319.524 39.8574 319.707 39.8574C319.981 39.8574 320.213 39.834 320.405 39.7871C320.596 39.7402 320.752 39.6758 320.873 39.5938C320.994 39.5117 321.082 39.4141 321.137 39.3008C321.192 39.1875 321.219 39.0625 321.219 38.9258C321.219 38.7383 321.164 38.582 321.055 38.457C320.95 38.3281 320.809 38.2148 320.633 38.1172C320.457 38.0195 320.256 37.9316 320.03 37.8535C319.807 37.7754 319.578 37.6914 319.344 37.6016C319.114 37.5117 318.885 37.4102 318.659 37.2969C318.436 37.1836 318.237 37.043 318.061 36.875C317.885 36.707 317.743 36.5078 317.633 36.2773C317.528 36.043 317.475 35.7617 317.475 35.4336C317.475 35.1328 317.53 34.8477 317.639 34.5781C317.748 34.3086 317.92 34.0742 318.155 33.875C318.389 33.6719 318.69 33.5117 319.057 33.3945C319.424 33.2734 319.868 33.2129 320.387 33.2129C320.539 33.2129 320.698 33.2207 320.862 33.2363C321.03 33.248 321.194 33.2656 321.354 33.2891C321.518 33.3086 321.674 33.334 321.823 33.3652C321.975 33.3926 322.114 33.4219 322.239 33.4531V34.7715C322.114 34.7246 321.977 34.6816 321.828 34.6426C321.68 34.6035 321.526 34.5703 321.366 34.543C321.209 34.5117 321.051 34.4883 320.891 34.4727C320.731 34.457 320.578 34.4492 320.434 34.4492C320.18 34.4492 319.965 34.4707 319.789 34.5137C319.614 34.5527 319.469 34.6094 319.356 34.6836C319.243 34.7539 319.161 34.8418 319.11 34.9473C319.059 35.0527 319.034 35.1699 319.034 35.2988C319.034 35.459 319.086 35.5977 319.192 35.7148C319.301 35.8281 319.444 35.9316 319.619 36.0254C319.799 36.1152 320 36.2012 320.223 36.2832C320.45 36.3613 320.68 36.4473 320.914 36.541C321.153 36.6309 321.383 36.7344 321.606 36.8516C321.832 36.9688 322.034 37.1113 322.209 37.2793C322.389 37.4473 322.532 37.6465 322.637 37.877C322.746 38.1035 322.801 38.373 322.801 38.6855ZM329.422 37.5664C329.422 37.6641 329.418 37.791 329.411 37.9473C329.407 38.1035 329.399 38.25 329.387 38.3867H325.473C325.473 38.6484 325.512 38.8789 325.59 39.0781C325.672 39.2773 325.786 39.4453 325.93 39.582C326.078 39.7148 326.254 39.8164 326.457 39.8867C326.664 39.957 326.893 39.9922 327.143 39.9922C327.432 39.9922 327.741 39.9707 328.069 39.9277C328.401 39.8809 328.744 39.8066 329.1 39.7051V40.8418C328.948 40.8848 328.782 40.9238 328.602 40.959C328.422 40.9941 328.239 41.0254 328.051 41.0527C327.864 41.0801 327.674 41.0996 327.483 41.1113C327.291 41.127 327.106 41.1348 326.926 41.1348C326.473 41.1348 326.067 41.0703 325.707 40.9414C325.348 40.8125 325.043 40.623 324.793 40.373C324.543 40.1191 324.352 39.8066 324.219 39.4355C324.086 39.0645 324.02 38.6348 324.02 38.1465C324.02 37.6621 324.086 37.2227 324.219 36.8281C324.352 36.4297 324.539 36.0898 324.782 35.8086C325.024 35.5234 325.317 35.3047 325.661 35.1523C326.008 34.9961 326.395 34.918 326.821 34.918C327.243 34.918 327.616 34.9844 327.94 35.1172C328.264 35.2461 328.536 35.4277 328.754 35.6621C328.973 35.8965 329.139 36.1758 329.252 36.5C329.366 36.8242 329.422 37.1797 329.422 37.5664ZM327.969 37.3613C327.973 37.127 327.944 36.9238 327.881 36.752C327.819 36.5762 327.733 36.4316 327.623 36.3184C327.518 36.2051 327.393 36.1211 327.248 36.0664C327.108 36.0117 326.955 35.9844 326.791 35.9844C326.432 35.9844 326.137 36.1055 325.907 36.3477C325.676 36.5859 325.539 36.9238 325.496 37.3613H327.969ZM334.666 37.3613C334.674 37.1387 334.662 36.9492 334.631 36.793C334.604 36.6367 334.557 36.5078 334.491 36.4062C334.428 36.3047 334.35 36.2305 334.256 36.1836C334.162 36.1367 334.055 36.1133 333.934 36.1133C333.723 36.1133 333.504 36.2012 333.278 36.377C333.055 36.5488 332.809 36.834 332.539 37.2324V41H331.075V35.0469H332.369L332.422 35.9141C332.52 35.7617 332.629 35.625 332.75 35.5039C332.875 35.3828 333.012 35.2793 333.161 35.1934C333.313 35.1035 333.481 35.0352 333.664 34.9883C333.848 34.9414 334.049 34.918 334.268 34.918C334.569 34.918 334.834 34.9707 335.065 35.0762C335.299 35.1777 335.494 35.3301 335.651 35.5332C335.811 35.7363 335.928 35.9922 336.002 36.3008C336.08 36.6055 336.114 36.959 336.102 37.3613H334.666ZM340.76 41H339.114L336.752 35.0469H338.346L339.582 38.4219L339.952 39.5117L340.315 38.4688L341.563 35.0469H343.098L340.76 41ZM347.534 33.418C347.534 33.5469 347.51 33.668 347.463 33.7812C347.416 33.8945 347.35 33.9941 347.264 34.0801C347.182 34.1621 347.084 34.2285 346.971 34.2793C346.858 34.3262 346.735 34.3496 346.602 34.3496C346.469 34.3496 346.344 34.3262 346.227 34.2793C346.114 34.2285 346.014 34.1621 345.928 34.0801C345.846 33.9941 345.782 33.8945 345.735 33.7812C345.688 33.668 345.664 33.5469 345.664 33.418C345.664 33.2891 345.688 33.168 345.735 33.0547C345.782 32.9414 345.846 32.8418 345.928 32.7559C346.014 32.6699 346.114 32.6035 346.227 32.5566C346.344 32.5059 346.469 32.4805 346.602 32.4805C346.735 32.4805 346.858 32.5059 346.971 32.5566C347.084 32.6035 347.182 32.6699 347.264 32.7559C347.35 32.8418 347.416 32.9414 347.463 33.0547C347.51 33.168 347.534 33.2891 347.534 33.418ZM345.952 36.1602H344.27V35.0469H347.416V39.8867H349.133V41H344.065V39.8867H345.952V36.1602ZM355.444 40.7715C355.162 40.8848 354.871 40.9688 354.571 41.0234C354.27 41.0781 353.955 41.1055 353.627 41.1055C353.155 41.1055 352.731 41.041 352.356 40.9121C351.981 40.7832 351.662 40.5918 351.401 40.3379C351.139 40.084 350.938 39.7695 350.797 39.3945C350.661 39.0195 350.592 38.5859 350.592 38.0938C350.592 37.6172 350.666 37.1855 350.815 36.7988C350.967 36.4121 351.18 36.082 351.453 35.8086C351.727 35.5352 352.055 35.3242 352.438 35.1758C352.825 35.0273 353.254 34.9531 353.727 34.9531C354.114 34.9531 354.438 34.9746 354.7 35.0176C354.965 35.0566 355.203 35.1074 355.414 35.1699V36.5586C355.172 36.4375 354.909 36.3438 354.623 36.2773C354.342 36.2109 354.075 36.1777 353.821 36.1777C353.555 36.1777 353.317 36.2227 353.106 36.3125C352.895 36.4023 352.717 36.5273 352.573 36.6875C352.428 36.8477 352.317 37.043 352.239 37.2734C352.164 37.5 352.127 37.75 352.127 38.0234C352.127 38.3086 352.168 38.5645 352.25 38.791C352.332 39.0176 352.448 39.2109 352.596 39.3711C352.748 39.5273 352.93 39.6484 353.141 39.7344C353.352 39.8164 353.586 39.8574 353.844 39.8574C353.969 39.8574 354.1 39.8496 354.237 39.834C354.377 39.8145 354.516 39.7891 354.653 39.7578C354.793 39.7227 354.93 39.6836 355.063 39.6406C355.2 39.5977 355.327 39.5508 355.444 39.5V40.7715ZM362.411 37.5664C362.411 37.6641 362.407 37.791 362.399 37.9473C362.395 38.1035 362.387 38.25 362.375 38.3867H358.461C358.461 38.6484 358.5 38.8789 358.578 39.0781C358.661 39.2773 358.774 39.4453 358.918 39.582C359.067 39.7148 359.243 39.8164 359.446 39.8867C359.653 39.957 359.881 39.9922 360.131 39.9922C360.42 39.9922 360.729 39.9707 361.057 39.9277C361.389 39.8809 361.733 39.8066 362.088 39.7051V40.8418C361.936 40.8848 361.77 40.9238 361.59 40.959C361.411 40.9941 361.227 41.0254 361.039 41.0527C360.852 41.0801 360.662 41.0996 360.471 41.1113C360.28 41.127 360.094 41.1348 359.914 41.1348C359.461 41.1348 359.055 41.0703 358.696 40.9414C358.336 40.8125 358.032 40.623 357.782 40.373C357.532 40.1191 357.34 39.8066 357.207 39.4355C357.075 39.0645 357.008 38.6348 357.008 38.1465C357.008 37.6621 357.075 37.2227 357.207 36.8281C357.34 36.4297 357.528 36.0898 357.77 35.8086C358.012 35.5234 358.305 35.3047 358.649 35.1523C358.996 34.9961 359.383 34.918 359.809 34.918C360.231 34.918 360.604 34.9844 360.928 35.1172C361.252 35.2461 361.524 35.4277 361.743 35.6621C361.961 35.8965 362.127 36.1758 362.241 36.5C362.354 36.8242 362.411 37.1797 362.411 37.5664ZM360.957 37.3613C360.961 37.127 360.932 36.9238 360.869 36.752C360.807 36.5762 360.721 36.4316 360.612 36.3184C360.506 36.2051 360.381 36.1211 360.237 36.0664C360.096 36.0117 359.944 35.9844 359.78 35.9844C359.42 35.9844 359.125 36.1055 358.895 36.3477C358.664 36.5859 358.528 36.9238 358.485 37.3613H360.957Z" fill="black"/>
</svg>
