<svg width="515" height="247" viewBox="0 0 515 247" fill="none" xmlns="http://www.w3.org/2000/svg">
<rect x="1.5" y="1.5" width="160" height="52" rx="2.5" fill="#7DE77B" stroke="black" stroke-width="3"/>
<path d="M71.5101 30.1816C71.5101 30.6699 71.4437 31.0996 71.3109 31.4707C71.182 31.8379 70.9945 32.1445 70.7484 32.3906C70.5062 32.6367 70.2093 32.8223 69.8578 32.9473C69.5062 33.0723 69.1117 33.1348 68.6742 33.1348C68.182 33.1348 67.7601 33.0723 67.4086 32.9473C67.057 32.8223 66.7718 32.6426 66.5531 32.4082C66.3343 32.1738 66.1761 31.8887 66.0785 31.5527C65.9808 31.2168 65.932 30.8398 65.932 30.4219V25.3418H67.3734V30.334C67.3734 30.5918 67.3949 30.8203 67.4379 31.0195C67.4847 31.2188 67.5629 31.3887 67.6722 31.5293C67.7855 31.666 67.9261 31.7695 68.0941 31.8398C68.2621 31.9102 68.473 31.9453 68.7269 31.9453C68.9652 31.9453 69.1664 31.916 69.3304 31.8574C69.4945 31.7949 69.6312 31.6973 69.7406 31.5645C69.85 31.4277 69.932 31.2539 69.9867 31.043C70.0414 30.832 70.0687 30.5762 70.0687 30.2754V25.3418H71.5101V30.1816ZM77.7445 31.248C77.7445 31.5879 77.6683 31.8789 77.516 32.1211C77.3675 32.3594 77.1683 32.5547 76.9183 32.707C76.6722 32.8555 76.391 32.9629 76.0746 33.0293C75.7621 33.0996 75.4418 33.1348 75.1136 33.1348C74.6761 33.1348 74.2816 33.1133 73.93 33.0703C73.5785 33.0312 73.2464 32.9727 72.9339 32.8945V31.6055C73.3011 31.7578 73.6664 31.8691 74.0296 31.9395C74.3968 32.0059 74.7425 32.0391 75.0668 32.0391C75.4418 32.0391 75.7211 31.9805 75.9046 31.8633C76.0921 31.7422 76.1859 31.5859 76.1859 31.3945C76.1859 31.3047 76.1664 31.2227 76.1273 31.1484C76.0882 31.0742 76.014 31.0039 75.9046 30.9375C75.7992 30.8672 75.6488 30.7969 75.4535 30.7266C75.2582 30.6523 75.0023 30.5703 74.6859 30.4805C74.3929 30.3984 74.1351 30.3066 73.9125 30.2051C73.6937 30.0996 73.5121 29.9766 73.3675 29.8359C73.223 29.6953 73.1136 29.5332 73.0394 29.3496C72.9691 29.1621 72.9339 28.9434 72.9339 28.6934C72.9339 28.4512 72.9886 28.2227 73.098 28.0078C73.2074 27.793 73.3695 27.6055 73.5843 27.4453C73.8031 27.2812 74.0746 27.1523 74.3988 27.0586C74.723 26.9648 75.1019 26.918 75.5355 26.918C75.9105 26.918 76.2425 26.9375 76.5316 26.9766C76.8207 27.0156 77.0765 27.0586 77.2992 27.1055V28.2715C76.9593 28.1621 76.639 28.0859 76.3382 28.043C76.0414 27.9961 75.7464 27.9727 75.4535 27.9727C75.1605 27.9727 74.9242 28.0254 74.7445 28.1309C74.5687 28.2363 74.4808 28.3828 74.4808 28.5703C74.4808 28.6602 74.4984 28.7402 74.5336 28.8105C74.5687 28.8809 74.6371 28.9492 74.7386 29.0156C74.8441 29.082 74.9886 29.1523 75.1722 29.2266C75.3597 29.2969 75.6058 29.375 75.9105 29.4609C76.2543 29.5586 76.5433 29.6641 76.7777 29.7773C77.0121 29.8867 77.1996 30.0117 77.3402 30.1523C77.4847 30.293 77.5882 30.4531 77.6507 30.6328C77.7132 30.8125 77.7445 31.0176 77.7445 31.248ZM84.6175 29.5664C84.6175 29.6641 84.6136 29.791 84.6058 29.9473C84.6019 30.1035 84.5941 30.25 84.5824 30.3867H80.6683C80.6683 30.6484 80.7074 30.8789 80.7855 31.0781C80.8675 31.2773 80.9808 31.4453 81.1254 31.582C81.2738 31.7148 81.4496 31.8164 81.6527 31.8867C81.8597 31.957 82.0882 31.9922 82.3382 31.9922C82.6273 31.9922 82.9359 31.9707 83.264 31.9277C83.5961 31.8809 83.9398 31.8066 84.2953 31.7051V32.8418C84.1429 32.8848 83.9769 32.9238 83.7972 32.959C83.6175 32.9941 83.4339 33.0254 83.2464 33.0527C83.0589 33.0801 82.8695 33.0996 82.6781 33.1113C82.4867 33.127 82.3011 33.1348 82.1214 33.1348C81.6683 33.1348 81.2621 33.0703 80.9027 32.9414C80.5433 32.8125 80.2386 32.623 79.9886 32.373C79.7386 32.1191 79.5472 31.8066 79.4144 31.4355C79.2816 31.0645 79.2152 30.6348 79.2152 30.1465C79.2152 29.6621 79.2816 29.2227 79.4144 28.8281C79.5472 28.4297 79.7347 28.0898 79.9769 27.8086C80.2191 27.5234 80.5121 27.3047 80.8558 27.1523C81.2035 26.9961 81.5902 26.918 82.016 26.918C82.4379 26.918 82.8109 26.9844 83.1351 27.1172C83.4593 27.2461 83.7308 27.4277 83.9496 27.6621C84.1683 27.8965 84.3343 28.1758 84.4476 28.5C84.5609 28.8242 84.6175 29.1797 84.6175 29.5664ZM83.1644 29.3613C83.1683 29.127 83.139 28.9238 83.0765 28.752C83.014 28.5762 82.9281 28.4316 82.8187 28.3184C82.7132 28.2051 82.5882 28.1211 82.4437 28.0664C82.3031 28.0117 82.1507 27.9844 81.9867 27.9844C81.6273 27.9844 81.3324 28.1055 81.1019 28.3477C80.8714 28.5859 80.7347 28.9238 80.6918 29.3613H83.1644ZM89.8617 29.3613C89.8695 29.1387 89.8578 28.9492 89.8265 28.793C89.7992 28.6367 89.7523 28.5078 89.6859 28.4062C89.6234 28.3047 89.5453 28.2305 89.4515 28.1836C89.3578 28.1367 89.2504 28.1133 89.1293 28.1133C88.9183 28.1133 88.6996 28.2012 88.473 28.377C88.2504 28.5488 88.0043 28.834 87.7347 29.2324V33H86.2699V27.0469H87.5648L87.6175 27.9141C87.7152 27.7617 87.8246 27.625 87.9457 27.5039C88.0707 27.3828 88.2074 27.2793 88.3558 27.1934C88.5082 27.1035 88.6761 27.0352 88.8597 26.9883C89.0433 26.9414 89.2445 26.918 89.4632 26.918C89.764 26.918 90.0296 26.9707 90.2601 27.0762C90.4945 27.1777 90.6898 27.3301 90.8461 27.5332C91.0062 27.7363 91.1234 27.9922 91.1976 28.3008C91.2757 28.6055 91.3089 28.959 91.2972 29.3613H89.8617ZM92.7035 33V31.7285H94.6546V26.8066L92.9554 27.7441L92.4867 26.5781L94.9183 25.2949H96.1195V31.7285H97.8011V33H92.7035Z" fill="black"/>
<rect x="177.5" y="1.5" width="160" height="52" rx="2.5" fill="#7DE77B" stroke="black" stroke-width="3"/>
<path d="M247.51 30.1816C247.51 30.6699 247.444 31.0996 247.311 31.4707C247.182 31.8379 246.994 32.1445 246.748 32.3906C246.506 32.6367 246.209 32.8223 245.858 32.9473C245.506 33.0723 245.112 33.1348 244.674 33.1348C244.182 33.1348 243.76 33.0723 243.409 32.9473C243.057 32.8223 242.772 32.6426 242.553 32.4082C242.334 32.1738 242.176 31.8887 242.078 31.5527C241.981 31.2168 241.932 30.8398 241.932 30.4219V25.3418H243.373V30.334C243.373 30.5918 243.395 30.8203 243.438 31.0195C243.485 31.2188 243.563 31.3887 243.672 31.5293C243.786 31.666 243.926 31.7695 244.094 31.8398C244.262 31.9102 244.473 31.9453 244.727 31.9453C244.965 31.9453 245.166 31.916 245.33 31.8574C245.494 31.7949 245.631 31.6973 245.741 31.5645C245.85 31.4277 245.932 31.2539 245.987 31.043C246.041 30.832 246.069 30.5762 246.069 30.2754V25.3418H247.51V30.1816ZM253.744 31.248C253.744 31.5879 253.668 31.8789 253.516 32.1211C253.368 32.3594 253.168 32.5547 252.918 32.707C252.672 32.8555 252.391 32.9629 252.075 33.0293C251.762 33.0996 251.442 33.1348 251.114 33.1348C250.676 33.1348 250.282 33.1133 249.93 33.0703C249.578 33.0312 249.246 32.9727 248.934 32.8945V31.6055C249.301 31.7578 249.666 31.8691 250.03 31.9395C250.397 32.0059 250.743 32.0391 251.067 32.0391C251.442 32.0391 251.721 31.9805 251.905 31.8633C252.092 31.7422 252.186 31.5859 252.186 31.3945C252.186 31.3047 252.166 31.2227 252.127 31.1484C252.088 31.0742 252.014 31.0039 251.905 30.9375C251.799 30.8672 251.649 30.7969 251.453 30.7266C251.258 30.6523 251.002 30.5703 250.686 30.4805C250.393 30.3984 250.135 30.3066 249.912 30.2051C249.694 30.0996 249.512 29.9766 249.368 29.8359C249.223 29.6953 249.114 29.5332 249.039 29.3496C248.969 29.1621 248.934 28.9434 248.934 28.6934C248.934 28.4512 248.989 28.2227 249.098 28.0078C249.207 27.793 249.369 27.6055 249.584 27.4453C249.803 27.2812 250.075 27.1523 250.399 27.0586C250.723 26.9648 251.102 26.918 251.536 26.918C251.911 26.918 252.243 26.9375 252.532 26.9766C252.821 27.0156 253.077 27.0586 253.299 27.1055V28.2715C252.959 28.1621 252.639 28.0859 252.338 28.043C252.041 27.9961 251.746 27.9727 251.453 27.9727C251.161 27.9727 250.924 28.0254 250.744 28.1309C250.569 28.2363 250.481 28.3828 250.481 28.5703C250.481 28.6602 250.498 28.7402 250.534 28.8105C250.569 28.8809 250.637 28.9492 250.739 29.0156C250.844 29.082 250.989 29.1523 251.172 29.2266C251.36 29.2969 251.606 29.375 251.911 29.4609C252.254 29.5586 252.543 29.6641 252.778 29.7773C253.012 29.8867 253.2 30.0117 253.34 30.1523C253.485 30.293 253.588 30.4531 253.651 30.6328C253.713 30.8125 253.744 31.0176 253.744 31.248ZM260.618 29.5664C260.618 29.6641 260.614 29.791 260.606 29.9473C260.602 30.1035 260.594 30.25 260.582 30.3867H256.668C256.668 30.6484 256.707 30.8789 256.786 31.0781C256.868 31.2773 256.981 31.4453 257.125 31.582C257.274 31.7148 257.45 31.8164 257.653 31.8867C257.86 31.957 258.088 31.9922 258.338 31.9922C258.627 31.9922 258.936 31.9707 259.264 31.9277C259.596 31.8809 259.94 31.8066 260.295 31.7051V32.8418C260.143 32.8848 259.977 32.9238 259.797 32.959C259.618 32.9941 259.434 33.0254 259.246 33.0527C259.059 33.0801 258.869 33.0996 258.678 33.1113C258.487 33.127 258.301 33.1348 258.121 33.1348C257.668 33.1348 257.262 33.0703 256.903 32.9414C256.543 32.8125 256.239 32.623 255.989 32.373C255.739 32.1191 255.547 31.8066 255.414 31.4355C255.282 31.0645 255.215 30.6348 255.215 30.1465C255.215 29.6621 255.282 29.2227 255.414 28.8281C255.547 28.4297 255.735 28.0898 255.977 27.8086C256.219 27.5234 256.512 27.3047 256.856 27.1523C257.203 26.9961 257.59 26.918 258.016 26.918C258.438 26.918 258.811 26.9844 259.135 27.1172C259.459 27.2461 259.731 27.4277 259.95 27.6621C260.168 27.8965 260.334 28.1758 260.448 28.5C260.561 28.8242 260.618 29.1797 260.618 29.5664ZM259.164 29.3613C259.168 29.127 259.139 28.9238 259.077 28.752C259.014 28.5762 258.928 28.4316 258.819 28.3184C258.713 28.2051 258.588 28.1211 258.444 28.0664C258.303 28.0117 258.151 27.9844 257.987 27.9844C257.627 27.9844 257.332 28.1055 257.102 28.3477C256.871 28.5859 256.735 28.9238 256.692 29.3613H259.164ZM265.862 29.3613C265.869 29.1387 265.858 28.9492 265.827 28.793C265.799 28.6367 265.752 28.5078 265.686 28.4062C265.623 28.3047 265.545 28.2305 265.452 28.1836C265.358 28.1367 265.25 28.1133 265.129 28.1133C264.918 28.1133 264.7 28.2012 264.473 28.377C264.25 28.5488 264.004 28.834 263.735 29.2324V33H262.27V27.0469H263.565L263.618 27.9141C263.715 27.7617 263.825 27.625 263.946 27.5039C264.071 27.3828 264.207 27.2793 264.356 27.1934C264.508 27.1035 264.676 27.0352 264.86 26.9883C265.043 26.9414 265.244 26.918 265.463 26.918C265.764 26.918 266.03 26.9707 266.26 27.0762C266.494 27.1777 266.69 27.3301 266.846 27.5332C267.006 27.7363 267.123 27.9922 267.198 28.3008C267.276 28.6055 267.309 28.959 267.297 29.3613H265.862ZM268.569 33V31.9453L270.379 30.1348C270.719 29.7949 270.991 29.502 271.194 29.2559C271.401 29.0098 271.559 28.791 271.668 28.5996C271.782 28.4043 271.856 28.2246 271.891 28.0605C271.926 27.8965 271.944 27.7266 271.944 27.5508C271.944 27.4062 271.92 27.2695 271.873 27.1406C271.827 27.0078 271.758 26.8945 271.668 26.8008C271.578 26.7031 271.465 26.627 271.328 26.5723C271.192 26.5137 271.036 26.4844 270.86 26.4844C270.559 26.4844 270.28 26.5508 270.022 26.6836C269.764 26.8125 269.52 26.9863 269.289 27.2051L268.534 26.2324C268.866 25.9238 269.239 25.6777 269.653 25.4941C270.071 25.3066 270.522 25.2129 271.006 25.2129C271.381 25.2129 271.721 25.2617 272.026 25.3594C272.33 25.4531 272.59 25.5938 272.805 25.7812C273.024 25.9688 273.192 26.2031 273.309 26.4844C273.43 26.7656 273.491 27.0898 273.491 27.457C273.491 27.7617 273.45 28.0469 273.368 28.3125C273.286 28.5742 273.166 28.8301 273.01 29.0801C272.854 29.3301 272.661 29.5801 272.43 29.8301C272.203 30.0801 271.944 30.3438 271.651 30.6211L270.537 31.6816H273.766V33H268.569Z" fill="black"/>
<rect x="353.5" y="1.5" width="160" height="52" rx="2.5" fill="#7DE77B" stroke="black" stroke-width="3"/>
<path d="M423.51 30.1816C423.51 30.6699 423.444 31.0996 423.311 31.4707C423.182 31.8379 422.994 32.1445 422.748 32.3906C422.506 32.6367 422.209 32.8223 421.858 32.9473C421.506 33.0723 421.112 33.1348 420.674 33.1348C420.182 33.1348 419.76 33.0723 419.409 32.9473C419.057 32.8223 418.772 32.6426 418.553 32.4082C418.334 32.1738 418.176 31.8887 418.078 31.5527C417.981 31.2168 417.932 30.8398 417.932 30.4219V25.3418H419.373V30.334C419.373 30.5918 419.395 30.8203 419.438 31.0195C419.485 31.2188 419.563 31.3887 419.672 31.5293C419.786 31.666 419.926 31.7695 420.094 31.8398C420.262 31.9102 420.473 31.9453 420.727 31.9453C420.965 31.9453 421.166 31.916 421.33 31.8574C421.494 31.7949 421.631 31.6973 421.741 31.5645C421.85 31.4277 421.932 31.2539 421.987 31.043C422.041 30.832 422.069 30.5762 422.069 30.2754V25.3418H423.51V30.1816ZM429.744 31.248C429.744 31.5879 429.668 31.8789 429.516 32.1211C429.368 32.3594 429.168 32.5547 428.918 32.707C428.672 32.8555 428.391 32.9629 428.075 33.0293C427.762 33.0996 427.442 33.1348 427.114 33.1348C426.676 33.1348 426.282 33.1133 425.93 33.0703C425.578 33.0312 425.246 32.9727 424.934 32.8945V31.6055C425.301 31.7578 425.666 31.8691 426.03 31.9395C426.397 32.0059 426.743 32.0391 427.067 32.0391C427.442 32.0391 427.721 31.9805 427.905 31.8633C428.092 31.7422 428.186 31.5859 428.186 31.3945C428.186 31.3047 428.166 31.2227 428.127 31.1484C428.088 31.0742 428.014 31.0039 427.905 30.9375C427.799 30.8672 427.649 30.7969 427.453 30.7266C427.258 30.6523 427.002 30.5703 426.686 30.4805C426.393 30.3984 426.135 30.3066 425.912 30.2051C425.694 30.0996 425.512 29.9766 425.368 29.8359C425.223 29.6953 425.114 29.5332 425.039 29.3496C424.969 29.1621 424.934 28.9434 424.934 28.6934C424.934 28.4512 424.989 28.2227 425.098 28.0078C425.207 27.793 425.369 27.6055 425.584 27.4453C425.803 27.2812 426.075 27.1523 426.399 27.0586C426.723 26.9648 427.102 26.918 427.536 26.918C427.911 26.918 428.243 26.9375 428.532 26.9766C428.821 27.0156 429.077 27.0586 429.299 27.1055V28.2715C428.959 28.1621 428.639 28.0859 428.338 28.043C428.041 27.9961 427.746 27.9727 427.453 27.9727C427.161 27.9727 426.924 28.0254 426.744 28.1309C426.569 28.2363 426.481 28.3828 426.481 28.5703C426.481 28.6602 426.498 28.7402 426.534 28.8105C426.569 28.8809 426.637 28.9492 426.739 29.0156C426.844 29.082 426.989 29.1523 427.172 29.2266C427.36 29.2969 427.606 29.375 427.911 29.4609C428.254 29.5586 428.543 29.6641 428.778 29.7773C429.012 29.8867 429.2 30.0117 429.34 30.1523C429.485 30.293 429.588 30.4531 429.651 30.6328C429.713 30.8125 429.744 31.0176 429.744 31.248ZM436.618 29.5664C436.618 29.6641 436.614 29.791 436.606 29.9473C436.602 30.1035 436.594 30.25 436.582 30.3867H432.668C432.668 30.6484 432.707 30.8789 432.786 31.0781C432.868 31.2773 432.981 31.4453 433.125 31.582C433.274 31.7148 433.45 31.8164 433.653 31.8867C433.86 31.957 434.088 31.9922 434.338 31.9922C434.627 31.9922 434.936 31.9707 435.264 31.9277C435.596 31.8809 435.94 31.8066 436.295 31.7051V32.8418C436.143 32.8848 435.977 32.9238 435.797 32.959C435.618 32.9941 435.434 33.0254 435.246 33.0527C435.059 33.0801 434.869 33.0996 434.678 33.1113C434.487 33.127 434.301 33.1348 434.121 33.1348C433.668 33.1348 433.262 33.0703 432.903 32.9414C432.543 32.8125 432.239 32.623 431.989 32.373C431.739 32.1191 431.547 31.8066 431.414 31.4355C431.282 31.0645 431.215 30.6348 431.215 30.1465C431.215 29.6621 431.282 29.2227 431.414 28.8281C431.547 28.4297 431.735 28.0898 431.977 27.8086C432.219 27.5234 432.512 27.3047 432.856 27.1523C433.203 26.9961 433.59 26.918 434.016 26.918C434.438 26.918 434.811 26.9844 435.135 27.1172C435.459 27.2461 435.731 27.4277 435.95 27.6621C436.168 27.8965 436.334 28.1758 436.448 28.5C436.561 28.8242 436.618 29.1797 436.618 29.5664ZM435.164 29.3613C435.168 29.127 435.139 28.9238 435.077 28.752C435.014 28.5762 434.928 28.4316 434.819 28.3184C434.713 28.2051 434.588 28.1211 434.444 28.0664C434.303 28.0117 434.151 27.9844 433.987 27.9844C433.627 27.9844 433.332 28.1055 433.102 28.3477C432.871 28.5859 432.735 28.9238 432.692 29.3613H435.164ZM441.862 29.3613C441.869 29.1387 441.858 28.9492 441.827 28.793C441.799 28.6367 441.752 28.5078 441.686 28.4062C441.623 28.3047 441.545 28.2305 441.452 28.1836C441.358 28.1367 441.25 28.1133 441.129 28.1133C440.918 28.1133 440.7 28.2012 440.473 28.377C440.25 28.5488 440.004 28.834 439.735 29.2324V33H438.27V27.0469H439.565L439.618 27.9141C439.715 27.7617 439.825 27.625 439.946 27.5039C440.071 27.3828 440.207 27.2793 440.356 27.1934C440.508 27.1035 440.676 27.0352 440.86 26.9883C441.043 26.9414 441.244 26.918 441.463 26.918C441.764 26.918 442.03 26.9707 442.26 27.0762C442.494 27.1777 442.69 27.3301 442.846 27.5332C443.006 27.7363 443.123 27.9922 443.198 28.3008C443.276 28.6055 443.309 28.959 443.297 29.3613H441.862ZM449.789 30.6621C449.789 31.041 449.719 31.3828 449.578 31.6875C449.438 31.9883 449.221 32.2461 448.928 32.4609C448.639 32.6719 448.274 32.834 447.832 32.9473C447.391 33.0605 446.871 33.1172 446.274 33.1172C446.141 33.1172 446 33.1133 445.852 33.1055C445.707 33.1016 445.563 33.0938 445.418 33.082C445.274 33.0742 445.133 33.0625 444.996 33.0469C444.86 33.0352 444.737 33.0195 444.627 33V31.7578C444.873 31.8047 445.149 31.8438 445.453 31.875C445.762 31.9023 446.082 31.916 446.414 31.916C446.739 31.916 447.018 31.8887 447.252 31.834C447.487 31.7793 447.68 31.7012 447.832 31.5996C447.985 31.4941 448.096 31.3652 448.166 31.2129C448.241 31.0605 448.278 30.8887 448.278 30.6973C448.278 30.5293 448.241 30.377 448.166 30.2402C448.092 30.1035 447.979 29.9883 447.827 29.8945C447.674 29.7969 447.479 29.7227 447.241 29.6719C447.006 29.6172 446.727 29.5898 446.403 29.5898H445.553V28.5H446.332C446.637 28.5 446.889 28.4707 447.088 28.4121C447.291 28.3496 447.452 28.2676 447.569 28.166C447.69 28.0645 447.776 27.9453 447.827 27.8086C447.877 27.668 447.903 27.5215 447.903 27.3691C447.903 27.0566 447.801 26.8203 447.598 26.6602C447.395 26.4961 447.08 26.4141 446.655 26.4141C446.35 26.4141 446.049 26.4434 445.752 26.502C445.455 26.5605 445.149 26.6387 444.832 26.7363V25.5352C445.008 25.4766 445.176 25.4277 445.336 25.3887C445.496 25.3496 445.657 25.3164 445.817 25.2891C445.977 25.2617 446.139 25.2422 446.303 25.2305C446.467 25.2188 446.637 25.2129 446.813 25.2129C447.235 25.2129 447.604 25.2578 447.92 25.3477C448.241 25.4375 448.508 25.5664 448.723 25.7344C448.942 25.8984 449.106 26.0996 449.215 26.3379C449.325 26.5762 449.379 26.8418 449.379 27.1348C449.379 27.5996 449.272 27.9766 449.057 28.2656C448.846 28.5508 448.549 28.7695 448.166 28.9219C448.412 28.9609 448.635 29.0293 448.834 29.127C449.034 29.2207 449.203 29.3438 449.344 29.4961C449.489 29.6445 449.598 29.8164 449.672 30.0117C449.75 30.207 449.789 30.4238 449.789 30.6621Z" fill="black"/>
<path d="M254.939 127.061C255.525 127.646 256.475 127.646 257.061 127.061L266.607 117.515C267.192 116.929 267.192 115.979 266.607 115.393C266.021 114.808 265.071 114.808 264.485 115.393L256 123.879L247.515 115.393C246.929 114.808 245.979 114.808 245.393 115.393C244.808 115.979 244.808 116.929 245.393 117.515L254.939 127.061ZM254.5 56L254.5 126L257.5 126L257.5 56L254.5 56Z" fill="black"/>
<path d="M360.939 194.939C360.354 195.525 360.354 196.475 360.939 197.061L370.485 206.607C371.071 207.192 372.021 207.192 372.607 206.607C373.192 206.021 373.192 205.071 372.607 204.485L364.121 196L372.607 187.515C373.192 186.929 373.192 185.979 372.607 185.393C372.021 184.808 371.071 184.808 370.485 185.393L360.939 194.939ZM441 194.5H362V197.5H441V194.5Z" fill="black"/>
<path d="M151.061 196.061C151.646 195.475 151.646 194.525 151.061 193.939L141.515 184.393C140.929 183.808 139.979 183.808 139.393 184.393C138.808 184.979 138.808 185.929 139.393 186.515L147.879 195L139.393 203.485C138.808 204.071 138.808 205.021 139.393 205.607C139.979 206.192 140.929 206.192 141.515 205.607L151.061 196.061ZM78 196.5L150 196.5L150 193.5L78 193.5L78 196.5Z" fill="black"/>
<rect x="161.5" y="136.5" width="192" height="109" rx="2.5" fill="#7DE77B" stroke="black" stroke-width="3"/>
<path d="M227.424 161.139C227.424 161.834 227.342 162.434 227.177 162.938C227.017 163.441 226.795 163.855 226.51 164.18C226.228 164.504 225.896 164.744 225.513 164.9C225.135 165.057 224.728 165.135 224.295 165.135C223.287 165.135 222.529 164.801 222.021 164.133C221.513 163.461 221.26 162.486 221.26 161.209C221.26 160.514 221.34 159.914 221.5 159.41C221.664 158.906 221.886 158.492 222.168 158.168C222.453 157.844 222.785 157.604 223.164 157.447C223.547 157.291 223.955 157.213 224.388 157.213C225.396 157.213 226.154 157.547 226.662 158.215C227.17 158.883 227.424 159.857 227.424 161.139ZM225.9 161.209C225.9 160.303 225.779 159.627 225.537 159.182C225.295 158.736 224.896 158.514 224.342 158.514C224.064 158.514 223.828 158.572 223.633 158.689C223.437 158.803 223.275 158.971 223.146 159.193C223.021 159.416 222.929 159.691 222.871 160.02C222.812 160.344 222.783 160.717 222.783 161.139C222.783 162.045 222.904 162.721 223.146 163.166C223.392 163.611 223.791 163.834 224.342 163.834C224.619 163.834 224.855 163.777 225.051 163.664C225.25 163.547 225.412 163.377 225.537 163.154C225.662 162.932 225.754 162.658 225.812 162.334C225.871 162.006 225.9 161.631 225.9 161.209ZM233.81 161.918C233.81 162.465 233.732 162.938 233.576 163.336C233.424 163.734 233.209 164.066 232.931 164.332C232.658 164.594 232.334 164.789 231.959 164.918C231.584 165.043 231.176 165.105 230.734 165.105C230.586 165.105 230.437 165.096 230.289 165.076C230.14 165.057 230.006 165.031 229.885 165V167.326H228.455V159.047H229.691L229.726 159.926C229.847 159.773 229.972 159.635 230.101 159.51C230.234 159.385 230.377 159.279 230.529 159.193C230.681 159.104 230.845 159.035 231.021 158.988C231.197 158.941 231.394 158.918 231.613 158.918C231.965 158.918 232.277 158.988 232.551 159.129C232.824 159.27 233.052 159.471 233.236 159.732C233.424 159.99 233.566 160.305 233.664 160.676C233.761 161.043 233.81 161.457 233.81 161.918ZM232.31 161.977C232.31 161.648 232.287 161.369 232.24 161.139C232.193 160.908 232.125 160.719 232.035 160.57C231.949 160.422 231.842 160.314 231.713 160.248C231.588 160.178 231.443 160.143 231.279 160.143C231.037 160.143 230.804 160.24 230.582 160.436C230.363 160.631 230.131 160.896 229.885 161.232V163.834C229.998 163.877 230.136 163.912 230.301 163.939C230.469 163.967 230.638 163.98 230.81 163.98C231.037 163.98 231.242 163.934 231.426 163.84C231.613 163.746 231.771 163.613 231.9 163.441C232.033 163.27 232.135 163.061 232.205 162.814C232.275 162.564 232.31 162.285 232.31 161.977ZM240.238 161.566C240.238 161.664 240.234 161.791 240.226 161.947C240.222 162.104 240.215 162.25 240.203 162.387H236.289C236.289 162.648 236.328 162.879 236.406 163.078C236.488 163.277 236.601 163.445 236.746 163.582C236.894 163.715 237.07 163.816 237.273 163.887C237.48 163.957 237.709 163.992 237.959 163.992C238.248 163.992 238.556 163.971 238.885 163.928C239.217 163.881 239.56 163.807 239.916 163.705V164.842C239.763 164.885 239.597 164.924 239.418 164.959C239.238 164.994 239.054 165.025 238.867 165.053C238.679 165.08 238.49 165.1 238.299 165.111C238.107 165.127 237.922 165.135 237.742 165.135C237.289 165.135 236.883 165.07 236.523 164.941C236.164 164.812 235.859 164.623 235.609 164.373C235.359 164.119 235.168 163.807 235.035 163.436C234.902 163.064 234.836 162.635 234.836 162.146C234.836 161.662 234.902 161.223 235.035 160.828C235.168 160.43 235.355 160.09 235.597 159.809C235.84 159.523 236.133 159.305 236.476 159.152C236.824 158.996 237.211 158.918 237.636 158.918C238.058 158.918 238.431 158.984 238.756 159.117C239.08 159.246 239.351 159.428 239.57 159.662C239.789 159.896 239.955 160.176 240.068 160.5C240.181 160.824 240.238 161.18 240.238 161.566ZM238.785 161.361C238.789 161.127 238.76 160.924 238.697 160.752C238.635 160.576 238.549 160.432 238.439 160.318C238.334 160.205 238.209 160.121 238.064 160.066C237.924 160.012 237.771 159.984 237.607 159.984C237.248 159.984 236.953 160.105 236.722 160.348C236.492 160.586 236.355 160.924 236.312 161.361H238.785ZM245.482 161.361C245.49 161.139 245.478 160.949 245.447 160.793C245.42 160.637 245.373 160.508 245.306 160.406C245.244 160.305 245.166 160.23 245.072 160.184C244.978 160.137 244.871 160.113 244.75 160.113C244.539 160.113 244.32 160.201 244.094 160.377C243.871 160.549 243.625 160.834 243.355 161.232V165H241.89V159.047H243.185L243.238 159.914C243.336 159.762 243.445 159.625 243.566 159.504C243.691 159.383 243.828 159.279 243.976 159.193C244.129 159.104 244.297 159.035 244.48 158.988C244.664 158.941 244.865 158.918 245.084 158.918C245.385 158.918 245.65 158.971 245.881 159.076C246.115 159.178 246.31 159.33 246.467 159.533C246.627 159.736 246.744 159.992 246.818 160.301C246.896 160.605 246.929 160.959 246.918 161.361H245.482ZM251.98 165L251.945 164.221C251.82 164.354 251.689 164.477 251.552 164.59C251.416 164.699 251.265 164.795 251.101 164.877C250.937 164.959 250.758 165.021 250.562 165.064C250.371 165.111 250.16 165.135 249.929 165.135C249.625 165.135 249.357 165.09 249.127 165C248.896 164.91 248.703 164.785 248.547 164.625C248.39 164.465 248.271 164.271 248.189 164.045C248.111 163.818 248.072 163.568 248.072 163.295C248.072 163.014 248.131 162.754 248.248 162.516C248.369 162.277 248.551 162.072 248.793 161.9C249.039 161.729 249.344 161.594 249.707 161.496C250.074 161.398 250.504 161.35 250.996 161.35H251.775V160.992C251.775 160.84 251.754 160.703 251.711 160.582C251.668 160.457 251.597 160.352 251.5 160.266C251.406 160.18 251.283 160.113 251.131 160.066C250.978 160.02 250.791 159.996 250.568 159.996C250.217 159.996 249.869 160.037 249.525 160.119C249.185 160.197 248.855 160.309 248.535 160.453V159.311C248.82 159.197 249.148 159.104 249.519 159.029C249.894 158.955 250.283 158.918 250.685 158.918C251.127 158.918 251.506 158.961 251.822 159.047C252.138 159.129 252.398 159.254 252.601 159.422C252.808 159.59 252.961 159.801 253.058 160.055C253.156 160.305 253.205 160.598 253.205 160.934V165H251.98ZM251.775 162.369H250.902C250.66 162.369 250.455 162.393 250.287 162.439C250.119 162.486 249.982 162.551 249.877 162.633C249.771 162.715 249.693 162.811 249.642 162.92C249.595 163.025 249.572 163.139 249.572 163.26C249.572 163.502 249.65 163.688 249.806 163.816C249.963 163.941 250.176 164.004 250.445 164.004C250.644 164.004 250.851 163.932 251.066 163.787C251.281 163.643 251.517 163.436 251.775 163.166V162.369ZM259.756 164.941C259.498 165 259.238 165.047 258.976 165.082C258.715 165.117 258.467 165.135 258.232 165.135C257.842 165.135 257.504 165.094 257.219 165.012C256.937 164.93 256.703 164.805 256.515 164.637C256.332 164.469 256.195 164.256 256.105 163.998C256.019 163.736 255.976 163.426 255.976 163.066V160.16H254.377V159.047H255.976V157.523L257.441 157.143V159.047H259.756V160.16H257.441V162.961C257.441 163.301 257.519 163.559 257.676 163.734C257.832 163.906 258.094 163.992 258.461 163.992C258.695 163.992 258.924 163.973 259.146 163.934C259.369 163.895 259.572 163.85 259.756 163.799V164.941ZM264.947 157.418C264.947 157.547 264.924 157.668 264.877 157.781C264.83 157.895 264.763 157.994 264.677 158.08C264.595 158.162 264.498 158.229 264.385 158.279C264.271 158.326 264.148 158.35 264.015 158.35C263.883 158.35 263.758 158.326 263.64 158.279C263.527 158.229 263.427 158.162 263.342 158.08C263.26 157.994 263.195 157.895 263.148 157.781C263.101 157.668 263.078 157.547 263.078 157.418C263.078 157.289 263.101 157.168 263.148 157.055C263.195 156.941 263.26 156.842 263.342 156.756C263.427 156.67 263.527 156.604 263.64 156.557C263.758 156.506 263.883 156.48 264.015 156.48C264.148 156.48 264.271 156.506 264.385 156.557C264.498 156.604 264.595 156.67 264.677 156.756C264.763 156.842 264.83 156.941 264.877 157.055C264.924 157.168 264.947 157.289 264.947 157.418ZM263.365 160.16H261.683V159.047H264.83V163.887H266.547V165H261.478V163.887H263.365V160.16ZM273.402 161.977C273.402 162.445 273.336 162.875 273.203 163.266C273.07 163.652 272.879 163.984 272.629 164.262C272.379 164.539 272.072 164.754 271.709 164.906C271.345 165.059 270.931 165.135 270.467 165.135C270.025 165.135 269.631 165.07 269.283 164.941C268.935 164.812 268.64 164.621 268.398 164.367C268.156 164.109 267.97 163.789 267.842 163.406C267.713 163.02 267.648 162.57 267.648 162.059C267.648 161.586 267.715 161.156 267.847 160.77C267.984 160.383 268.177 160.053 268.427 159.779C268.681 159.506 268.99 159.295 269.353 159.146C269.717 158.994 270.127 158.918 270.584 158.918C271.029 158.918 271.426 158.984 271.773 159.117C272.121 159.246 272.416 159.439 272.658 159.697C272.9 159.955 273.084 160.275 273.209 160.658C273.338 161.037 273.402 161.477 273.402 161.977ZM271.914 162.012C271.914 161.395 271.797 160.932 271.562 160.623C271.332 160.311 270.99 160.154 270.537 160.154C270.287 160.154 270.074 160.203 269.898 160.301C269.722 160.398 269.578 160.533 269.465 160.705C269.351 160.873 269.267 161.07 269.213 161.297C269.162 161.523 269.136 161.766 269.136 162.023C269.136 162.645 269.261 163.113 269.511 163.43C269.761 163.742 270.103 163.898 270.537 163.898C270.775 163.898 270.982 163.852 271.158 163.758C271.334 163.66 271.476 163.527 271.586 163.359C271.695 163.188 271.777 162.986 271.832 162.756C271.886 162.525 271.914 162.277 271.914 162.012ZM278.189 165V161.121C278.189 160.469 277.947 160.143 277.463 160.143C277.22 160.143 276.988 160.24 276.765 160.436C276.547 160.631 276.314 160.896 276.068 161.232V165H274.638V159.047H275.875L275.91 159.926C276.031 159.773 276.156 159.635 276.285 159.51C276.418 159.385 276.56 159.279 276.713 159.193C276.865 159.104 277.029 159.035 277.205 158.988C277.381 158.941 277.578 158.918 277.797 158.918C278.101 158.918 278.367 158.969 278.594 159.07C278.82 159.168 279.01 159.309 279.162 159.492C279.314 159.672 279.427 159.891 279.502 160.148C279.58 160.402 279.619 160.688 279.619 161.004V165H278.189ZM286.146 163.248C286.146 163.588 286.07 163.879 285.918 164.121C285.769 164.359 285.57 164.555 285.32 164.707C285.074 164.855 284.793 164.963 284.476 165.029C284.164 165.1 283.844 165.135 283.515 165.135C283.078 165.135 282.683 165.113 282.332 165.07C281.98 165.031 281.648 164.973 281.336 164.895V163.605C281.703 163.758 282.068 163.869 282.431 163.939C282.799 164.006 283.144 164.039 283.469 164.039C283.844 164.039 284.123 163.98 284.306 163.863C284.494 163.742 284.588 163.586 284.588 163.395C284.588 163.305 284.568 163.223 284.529 163.148C284.49 163.074 284.416 163.004 284.306 162.938C284.201 162.867 284.051 162.797 283.855 162.727C283.66 162.652 283.404 162.57 283.088 162.48C282.795 162.398 282.537 162.307 282.314 162.205C282.095 162.1 281.914 161.977 281.769 161.836C281.625 161.695 281.515 161.533 281.441 161.35C281.371 161.162 281.336 160.943 281.336 160.693C281.336 160.451 281.39 160.223 281.5 160.008C281.609 159.793 281.771 159.605 281.986 159.445C282.205 159.281 282.476 159.152 282.801 159.059C283.125 158.965 283.504 158.918 283.937 158.918C284.312 158.918 284.644 158.938 284.933 158.977C285.222 159.016 285.478 159.059 285.701 159.105V160.271C285.361 160.162 285.041 160.086 284.74 160.043C284.443 159.996 284.148 159.973 283.855 159.973C283.562 159.973 283.326 160.025 283.146 160.131C282.97 160.236 282.883 160.383 282.883 160.57C282.883 160.66 282.9 160.74 282.935 160.811C282.97 160.881 283.039 160.949 283.14 161.016C283.246 161.082 283.39 161.152 283.574 161.227C283.761 161.297 284.008 161.375 284.312 161.461C284.656 161.559 284.945 161.664 285.179 161.777C285.414 161.887 285.601 162.012 285.742 162.152C285.886 162.293 285.99 162.453 286.052 162.633C286.115 162.812 286.146 163.018 286.146 163.248Z" fill="black"/>
<line x1="159.515" y1="185.5" x2="354.971" y2="185.5" stroke="black" stroke-width="3"/>
<path d="M195.873 202.398V204.678H194.555V202.398H192.369V201.221H194.555V198.953H195.873V201.221H198.058V202.398H195.873ZM211.283 201.977C211.283 202.445 211.217 202.875 211.084 203.266C210.951 203.652 210.76 203.984 210.51 204.262C210.26 204.539 209.953 204.754 209.59 204.906C209.226 205.059 208.812 205.135 208.347 205.135C207.906 205.135 207.512 205.07 207.164 204.941C206.816 204.812 206.521 204.621 206.279 204.367C206.037 204.109 205.851 203.789 205.722 203.406C205.594 203.02 205.529 202.57 205.529 202.059C205.529 201.586 205.596 201.156 205.728 200.77C205.865 200.383 206.058 200.053 206.308 199.779C206.562 199.506 206.871 199.295 207.234 199.146C207.597 198.994 208.008 198.918 208.465 198.918C208.91 198.918 209.306 198.984 209.654 199.117C210.002 199.246 210.297 199.439 210.539 199.697C210.781 199.955 210.965 200.275 211.09 200.658C211.219 201.037 211.283 201.477 211.283 201.977ZM209.795 202.012C209.795 201.395 209.678 200.932 209.443 200.623C209.213 200.311 208.871 200.154 208.418 200.154C208.168 200.154 207.955 200.203 207.779 200.301C207.603 200.398 207.459 200.533 207.346 200.705C207.232 200.873 207.148 201.07 207.094 201.297C207.043 201.523 207.017 201.766 207.017 202.023C207.017 202.645 207.142 203.113 207.392 203.43C207.642 203.742 207.984 203.898 208.418 203.898C208.656 203.898 208.863 203.852 209.039 203.758C209.215 203.66 209.357 203.527 209.467 203.359C209.576 203.188 209.658 202.986 209.713 202.756C209.767 202.525 209.795 202.277 209.795 202.012ZM217.875 201.918C217.875 202.465 217.797 202.938 217.64 203.336C217.488 203.734 217.273 204.066 216.996 204.332C216.722 204.594 216.398 204.789 216.023 204.918C215.648 205.043 215.24 205.105 214.799 205.105C214.65 205.105 214.502 205.096 214.353 205.076C214.205 205.057 214.07 205.031 213.949 205V207.326H212.519V199.047H213.756L213.791 199.926C213.912 199.773 214.037 199.635 214.166 199.51C214.299 199.385 214.441 199.279 214.594 199.193C214.746 199.104 214.91 199.035 215.086 198.988C215.262 198.941 215.459 198.918 215.678 198.918C216.029 198.918 216.342 198.988 216.615 199.129C216.888 199.27 217.117 199.471 217.301 199.732C217.488 199.99 217.631 200.305 217.728 200.676C217.826 201.043 217.875 201.457 217.875 201.918ZM216.375 201.977C216.375 201.648 216.351 201.369 216.305 201.139C216.258 200.908 216.189 200.719 216.099 200.57C216.013 200.422 215.906 200.314 215.777 200.248C215.652 200.178 215.508 200.143 215.344 200.143C215.101 200.143 214.869 200.24 214.646 200.436C214.428 200.631 214.195 200.896 213.949 201.232V203.834C214.062 203.877 214.201 203.912 214.365 203.939C214.533 203.967 214.703 203.98 214.875 203.98C215.101 203.98 215.306 203.934 215.49 203.84C215.678 203.746 215.836 203.613 215.965 203.441C216.097 203.27 216.199 203.061 216.269 202.814C216.34 202.564 216.375 202.285 216.375 201.977ZM224.303 201.566C224.303 201.664 224.299 201.791 224.291 201.947C224.287 202.104 224.279 202.25 224.267 202.387H220.353C220.353 202.648 220.392 202.879 220.471 203.078C220.553 203.277 220.666 203.445 220.81 203.582C220.959 203.715 221.135 203.816 221.338 203.887C221.545 203.957 221.773 203.992 222.023 203.992C222.312 203.992 222.621 203.971 222.949 203.928C223.281 203.881 223.625 203.807 223.98 203.705V204.842C223.828 204.885 223.662 204.924 223.482 204.959C223.303 204.994 223.119 205.025 222.931 205.053C222.744 205.08 222.555 205.1 222.363 205.111C222.172 205.127 221.986 205.135 221.806 205.135C221.353 205.135 220.947 205.07 220.588 204.941C220.228 204.812 219.924 204.623 219.674 204.373C219.424 204.119 219.232 203.807 219.099 203.436C218.967 203.064 218.9 202.635 218.9 202.146C218.9 201.662 218.967 201.223 219.099 200.828C219.232 200.43 219.42 200.09 219.662 199.809C219.904 199.523 220.197 199.305 220.541 199.152C220.888 198.996 221.275 198.918 221.701 198.918C222.123 198.918 222.496 198.984 222.82 199.117C223.144 199.246 223.416 199.428 223.635 199.662C223.853 199.896 224.019 200.176 224.133 200.5C224.246 200.824 224.303 201.18 224.303 201.566ZM222.849 201.361C222.853 201.127 222.824 200.924 222.762 200.752C222.699 200.576 222.613 200.432 222.504 200.318C222.398 200.205 222.273 200.121 222.129 200.066C221.988 200.012 221.836 199.984 221.672 199.984C221.312 199.984 221.017 200.105 220.787 200.348C220.556 200.586 220.42 200.924 220.377 201.361H222.849ZM229.547 201.361C229.555 201.139 229.543 200.949 229.512 200.793C229.484 200.637 229.437 200.508 229.371 200.406C229.308 200.305 229.23 200.23 229.137 200.184C229.043 200.137 228.935 200.113 228.814 200.113C228.603 200.113 228.385 200.201 228.158 200.377C227.935 200.549 227.689 200.834 227.42 201.232V205H225.955V199.047H227.25L227.303 199.914C227.4 199.762 227.51 199.625 227.631 199.504C227.756 199.383 227.892 199.279 228.041 199.193C228.193 199.104 228.361 199.035 228.545 198.988C228.728 198.941 228.93 198.918 229.148 198.918C229.449 198.918 229.715 198.971 229.945 199.076C230.18 199.178 230.375 199.33 230.531 199.533C230.691 199.736 230.808 199.992 230.883 200.301C230.961 200.605 230.994 200.959 230.982 201.361H229.547ZM236.045 205L236.01 204.221C235.885 204.354 235.754 204.477 235.617 204.59C235.48 204.699 235.33 204.795 235.166 204.877C235.002 204.959 234.822 205.021 234.627 205.064C234.435 205.111 234.224 205.135 233.994 205.135C233.689 205.135 233.422 205.09 233.191 205C232.961 204.91 232.767 204.785 232.611 204.625C232.455 204.465 232.336 204.271 232.254 204.045C232.176 203.818 232.137 203.568 232.137 203.295C232.137 203.014 232.195 202.754 232.312 202.516C232.433 202.277 232.615 202.072 232.857 201.9C233.103 201.729 233.408 201.594 233.771 201.496C234.138 201.398 234.568 201.35 235.06 201.35H235.84V200.992C235.84 200.84 235.818 200.703 235.775 200.582C235.732 200.457 235.662 200.352 235.564 200.266C235.471 200.18 235.347 200.113 235.195 200.066C235.043 200.02 234.855 199.996 234.633 199.996C234.281 199.996 233.933 200.037 233.59 200.119C233.25 200.197 232.92 200.309 232.599 200.453V199.311C232.885 199.197 233.213 199.104 233.584 199.029C233.959 198.955 234.347 198.918 234.75 198.918C235.191 198.918 235.57 198.961 235.887 199.047C236.203 199.129 236.463 199.254 236.666 199.422C236.873 199.59 237.025 199.801 237.123 200.055C237.221 200.305 237.269 200.598 237.269 200.934V205H236.045ZM235.84 202.369H234.967C234.724 202.369 234.519 202.393 234.351 202.439C234.183 202.486 234.047 202.551 233.941 202.633C233.836 202.715 233.758 202.811 233.707 202.92C233.66 203.025 233.637 203.139 233.637 203.26C233.637 203.502 233.715 203.688 233.871 203.816C234.027 203.941 234.24 204.004 234.51 204.004C234.709 204.004 234.916 203.932 235.131 203.787C235.346 203.643 235.582 203.436 235.84 203.166V202.369ZM243.82 204.941C243.562 205 243.303 205.047 243.041 205.082C242.779 205.117 242.531 205.135 242.297 205.135C241.906 205.135 241.568 205.094 241.283 205.012C241.002 204.93 240.767 204.805 240.58 204.637C240.396 204.469 240.26 204.256 240.17 203.998C240.084 203.736 240.041 203.426 240.041 203.066V200.16H238.441V199.047H240.041V197.523L241.506 197.143V199.047H243.82V200.16H241.506V202.961C241.506 203.301 241.584 203.559 241.74 203.734C241.896 203.906 242.158 203.992 242.525 203.992C242.76 203.992 242.988 203.973 243.211 203.934C243.433 203.895 243.637 203.85 243.82 203.799V204.941ZM249.012 197.418C249.012 197.547 248.988 197.668 248.941 197.781C248.894 197.895 248.828 197.994 248.742 198.08C248.66 198.162 248.562 198.229 248.449 198.279C248.336 198.326 248.213 198.35 248.08 198.35C247.947 198.35 247.822 198.326 247.705 198.279C247.592 198.229 247.492 198.162 247.406 198.08C247.324 197.994 247.26 197.895 247.213 197.781C247.166 197.668 247.142 197.547 247.142 197.418C247.142 197.289 247.166 197.168 247.213 197.055C247.26 196.941 247.324 196.842 247.406 196.756C247.492 196.67 247.592 196.604 247.705 196.557C247.822 196.506 247.947 196.48 248.08 196.48C248.213 196.48 248.336 196.506 248.449 196.557C248.562 196.604 248.66 196.67 248.742 196.756C248.828 196.842 248.894 196.941 248.941 197.055C248.988 197.168 249.012 197.289 249.012 197.418ZM247.43 200.16H245.748V199.047H248.894V203.887H250.611V205H245.543V203.887H247.43V200.16ZM257.467 201.977C257.467 202.445 257.4 202.875 257.267 203.266C257.135 203.652 256.943 203.984 256.693 204.262C256.443 204.539 256.137 204.754 255.773 204.906C255.41 205.059 254.996 205.135 254.531 205.135C254.09 205.135 253.695 205.07 253.347 204.941C253 204.812 252.705 204.621 252.463 204.367C252.221 204.109 252.035 203.789 251.906 203.406C251.777 203.02 251.713 202.57 251.713 202.059C251.713 201.586 251.779 201.156 251.912 200.77C252.049 200.383 252.242 200.053 252.492 199.779C252.746 199.506 253.055 199.295 253.418 199.146C253.781 198.994 254.191 198.918 254.648 198.918C255.094 198.918 255.49 198.984 255.838 199.117C256.185 199.246 256.48 199.439 256.722 199.697C256.965 199.955 257.148 200.275 257.273 200.658C257.402 201.037 257.467 201.477 257.467 201.977ZM255.978 202.012C255.978 201.395 255.861 200.932 255.627 200.623C255.396 200.311 255.055 200.154 254.601 200.154C254.351 200.154 254.138 200.203 253.963 200.301C253.787 200.398 253.642 200.533 253.529 200.705C253.416 200.873 253.332 201.07 253.277 201.297C253.226 201.523 253.201 201.766 253.201 202.023C253.201 202.645 253.326 203.113 253.576 203.43C253.826 203.742 254.168 203.898 254.601 203.898C254.84 203.898 255.047 203.852 255.222 203.758C255.398 203.66 255.541 203.527 255.65 203.359C255.76 203.188 255.842 202.986 255.896 202.756C255.951 202.525 255.978 202.277 255.978 202.012ZM262.254 205V201.121C262.254 200.469 262.012 200.143 261.527 200.143C261.285 200.143 261.053 200.24 260.83 200.436C260.611 200.631 260.379 200.896 260.133 201.232V205H258.703V199.047H259.939L259.974 199.926C260.096 199.773 260.221 199.635 260.349 199.51C260.482 199.385 260.625 199.279 260.777 199.193C260.93 199.104 261.094 199.035 261.269 198.988C261.445 198.941 261.642 198.918 261.861 198.918C262.166 198.918 262.431 198.969 262.658 199.07C262.885 199.168 263.074 199.309 263.226 199.492C263.379 199.672 263.492 199.891 263.566 200.148C263.644 200.402 263.683 200.688 263.683 201.004V205H262.254ZM265.377 205V203.729H267.328V198.807L265.629 199.744L265.16 198.578L267.592 197.295H268.793V203.729H270.474V205H265.377ZM275.525 207.461C274.576 206.656 273.863 205.793 273.387 204.871C272.914 203.949 272.678 202.957 272.678 201.895C272.678 201.301 272.748 200.74 272.888 200.213C273.029 199.682 273.226 199.184 273.48 198.719C273.738 198.254 274.043 197.818 274.394 197.412C274.75 197.002 275.138 196.619 275.56 196.264L276.375 197.078C275.613 197.762 275.041 198.5 274.658 199.293C274.275 200.086 274.084 200.92 274.084 201.795C274.084 202.682 274.275 203.535 274.658 204.355C275.041 205.172 275.613 205.918 276.375 206.594L275.525 207.461ZM279.867 196.264C280.824 197.061 281.537 197.922 282.006 198.848C282.474 199.77 282.709 200.764 282.709 201.83C282.709 202.424 282.638 202.984 282.498 203.512C282.357 204.039 282.16 204.537 281.906 205.006C281.656 205.475 281.355 205.912 281.004 206.318C280.652 206.729 280.265 207.109 279.844 207.461L279.023 206.646C279.789 205.963 280.363 205.223 280.746 204.426C281.129 203.629 281.32 202.793 281.32 201.918C281.32 201.035 281.129 200.184 280.746 199.363C280.363 198.543 279.789 197.793 279.023 197.113L279.867 196.264ZM287.578 198.988C287.726 198.988 287.865 199.016 287.994 199.07C288.123 199.125 288.234 199.201 288.328 199.299C288.422 199.393 288.496 199.504 288.551 199.633C288.605 199.762 288.633 199.898 288.633 200.043C288.633 200.191 288.605 200.33 288.551 200.459C288.496 200.588 288.422 200.699 288.328 200.793C288.234 200.887 288.123 200.961 287.994 201.016C287.865 201.07 287.726 201.098 287.578 201.098C287.43 201.098 287.291 201.07 287.162 201.016C287.037 200.961 286.926 200.887 286.828 200.793C286.734 200.699 286.66 200.588 286.605 200.459C286.551 200.33 286.523 200.191 286.523 200.043C286.523 199.898 286.551 199.762 286.605 199.633C286.66 199.504 286.734 199.393 286.828 199.299C286.926 199.201 287.037 199.125 287.162 199.07C287.291 199.016 287.43 198.988 287.578 198.988ZM287.578 203.025C287.726 203.025 287.865 203.053 287.994 203.107C288.123 203.162 288.234 203.236 288.328 203.33C288.422 203.424 288.496 203.535 288.551 203.664C288.605 203.793 288.633 203.93 288.633 204.074C288.633 204.223 288.605 204.361 288.551 204.49C288.496 204.619 288.422 204.732 288.328 204.83C288.234 204.924 288.123 204.998 287.994 205.053C287.865 205.107 287.726 205.135 287.578 205.135C287.43 205.135 287.291 205.107 287.162 205.053C287.037 204.998 286.926 204.924 286.828 204.83C286.734 204.732 286.66 204.619 286.605 204.49C286.551 204.361 286.523 204.223 286.523 204.074C286.523 203.93 286.551 203.793 286.605 203.664C286.66 203.535 286.734 203.424 286.828 203.33C286.926 203.236 287.037 203.162 287.162 203.107C287.291 203.053 287.43 203.025 287.578 203.025ZM301.617 205H299.971L297.609 199.047H299.203L300.439 202.422L300.808 203.512L301.172 202.469L302.42 199.047H303.955L301.617 205ZM310.248 201.977C310.248 202.445 310.181 202.875 310.049 203.266C309.916 203.652 309.724 203.984 309.474 204.262C309.224 204.539 308.918 204.754 308.555 204.906C308.191 205.059 307.777 205.135 307.312 205.135C306.871 205.135 306.476 205.07 306.129 204.941C305.781 204.812 305.486 204.621 305.244 204.367C305.002 204.109 304.816 203.789 304.687 203.406C304.558 203.02 304.494 202.57 304.494 202.059C304.494 201.586 304.56 201.156 304.693 200.77C304.83 200.383 305.023 200.053 305.273 199.779C305.527 199.506 305.836 199.295 306.199 199.146C306.562 198.994 306.972 198.918 307.43 198.918C307.875 198.918 308.271 198.984 308.619 199.117C308.967 199.246 309.262 199.439 309.504 199.697C309.746 199.955 309.93 200.275 310.055 200.658C310.183 201.037 310.248 201.477 310.248 201.977ZM308.76 202.012C308.76 201.395 308.642 200.932 308.408 200.623C308.178 200.311 307.836 200.154 307.383 200.154C307.133 200.154 306.92 200.203 306.744 200.301C306.568 200.398 306.424 200.533 306.31 200.705C306.197 200.873 306.113 201.07 306.058 201.297C306.008 201.523 305.982 201.766 305.982 202.023C305.982 202.645 306.107 203.113 306.357 203.43C306.607 203.742 306.949 203.898 307.383 203.898C307.621 203.898 307.828 203.852 308.004 203.758C308.18 203.66 308.322 203.527 308.431 203.359C308.541 203.188 308.623 202.986 308.678 202.756C308.732 202.525 308.76 202.277 308.76 202.012ZM314.988 197.418C314.988 197.547 314.965 197.668 314.918 197.781C314.871 197.895 314.805 197.994 314.719 198.08C314.637 198.162 314.539 198.229 314.426 198.279C314.312 198.326 314.189 198.35 314.056 198.35C313.924 198.35 313.799 198.326 313.681 198.279C313.568 198.229 313.469 198.162 313.383 198.08C313.301 197.994 313.236 197.895 313.189 197.781C313.142 197.668 313.119 197.547 313.119 197.418C313.119 197.289 313.142 197.168 313.189 197.055C313.236 196.941 313.301 196.842 313.383 196.756C313.469 196.67 313.568 196.604 313.681 196.557C313.799 196.506 313.924 196.48 314.056 196.48C314.189 196.48 314.312 196.506 314.426 196.557C314.539 196.604 314.637 196.67 314.719 196.756C314.805 196.842 314.871 196.941 314.918 197.055C314.965 197.168 314.988 197.289 314.988 197.418ZM313.406 200.16H311.724V199.047H314.871V203.887H316.588V205H311.519V203.887H313.406V200.16ZM321.826 205L321.791 204.121C321.666 204.273 321.537 204.412 321.404 204.537C321.271 204.662 321.129 204.77 320.976 204.859C320.824 204.945 320.66 205.012 320.484 205.059C320.312 205.109 320.121 205.135 319.91 205.135C319.558 205.135 319.246 205.064 318.972 204.924C318.699 204.783 318.469 204.584 318.281 204.326C318.097 204.064 317.957 203.748 317.859 203.377C317.762 203.006 317.713 202.592 317.713 202.135C317.713 201.588 317.789 201.115 317.941 200.717C318.097 200.314 318.312 199.982 318.586 199.721C318.859 199.455 319.183 199.26 319.558 199.135C319.933 199.006 320.342 198.941 320.783 198.941C320.931 198.941 321.08 198.951 321.228 198.971C321.381 198.99 321.515 199.016 321.633 199.047V196.721H323.062V205H321.826ZM319.213 202.07C319.213 202.398 319.234 202.68 319.277 202.914C319.324 203.145 319.39 203.334 319.476 203.482C319.566 203.631 319.676 203.74 319.805 203.811C319.933 203.877 320.08 203.91 320.244 203.91C320.486 203.91 320.717 203.812 320.935 203.617C321.154 203.422 321.387 203.154 321.633 202.814V200.213C321.519 200.17 321.379 200.135 321.211 200.107C321.047 200.08 320.881 200.066 320.713 200.066C320.482 200.066 320.275 200.113 320.092 200.207C319.908 200.301 319.75 200.434 319.617 200.605C319.488 200.777 319.388 200.988 319.318 201.238C319.248 201.484 319.213 201.762 319.213 202.07ZM195.873 216.398V218.678H194.555V216.398H192.369V215.221H194.555V212.953H195.873V215.221H198.058V216.398H195.873ZM211.283 215.977C211.283 216.445 211.217 216.875 211.084 217.266C210.951 217.652 210.76 217.984 210.51 218.262C210.26 218.539 209.953 218.754 209.59 218.906C209.226 219.059 208.812 219.135 208.347 219.135C207.906 219.135 207.512 219.07 207.164 218.941C206.816 218.812 206.521 218.621 206.279 218.367C206.037 218.109 205.851 217.789 205.722 217.406C205.594 217.02 205.529 216.57 205.529 216.059C205.529 215.586 205.596 215.156 205.728 214.77C205.865 214.383 206.058 214.053 206.308 213.779C206.562 213.506 206.871 213.295 207.234 213.146C207.597 212.994 208.008 212.918 208.465 212.918C208.91 212.918 209.306 212.984 209.654 213.117C210.002 213.246 210.297 213.439 210.539 213.697C210.781 213.955 210.965 214.275 211.09 214.658C211.219 215.037 211.283 215.477 211.283 215.977ZM209.795 216.012C209.795 215.395 209.678 214.932 209.443 214.623C209.213 214.311 208.871 214.154 208.418 214.154C208.168 214.154 207.955 214.203 207.779 214.301C207.603 214.398 207.459 214.533 207.346 214.705C207.232 214.873 207.148 215.07 207.094 215.297C207.043 215.523 207.017 215.766 207.017 216.023C207.017 216.645 207.142 217.113 207.392 217.43C207.642 217.742 207.984 217.898 208.418 217.898C208.656 217.898 208.863 217.852 209.039 217.758C209.215 217.66 209.357 217.527 209.467 217.359C209.576 217.188 209.658 216.986 209.713 216.756C209.767 216.525 209.795 216.277 209.795 216.012ZM217.875 215.918C217.875 216.465 217.797 216.938 217.64 217.336C217.488 217.734 217.273 218.066 216.996 218.332C216.722 218.594 216.398 218.789 216.023 218.918C215.648 219.043 215.24 219.105 214.799 219.105C214.65 219.105 214.502 219.096 214.353 219.076C214.205 219.057 214.07 219.031 213.949 219V221.326H212.519V213.047H213.756L213.791 213.926C213.912 213.773 214.037 213.635 214.166 213.51C214.299 213.385 214.441 213.279 214.594 213.193C214.746 213.104 214.91 213.035 215.086 212.988C215.262 212.941 215.459 212.918 215.678 212.918C216.029 212.918 216.342 212.988 216.615 213.129C216.888 213.27 217.117 213.471 217.301 213.732C217.488 213.99 217.631 214.305 217.728 214.676C217.826 215.043 217.875 215.457 217.875 215.918ZM216.375 215.977C216.375 215.648 216.351 215.369 216.305 215.139C216.258 214.908 216.189 214.719 216.099 214.57C216.013 214.422 215.906 214.314 215.777 214.248C215.652 214.178 215.508 214.143 215.344 214.143C215.101 214.143 214.869 214.24 214.646 214.436C214.428 214.631 214.195 214.896 213.949 215.232V217.834C214.062 217.877 214.201 217.912 214.365 217.939C214.533 217.967 214.703 217.98 214.875 217.98C215.101 217.98 215.306 217.934 215.49 217.84C215.678 217.746 215.836 217.613 215.965 217.441C216.097 217.27 216.199 217.061 216.269 216.814C216.34 216.564 216.375 216.285 216.375 215.977ZM224.303 215.566C224.303 215.664 224.299 215.791 224.291 215.947C224.287 216.104 224.279 216.25 224.267 216.387H220.353C220.353 216.648 220.392 216.879 220.471 217.078C220.553 217.277 220.666 217.445 220.81 217.582C220.959 217.715 221.135 217.816 221.338 217.887C221.545 217.957 221.773 217.992 222.023 217.992C222.312 217.992 222.621 217.971 222.949 217.928C223.281 217.881 223.625 217.807 223.98 217.705V218.842C223.828 218.885 223.662 218.924 223.482 218.959C223.303 218.994 223.119 219.025 222.931 219.053C222.744 219.08 222.555 219.1 222.363 219.111C222.172 219.127 221.986 219.135 221.806 219.135C221.353 219.135 220.947 219.07 220.588 218.941C220.228 218.812 219.924 218.623 219.674 218.373C219.424 218.119 219.232 217.807 219.099 217.436C218.967 217.064 218.9 216.635 218.9 216.146C218.9 215.662 218.967 215.223 219.099 214.828C219.232 214.43 219.42 214.09 219.662 213.809C219.904 213.523 220.197 213.305 220.541 213.152C220.888 212.996 221.275 212.918 221.701 212.918C222.123 212.918 222.496 212.984 222.82 213.117C223.144 213.246 223.416 213.428 223.635 213.662C223.853 213.896 224.019 214.176 224.133 214.5C224.246 214.824 224.303 215.18 224.303 215.566ZM222.849 215.361C222.853 215.127 222.824 214.924 222.762 214.752C222.699 214.576 222.613 214.432 222.504 214.318C222.398 214.205 222.273 214.121 222.129 214.066C221.988 214.012 221.836 213.984 221.672 213.984C221.312 213.984 221.017 214.105 220.787 214.348C220.556 214.586 220.42 214.924 220.377 215.361H222.849ZM229.547 215.361C229.555 215.139 229.543 214.949 229.512 214.793C229.484 214.637 229.437 214.508 229.371 214.406C229.308 214.305 229.23 214.23 229.137 214.184C229.043 214.137 228.935 214.113 228.814 214.113C228.603 214.113 228.385 214.201 228.158 214.377C227.935 214.549 227.689 214.834 227.42 215.232V219H225.955V213.047H227.25L227.303 213.914C227.4 213.762 227.51 213.625 227.631 213.504C227.756 213.383 227.892 213.279 228.041 213.193C228.193 213.104 228.361 213.035 228.545 212.988C228.728 212.941 228.93 212.918 229.148 212.918C229.449 212.918 229.715 212.971 229.945 213.076C230.18 213.178 230.375 213.33 230.531 213.533C230.691 213.736 230.808 213.992 230.883 214.301C230.961 214.605 230.994 214.959 230.982 215.361H229.547ZM236.045 219L236.01 218.221C235.885 218.354 235.754 218.477 235.617 218.59C235.48 218.699 235.33 218.795 235.166 218.877C235.002 218.959 234.822 219.021 234.627 219.064C234.435 219.111 234.224 219.135 233.994 219.135C233.689 219.135 233.422 219.09 233.191 219C232.961 218.91 232.767 218.785 232.611 218.625C232.455 218.465 232.336 218.271 232.254 218.045C232.176 217.818 232.137 217.568 232.137 217.295C232.137 217.014 232.195 216.754 232.312 216.516C232.433 216.277 232.615 216.072 232.857 215.9C233.103 215.729 233.408 215.594 233.771 215.496C234.138 215.398 234.568 215.35 235.06 215.35H235.84V214.992C235.84 214.84 235.818 214.703 235.775 214.582C235.732 214.457 235.662 214.352 235.564 214.266C235.471 214.18 235.347 214.113 235.195 214.066C235.043 214.02 234.855 213.996 234.633 213.996C234.281 213.996 233.933 214.037 233.59 214.119C233.25 214.197 232.92 214.309 232.599 214.453V213.311C232.885 213.197 233.213 213.104 233.584 213.029C233.959 212.955 234.347 212.918 234.75 212.918C235.191 212.918 235.57 212.961 235.887 213.047C236.203 213.129 236.463 213.254 236.666 213.422C236.873 213.59 237.025 213.801 237.123 214.055C237.221 214.305 237.269 214.598 237.269 214.934V219H236.045ZM235.84 216.369H234.967C234.724 216.369 234.519 216.393 234.351 216.439C234.183 216.486 234.047 216.551 233.941 216.633C233.836 216.715 233.758 216.811 233.707 216.92C233.66 217.025 233.637 217.139 233.637 217.26C233.637 217.502 233.715 217.688 233.871 217.816C234.027 217.941 234.24 218.004 234.51 218.004C234.709 218.004 234.916 217.932 235.131 217.787C235.346 217.643 235.582 217.436 235.84 217.166V216.369ZM243.82 218.941C243.562 219 243.303 219.047 243.041 219.082C242.779 219.117 242.531 219.135 242.297 219.135C241.906 219.135 241.568 219.094 241.283 219.012C241.002 218.93 240.767 218.805 240.58 218.637C240.396 218.469 240.26 218.256 240.17 217.998C240.084 217.736 240.041 217.426 240.041 217.066V214.16H238.441V213.047H240.041V211.523L241.506 211.143V213.047H243.82V214.16H241.506V216.961C241.506 217.301 241.584 217.559 241.74 217.734C241.896 217.906 242.158 217.992 242.525 217.992C242.76 217.992 242.988 217.973 243.211 217.934C243.433 217.895 243.637 217.85 243.82 217.799V218.941ZM249.012 211.418C249.012 211.547 248.988 211.668 248.941 211.781C248.894 211.895 248.828 211.994 248.742 212.08C248.66 212.162 248.562 212.229 248.449 212.279C248.336 212.326 248.213 212.35 248.08 212.35C247.947 212.35 247.822 212.326 247.705 212.279C247.592 212.229 247.492 212.162 247.406 212.08C247.324 211.994 247.26 211.895 247.213 211.781C247.166 211.668 247.142 211.547 247.142 211.418C247.142 211.289 247.166 211.168 247.213 211.055C247.26 210.941 247.324 210.842 247.406 210.756C247.492 210.67 247.592 210.604 247.705 210.557C247.822 210.506 247.947 210.48 248.08 210.48C248.213 210.48 248.336 210.506 248.449 210.557C248.562 210.604 248.66 210.67 248.742 210.756C248.828 210.842 248.894 210.941 248.941 211.055C248.988 211.168 249.012 211.289 249.012 211.418ZM247.43 214.16H245.748V213.047H248.894V217.887H250.611V219H245.543V217.887H247.43V214.16ZM257.467 215.977C257.467 216.445 257.4 216.875 257.267 217.266C257.135 217.652 256.943 217.984 256.693 218.262C256.443 218.539 256.137 218.754 255.773 218.906C255.41 219.059 254.996 219.135 254.531 219.135C254.09 219.135 253.695 219.07 253.347 218.941C253 218.812 252.705 218.621 252.463 218.367C252.221 218.109 252.035 217.789 251.906 217.406C251.777 217.02 251.713 216.57 251.713 216.059C251.713 215.586 251.779 215.156 251.912 214.77C252.049 214.383 252.242 214.053 252.492 213.779C252.746 213.506 253.055 213.295 253.418 213.146C253.781 212.994 254.191 212.918 254.648 212.918C255.094 212.918 255.49 212.984 255.838 213.117C256.185 213.246 256.48 213.439 256.722 213.697C256.965 213.955 257.148 214.275 257.273 214.658C257.402 215.037 257.467 215.477 257.467 215.977ZM255.978 216.012C255.978 215.395 255.861 214.932 255.627 214.623C255.396 214.311 255.055 214.154 254.601 214.154C254.351 214.154 254.138 214.203 253.963 214.301C253.787 214.398 253.642 214.533 253.529 214.705C253.416 214.873 253.332 215.07 253.277 215.297C253.226 215.523 253.201 215.766 253.201 216.023C253.201 216.645 253.326 217.113 253.576 217.43C253.826 217.742 254.168 217.898 254.601 217.898C254.84 217.898 255.047 217.852 255.222 217.758C255.398 217.66 255.541 217.527 255.65 217.359C255.76 217.188 255.842 216.986 255.896 216.756C255.951 216.525 255.978 216.277 255.978 216.012ZM262.254 219V215.121C262.254 214.469 262.012 214.143 261.527 214.143C261.285 214.143 261.053 214.24 260.83 214.436C260.611 214.631 260.379 214.896 260.133 215.232V219H258.703V213.047H259.939L259.974 213.926C260.096 213.773 260.221 213.635 260.349 213.51C260.482 213.385 260.625 213.279 260.777 213.193C260.93 213.104 261.094 213.035 261.269 212.988C261.445 212.941 261.642 212.918 261.861 212.918C262.166 212.918 262.431 212.969 262.658 213.07C262.885 213.168 263.074 213.309 263.226 213.492C263.379 213.672 263.492 213.891 263.566 214.148C263.644 214.402 263.683 214.688 263.683 215.004V219H262.254ZM265.242 219V217.945L267.053 216.135C267.392 215.795 267.664 215.502 267.867 215.256C268.074 215.01 268.232 214.791 268.342 214.6C268.455 214.404 268.529 214.225 268.564 214.061C268.599 213.896 268.617 213.727 268.617 213.551C268.617 213.406 268.594 213.27 268.547 213.141C268.5 213.008 268.431 212.895 268.342 212.801C268.252 212.703 268.138 212.627 268.002 212.572C267.865 212.514 267.709 212.484 267.533 212.484C267.232 212.484 266.953 212.551 266.695 212.684C266.437 212.812 266.193 212.986 265.963 213.205L265.207 212.232C265.539 211.924 265.912 211.678 266.326 211.494C266.744 211.307 267.195 211.213 267.68 211.213C268.055 211.213 268.394 211.262 268.699 211.359C269.004 211.453 269.263 211.594 269.478 211.781C269.697 211.969 269.865 212.203 269.982 212.484C270.103 212.766 270.164 213.09 270.164 213.457C270.164 213.762 270.123 214.047 270.041 214.312C269.959 214.574 269.84 214.83 269.683 215.08C269.527 215.33 269.334 215.58 269.103 215.83C268.877 216.08 268.617 216.344 268.324 216.621L267.211 217.682H270.439V219H265.242ZM275.525 221.461C274.576 220.656 273.863 219.793 273.387 218.871C272.914 217.949 272.678 216.957 272.678 215.895C272.678 215.301 272.748 214.74 272.888 214.213C273.029 213.682 273.226 213.184 273.48 212.719C273.738 212.254 274.043 211.818 274.394 211.412C274.75 211.002 275.138 210.619 275.56 210.264L276.375 211.078C275.613 211.762 275.041 212.5 274.658 213.293C274.275 214.086 274.084 214.92 274.084 215.795C274.084 216.682 274.275 217.535 274.658 218.355C275.041 219.172 275.613 219.918 276.375 220.594L275.525 221.461ZM279.867 210.264C280.824 211.061 281.537 211.922 282.006 212.848C282.474 213.77 282.709 214.764 282.709 215.83C282.709 216.424 282.638 216.984 282.498 217.512C282.357 218.039 282.16 218.537 281.906 219.006C281.656 219.475 281.355 219.912 281.004 220.318C280.652 220.729 280.265 221.109 279.844 221.461L279.023 220.646C279.789 219.963 280.363 219.223 280.746 218.426C281.129 217.629 281.32 216.793 281.32 215.918C281.32 215.035 281.129 214.184 280.746 213.363C280.363 212.543 279.789 211.793 279.023 211.113L279.867 210.264ZM287.578 212.988C287.726 212.988 287.865 213.016 287.994 213.07C288.123 213.125 288.234 213.201 288.328 213.299C288.422 213.393 288.496 213.504 288.551 213.633C288.605 213.762 288.633 213.898 288.633 214.043C288.633 214.191 288.605 214.33 288.551 214.459C288.496 214.588 288.422 214.699 288.328 214.793C288.234 214.887 288.123 214.961 287.994 215.016C287.865 215.07 287.726 215.098 287.578 215.098C287.43 215.098 287.291 215.07 287.162 215.016C287.037 214.961 286.926 214.887 286.828 214.793C286.734 214.699 286.66 214.588 286.605 214.459C286.551 214.33 286.523 214.191 286.523 214.043C286.523 213.898 286.551 213.762 286.605 213.633C286.66 213.504 286.734 213.393 286.828 213.299C286.926 213.201 287.037 213.125 287.162 213.07C287.291 213.016 287.43 212.988 287.578 212.988ZM287.578 217.025C287.726 217.025 287.865 217.053 287.994 217.107C288.123 217.162 288.234 217.236 288.328 217.33C288.422 217.424 288.496 217.535 288.551 217.664C288.605 217.793 288.633 217.93 288.633 218.074C288.633 218.223 288.605 218.361 288.551 218.49C288.496 218.619 288.422 218.732 288.328 218.83C288.234 218.924 288.123 218.998 287.994 219.053C287.865 219.107 287.726 219.135 287.578 219.135C287.43 219.135 287.291 219.107 287.162 219.053C287.037 218.998 286.926 218.924 286.828 218.83C286.734 218.732 286.66 218.619 286.605 218.49C286.551 218.361 286.523 218.223 286.523 218.074C286.523 217.93 286.551 217.793 286.605 217.664C286.66 217.535 286.734 217.424 286.828 217.33C286.926 217.236 287.037 217.162 287.162 217.107C287.291 217.053 287.43 217.025 287.578 217.025ZM301.617 219H299.971L297.609 213.047H299.203L300.439 216.422L300.808 217.512L301.172 216.469L302.42 213.047H303.955L301.617 219ZM310.248 215.977C310.248 216.445 310.181 216.875 310.049 217.266C309.916 217.652 309.724 217.984 309.474 218.262C309.224 218.539 308.918 218.754 308.555 218.906C308.191 219.059 307.777 219.135 307.312 219.135C306.871 219.135 306.476 219.07 306.129 218.941C305.781 218.812 305.486 218.621 305.244 218.367C305.002 218.109 304.816 217.789 304.687 217.406C304.558 217.02 304.494 216.57 304.494 216.059C304.494 215.586 304.56 215.156 304.693 214.77C304.83 214.383 305.023 214.053 305.273 213.779C305.527 213.506 305.836 213.295 306.199 213.146C306.562 212.994 306.972 212.918 307.43 212.918C307.875 212.918 308.271 212.984 308.619 213.117C308.967 213.246 309.262 213.439 309.504 213.697C309.746 213.955 309.93 214.275 310.055 214.658C310.183 215.037 310.248 215.477 310.248 215.977ZM308.76 216.012C308.76 215.395 308.642 214.932 308.408 214.623C308.178 214.311 307.836 214.154 307.383 214.154C307.133 214.154 306.92 214.203 306.744 214.301C306.568 214.398 306.424 214.533 306.31 214.705C306.197 214.873 306.113 215.07 306.058 215.297C306.008 215.523 305.982 215.766 305.982 216.023C305.982 216.645 306.107 217.113 306.357 217.43C306.607 217.742 306.949 217.898 307.383 217.898C307.621 217.898 307.828 217.852 308.004 217.758C308.18 217.66 308.322 217.527 308.431 217.359C308.541 217.188 308.623 216.986 308.678 216.756C308.732 216.525 308.76 216.277 308.76 216.012ZM314.988 211.418C314.988 211.547 314.965 211.668 314.918 211.781C314.871 211.895 314.805 211.994 314.719 212.08C314.637 212.162 314.539 212.229 314.426 212.279C314.312 212.326 314.189 212.35 314.056 212.35C313.924 212.35 313.799 212.326 313.681 212.279C313.568 212.229 313.469 212.162 313.383 212.08C313.301 211.994 313.236 211.895 313.189 211.781C313.142 211.668 313.119 211.547 313.119 211.418C313.119 211.289 313.142 211.168 313.189 211.055C313.236 210.941 313.301 210.842 313.383 210.756C313.469 210.67 313.568 210.604 313.681 210.557C313.799 210.506 313.924 210.48 314.056 210.48C314.189 210.48 314.312 210.506 314.426 210.557C314.539 210.604 314.637 210.67 314.719 210.756C314.805 210.842 314.871 210.941 314.918 211.055C314.965 211.168 314.988 211.289 314.988 211.418ZM313.406 214.16H311.724V213.047H314.871V217.887H316.588V219H311.519V217.887H313.406V214.16ZM321.826 219L321.791 218.121C321.666 218.273 321.537 218.412 321.404 218.537C321.271 218.662 321.129 218.77 320.976 218.859C320.824 218.945 320.66 219.012 320.484 219.059C320.312 219.109 320.121 219.135 319.91 219.135C319.558 219.135 319.246 219.064 318.972 218.924C318.699 218.783 318.469 218.584 318.281 218.326C318.097 218.064 317.957 217.748 317.859 217.377C317.762 217.006 317.713 216.592 317.713 216.135C317.713 215.588 317.789 215.115 317.941 214.717C318.097 214.314 318.312 213.982 318.586 213.721C318.859 213.455 319.183 213.26 319.558 213.135C319.933 213.006 320.342 212.941 320.783 212.941C320.931 212.941 321.08 212.951 321.228 212.971C321.381 212.99 321.515 213.016 321.633 213.047V210.721H323.062V219H321.826ZM319.213 216.07C319.213 216.398 319.234 216.68 319.277 216.914C319.324 217.145 319.39 217.334 319.476 217.482C319.566 217.631 319.676 217.74 319.805 217.811C319.933 217.877 320.08 217.91 320.244 217.91C320.486 217.91 320.717 217.812 320.935 217.617C321.154 217.422 321.387 217.154 321.633 216.814V214.213C321.519 214.17 321.379 214.135 321.211 214.107C321.047 214.08 320.881 214.066 320.713 214.066C320.482 214.066 320.275 214.113 320.092 214.207C319.908 214.301 319.75 214.434 319.617 214.605C319.488 214.777 319.388 214.988 319.318 215.238C319.248 215.484 319.213 215.762 319.213 216.07ZM195.873 230.398V232.678H194.555V230.398H192.369V229.221H194.555V226.953H195.873V229.221H198.058V230.398H195.873ZM211.283 229.977C211.283 230.445 211.217 230.875 211.084 231.266C210.951 231.652 210.76 231.984 210.51 232.262C210.26 232.539 209.953 232.754 209.59 232.906C209.226 233.059 208.812 233.135 208.347 233.135C207.906 233.135 207.512 233.07 207.164 232.941C206.816 232.812 206.521 232.621 206.279 232.367C206.037 232.109 205.851 231.789 205.722 231.406C205.594 231.02 205.529 230.57 205.529 230.059C205.529 229.586 205.596 229.156 205.728 228.77C205.865 228.383 206.058 228.053 206.308 227.779C206.562 227.506 206.871 227.295 207.234 227.146C207.597 226.994 208.008 226.918 208.465 226.918C208.91 226.918 209.306 226.984 209.654 227.117C210.002 227.246 210.297 227.439 210.539 227.697C210.781 227.955 210.965 228.275 211.09 228.658C211.219 229.037 211.283 229.477 211.283 229.977ZM209.795 230.012C209.795 229.395 209.678 228.932 209.443 228.623C209.213 228.311 208.871 228.154 208.418 228.154C208.168 228.154 207.955 228.203 207.779 228.301C207.603 228.398 207.459 228.533 207.346 228.705C207.232 228.873 207.148 229.07 207.094 229.297C207.043 229.523 207.017 229.766 207.017 230.023C207.017 230.645 207.142 231.113 207.392 231.43C207.642 231.742 207.984 231.898 208.418 231.898C208.656 231.898 208.863 231.852 209.039 231.758C209.215 231.66 209.357 231.527 209.467 231.359C209.576 231.188 209.658 230.986 209.713 230.756C209.767 230.525 209.795 230.277 209.795 230.012ZM217.875 229.918C217.875 230.465 217.797 230.938 217.64 231.336C217.488 231.734 217.273 232.066 216.996 232.332C216.722 232.594 216.398 232.789 216.023 232.918C215.648 233.043 215.24 233.105 214.799 233.105C214.65 233.105 214.502 233.096 214.353 233.076C214.205 233.057 214.07 233.031 213.949 233V235.326H212.519V227.047H213.756L213.791 227.926C213.912 227.773 214.037 227.635 214.166 227.51C214.299 227.385 214.441 227.279 214.594 227.193C214.746 227.104 214.91 227.035 215.086 226.988C215.262 226.941 215.459 226.918 215.678 226.918C216.029 226.918 216.342 226.988 216.615 227.129C216.888 227.27 217.117 227.471 217.301 227.732C217.488 227.99 217.631 228.305 217.728 228.676C217.826 229.043 217.875 229.457 217.875 229.918ZM216.375 229.977C216.375 229.648 216.351 229.369 216.305 229.139C216.258 228.908 216.189 228.719 216.099 228.57C216.013 228.422 215.906 228.314 215.777 228.248C215.652 228.178 215.508 228.143 215.344 228.143C215.101 228.143 214.869 228.24 214.646 228.436C214.428 228.631 214.195 228.896 213.949 229.232V231.834C214.062 231.877 214.201 231.912 214.365 231.939C214.533 231.967 214.703 231.98 214.875 231.98C215.101 231.98 215.306 231.934 215.49 231.84C215.678 231.746 215.836 231.613 215.965 231.441C216.097 231.27 216.199 231.061 216.269 230.814C216.34 230.564 216.375 230.285 216.375 229.977ZM224.303 229.566C224.303 229.664 224.299 229.791 224.291 229.947C224.287 230.104 224.279 230.25 224.267 230.387H220.353C220.353 230.648 220.392 230.879 220.471 231.078C220.553 231.277 220.666 231.445 220.81 231.582C220.959 231.715 221.135 231.816 221.338 231.887C221.545 231.957 221.773 231.992 222.023 231.992C222.312 231.992 222.621 231.971 222.949 231.928C223.281 231.881 223.625 231.807 223.98 231.705V232.842C223.828 232.885 223.662 232.924 223.482 232.959C223.303 232.994 223.119 233.025 222.931 233.053C222.744 233.08 222.555 233.1 222.363 233.111C222.172 233.127 221.986 233.135 221.806 233.135C221.353 233.135 220.947 233.07 220.588 232.941C220.228 232.812 219.924 232.623 219.674 232.373C219.424 232.119 219.232 231.807 219.099 231.436C218.967 231.064 218.9 230.635 218.9 230.146C218.9 229.662 218.967 229.223 219.099 228.828C219.232 228.43 219.42 228.09 219.662 227.809C219.904 227.523 220.197 227.305 220.541 227.152C220.888 226.996 221.275 226.918 221.701 226.918C222.123 226.918 222.496 226.984 222.82 227.117C223.144 227.246 223.416 227.428 223.635 227.662C223.853 227.896 224.019 228.176 224.133 228.5C224.246 228.824 224.303 229.18 224.303 229.566ZM222.849 229.361C222.853 229.127 222.824 228.924 222.762 228.752C222.699 228.576 222.613 228.432 222.504 228.318C222.398 228.205 222.273 228.121 222.129 228.066C221.988 228.012 221.836 227.984 221.672 227.984C221.312 227.984 221.017 228.105 220.787 228.348C220.556 228.586 220.42 228.924 220.377 229.361H222.849ZM229.547 229.361C229.555 229.139 229.543 228.949 229.512 228.793C229.484 228.637 229.437 228.508 229.371 228.406C229.308 228.305 229.23 228.23 229.137 228.184C229.043 228.137 228.935 228.113 228.814 228.113C228.603 228.113 228.385 228.201 228.158 228.377C227.935 228.549 227.689 228.834 227.42 229.232V233H225.955V227.047H227.25L227.303 227.914C227.4 227.762 227.51 227.625 227.631 227.504C227.756 227.383 227.892 227.279 228.041 227.193C228.193 227.104 228.361 227.035 228.545 226.988C228.728 226.941 228.93 226.918 229.148 226.918C229.449 226.918 229.715 226.971 229.945 227.076C230.18 227.178 230.375 227.33 230.531 227.533C230.691 227.736 230.808 227.992 230.883 228.301C230.961 228.605 230.994 228.959 230.982 229.361H229.547ZM236.045 233L236.01 232.221C235.885 232.354 235.754 232.477 235.617 232.59C235.48 232.699 235.33 232.795 235.166 232.877C235.002 232.959 234.822 233.021 234.627 233.064C234.435 233.111 234.224 233.135 233.994 233.135C233.689 233.135 233.422 233.09 233.191 233C232.961 232.91 232.767 232.785 232.611 232.625C232.455 232.465 232.336 232.271 232.254 232.045C232.176 231.818 232.137 231.568 232.137 231.295C232.137 231.014 232.195 230.754 232.312 230.516C232.433 230.277 232.615 230.072 232.857 229.9C233.103 229.729 233.408 229.594 233.771 229.496C234.138 229.398 234.568 229.35 235.06 229.35H235.84V228.992C235.84 228.84 235.818 228.703 235.775 228.582C235.732 228.457 235.662 228.352 235.564 228.266C235.471 228.18 235.347 228.113 235.195 228.066C235.043 228.02 234.855 227.996 234.633 227.996C234.281 227.996 233.933 228.037 233.59 228.119C233.25 228.197 232.92 228.309 232.599 228.453V227.311C232.885 227.197 233.213 227.104 233.584 227.029C233.959 226.955 234.347 226.918 234.75 226.918C235.191 226.918 235.57 226.961 235.887 227.047C236.203 227.129 236.463 227.254 236.666 227.422C236.873 227.59 237.025 227.801 237.123 228.055C237.221 228.305 237.269 228.598 237.269 228.934V233H236.045ZM235.84 230.369H234.967C234.724 230.369 234.519 230.393 234.351 230.439C234.183 230.486 234.047 230.551 233.941 230.633C233.836 230.715 233.758 230.811 233.707 230.92C233.66 231.025 233.637 231.139 233.637 231.26C233.637 231.502 233.715 231.688 233.871 231.816C234.027 231.941 234.24 232.004 234.51 232.004C234.709 232.004 234.916 231.932 235.131 231.787C235.346 231.643 235.582 231.436 235.84 231.166V230.369ZM243.82 232.941C243.562 233 243.303 233.047 243.041 233.082C242.779 233.117 242.531 233.135 242.297 233.135C241.906 233.135 241.568 233.094 241.283 233.012C241.002 232.93 240.767 232.805 240.58 232.637C240.396 232.469 240.26 232.256 240.17 231.998C240.084 231.736 240.041 231.426 240.041 231.066V228.16H238.441V227.047H240.041V225.523L241.506 225.143V227.047H243.82V228.16H241.506V230.961C241.506 231.301 241.584 231.559 241.74 231.734C241.896 231.906 242.158 231.992 242.525 231.992C242.76 231.992 242.988 231.973 243.211 231.934C243.433 231.895 243.637 231.85 243.82 231.799V232.941ZM249.012 225.418C249.012 225.547 248.988 225.668 248.941 225.781C248.894 225.895 248.828 225.994 248.742 226.08C248.66 226.162 248.562 226.229 248.449 226.279C248.336 226.326 248.213 226.35 248.08 226.35C247.947 226.35 247.822 226.326 247.705 226.279C247.592 226.229 247.492 226.162 247.406 226.08C247.324 225.994 247.26 225.895 247.213 225.781C247.166 225.668 247.142 225.547 247.142 225.418C247.142 225.289 247.166 225.168 247.213 225.055C247.26 224.941 247.324 224.842 247.406 224.756C247.492 224.67 247.592 224.604 247.705 224.557C247.822 224.506 247.947 224.48 248.08 224.48C248.213 224.48 248.336 224.506 248.449 224.557C248.562 224.604 248.66 224.67 248.742 224.756C248.828 224.842 248.894 224.941 248.941 225.055C248.988 225.168 249.012 225.289 249.012 225.418ZM247.43 228.16H245.748V227.047H248.894V231.887H250.611V233H245.543V231.887H247.43V228.16ZM257.467 229.977C257.467 230.445 257.4 230.875 257.267 231.266C257.135 231.652 256.943 231.984 256.693 232.262C256.443 232.539 256.137 232.754 255.773 232.906C255.41 233.059 254.996 233.135 254.531 233.135C254.09 233.135 253.695 233.07 253.347 232.941C253 232.812 252.705 232.621 252.463 232.367C252.221 232.109 252.035 231.789 251.906 231.406C251.777 231.02 251.713 230.57 251.713 230.059C251.713 229.586 251.779 229.156 251.912 228.77C252.049 228.383 252.242 228.053 252.492 227.779C252.746 227.506 253.055 227.295 253.418 227.146C253.781 226.994 254.191 226.918 254.648 226.918C255.094 226.918 255.49 226.984 255.838 227.117C256.185 227.246 256.48 227.439 256.722 227.697C256.965 227.955 257.148 228.275 257.273 228.658C257.402 229.037 257.467 229.477 257.467 229.977ZM255.978 230.012C255.978 229.395 255.861 228.932 255.627 228.623C255.396 228.311 255.055 228.154 254.601 228.154C254.351 228.154 254.138 228.203 253.963 228.301C253.787 228.398 253.642 228.533 253.529 228.705C253.416 228.873 253.332 229.07 253.277 229.297C253.226 229.523 253.201 229.766 253.201 230.023C253.201 230.645 253.326 231.113 253.576 231.43C253.826 231.742 254.168 231.898 254.601 231.898C254.84 231.898 255.047 231.852 255.222 231.758C255.398 231.66 255.541 231.527 255.65 231.359C255.76 231.188 255.842 230.986 255.896 230.756C255.951 230.525 255.978 230.277 255.978 230.012ZM262.254 233V229.121C262.254 228.469 262.012 228.143 261.527 228.143C261.285 228.143 261.053 228.24 260.83 228.436C260.611 228.631 260.379 228.896 260.133 229.232V233H258.703V227.047H259.939L259.974 227.926C260.096 227.773 260.221 227.635 260.349 227.51C260.482 227.385 260.625 227.279 260.777 227.193C260.93 227.104 261.094 227.035 261.269 226.988C261.445 226.941 261.642 226.918 261.861 226.918C262.166 226.918 262.431 226.969 262.658 227.07C262.885 227.168 263.074 227.309 263.226 227.492C263.379 227.672 263.492 227.891 263.566 228.148C263.644 228.402 263.683 228.688 263.683 229.004V233H262.254ZM270.463 230.662C270.463 231.041 270.392 231.383 270.252 231.688C270.111 231.988 269.894 232.246 269.601 232.461C269.312 232.672 268.947 232.834 268.506 232.947C268.064 233.061 267.545 233.117 266.947 233.117C266.814 233.117 266.674 233.113 266.525 233.105C266.381 233.102 266.236 233.094 266.092 233.082C265.947 233.074 265.806 233.062 265.67 233.047C265.533 233.035 265.41 233.02 265.301 233V231.758C265.547 231.805 265.822 231.844 266.127 231.875C266.435 231.902 266.756 231.916 267.088 231.916C267.412 231.916 267.691 231.889 267.926 231.834C268.16 231.779 268.353 231.701 268.506 231.6C268.658 231.494 268.769 231.365 268.84 231.213C268.914 231.061 268.951 230.889 268.951 230.697C268.951 230.529 268.914 230.377 268.84 230.24C268.765 230.104 268.652 229.988 268.5 229.895C268.347 229.797 268.152 229.723 267.914 229.672C267.68 229.617 267.4 229.59 267.076 229.59H266.226V228.5H267.006C267.31 228.5 267.562 228.471 267.762 228.412C267.965 228.35 268.125 228.268 268.242 228.166C268.363 228.064 268.449 227.945 268.5 227.809C268.551 227.668 268.576 227.521 268.576 227.369C268.576 227.057 268.474 226.82 268.271 226.66C268.068 226.496 267.754 226.414 267.328 226.414C267.023 226.414 266.722 226.443 266.426 226.502C266.129 226.561 265.822 226.639 265.506 226.736V225.535C265.681 225.477 265.849 225.428 266.01 225.389C266.17 225.35 266.33 225.316 266.49 225.289C266.65 225.262 266.812 225.242 266.976 225.23C267.14 225.219 267.31 225.213 267.486 225.213C267.908 225.213 268.277 225.258 268.594 225.348C268.914 225.438 269.181 225.566 269.396 225.734C269.615 225.898 269.779 226.1 269.888 226.338C269.998 226.576 270.053 226.842 270.053 227.135C270.053 227.6 269.945 227.977 269.73 228.266C269.519 228.551 269.222 228.77 268.84 228.922C269.086 228.961 269.308 229.029 269.508 229.127C269.707 229.221 269.877 229.344 270.017 229.496C270.162 229.645 270.271 229.816 270.346 230.012C270.424 230.207 270.463 230.424 270.463 230.662ZM275.525 235.461C274.576 234.656 273.863 233.793 273.387 232.871C272.914 231.949 272.678 230.957 272.678 229.895C272.678 229.301 272.748 228.74 272.888 228.213C273.029 227.682 273.226 227.184 273.48 226.719C273.738 226.254 274.043 225.818 274.394 225.412C274.75 225.002 275.138 224.619 275.56 224.264L276.375 225.078C275.613 225.762 275.041 226.5 274.658 227.293C274.275 228.086 274.084 228.92 274.084 229.795C274.084 230.682 274.275 231.535 274.658 232.355C275.041 233.172 275.613 233.918 276.375 234.594L275.525 235.461ZM279.867 224.264C280.824 225.061 281.537 225.922 282.006 226.848C282.474 227.77 282.709 228.764 282.709 229.83C282.709 230.424 282.638 230.984 282.498 231.512C282.357 232.039 282.16 232.537 281.906 233.006C281.656 233.475 281.355 233.912 281.004 234.318C280.652 234.729 280.265 235.109 279.844 235.461L279.023 234.646C279.789 233.963 280.363 233.223 280.746 232.426C281.129 231.629 281.32 230.793 281.32 229.918C281.32 229.035 281.129 228.184 280.746 227.363C280.363 226.543 279.789 225.793 279.023 225.113L279.867 224.264ZM287.578 226.988C287.726 226.988 287.865 227.016 287.994 227.07C288.123 227.125 288.234 227.201 288.328 227.299C288.422 227.393 288.496 227.504 288.551 227.633C288.605 227.762 288.633 227.898 288.633 228.043C288.633 228.191 288.605 228.33 288.551 228.459C288.496 228.588 288.422 228.699 288.328 228.793C288.234 228.887 288.123 228.961 287.994 229.016C287.865 229.07 287.726 229.098 287.578 229.098C287.43 229.098 287.291 229.07 287.162 229.016C287.037 228.961 286.926 228.887 286.828 228.793C286.734 228.699 286.66 228.588 286.605 228.459C286.551 228.33 286.523 228.191 286.523 228.043C286.523 227.898 286.551 227.762 286.605 227.633C286.66 227.504 286.734 227.393 286.828 227.299C286.926 227.201 287.037 227.125 287.162 227.07C287.291 227.016 287.43 226.988 287.578 226.988ZM287.578 231.025C287.726 231.025 287.865 231.053 287.994 231.107C288.123 231.162 288.234 231.236 288.328 231.33C288.422 231.424 288.496 231.535 288.551 231.664C288.605 231.793 288.633 231.93 288.633 232.074C288.633 232.223 288.605 232.361 288.551 232.49C288.496 232.619 288.422 232.732 288.328 232.83C288.234 232.924 288.123 232.998 287.994 233.053C287.865 233.107 287.726 233.135 287.578 233.135C287.43 233.135 287.291 233.107 287.162 233.053C287.037 232.998 286.926 232.924 286.828 232.83C286.734 232.732 286.66 232.619 286.605 232.49C286.551 232.361 286.523 232.223 286.523 232.074C286.523 231.93 286.551 231.793 286.605 231.664C286.66 231.535 286.734 231.424 286.828 231.33C286.926 231.236 287.037 231.162 287.162 231.107C287.291 231.053 287.43 231.025 287.578 231.025ZM301.617 233H299.971L297.609 227.047H299.203L300.439 230.422L300.808 231.512L301.172 230.469L302.42 227.047H303.955L301.617 233ZM310.248 229.977C310.248 230.445 310.181 230.875 310.049 231.266C309.916 231.652 309.724 231.984 309.474 232.262C309.224 232.539 308.918 232.754 308.555 232.906C308.191 233.059 307.777 233.135 307.312 233.135C306.871 233.135 306.476 233.07 306.129 232.941C305.781 232.812 305.486 232.621 305.244 232.367C305.002 232.109 304.816 231.789 304.687 231.406C304.558 231.02 304.494 230.57 304.494 230.059C304.494 229.586 304.56 229.156 304.693 228.77C304.83 228.383 305.023 228.053 305.273 227.779C305.527 227.506 305.836 227.295 306.199 227.146C306.562 226.994 306.972 226.918 307.43 226.918C307.875 226.918 308.271 226.984 308.619 227.117C308.967 227.246 309.262 227.439 309.504 227.697C309.746 227.955 309.93 228.275 310.055 228.658C310.183 229.037 310.248 229.477 310.248 229.977ZM308.76 230.012C308.76 229.395 308.642 228.932 308.408 228.623C308.178 228.311 307.836 228.154 307.383 228.154C307.133 228.154 306.92 228.203 306.744 228.301C306.568 228.398 306.424 228.533 306.31 228.705C306.197 228.873 306.113 229.07 306.058 229.297C306.008 229.523 305.982 229.766 305.982 230.023C305.982 230.645 306.107 231.113 306.357 231.43C306.607 231.742 306.949 231.898 307.383 231.898C307.621 231.898 307.828 231.852 308.004 231.758C308.18 231.66 308.322 231.527 308.431 231.359C308.541 231.188 308.623 230.986 308.678 230.756C308.732 230.525 308.76 230.277 308.76 230.012ZM314.988 225.418C314.988 225.547 314.965 225.668 314.918 225.781C314.871 225.895 314.805 225.994 314.719 226.08C314.637 226.162 314.539 226.229 314.426 226.279C314.312 226.326 314.189 226.35 314.056 226.35C313.924 226.35 313.799 226.326 313.681 226.279C313.568 226.229 313.469 226.162 313.383 226.08C313.301 225.994 313.236 225.895 313.189 225.781C313.142 225.668 313.119 225.547 313.119 225.418C313.119 225.289 313.142 225.168 313.189 225.055C313.236 224.941 313.301 224.842 313.383 224.756C313.469 224.67 313.568 224.604 313.681 224.557C313.799 224.506 313.924 224.48 314.056 224.48C314.189 224.48 314.312 224.506 314.426 224.557C314.539 224.604 314.637 224.67 314.719 224.756C314.805 224.842 314.871 224.941 314.918 225.055C314.965 225.168 314.988 225.289 314.988 225.418ZM313.406 228.16H311.724V227.047H314.871V231.887H316.588V233H311.519V231.887H313.406V228.16ZM321.826 233L321.791 232.121C321.666 232.273 321.537 232.412 321.404 232.537C321.271 232.662 321.129 232.77 320.976 232.859C320.824 232.945 320.66 233.012 320.484 233.059C320.312 233.109 320.121 233.135 319.91 233.135C319.558 233.135 319.246 233.064 318.972 232.924C318.699 232.783 318.469 232.584 318.281 232.326C318.097 232.064 317.957 231.748 317.859 231.377C317.762 231.006 317.713 230.592 317.713 230.135C317.713 229.588 317.789 229.115 317.941 228.717C318.097 228.314 318.312 227.982 318.586 227.721C318.859 227.455 319.183 227.26 319.558 227.135C319.933 227.006 320.342 226.941 320.783 226.941C320.931 226.941 321.08 226.951 321.228 226.971C321.381 226.99 321.515 227.016 321.633 227.047V224.721H323.062V233H321.826ZM319.213 230.07C319.213 230.398 319.234 230.68 319.277 230.914C319.324 231.145 319.39 231.334 319.476 231.482C319.566 231.631 319.676 231.74 319.805 231.811C319.933 231.877 320.08 231.91 320.244 231.91C320.486 231.91 320.717 231.812 320.935 231.617C321.154 231.422 321.387 231.154 321.633 230.814V228.213C321.519 228.17 321.379 228.135 321.211 228.107C321.047 228.08 320.881 228.066 320.713 228.066C320.482 228.066 320.275 228.113 320.092 228.207C319.908 228.301 319.75 228.434 319.617 228.605C319.488 228.777 319.388 228.988 319.318 229.238C319.248 229.484 319.213 229.762 319.213 230.07Z" fill="black"/>
<line x1="79.5" y1="196" x2="79.5" y2="56" stroke="black" stroke-width="3"/>
<line x1="439.5" y1="196" x2="439.5" y2="56" stroke="black" stroke-width="3"/>
</svg>
