<svg width="116" height="124" viewBox="0 0 116 124" fill="none" xmlns="http://www.w3.org/2000/svg">
<path d="M1.99219 108.859V107.289H8.44531V108.859H6.19531V115.914H8.44531V117.5H1.99219V115.914H4.24219V108.859H1.99219ZM11.0547 117.5V107.289H17.2031V108.914H13.0078V111.453H17.0078V113.039H13.0078V115.875H17.2031V117.5H11.0547ZM25.1016 117.5V112.094C25.1016 111.896 25.0964 111.724 25.0859 111.578C25.0755 111.427 25.0547 111.302 25.0234 111.203C24.9922 111.104 24.9453 111.031 24.8828 110.984C24.8255 110.932 24.7448 110.906 24.6406 110.906C24.4792 110.906 24.3203 111.016 24.1641 111.234C24.0078 111.453 23.8307 111.826 23.6328 112.352V117.5H22V112.094C22 111.896 21.9948 111.724 21.9844 111.578C21.974 111.427 21.9531 111.302 21.9219 111.203C21.8906 111.104 21.8438 111.031 21.7812 110.984C21.7188 110.932 21.6354 110.906 21.5312 110.906C21.3958 110.906 21.2448 111.016 21.0781 111.234C20.9115 111.453 20.7266 111.826 20.5234 112.352V117.5H18.875V109.562H20.2891L20.3203 110.719C20.4349 110.484 20.5495 110.284 20.6641 110.117C20.7786 109.951 20.901 109.815 21.0312 109.711C21.1615 109.602 21.2995 109.523 21.4453 109.477C21.5964 109.43 21.7656 109.406 21.9531 109.406C22.3958 109.406 22.7318 109.523 22.9609 109.758C23.1953 109.987 23.3281 110.307 23.3594 110.719C23.4844 110.484 23.6068 110.284 23.7266 110.117C23.8516 109.951 23.9792 109.815 24.1094 109.711C24.2448 109.602 24.388 109.523 24.5391 109.477C24.6953 109.43 24.8672 109.406 25.0547 109.406C25.6328 109.406 26.0599 109.609 26.3359 110.016C26.612 110.417 26.75 111.013 26.75 111.805V117.5H25.1016ZM33.2734 117.5L33.2266 116.461C33.0599 116.638 32.8854 116.802 32.7031 116.953C32.5208 117.099 32.3203 117.227 32.1016 117.336C31.8828 117.445 31.6432 117.529 31.3828 117.586C31.1276 117.648 30.8464 117.68 30.5391 117.68C30.1328 117.68 29.776 117.62 29.4688 117.5C29.1615 117.38 28.9036 117.214 28.6953 117C28.487 116.786 28.3281 116.529 28.2188 116.227C28.1146 115.924 28.0625 115.591 28.0625 115.227C28.0625 114.852 28.1406 114.505 28.2969 114.188C28.4583 113.87 28.7005 113.596 29.0234 113.367C29.3516 113.138 29.7578 112.958 30.2422 112.828C30.7318 112.698 31.3047 112.633 31.9609 112.633H33V112.156C33 111.953 32.9714 111.771 32.9141 111.609C32.8568 111.443 32.763 111.302 32.6328 111.188C32.5078 111.073 32.3438 110.984 32.1406 110.922C31.9375 110.859 31.6875 110.828 31.3906 110.828C30.9219 110.828 30.4583 110.883 30 110.992C29.5469 111.096 29.1068 111.245 28.6797 111.438V109.914C29.0599 109.763 29.4974 109.638 29.9922 109.539C30.4922 109.44 31.0104 109.391 31.5469 109.391C32.1354 109.391 32.6406 109.448 33.0625 109.562C33.4844 109.672 33.8307 109.839 34.1016 110.062C34.3776 110.286 34.5807 110.568 34.7109 110.906C34.8411 111.24 34.9062 111.63 34.9062 112.078V117.5H33.2734ZM33 113.992H31.8359C31.513 113.992 31.2396 114.023 31.0156 114.086C30.7917 114.148 30.6094 114.234 30.4688 114.344C30.3281 114.453 30.224 114.581 30.1562 114.727C30.0938 114.867 30.0625 115.018 30.0625 115.18C30.0625 115.503 30.1667 115.75 30.375 115.922C30.5833 116.089 30.8672 116.172 31.2266 116.172C31.4922 116.172 31.7682 116.076 32.0547 115.883C32.3411 115.69 32.6562 115.414 33 115.055V113.992ZM41.7656 107.391C41.7656 107.562 41.7344 107.724 41.6719 107.875C41.6094 108.026 41.5208 108.159 41.4062 108.273C41.2969 108.383 41.1667 108.471 41.0156 108.539C40.8646 108.602 40.7005 108.633 40.5234 108.633C40.3464 108.633 40.1797 108.602 40.0234 108.539C39.8724 108.471 39.7396 108.383 39.625 108.273C39.5156 108.159 39.4297 108.026 39.3672 107.875C39.3047 107.724 39.2734 107.562 39.2734 107.391C39.2734 107.219 39.3047 107.057 39.3672 106.906C39.4297 106.755 39.5156 106.622 39.625 106.508C39.7396 106.393 39.8724 106.305 40.0234 106.242C40.1797 106.174 40.3464 106.141 40.5234 106.141C40.7005 106.141 40.8646 106.174 41.0156 106.242C41.1667 106.305 41.2969 106.393 41.4062 106.508C41.5208 106.622 41.6094 106.755 41.6719 106.906C41.7344 107.057 41.7656 107.219 41.7656 107.391ZM39.6562 111.047H37.4141V109.562H41.6094V116.016H43.8984V117.5H37.1406V116.016H39.6562V111.047ZM48.4531 107.945H46.2109V106.461H50.4062V116.016H52.6953V117.5H45.9375V116.016H48.4531V107.945ZM61.5703 114.414C61.5703 114.971 61.4661 115.456 61.2578 115.867C61.0547 116.279 60.7682 116.62 60.3984 116.891C60.0286 117.156 59.5885 117.354 59.0781 117.484C58.5677 117.615 58.0104 117.68 57.4062 117.68C56.8698 117.68 56.3516 117.648 55.8516 117.586C55.3516 117.523 54.8568 117.419 54.3672 117.273V115.375C54.6068 115.458 54.8568 115.536 55.1172 115.609C55.3776 115.682 55.638 115.747 55.8984 115.805C56.1641 115.857 56.4271 115.898 56.6875 115.93C56.9479 115.961 57.2005 115.977 57.4453 115.977C57.8099 115.977 58.1198 115.945 58.375 115.883C58.6302 115.82 58.8385 115.734 59 115.625C59.1615 115.516 59.2786 115.385 59.3516 115.234C59.4245 115.083 59.4609 114.917 59.4609 114.734C59.4609 114.484 59.388 114.276 59.2422 114.109C59.1016 113.938 58.9141 113.786 58.6797 113.656C58.4453 113.526 58.1771 113.409 57.875 113.305C57.5781 113.201 57.2734 113.089 56.9609 112.969C56.6536 112.849 56.349 112.714 56.0469 112.562C55.75 112.411 55.4844 112.224 55.25 112C55.0156 111.776 54.8255 111.51 54.6797 111.203C54.5391 110.891 54.4688 110.516 54.4688 110.078C54.4688 109.677 54.5417 109.297 54.6875 108.938C54.8333 108.578 55.0625 108.266 55.375 108C55.6875 107.729 56.0885 107.516 56.5781 107.359C57.0677 107.198 57.6589 107.117 58.3516 107.117C58.5547 107.117 58.7656 107.128 58.9844 107.148C59.2083 107.164 59.4271 107.188 59.6406 107.219C59.8594 107.245 60.0677 107.279 60.2656 107.32C60.4688 107.357 60.6536 107.396 60.8203 107.438V109.195C60.6536 109.133 60.4714 109.076 60.2734 109.023C60.0755 108.971 59.8698 108.927 59.6562 108.891C59.4479 108.849 59.237 108.818 59.0234 108.797C58.8099 108.776 58.6068 108.766 58.4141 108.766C58.0755 108.766 57.7891 108.794 57.5547 108.852C57.3203 108.904 57.1276 108.979 56.9766 109.078C56.8255 109.172 56.7161 109.289 56.6484 109.43C56.5807 109.57 56.5469 109.727 56.5469 109.898C56.5469 110.112 56.6172 110.297 56.7578 110.453C56.9036 110.604 57.0938 110.742 57.3281 110.867C57.5677 110.987 57.8359 111.102 58.1328 111.211C58.4349 111.315 58.7422 111.43 59.0547 111.555C59.3724 111.674 59.6797 111.812 59.9766 111.969C60.2786 112.125 60.5469 112.315 60.7812 112.539C61.0208 112.763 61.2109 113.029 61.3516 113.336C61.4974 113.638 61.5703 113.997 61.5703 114.414ZM70.3984 112.922C70.3984 113.052 70.3932 113.221 70.3828 113.43C70.3776 113.638 70.3672 113.833 70.3516 114.016H65.1328C65.1328 114.365 65.1849 114.672 65.2891 114.938C65.3984 115.203 65.5495 115.427 65.7422 115.609C65.9401 115.786 66.1745 115.922 66.4453 116.016C66.7214 116.109 67.026 116.156 67.3594 116.156C67.7448 116.156 68.1562 116.128 68.5938 116.07C69.0365 116.008 69.4948 115.909 69.9688 115.773V117.289C69.7656 117.346 69.5443 117.398 69.3047 117.445C69.0651 117.492 68.8203 117.534 68.5703 117.57C68.3203 117.607 68.0677 117.633 67.8125 117.648C67.5573 117.669 67.3099 117.68 67.0703 117.68C66.4661 117.68 65.9245 117.594 65.4453 117.422C64.9661 117.25 64.5599 116.997 64.2266 116.664C63.8932 116.326 63.638 115.909 63.4609 115.414C63.2839 114.919 63.1953 114.346 63.1953 113.695C63.1953 113.049 63.2839 112.464 63.4609 111.938C63.638 111.406 63.888 110.953 64.2109 110.578C64.5339 110.198 64.9245 109.906 65.3828 109.703C65.8464 109.495 66.362 109.391 66.9297 109.391C67.4922 109.391 67.9896 109.479 68.4219 109.656C68.8542 109.828 69.2161 110.07 69.5078 110.383C69.7995 110.695 70.0208 111.068 70.1719 111.5C70.3229 111.932 70.3984 112.406 70.3984 112.922ZM68.4609 112.648C68.4661 112.336 68.4271 112.065 68.3438 111.836C68.2604 111.602 68.1458 111.409 68 111.258C67.8594 111.107 67.6927 110.995 67.5 110.922C67.3125 110.849 67.1094 110.812 66.8906 110.812C66.4115 110.812 66.0182 110.974 65.7109 111.297C65.4036 111.615 65.2214 112.065 65.1641 112.648H68.4609ZM77.3906 112.648C77.401 112.352 77.3854 112.099 77.3438 111.891C77.3073 111.682 77.2448 111.51 77.1562 111.375C77.0729 111.24 76.9688 111.141 76.8438 111.078C76.7188 111.016 76.5755 110.984 76.4141 110.984C76.1328 110.984 75.8411 111.102 75.5391 111.336C75.2422 111.565 74.9141 111.945 74.5547 112.477V117.5H72.6016V109.562H74.3281L74.3984 110.719C74.5286 110.516 74.6745 110.333 74.8359 110.172C75.0026 110.01 75.1849 109.872 75.3828 109.758C75.5859 109.638 75.8099 109.547 76.0547 109.484C76.2995 109.422 76.5677 109.391 76.8594 109.391C77.2604 109.391 77.6146 109.461 77.9219 109.602C78.2344 109.737 78.4948 109.94 78.7031 110.211C78.9167 110.482 79.0729 110.823 79.1719 111.234C79.276 111.641 79.3203 112.112 79.3047 112.648H77.3906ZM85.5156 117.5H83.3203L80.1719 109.562H82.2969L83.9453 114.062L84.4375 115.516L84.9219 114.125L86.5859 109.562H88.6328L85.5156 117.5ZM94.5469 107.391C94.5469 107.562 94.5156 107.724 94.4531 107.875C94.3906 108.026 94.3021 108.159 94.1875 108.273C94.0781 108.383 93.9479 108.471 93.7969 108.539C93.6458 108.602 93.4818 108.633 93.3047 108.633C93.1276 108.633 92.9609 108.602 92.8047 108.539C92.6536 108.471 92.5208 108.383 92.4062 108.273C92.2969 108.159 92.2109 108.026 92.1484 107.875C92.0859 107.724 92.0547 107.562 92.0547 107.391C92.0547 107.219 92.0859 107.057 92.1484 106.906C92.2109 106.755 92.2969 106.622 92.4062 106.508C92.5208 106.393 92.6536 106.305 92.8047 106.242C92.9609 106.174 93.1276 106.141 93.3047 106.141C93.4818 106.141 93.6458 106.174 93.7969 106.242C93.9479 106.305 94.0781 106.393 94.1875 106.508C94.3021 106.622 94.3906 106.755 94.4531 106.906C94.5156 107.057 94.5469 107.219 94.5469 107.391ZM92.4375 111.047H90.1953V109.562H94.3906V116.016H96.6797V117.5H89.9219V116.016H92.4375V111.047ZM105.094 117.195C104.719 117.346 104.331 117.458 103.93 117.531C103.529 117.604 103.109 117.641 102.672 117.641C102.042 117.641 101.477 117.555 100.977 117.383C100.477 117.211 100.052 116.956 99.7031 116.617C99.3542 116.279 99.0859 115.859 98.8984 115.359C98.7161 114.859 98.625 114.281 98.625 113.625C98.625 112.99 98.724 112.414 98.9219 111.898C99.125 111.383 99.4089 110.943 99.7734 110.578C100.138 110.214 100.576 109.932 101.086 109.734C101.602 109.536 102.174 109.438 102.805 109.438C103.32 109.438 103.753 109.466 104.102 109.523C104.456 109.576 104.773 109.643 105.055 109.727V111.578C104.732 111.417 104.38 111.292 104 111.203C103.625 111.115 103.268 111.07 102.93 111.07C102.576 111.07 102.258 111.13 101.977 111.25C101.695 111.37 101.458 111.536 101.266 111.75C101.073 111.964 100.924 112.224 100.82 112.531C100.721 112.833 100.672 113.167 100.672 113.531C100.672 113.911 100.727 114.253 100.836 114.555C100.945 114.857 101.099 115.115 101.297 115.328C101.5 115.536 101.742 115.698 102.023 115.812C102.305 115.922 102.617 115.977 102.961 115.977C103.128 115.977 103.302 115.966 103.484 115.945C103.672 115.919 103.857 115.885 104.039 115.844C104.227 115.797 104.409 115.745 104.586 115.688C104.768 115.63 104.938 115.568 105.094 115.5V117.195ZM114.383 112.922C114.383 113.052 114.378 113.221 114.367 113.43C114.362 113.638 114.352 113.833 114.336 114.016H109.117C109.117 114.365 109.169 114.672 109.273 114.938C109.383 115.203 109.534 115.427 109.727 115.609C109.924 115.786 110.159 115.922 110.43 116.016C110.706 116.109 111.01 116.156 111.344 116.156C111.729 116.156 112.141 116.128 112.578 116.07C113.021 116.008 113.479 115.909 113.953 115.773V117.289C113.75 117.346 113.529 117.398 113.289 117.445C113.049 117.492 112.805 117.534 112.555 117.57C112.305 117.607 112.052 117.633 111.797 117.648C111.542 117.669 111.294 117.68 111.055 117.68C110.451 117.68 109.909 117.594 109.43 117.422C108.951 117.25 108.544 116.997 108.211 116.664C107.878 116.326 107.622 115.909 107.445 115.414C107.268 114.919 107.18 114.346 107.18 113.695C107.18 113.049 107.268 112.464 107.445 111.938C107.622 111.406 107.872 110.953 108.195 110.578C108.518 110.198 108.909 109.906 109.367 109.703C109.831 109.495 110.346 109.391 110.914 109.391C111.477 109.391 111.974 109.479 112.406 109.656C112.839 109.828 113.201 110.07 113.492 110.383C113.784 110.695 114.005 111.068 114.156 111.5C114.307 111.932 114.383 112.406 114.383 112.922ZM112.445 112.648C112.451 112.336 112.411 112.065 112.328 111.836C112.245 111.602 112.13 111.409 111.984 111.258C111.844 111.107 111.677 110.995 111.484 110.922C111.297 110.849 111.094 110.812 110.875 110.812C110.396 110.812 110.003 110.974 109.695 111.297C109.388 111.615 109.206 112.065 109.148 112.648H112.445Z" fill="black"/>
<path d="M86 70L86 18L101 18L101 87L13 87L13 18L28 18L28 70L28 72L30 72L45 72L47 72L47 70L47 18L67 18L67 70L67 72L69 72L84 72L86 72L86 70Z" fill="#FFFD54" stroke="black" stroke-width="4"/>
<path d="M86 19.7808L86 74L66.5 74L66.5 19.7808L66.5 17.7808L64.5 17.7808L48 17.7808L46 17.7808L46 19.7808L46 74L26.5 74L26.5 19.7808L26.5 17.7808L24.5 17.7808L13 17.7808L13 2L101 2L101 17.7808L88 17.7808L86 17.7808L86 19.7808Z" fill="#7DE77B" stroke="black" stroke-width="4"/>
</svg>
