<svg width="286" height="312" viewBox="0 0 286 312" fill="none" xmlns="http://www.w3.org/2000/svg">
<path d="M107.883 45L107.695 39.2266L107.625 36.9219L107.133 38.4844L106 41.9609H104.797L103.773 38.4844L103.344 36.9219L103.289 39.1797L103.117 45H101.484L101.984 34.7891H104.156L105.055 37.6875L105.484 39.3203L105.914 37.7812L106.859 34.7891H109.07L109.578 45H107.883ZM115.992 45L115.945 43.9609C115.779 44.138 115.604 44.3021 115.422 44.4531C115.24 44.599 115.039 44.7266 114.82 44.8359C114.602 44.9453 114.362 45.0286 114.102 45.0859C113.846 45.1484 113.565 45.1797 113.258 45.1797C112.852 45.1797 112.495 45.1198 112.188 45C111.88 44.8802 111.622 44.7135 111.414 44.5C111.206 44.2865 111.047 44.0286 110.938 43.7266C110.833 43.4245 110.781 43.0911 110.781 42.7266C110.781 42.3516 110.859 42.0052 111.016 41.6875C111.177 41.3698 111.419 41.0964 111.742 40.8672C112.07 40.638 112.477 40.4583 112.961 40.3281C113.451 40.1979 114.023 40.1328 114.68 40.1328H115.719V39.6562C115.719 39.4531 115.69 39.2708 115.633 39.1094C115.576 38.9427 115.482 38.8021 115.352 38.6875C115.227 38.5729 115.062 38.4844 114.859 38.4219C114.656 38.3594 114.406 38.3281 114.109 38.3281C113.641 38.3281 113.177 38.3828 112.719 38.4922C112.266 38.5964 111.826 38.7448 111.398 38.9375V37.4141C111.779 37.263 112.216 37.138 112.711 37.0391C113.211 36.9401 113.729 36.8906 114.266 36.8906C114.854 36.8906 115.359 36.9479 115.781 37.0625C116.203 37.1719 116.549 37.3385 116.82 37.5625C117.096 37.7865 117.299 38.0677 117.43 38.4062C117.56 38.7396 117.625 39.1302 117.625 39.5781V45H115.992ZM115.719 41.4922H114.555C114.232 41.4922 113.958 41.5234 113.734 41.5859C113.51 41.6484 113.328 41.7344 113.188 41.8438C113.047 41.9531 112.943 42.0807 112.875 42.2266C112.812 42.3672 112.781 42.5182 112.781 42.6797C112.781 43.0026 112.885 43.25 113.094 43.4219C113.302 43.5885 113.586 43.6719 113.945 43.6719C114.211 43.6719 114.487 43.5755 114.773 43.3828C115.06 43.1901 115.375 42.9141 115.719 42.5547V41.4922ZM124.484 34.8906C124.484 35.0625 124.453 35.224 124.391 35.375C124.328 35.526 124.24 35.6589 124.125 35.7734C124.016 35.8828 123.885 35.9714 123.734 36.0391C123.583 36.1016 123.419 36.1328 123.242 36.1328C123.065 36.1328 122.898 36.1016 122.742 36.0391C122.591 35.9714 122.458 35.8828 122.344 35.7734C122.234 35.6589 122.148 35.526 122.086 35.375C122.023 35.224 121.992 35.0625 121.992 34.8906C121.992 34.7188 122.023 34.5573 122.086 34.4062C122.148 34.2552 122.234 34.1224 122.344 34.0078C122.458 33.8932 122.591 33.8047 122.742 33.7422C122.898 33.6745 123.065 33.6406 123.242 33.6406C123.419 33.6406 123.583 33.6745 123.734 33.7422C123.885 33.8047 124.016 33.8932 124.125 34.0078C124.24 34.1224 124.328 34.2552 124.391 34.4062C124.453 34.5573 124.484 34.7188 124.484 34.8906ZM122.375 38.5469H120.133V37.0625H124.328V43.5156H126.617V45H119.859V43.5156H122.375V38.5469ZM131.172 35.4453H128.93V33.9609H133.125V43.5156H135.414V45H128.656V43.5156H131.172V35.4453ZM144.164 44.6016C143.711 44.7839 143.271 44.9193 142.844 45.0078C142.422 45.0964 141.982 45.1406 141.523 45.1406C140.789 45.1406 140.138 45.0339 139.57 44.8203C139.008 44.6016 138.531 44.2786 138.141 43.8516C137.755 43.4245 137.461 42.8958 137.258 42.2656C137.06 41.6302 136.961 40.8932 136.961 40.0547C136.961 39.1953 137.07 38.4323 137.289 37.7656C137.508 37.0938 137.82 36.5286 138.227 36.0703C138.633 35.6068 139.125 35.2552 139.703 35.0156C140.286 34.7708 140.94 34.6484 141.664 34.6484C141.898 34.6484 142.117 34.6536 142.32 34.6641C142.529 34.6745 142.732 34.6953 142.93 34.7266C143.128 34.7526 143.328 34.7891 143.531 34.8359C143.734 34.8828 143.945 34.9427 144.164 35.0156V36.9219C143.721 36.7135 143.299 36.5651 142.898 36.4766C142.497 36.388 142.133 36.3438 141.805 36.3438C141.32 36.3438 140.906 36.4323 140.562 36.6094C140.219 36.7812 139.935 37.026 139.711 37.3438C139.492 37.6562 139.331 38.0312 139.227 38.4688C139.122 38.901 139.07 39.3776 139.07 39.8984C139.07 40.4505 139.122 40.9453 139.227 41.3828C139.336 41.8151 139.503 42.1823 139.727 42.4844C139.951 42.7865 140.237 43.0182 140.586 43.1797C140.935 43.3359 141.349 43.4141 141.828 43.4141C142 43.4141 142.185 43.3984 142.383 43.3672C142.586 43.3307 142.789 43.2865 142.992 43.2344C143.201 43.1771 143.404 43.112 143.602 43.0391C143.805 42.9609 143.992 42.8828 144.164 42.8047V44.6016ZM150.938 45V39.8281C150.938 38.9583 150.615 38.5234 149.969 38.5234C149.646 38.5234 149.336 38.6536 149.039 38.9141C148.747 39.1745 148.438 39.5286 148.109 39.9766V45H146.203V33.9609H148.109V36.6797L148.016 38.1172C148.177 37.9245 148.341 37.7526 148.508 37.6016C148.674 37.4453 148.854 37.3151 149.047 37.2109C149.24 37.1068 149.448 37.0286 149.672 36.9766C149.896 36.9193 150.143 36.8906 150.414 36.8906C150.82 36.8906 151.174 36.9583 151.477 37.0938C151.779 37.224 152.031 37.4115 152.234 37.6562C152.438 37.8958 152.589 38.1875 152.688 38.5312C152.792 38.8698 152.844 39.25 152.844 39.6719V45H150.938ZM159.672 34.8906C159.672 35.0625 159.641 35.224 159.578 35.375C159.516 35.526 159.427 35.6589 159.312 35.7734C159.203 35.8828 159.073 35.9714 158.922 36.0391C158.771 36.1016 158.607 36.1328 158.43 36.1328C158.253 36.1328 158.086 36.1016 157.93 36.0391C157.779 35.9714 157.646 35.8828 157.531 35.7734C157.422 35.6589 157.336 35.526 157.273 35.375C157.211 35.224 157.18 35.0625 157.18 34.8906C157.18 34.7188 157.211 34.5573 157.273 34.4062C157.336 34.2552 157.422 34.1224 157.531 34.0078C157.646 33.8932 157.779 33.8047 157.93 33.7422C158.086 33.6745 158.253 33.6406 158.43 33.6406C158.607 33.6406 158.771 33.6745 158.922 33.7422C159.073 33.8047 159.203 33.8932 159.312 34.0078C159.427 34.1224 159.516 34.2552 159.578 34.4062C159.641 34.5573 159.672 34.7188 159.672 34.8906ZM157.562 38.5469H155.32V37.0625H159.516V43.5156H161.805V45H155.047V43.5156H157.562V38.5469ZM169.398 45V39.5938C169.398 39.3958 169.393 39.224 169.383 39.0781C169.372 38.9271 169.352 38.8021 169.32 38.7031C169.289 38.6042 169.242 38.5312 169.18 38.4844C169.122 38.4323 169.042 38.4062 168.938 38.4062C168.776 38.4062 168.617 38.5156 168.461 38.7344C168.305 38.9531 168.128 39.3255 167.93 39.8516V45H166.297V39.5938C166.297 39.3958 166.292 39.224 166.281 39.0781C166.271 38.9271 166.25 38.8021 166.219 38.7031C166.188 38.6042 166.141 38.5312 166.078 38.4844C166.016 38.4323 165.932 38.4062 165.828 38.4062C165.693 38.4062 165.542 38.5156 165.375 38.7344C165.208 38.9531 165.023 39.3255 164.82 39.8516V45H163.172V37.0625H164.586L164.617 38.2188C164.732 37.9844 164.846 37.7839 164.961 37.6172C165.076 37.4505 165.198 37.3151 165.328 37.2109C165.458 37.1016 165.596 37.0234 165.742 36.9766C165.893 36.9297 166.062 36.9062 166.25 36.9062C166.693 36.9062 167.029 37.0234 167.258 37.2578C167.492 37.487 167.625 37.8073 167.656 38.2188C167.781 37.9844 167.904 37.7839 168.023 37.6172C168.148 37.4505 168.276 37.3151 168.406 37.2109C168.542 37.1016 168.685 37.0234 168.836 36.9766C168.992 36.9297 169.164 36.9062 169.352 36.9062C169.93 36.9062 170.357 37.1094 170.633 37.5156C170.909 37.9167 171.047 38.513 171.047 39.3047V45H169.398ZM179.734 40.8906C179.734 41.6198 179.63 42.25 179.422 42.7812C179.219 43.3125 178.932 43.7552 178.562 44.1094C178.198 44.4583 177.766 44.7188 177.266 44.8906C176.766 45.0573 176.221 45.1406 175.633 45.1406C175.435 45.1406 175.237 45.1276 175.039 45.1016C174.841 45.0755 174.661 45.0417 174.5 45V48.1016H172.594V37.0625H174.242L174.289 38.2344C174.451 38.0312 174.617 37.8464 174.789 37.6797C174.966 37.513 175.156 37.3724 175.359 37.2578C175.562 37.138 175.781 37.0469 176.016 36.9844C176.25 36.9219 176.513 36.8906 176.805 36.8906C177.273 36.8906 177.69 36.9844 178.055 37.1719C178.419 37.3594 178.724 37.6276 178.969 37.9766C179.219 38.3203 179.409 38.7396 179.539 39.2344C179.669 39.724 179.734 40.276 179.734 40.8906ZM177.734 40.9688C177.734 40.5312 177.703 40.1589 177.641 39.8516C177.578 39.5443 177.487 39.2917 177.367 39.0938C177.253 38.8958 177.109 38.7526 176.938 38.6641C176.771 38.5703 176.578 38.5234 176.359 38.5234C176.036 38.5234 175.727 38.6536 175.43 38.9141C175.138 39.1745 174.828 39.5286 174.5 39.9766V43.4453C174.651 43.5026 174.836 43.5495 175.055 43.5859C175.279 43.6224 175.505 43.6406 175.734 43.6406C176.036 43.6406 176.31 43.5781 176.555 43.4531C176.805 43.3281 177.016 43.151 177.188 42.9219C177.365 42.6927 177.5 42.4141 177.594 42.0859C177.688 41.7526 177.734 41.3802 177.734 40.9688ZM181.742 45V34.7891H187.891V36.4141H183.695V38.9531H187.695V40.5391H183.695V43.375H187.891V45H181.742ZM195.789 45V39.5938C195.789 39.3958 195.784 39.224 195.773 39.0781C195.763 38.9271 195.742 38.8021 195.711 38.7031C195.68 38.6042 195.633 38.5312 195.57 38.4844C195.513 38.4323 195.432 38.4062 195.328 38.4062C195.167 38.4062 195.008 38.5156 194.852 38.7344C194.695 38.9531 194.518 39.3255 194.32 39.8516V45H192.688V39.5938C192.688 39.3958 192.682 39.224 192.672 39.0781C192.661 38.9271 192.641 38.8021 192.609 38.7031C192.578 38.6042 192.531 38.5312 192.469 38.4844C192.406 38.4323 192.323 38.4062 192.219 38.4062C192.083 38.4062 191.932 38.5156 191.766 38.7344C191.599 38.9531 191.414 39.3255 191.211 39.8516V45H189.562V37.0625H190.977L191.008 38.2188C191.122 37.9844 191.237 37.7839 191.352 37.6172C191.466 37.4505 191.589 37.3151 191.719 37.2109C191.849 37.1016 191.987 37.0234 192.133 36.9766C192.284 36.9297 192.453 36.9062 192.641 36.9062C193.083 36.9062 193.419 37.0234 193.648 37.2578C193.883 37.487 194.016 37.8073 194.047 38.2188C194.172 37.9844 194.294 37.7839 194.414 37.6172C194.539 37.4505 194.667 37.3151 194.797 37.2109C194.932 37.1016 195.076 37.0234 195.227 36.9766C195.383 36.9297 195.555 36.9062 195.742 36.9062C196.32 36.9062 196.747 37.1094 197.023 37.5156C197.299 37.9167 197.438 38.513 197.438 39.3047V45H195.789ZM203.961 45L203.914 43.9609C203.747 44.138 203.573 44.3021 203.391 44.4531C203.208 44.599 203.008 44.7266 202.789 44.8359C202.57 44.9453 202.331 45.0286 202.07 45.0859C201.815 45.1484 201.534 45.1797 201.227 45.1797C200.82 45.1797 200.464 45.1198 200.156 45C199.849 44.8802 199.591 44.7135 199.383 44.5C199.174 44.2865 199.016 44.0286 198.906 43.7266C198.802 43.4245 198.75 43.0911 198.75 42.7266C198.75 42.3516 198.828 42.0052 198.984 41.6875C199.146 41.3698 199.388 41.0964 199.711 40.8672C200.039 40.638 200.445 40.4583 200.93 40.3281C201.419 40.1979 201.992 40.1328 202.648 40.1328H203.688V39.6562C203.688 39.4531 203.659 39.2708 203.602 39.1094C203.544 38.9427 203.451 38.8021 203.32 38.6875C203.195 38.5729 203.031 38.4844 202.828 38.4219C202.625 38.3594 202.375 38.3281 202.078 38.3281C201.609 38.3281 201.146 38.3828 200.688 38.4922C200.234 38.5964 199.794 38.7448 199.367 38.9375V37.4141C199.747 37.263 200.185 37.138 200.68 37.0391C201.18 36.9401 201.698 36.8906 202.234 36.8906C202.823 36.8906 203.328 36.9479 203.75 37.0625C204.172 37.1719 204.518 37.3385 204.789 37.5625C205.065 37.7865 205.268 38.0677 205.398 38.4062C205.529 38.7396 205.594 39.1302 205.594 39.5781V45H203.961ZM203.688 41.4922H202.523C202.201 41.4922 201.927 41.5234 201.703 41.5859C201.479 41.6484 201.297 41.7344 201.156 41.8438C201.016 41.9531 200.911 42.0807 200.844 42.2266C200.781 42.3672 200.75 42.5182 200.75 42.6797C200.75 43.0026 200.854 43.25 201.062 43.4219C201.271 43.5885 201.555 43.6719 201.914 43.6719C202.18 43.6719 202.456 43.5755 202.742 43.3828C203.029 43.1901 203.344 42.9141 203.688 42.5547V41.4922ZM212.453 34.8906C212.453 35.0625 212.422 35.224 212.359 35.375C212.297 35.526 212.208 35.6589 212.094 35.7734C211.984 35.8828 211.854 35.9714 211.703 36.0391C211.552 36.1016 211.388 36.1328 211.211 36.1328C211.034 36.1328 210.867 36.1016 210.711 36.0391C210.56 35.9714 210.427 35.8828 210.312 35.7734C210.203 35.6589 210.117 35.526 210.055 35.375C209.992 35.224 209.961 35.0625 209.961 34.8906C209.961 34.7188 209.992 34.5573 210.055 34.4062C210.117 34.2552 210.203 34.1224 210.312 34.0078C210.427 33.8932 210.56 33.8047 210.711 33.7422C210.867 33.6745 211.034 33.6406 211.211 33.6406C211.388 33.6406 211.552 33.6745 211.703 33.7422C211.854 33.8047 211.984 33.8932 212.094 34.0078C212.208 34.1224 212.297 34.2552 212.359 34.4062C212.422 34.5573 212.453 34.7188 212.453 34.8906ZM210.344 38.5469H208.102V37.0625H212.297V43.5156H214.586V45H207.828V43.5156H210.344V38.5469ZM219.141 35.4453H216.898V33.9609H221.094V43.5156H223.383V45H216.625V43.5156H219.141V35.4453ZM232.258 41.9141C232.258 42.4714 232.154 42.9557 231.945 43.3672C231.742 43.7786 231.456 44.1198 231.086 44.3906C230.716 44.6562 230.276 44.8542 229.766 44.9844C229.255 45.1146 228.698 45.1797 228.094 45.1797C227.557 45.1797 227.039 45.1484 226.539 45.0859C226.039 45.0234 225.544 44.9193 225.055 44.7734V42.875C225.294 42.9583 225.544 43.0365 225.805 43.1094C226.065 43.1823 226.326 43.2474 226.586 43.3047C226.852 43.3568 227.115 43.3984 227.375 43.4297C227.635 43.4609 227.888 43.4766 228.133 43.4766C228.497 43.4766 228.807 43.4453 229.062 43.3828C229.318 43.3203 229.526 43.2344 229.688 43.125C229.849 43.0156 229.966 42.8854 230.039 42.7344C230.112 42.5833 230.148 42.4167 230.148 42.2344C230.148 41.9844 230.076 41.776 229.93 41.6094C229.789 41.4375 229.602 41.2865 229.367 41.1562C229.133 41.026 228.865 40.9089 228.562 40.8047C228.266 40.7005 227.961 40.5885 227.648 40.4688C227.341 40.349 227.036 40.2135 226.734 40.0625C226.438 39.9115 226.172 39.724 225.938 39.5C225.703 39.276 225.513 39.0104 225.367 38.7031C225.227 38.3906 225.156 38.0156 225.156 37.5781C225.156 37.1771 225.229 36.7969 225.375 36.4375C225.521 36.0781 225.75 35.7656 226.062 35.5C226.375 35.2292 226.776 35.0156 227.266 34.8594C227.755 34.6979 228.346 34.6172 229.039 34.6172C229.242 34.6172 229.453 34.6276 229.672 34.6484C229.896 34.6641 230.115 34.6875 230.328 34.7188C230.547 34.7448 230.755 34.7786 230.953 34.8203C231.156 34.8568 231.341 34.8958 231.508 34.9375V36.6953C231.341 36.6328 231.159 36.5755 230.961 36.5234C230.763 36.4714 230.557 36.4271 230.344 36.3906C230.135 36.349 229.924 36.3177 229.711 36.2969C229.497 36.276 229.294 36.2656 229.102 36.2656C228.763 36.2656 228.477 36.2943 228.242 36.3516C228.008 36.4036 227.815 36.4792 227.664 36.5781C227.513 36.6719 227.404 36.7891 227.336 36.9297C227.268 37.0703 227.234 37.2266 227.234 37.3984C227.234 37.612 227.305 37.7969 227.445 37.9531C227.591 38.1042 227.781 38.2422 228.016 38.3672C228.255 38.487 228.523 38.6016 228.82 38.7109C229.122 38.8151 229.43 38.9297 229.742 39.0547C230.06 39.1745 230.367 39.3125 230.664 39.4688C230.966 39.625 231.234 39.8151 231.469 40.0391C231.708 40.263 231.898 40.5286 232.039 40.8359C232.185 41.138 232.258 41.4974 232.258 41.9141ZM241.086 40.4219C241.086 40.5521 241.081 40.7214 241.07 40.9297C241.065 41.138 241.055 41.3333 241.039 41.5156H235.82C235.82 41.8646 235.872 42.1719 235.977 42.4375C236.086 42.7031 236.237 42.9271 236.43 43.1094C236.628 43.2865 236.862 43.4219 237.133 43.5156C237.409 43.6094 237.714 43.6562 238.047 43.6562C238.432 43.6562 238.844 43.6276 239.281 43.5703C239.724 43.5078 240.182 43.4089 240.656 43.2734V44.7891C240.453 44.8464 240.232 44.8984 239.992 44.9453C239.753 44.9922 239.508 45.0339 239.258 45.0703C239.008 45.1068 238.755 45.1328 238.5 45.1484C238.245 45.1693 237.997 45.1797 237.758 45.1797C237.154 45.1797 236.612 45.0938 236.133 44.9219C235.654 44.75 235.247 44.4974 234.914 44.1641C234.581 43.8255 234.326 43.4089 234.148 42.9141C233.971 42.4193 233.883 41.8464 233.883 41.1953C233.883 40.5495 233.971 39.9635 234.148 39.4375C234.326 38.9062 234.576 38.4531 234.898 38.0781C235.221 37.6979 235.612 37.4062 236.07 37.2031C236.534 36.9948 237.049 36.8906 237.617 36.8906C238.18 36.8906 238.677 36.9792 239.109 37.1562C239.542 37.3281 239.904 37.5703 240.195 37.8828C240.487 38.1953 240.708 38.5677 240.859 39C241.01 39.4323 241.086 39.9062 241.086 40.4219ZM239.148 40.1484C239.154 39.8359 239.115 39.5651 239.031 39.3359C238.948 39.1016 238.833 38.9089 238.688 38.7578C238.547 38.6068 238.38 38.4948 238.188 38.4219C238 38.349 237.797 38.3125 237.578 38.3125C237.099 38.3125 236.706 38.474 236.398 38.7969C236.091 39.1146 235.909 39.5651 235.852 40.1484H239.148ZM248.078 40.1484C248.089 39.8516 248.073 39.599 248.031 39.3906C247.995 39.1823 247.932 39.0104 247.844 38.875C247.76 38.7396 247.656 38.6406 247.531 38.5781C247.406 38.5156 247.263 38.4844 247.102 38.4844C246.82 38.4844 246.529 38.6016 246.227 38.8359C245.93 39.0651 245.602 39.4453 245.242 39.9766V45H243.289V37.0625H245.016L245.086 38.2188C245.216 38.0156 245.362 37.8333 245.523 37.6719C245.69 37.5104 245.872 37.3724 246.07 37.2578C246.273 37.138 246.497 37.0469 246.742 36.9844C246.987 36.9219 247.255 36.8906 247.547 36.8906C247.948 36.8906 248.302 36.9609 248.609 37.1016C248.922 37.237 249.182 37.4401 249.391 37.7109C249.604 37.9818 249.76 38.3229 249.859 38.7344C249.964 39.1406 250.008 39.612 249.992 40.1484H248.078ZM256.203 45H254.008L250.859 37.0625H252.984L254.633 41.5625L255.125 43.0156L255.609 41.625L257.273 37.0625H259.32L256.203 45ZM265.234 34.8906C265.234 35.0625 265.203 35.224 265.141 35.375C265.078 35.526 264.99 35.6589 264.875 35.7734C264.766 35.8828 264.635 35.9714 264.484 36.0391C264.333 36.1016 264.169 36.1328 263.992 36.1328C263.815 36.1328 263.648 36.1016 263.492 36.0391C263.341 35.9714 263.208 35.8828 263.094 35.7734C262.984 35.6589 262.898 35.526 262.836 35.375C262.773 35.224 262.742 35.0625 262.742 34.8906C262.742 34.7188 262.773 34.5573 262.836 34.4062C262.898 34.2552 262.984 34.1224 263.094 34.0078C263.208 33.8932 263.341 33.8047 263.492 33.7422C263.648 33.6745 263.815 33.6406 263.992 33.6406C264.169 33.6406 264.333 33.6745 264.484 33.7422C264.635 33.8047 264.766 33.8932 264.875 34.0078C264.99 34.1224 265.078 34.2552 265.141 34.4062C265.203 34.5573 265.234 34.7188 265.234 34.8906ZM263.125 38.5469H260.883V37.0625H265.078V43.5156H267.367V45H260.609V43.5156H263.125V38.5469ZM275.781 44.6953C275.406 44.8464 275.018 44.9583 274.617 45.0312C274.216 45.1042 273.797 45.1406 273.359 45.1406C272.729 45.1406 272.164 45.0547 271.664 44.8828C271.164 44.7109 270.74 44.4557 270.391 44.1172C270.042 43.7786 269.773 43.3594 269.586 42.8594C269.404 42.3594 269.312 41.7812 269.312 41.125C269.312 40.4896 269.411 39.9141 269.609 39.3984C269.812 38.8828 270.096 38.4427 270.461 38.0781C270.826 37.7135 271.263 37.4323 271.773 37.2344C272.289 37.0365 272.862 36.9375 273.492 36.9375C274.008 36.9375 274.44 36.9661 274.789 37.0234C275.143 37.0755 275.461 37.1432 275.742 37.2266V39.0781C275.419 38.9167 275.068 38.7917 274.688 38.7031C274.312 38.6146 273.956 38.5703 273.617 38.5703C273.263 38.5703 272.945 38.6302 272.664 38.75C272.383 38.8698 272.146 39.0365 271.953 39.25C271.76 39.4635 271.612 39.724 271.508 40.0312C271.409 40.3333 271.359 40.6667 271.359 41.0312C271.359 41.4115 271.414 41.7526 271.523 42.0547C271.633 42.3568 271.786 42.6146 271.984 42.8281C272.188 43.0365 272.43 43.1979 272.711 43.3125C272.992 43.4219 273.305 43.4766 273.648 43.4766C273.815 43.4766 273.99 43.4661 274.172 43.4453C274.359 43.4193 274.544 43.3854 274.727 43.3438C274.914 43.2969 275.096 43.2448 275.273 43.1875C275.456 43.1302 275.625 43.0677 275.781 43V44.6953ZM285.07 40.4219C285.07 40.5521 285.065 40.7214 285.055 40.9297C285.049 41.138 285.039 41.3333 285.023 41.5156H279.805C279.805 41.8646 279.857 42.1719 279.961 42.4375C280.07 42.7031 280.221 42.9271 280.414 43.1094C280.612 43.2865 280.846 43.4219 281.117 43.5156C281.393 43.6094 281.698 43.6562 282.031 43.6562C282.417 43.6562 282.828 43.6276 283.266 43.5703C283.708 43.5078 284.167 43.4089 284.641 43.2734V44.7891C284.438 44.8464 284.216 44.8984 283.977 44.9453C283.737 44.9922 283.492 45.0339 283.242 45.0703C282.992 45.1068 282.74 45.1328 282.484 45.1484C282.229 45.1693 281.982 45.1797 281.742 45.1797C281.138 45.1797 280.596 45.0938 280.117 44.9219C279.638 44.75 279.232 44.4974 278.898 44.1641C278.565 43.8255 278.31 43.4089 278.133 42.9141C277.956 42.4193 277.867 41.8464 277.867 41.1953C277.867 40.5495 277.956 39.9635 278.133 39.4375C278.31 38.9062 278.56 38.4531 278.883 38.0781C279.206 37.6979 279.596 37.4062 280.055 37.2031C280.518 36.9948 281.034 36.8906 281.602 36.8906C282.164 36.8906 282.661 36.9792 283.094 37.1562C283.526 37.3281 283.888 37.5703 284.18 37.8828C284.471 38.1953 284.693 38.5677 284.844 39C284.995 39.4323 285.07 39.9062 285.07 40.4219ZM283.133 40.1484C283.138 39.8359 283.099 39.5651 283.016 39.3359C282.932 39.1016 282.818 38.9089 282.672 38.7578C282.531 38.6068 282.365 38.4948 282.172 38.4219C281.984 38.349 281.781 38.3125 281.562 38.3125C281.083 38.3125 280.69 38.474 280.383 38.7969C280.076 39.1146 279.893 39.5651 279.836 40.1484H283.133Z" fill="black"/>
<path d="M14 17.5L2.5 17.5L2.5 2.5L90.5 2.5L90.5 17.5L77.5 17.5L75.5 17.5L75.5 19.5L75.5 71.5L56 71.5L56 19.5L56 17.5L54 17.5L37.5 17.5L35.5 17.5L35.5 19.5L35.5 71.5L16 71.5L16 19.5L16 17.5L14 17.5Z" fill="#7DE77B" stroke="black" stroke-width="4"/>
<path d="M15.5 138L4 138L4 123L92 123L92 138L79 138L77 138L77 140L77 192L57.5 192L57.5 140L57.5 138L55.5 138L39 138L37 138L37 140L37 192L17.5 192L17.5 140L17.5 138L15.5 138Z" fill="#7DE77B" stroke="black" stroke-width="4"/>
<path d="M14.5 256L3 256L3 241L91 241L91 256L78 256L76 256L76 258L76 310L56.5 310L56.5 258L56.5 256L54.5 256L38 256L36 256L36 258L36 310L16.5 310L16.5 258L16.5 256L14.5 256Z" fill="#7DE77B" stroke="black" stroke-width="4"/>
<path d="M113 154.914C113 155.471 112.896 155.956 112.688 156.367C112.484 156.779 112.198 157.12 111.828 157.391C111.458 157.656 111.018 157.854 110.508 157.984C109.997 158.115 109.44 158.18 108.836 158.18C108.299 158.18 107.781 158.148 107.281 158.086C106.781 158.023 106.286 157.919 105.797 157.773V155.875C106.036 155.958 106.286 156.036 106.547 156.109C106.807 156.182 107.068 156.247 107.328 156.305C107.594 156.357 107.857 156.398 108.117 156.43C108.378 156.461 108.63 156.477 108.875 156.477C109.24 156.477 109.549 156.445 109.805 156.383C110.06 156.32 110.268 156.234 110.43 156.125C110.591 156.016 110.708 155.885 110.781 155.734C110.854 155.583 110.891 155.417 110.891 155.234C110.891 154.984 110.818 154.776 110.672 154.609C110.531 154.438 110.344 154.286 110.109 154.156C109.875 154.026 109.607 153.909 109.305 153.805C109.008 153.701 108.703 153.589 108.391 153.469C108.083 153.349 107.779 153.214 107.477 153.062C107.18 152.911 106.914 152.724 106.68 152.5C106.445 152.276 106.255 152.01 106.109 151.703C105.969 151.391 105.898 151.016 105.898 150.578C105.898 150.177 105.971 149.797 106.117 149.438C106.263 149.078 106.492 148.766 106.805 148.5C107.117 148.229 107.518 148.016 108.008 147.859C108.497 147.698 109.089 147.617 109.781 147.617C109.984 147.617 110.195 147.628 110.414 147.648C110.638 147.664 110.857 147.688 111.07 147.719C111.289 147.745 111.497 147.779 111.695 147.82C111.898 147.857 112.083 147.896 112.25 147.938V149.695C112.083 149.633 111.901 149.576 111.703 149.523C111.505 149.471 111.299 149.427 111.086 149.391C110.878 149.349 110.667 149.318 110.453 149.297C110.24 149.276 110.036 149.266 109.844 149.266C109.505 149.266 109.219 149.294 108.984 149.352C108.75 149.404 108.557 149.479 108.406 149.578C108.255 149.672 108.146 149.789 108.078 149.93C108.01 150.07 107.977 150.227 107.977 150.398C107.977 150.612 108.047 150.797 108.188 150.953C108.333 151.104 108.523 151.242 108.758 151.367C108.997 151.487 109.266 151.602 109.562 151.711C109.865 151.815 110.172 151.93 110.484 152.055C110.802 152.174 111.109 152.312 111.406 152.469C111.708 152.625 111.977 152.815 112.211 153.039C112.451 153.263 112.641 153.529 112.781 153.836C112.927 154.138 113 154.497 113 154.914ZM121.828 153.422C121.828 153.552 121.823 153.721 121.812 153.93C121.807 154.138 121.797 154.333 121.781 154.516H116.562C116.562 154.865 116.615 155.172 116.719 155.438C116.828 155.703 116.979 155.927 117.172 156.109C117.37 156.286 117.604 156.422 117.875 156.516C118.151 156.609 118.456 156.656 118.789 156.656C119.174 156.656 119.586 156.628 120.023 156.57C120.466 156.508 120.924 156.409 121.398 156.273V157.789C121.195 157.846 120.974 157.898 120.734 157.945C120.495 157.992 120.25 158.034 120 158.07C119.75 158.107 119.497 158.133 119.242 158.148C118.987 158.169 118.74 158.18 118.5 158.18C117.896 158.18 117.354 158.094 116.875 157.922C116.396 157.75 115.99 157.497 115.656 157.164C115.323 156.826 115.068 156.409 114.891 155.914C114.714 155.419 114.625 154.846 114.625 154.195C114.625 153.549 114.714 152.964 114.891 152.438C115.068 151.906 115.318 151.453 115.641 151.078C115.964 150.698 116.354 150.406 116.812 150.203C117.276 149.995 117.792 149.891 118.359 149.891C118.922 149.891 119.419 149.979 119.852 150.156C120.284 150.328 120.646 150.57 120.938 150.883C121.229 151.195 121.451 151.568 121.602 152C121.753 152.432 121.828 152.906 121.828 153.422ZM119.891 153.148C119.896 152.836 119.857 152.565 119.773 152.336C119.69 152.102 119.576 151.909 119.43 151.758C119.289 151.607 119.122 151.495 118.93 151.422C118.742 151.349 118.539 151.312 118.32 151.312C117.841 151.312 117.448 151.474 117.141 151.797C116.833 152.115 116.651 152.565 116.594 153.148H119.891ZM128.445 158V152.828C128.445 151.958 128.122 151.523 127.477 151.523C127.154 151.523 126.844 151.654 126.547 151.914C126.255 152.174 125.945 152.529 125.617 152.977V158H123.711V150.062H125.359L125.406 151.234C125.568 151.031 125.734 150.846 125.906 150.68C126.083 150.513 126.273 150.372 126.477 150.258C126.68 150.138 126.898 150.047 127.133 149.984C127.367 149.922 127.63 149.891 127.922 149.891C128.328 149.891 128.682 149.958 128.984 150.094C129.286 150.224 129.539 150.411 129.742 150.656C129.945 150.896 130.096 151.188 130.195 151.531C130.299 151.87 130.352 152.25 130.352 152.672V158H128.445ZM137.5 158L137.453 156.828C137.286 157.031 137.115 157.216 136.938 157.383C136.76 157.549 136.57 157.693 136.367 157.812C136.164 157.927 135.945 158.016 135.711 158.078C135.482 158.146 135.227 158.18 134.945 158.18C134.477 158.18 134.06 158.086 133.695 157.898C133.331 157.711 133.023 157.445 132.773 157.102C132.529 156.753 132.341 156.331 132.211 155.836C132.081 155.341 132.016 154.789 132.016 154.18C132.016 153.451 132.117 152.82 132.32 152.289C132.529 151.753 132.815 151.31 133.18 150.961C133.544 150.607 133.977 150.346 134.477 150.18C134.977 150.008 135.521 149.922 136.109 149.922C136.307 149.922 136.505 149.935 136.703 149.961C136.906 149.987 137.086 150.021 137.242 150.062V146.961H139.148V158H137.5ZM134.016 154.094C134.016 154.531 134.044 154.906 134.102 155.219C134.164 155.526 134.253 155.779 134.367 155.977C134.487 156.174 134.633 156.32 134.805 156.414C134.977 156.503 135.172 156.547 135.391 156.547C135.714 156.547 136.021 156.417 136.312 156.156C136.604 155.896 136.914 155.539 137.242 155.086V151.617C137.091 151.56 136.904 151.513 136.68 151.477C136.461 151.44 136.24 151.422 136.016 151.422C135.708 151.422 135.432 151.484 135.188 151.609C134.943 151.734 134.732 151.911 134.555 152.141C134.383 152.37 134.25 152.651 134.156 152.984C134.062 153.312 134.016 153.682 134.016 154.094ZM144.664 153.68V152.094H148.297V157.539C147.828 157.758 147.339 157.919 146.828 158.023C146.318 158.128 145.763 158.18 145.164 158.18C144.456 158.18 143.818 158.07 143.25 157.852C142.688 157.633 142.208 157.307 141.812 156.875C141.417 156.443 141.112 155.906 140.898 155.266C140.69 154.625 140.586 153.883 140.586 153.039C140.586 152.19 140.695 151.43 140.914 150.758C141.138 150.086 141.461 149.518 141.883 149.055C142.31 148.586 142.831 148.229 143.445 147.984C144.065 147.74 144.771 147.617 145.562 147.617C146.031 147.617 146.487 147.659 146.93 147.742C147.378 147.82 147.823 147.927 148.266 148.062V149.961C147.88 149.779 147.453 149.63 146.984 149.516C146.521 149.396 146.052 149.336 145.578 149.336C145.099 149.336 144.674 149.419 144.305 149.586C143.94 149.753 143.633 149.99 143.383 150.297C143.138 150.604 142.951 150.982 142.82 151.43C142.695 151.878 142.633 152.383 142.633 152.945C142.633 153.487 142.682 153.977 142.781 154.414C142.88 154.846 143.039 155.216 143.258 155.523C143.482 155.826 143.768 156.057 144.117 156.219C144.466 156.38 144.891 156.461 145.391 156.461C145.51 156.461 145.615 156.458 145.703 156.453C145.792 156.443 145.875 156.43 145.953 156.414C146.031 156.398 146.104 156.38 146.172 156.359C146.245 156.339 146.32 156.315 146.398 156.289V153.68H144.664ZM155.211 153.148C155.221 152.852 155.206 152.599 155.164 152.391C155.128 152.182 155.065 152.01 154.977 151.875C154.893 151.74 154.789 151.641 154.664 151.578C154.539 151.516 154.396 151.484 154.234 151.484C153.953 151.484 153.661 151.602 153.359 151.836C153.062 152.065 152.734 152.445 152.375 152.977V158H150.422V150.062H152.148L152.219 151.219C152.349 151.016 152.495 150.833 152.656 150.672C152.823 150.51 153.005 150.372 153.203 150.258C153.406 150.138 153.63 150.047 153.875 149.984C154.12 149.922 154.388 149.891 154.68 149.891C155.081 149.891 155.435 149.961 155.742 150.102C156.055 150.237 156.315 150.44 156.523 150.711C156.737 150.982 156.893 151.323 156.992 151.734C157.096 152.141 157.141 152.612 157.125 153.148H155.211ZM163.57 147.891C163.57 148.062 163.539 148.224 163.477 148.375C163.414 148.526 163.326 148.659 163.211 148.773C163.102 148.883 162.971 148.971 162.82 149.039C162.669 149.102 162.505 149.133 162.328 149.133C162.151 149.133 161.984 149.102 161.828 149.039C161.677 148.971 161.544 148.883 161.43 148.773C161.32 148.659 161.234 148.526 161.172 148.375C161.109 148.224 161.078 148.062 161.078 147.891C161.078 147.719 161.109 147.557 161.172 147.406C161.234 147.255 161.32 147.122 161.43 147.008C161.544 146.893 161.677 146.805 161.828 146.742C161.984 146.674 162.151 146.641 162.328 146.641C162.505 146.641 162.669 146.674 162.82 146.742C162.971 146.805 163.102 146.893 163.211 147.008C163.326 147.122 163.414 147.255 163.477 147.406C163.539 147.557 163.57 147.719 163.57 147.891ZM161.461 151.547H159.219V150.062H163.414V156.516H165.703V158H158.945V156.516H161.461V151.547ZM172.688 158L172.641 156.828C172.474 157.031 172.302 157.216 172.125 157.383C171.948 157.549 171.758 157.693 171.555 157.812C171.352 157.927 171.133 158.016 170.898 158.078C170.669 158.146 170.414 158.18 170.133 158.18C169.664 158.18 169.247 158.086 168.883 157.898C168.518 157.711 168.211 157.445 167.961 157.102C167.716 156.753 167.529 156.331 167.398 155.836C167.268 155.341 167.203 154.789 167.203 154.18C167.203 153.451 167.305 152.82 167.508 152.289C167.716 151.753 168.003 151.31 168.367 150.961C168.732 150.607 169.164 150.346 169.664 150.18C170.164 150.008 170.708 149.922 171.297 149.922C171.495 149.922 171.693 149.935 171.891 149.961C172.094 149.987 172.273 150.021 172.43 150.062V146.961H174.336V158H172.688ZM169.203 154.094C169.203 154.531 169.232 154.906 169.289 155.219C169.352 155.526 169.44 155.779 169.555 155.977C169.674 156.174 169.82 156.32 169.992 156.414C170.164 156.503 170.359 156.547 170.578 156.547C170.901 156.547 171.208 156.417 171.5 156.156C171.792 155.896 172.102 155.539 172.43 155.086V151.617C172.279 151.56 172.091 151.513 171.867 151.477C171.648 151.44 171.427 151.422 171.203 151.422C170.896 151.422 170.62 151.484 170.375 151.609C170.13 151.734 169.919 151.911 169.742 152.141C169.57 152.37 169.438 152.651 169.344 152.984C169.25 153.312 169.203 153.682 169.203 154.094ZM176.844 158V147.789H182.992V149.414H178.797V151.953H182.797V153.539H178.797V156.375H182.992V158H176.844ZM190.891 158V152.594C190.891 152.396 190.885 152.224 190.875 152.078C190.865 151.927 190.844 151.802 190.812 151.703C190.781 151.604 190.734 151.531 190.672 151.484C190.615 151.432 190.534 151.406 190.43 151.406C190.268 151.406 190.109 151.516 189.953 151.734C189.797 151.953 189.62 152.326 189.422 152.852V158H187.789V152.594C187.789 152.396 187.784 152.224 187.773 152.078C187.763 151.927 187.742 151.802 187.711 151.703C187.68 151.604 187.633 151.531 187.57 151.484C187.508 151.432 187.424 151.406 187.32 151.406C187.185 151.406 187.034 151.516 186.867 151.734C186.701 151.953 186.516 152.326 186.312 152.852V158H184.664V150.062H186.078L186.109 151.219C186.224 150.984 186.339 150.784 186.453 150.617C186.568 150.451 186.69 150.315 186.82 150.211C186.951 150.102 187.089 150.023 187.234 149.977C187.385 149.93 187.555 149.906 187.742 149.906C188.185 149.906 188.521 150.023 188.75 150.258C188.984 150.487 189.117 150.807 189.148 151.219C189.273 150.984 189.396 150.784 189.516 150.617C189.641 150.451 189.768 150.315 189.898 150.211C190.034 150.102 190.177 150.023 190.328 149.977C190.484 149.93 190.656 149.906 190.844 149.906C191.422 149.906 191.849 150.109 192.125 150.516C192.401 150.917 192.539 151.513 192.539 152.305V158H190.891ZM199.062 158L199.016 156.961C198.849 157.138 198.674 157.302 198.492 157.453C198.31 157.599 198.109 157.727 197.891 157.836C197.672 157.945 197.432 158.029 197.172 158.086C196.917 158.148 196.635 158.18 196.328 158.18C195.922 158.18 195.565 158.12 195.258 158C194.951 157.88 194.693 157.714 194.484 157.5C194.276 157.286 194.117 157.029 194.008 156.727C193.904 156.424 193.852 156.091 193.852 155.727C193.852 155.352 193.93 155.005 194.086 154.688C194.247 154.37 194.49 154.096 194.812 153.867C195.141 153.638 195.547 153.458 196.031 153.328C196.521 153.198 197.094 153.133 197.75 153.133H198.789V152.656C198.789 152.453 198.76 152.271 198.703 152.109C198.646 151.943 198.552 151.802 198.422 151.688C198.297 151.573 198.133 151.484 197.93 151.422C197.727 151.359 197.477 151.328 197.18 151.328C196.711 151.328 196.247 151.383 195.789 151.492C195.336 151.596 194.896 151.745 194.469 151.938V150.414C194.849 150.263 195.286 150.138 195.781 150.039C196.281 149.94 196.799 149.891 197.336 149.891C197.924 149.891 198.43 149.948 198.852 150.062C199.273 150.172 199.62 150.339 199.891 150.562C200.167 150.786 200.37 151.068 200.5 151.406C200.63 151.74 200.695 152.13 200.695 152.578V158H199.062ZM198.789 154.492H197.625C197.302 154.492 197.029 154.523 196.805 154.586C196.581 154.648 196.398 154.734 196.258 154.844C196.117 154.953 196.013 155.081 195.945 155.227C195.883 155.367 195.852 155.518 195.852 155.68C195.852 156.003 195.956 156.25 196.164 156.422C196.372 156.589 196.656 156.672 197.016 156.672C197.281 156.672 197.557 156.576 197.844 156.383C198.13 156.19 198.445 155.914 198.789 155.555V154.492ZM207.555 147.891C207.555 148.062 207.523 148.224 207.461 148.375C207.398 148.526 207.31 148.659 207.195 148.773C207.086 148.883 206.956 148.971 206.805 149.039C206.654 149.102 206.49 149.133 206.312 149.133C206.135 149.133 205.969 149.102 205.812 149.039C205.661 148.971 205.529 148.883 205.414 148.773C205.305 148.659 205.219 148.526 205.156 148.375C205.094 148.224 205.062 148.062 205.062 147.891C205.062 147.719 205.094 147.557 205.156 147.406C205.219 147.255 205.305 147.122 205.414 147.008C205.529 146.893 205.661 146.805 205.812 146.742C205.969 146.674 206.135 146.641 206.312 146.641C206.49 146.641 206.654 146.674 206.805 146.742C206.956 146.805 207.086 146.893 207.195 147.008C207.31 147.122 207.398 147.255 207.461 147.406C207.523 147.557 207.555 147.719 207.555 147.891ZM205.445 151.547H203.203V150.062H207.398V156.516H209.688V158H202.93V156.516H205.445V151.547ZM214.242 148.445H212V146.961H216.195V156.516H218.484V158H211.727V156.516H214.242V148.445ZM227.359 154.914C227.359 155.471 227.255 155.956 227.047 156.367C226.844 156.779 226.557 157.12 226.188 157.391C225.818 157.656 225.378 157.854 224.867 157.984C224.357 158.115 223.799 158.18 223.195 158.18C222.659 158.18 222.141 158.148 221.641 158.086C221.141 158.023 220.646 157.919 220.156 157.773V155.875C220.396 155.958 220.646 156.036 220.906 156.109C221.167 156.182 221.427 156.247 221.688 156.305C221.953 156.357 222.216 156.398 222.477 156.43C222.737 156.461 222.99 156.477 223.234 156.477C223.599 156.477 223.909 156.445 224.164 156.383C224.419 156.32 224.628 156.234 224.789 156.125C224.951 156.016 225.068 155.885 225.141 155.734C225.214 155.583 225.25 155.417 225.25 155.234C225.25 154.984 225.177 154.776 225.031 154.609C224.891 154.438 224.703 154.286 224.469 154.156C224.234 154.026 223.966 153.909 223.664 153.805C223.367 153.701 223.062 153.589 222.75 153.469C222.443 153.349 222.138 153.214 221.836 153.062C221.539 152.911 221.273 152.724 221.039 152.5C220.805 152.276 220.615 152.01 220.469 151.703C220.328 151.391 220.258 151.016 220.258 150.578C220.258 150.177 220.331 149.797 220.477 149.438C220.622 149.078 220.852 148.766 221.164 148.5C221.477 148.229 221.878 148.016 222.367 147.859C222.857 147.698 223.448 147.617 224.141 147.617C224.344 147.617 224.555 147.628 224.773 147.648C224.997 147.664 225.216 147.688 225.43 147.719C225.648 147.745 225.857 147.779 226.055 147.82C226.258 147.857 226.443 147.896 226.609 147.938V149.695C226.443 149.633 226.26 149.576 226.062 149.523C225.865 149.471 225.659 149.427 225.445 149.391C225.237 149.349 225.026 149.318 224.812 149.297C224.599 149.276 224.396 149.266 224.203 149.266C223.865 149.266 223.578 149.294 223.344 149.352C223.109 149.404 222.917 149.479 222.766 149.578C222.615 149.672 222.505 149.789 222.438 149.93C222.37 150.07 222.336 150.227 222.336 150.398C222.336 150.612 222.406 150.797 222.547 150.953C222.693 151.104 222.883 151.242 223.117 151.367C223.357 151.487 223.625 151.602 223.922 151.711C224.224 151.815 224.531 151.93 224.844 152.055C225.161 152.174 225.469 152.312 225.766 152.469C226.068 152.625 226.336 152.815 226.57 153.039C226.81 153.263 227 153.529 227.141 153.836C227.286 154.138 227.359 154.497 227.359 154.914ZM236.188 153.422C236.188 153.552 236.182 153.721 236.172 153.93C236.167 154.138 236.156 154.333 236.141 154.516H230.922C230.922 154.865 230.974 155.172 231.078 155.438C231.188 155.703 231.339 155.927 231.531 156.109C231.729 156.286 231.964 156.422 232.234 156.516C232.51 156.609 232.815 156.656 233.148 156.656C233.534 156.656 233.945 156.628 234.383 156.57C234.826 156.508 235.284 156.409 235.758 156.273V157.789C235.555 157.846 235.333 157.898 235.094 157.945C234.854 157.992 234.609 158.034 234.359 158.07C234.109 158.107 233.857 158.133 233.602 158.148C233.346 158.169 233.099 158.18 232.859 158.18C232.255 158.18 231.714 158.094 231.234 157.922C230.755 157.75 230.349 157.497 230.016 157.164C229.682 156.826 229.427 156.409 229.25 155.914C229.073 155.419 228.984 154.846 228.984 154.195C228.984 153.549 229.073 152.964 229.25 152.438C229.427 151.906 229.677 151.453 230 151.078C230.323 150.698 230.714 150.406 231.172 150.203C231.635 149.995 232.151 149.891 232.719 149.891C233.281 149.891 233.779 149.979 234.211 150.156C234.643 150.328 235.005 150.57 235.297 150.883C235.589 151.195 235.81 151.568 235.961 152C236.112 152.432 236.188 152.906 236.188 153.422ZM234.25 153.148C234.255 152.836 234.216 152.565 234.133 152.336C234.049 152.102 233.935 151.909 233.789 151.758C233.648 151.607 233.482 151.495 233.289 151.422C233.102 151.349 232.898 151.312 232.68 151.312C232.201 151.312 231.807 151.474 231.5 151.797C231.193 152.115 231.01 152.565 230.953 153.148H234.25ZM243.18 153.148C243.19 152.852 243.174 152.599 243.133 152.391C243.096 152.182 243.034 152.01 242.945 151.875C242.862 151.74 242.758 151.641 242.633 151.578C242.508 151.516 242.365 151.484 242.203 151.484C241.922 151.484 241.63 151.602 241.328 151.836C241.031 152.065 240.703 152.445 240.344 152.977V158H238.391V150.062H240.117L240.188 151.219C240.318 151.016 240.464 150.833 240.625 150.672C240.792 150.51 240.974 150.372 241.172 150.258C241.375 150.138 241.599 150.047 241.844 149.984C242.089 149.922 242.357 149.891 242.648 149.891C243.049 149.891 243.404 149.961 243.711 150.102C244.023 150.237 244.284 150.44 244.492 150.711C244.706 150.982 244.862 151.323 244.961 151.734C245.065 152.141 245.109 152.612 245.094 153.148H243.18ZM251.305 158H249.109L245.961 150.062H248.086L249.734 154.562L250.227 156.016L250.711 154.625L252.375 150.062H254.422L251.305 158ZM260.336 147.891C260.336 148.062 260.305 148.224 260.242 148.375C260.18 148.526 260.091 148.659 259.977 148.773C259.867 148.883 259.737 148.971 259.586 149.039C259.435 149.102 259.271 149.133 259.094 149.133C258.917 149.133 258.75 149.102 258.594 149.039C258.443 148.971 258.31 148.883 258.195 148.773C258.086 148.659 258 148.526 257.938 148.375C257.875 148.224 257.844 148.062 257.844 147.891C257.844 147.719 257.875 147.557 257.938 147.406C258 147.255 258.086 147.122 258.195 147.008C258.31 146.893 258.443 146.805 258.594 146.742C258.75 146.674 258.917 146.641 259.094 146.641C259.271 146.641 259.435 146.674 259.586 146.742C259.737 146.805 259.867 146.893 259.977 147.008C260.091 147.122 260.18 147.255 260.242 147.406C260.305 147.557 260.336 147.719 260.336 147.891ZM258.227 151.547H255.984V150.062H260.18V156.516H262.469V158H255.711V156.516H258.227V151.547ZM270.883 157.695C270.508 157.846 270.12 157.958 269.719 158.031C269.318 158.104 268.898 158.141 268.461 158.141C267.831 158.141 267.266 158.055 266.766 157.883C266.266 157.711 265.841 157.456 265.492 157.117C265.143 156.779 264.875 156.359 264.688 155.859C264.505 155.359 264.414 154.781 264.414 154.125C264.414 153.49 264.513 152.914 264.711 152.398C264.914 151.883 265.198 151.443 265.562 151.078C265.927 150.714 266.365 150.432 266.875 150.234C267.391 150.036 267.964 149.938 268.594 149.938C269.109 149.938 269.542 149.966 269.891 150.023C270.245 150.076 270.562 150.143 270.844 150.227V152.078C270.521 151.917 270.169 151.792 269.789 151.703C269.414 151.615 269.057 151.57 268.719 151.57C268.365 151.57 268.047 151.63 267.766 151.75C267.484 151.87 267.247 152.036 267.055 152.25C266.862 152.464 266.714 152.724 266.609 153.031C266.51 153.333 266.461 153.667 266.461 154.031C266.461 154.411 266.516 154.753 266.625 155.055C266.734 155.357 266.888 155.615 267.086 155.828C267.289 156.036 267.531 156.198 267.812 156.312C268.094 156.422 268.406 156.477 268.75 156.477C268.917 156.477 269.091 156.466 269.273 156.445C269.461 156.419 269.646 156.385 269.828 156.344C270.016 156.297 270.198 156.245 270.375 156.188C270.557 156.13 270.727 156.068 270.883 156V157.695ZM280.172 153.422C280.172 153.552 280.167 153.721 280.156 153.93C280.151 154.138 280.141 154.333 280.125 154.516H274.906C274.906 154.865 274.958 155.172 275.062 155.438C275.172 155.703 275.323 155.927 275.516 156.109C275.714 156.286 275.948 156.422 276.219 156.516C276.495 156.609 276.799 156.656 277.133 156.656C277.518 156.656 277.93 156.628 278.367 156.57C278.81 156.508 279.268 156.409 279.742 156.273V157.789C279.539 157.846 279.318 157.898 279.078 157.945C278.839 157.992 278.594 158.034 278.344 158.07C278.094 158.107 277.841 158.133 277.586 158.148C277.331 158.169 277.083 158.18 276.844 158.18C276.24 158.18 275.698 158.094 275.219 157.922C274.74 157.75 274.333 157.497 274 157.164C273.667 156.826 273.411 156.409 273.234 155.914C273.057 155.419 272.969 154.846 272.969 154.195C272.969 153.549 273.057 152.964 273.234 152.438C273.411 151.906 273.661 151.453 273.984 151.078C274.307 150.698 274.698 150.406 275.156 150.203C275.62 149.995 276.135 149.891 276.703 149.891C277.266 149.891 277.763 149.979 278.195 150.156C278.628 150.328 278.99 150.57 279.281 150.883C279.573 151.195 279.794 151.568 279.945 152C280.096 152.432 280.172 152.906 280.172 153.422ZM278.234 153.148C278.24 152.836 278.201 152.565 278.117 152.336C278.034 152.102 277.919 151.909 277.773 151.758C277.633 151.607 277.466 151.495 277.273 151.422C277.086 151.349 276.883 151.312 276.664 151.312C276.185 151.312 275.792 151.474 275.484 151.797C275.177 152.115 274.995 152.565 274.938 153.148H278.234Z" fill="black"/>
<path d="M116.18 280L115.992 274.227L115.922 271.922L115.43 273.484L114.297 276.961H113.094L112.07 273.484L111.641 271.922L111.586 274.18L111.414 280H109.781L110.281 269.789H112.453L113.352 272.688L113.781 274.32L114.211 272.781L115.156 269.789H117.367L117.875 280H116.18ZM124.289 280L124.242 278.961C124.076 279.138 123.901 279.302 123.719 279.453C123.536 279.599 123.336 279.727 123.117 279.836C122.898 279.945 122.659 280.029 122.398 280.086C122.143 280.148 121.862 280.18 121.555 280.18C121.148 280.18 120.792 280.12 120.484 280C120.177 279.88 119.919 279.714 119.711 279.5C119.503 279.286 119.344 279.029 119.234 278.727C119.13 278.424 119.078 278.091 119.078 277.727C119.078 277.352 119.156 277.005 119.312 276.688C119.474 276.37 119.716 276.096 120.039 275.867C120.367 275.638 120.773 275.458 121.258 275.328C121.747 275.198 122.32 275.133 122.977 275.133H124.016V274.656C124.016 274.453 123.987 274.271 123.93 274.109C123.872 273.943 123.779 273.802 123.648 273.688C123.523 273.573 123.359 273.484 123.156 273.422C122.953 273.359 122.703 273.328 122.406 273.328C121.938 273.328 121.474 273.383 121.016 273.492C120.562 273.596 120.122 273.745 119.695 273.938V272.414C120.076 272.263 120.513 272.138 121.008 272.039C121.508 271.94 122.026 271.891 122.562 271.891C123.151 271.891 123.656 271.948 124.078 272.062C124.5 272.172 124.846 272.339 125.117 272.562C125.393 272.786 125.596 273.068 125.727 273.406C125.857 273.74 125.922 274.13 125.922 274.578V280H124.289ZM124.016 276.492H122.852C122.529 276.492 122.255 276.523 122.031 276.586C121.807 276.648 121.625 276.734 121.484 276.844C121.344 276.953 121.24 277.081 121.172 277.227C121.109 277.367 121.078 277.518 121.078 277.68C121.078 278.003 121.182 278.25 121.391 278.422C121.599 278.589 121.883 278.672 122.242 278.672C122.508 278.672 122.784 278.576 123.07 278.383C123.357 278.19 123.672 277.914 124.016 277.555V276.492ZM132.781 269.891C132.781 270.062 132.75 270.224 132.688 270.375C132.625 270.526 132.536 270.659 132.422 270.773C132.312 270.883 132.182 270.971 132.031 271.039C131.88 271.102 131.716 271.133 131.539 271.133C131.362 271.133 131.195 271.102 131.039 271.039C130.888 270.971 130.755 270.883 130.641 270.773C130.531 270.659 130.445 270.526 130.383 270.375C130.32 270.224 130.289 270.062 130.289 269.891C130.289 269.719 130.32 269.557 130.383 269.406C130.445 269.255 130.531 269.122 130.641 269.008C130.755 268.893 130.888 268.805 131.039 268.742C131.195 268.674 131.362 268.641 131.539 268.641C131.716 268.641 131.88 268.674 132.031 268.742C132.182 268.805 132.312 268.893 132.422 269.008C132.536 269.122 132.625 269.255 132.688 269.406C132.75 269.557 132.781 269.719 132.781 269.891ZM130.672 273.547H128.43V272.062H132.625V278.516H134.914V280H128.156V278.516H130.672V273.547ZM139.469 270.445H137.227V268.961H141.422V278.516H143.711V280H136.953V278.516H139.469V270.445ZM151.656 273.453C151.802 273.635 151.904 273.828 151.961 274.031C152.023 274.229 152.055 274.432 152.055 274.641C152.055 275.083 151.977 275.474 151.82 275.812C151.669 276.151 151.453 276.435 151.172 276.664C150.896 276.893 150.562 277.068 150.172 277.188C149.786 277.302 149.359 277.359 148.891 277.359C148.615 277.359 148.359 277.333 148.125 277.281C147.891 277.224 147.714 277.159 147.594 277.086C147.505 277.174 147.43 277.273 147.367 277.383C147.305 277.487 147.273 277.607 147.273 277.742C147.273 277.826 147.294 277.909 147.336 277.992C147.378 278.076 147.438 278.151 147.516 278.219C147.599 278.281 147.695 278.333 147.805 278.375C147.919 278.417 148.047 278.44 148.188 278.445L150.07 278.516C150.492 278.526 150.872 278.581 151.211 278.68C151.555 278.773 151.849 278.909 152.094 279.086C152.339 279.263 152.526 279.479 152.656 279.734C152.792 279.984 152.859 280.271 152.859 280.594C152.859 280.964 152.776 281.312 152.609 281.641C152.443 281.969 152.19 282.253 151.852 282.492C151.518 282.737 151.102 282.93 150.602 283.07C150.102 283.211 149.521 283.281 148.859 283.281C148.219 283.281 147.667 283.229 147.203 283.125C146.745 283.026 146.367 282.885 146.07 282.703C145.779 282.521 145.562 282.302 145.422 282.047C145.281 281.797 145.211 281.521 145.211 281.219C145.211 281.036 145.234 280.867 145.281 280.711C145.328 280.555 145.398 280.404 145.492 280.258C145.586 280.117 145.703 279.979 145.844 279.844C145.984 279.708 146.151 279.573 146.344 279.438C146.089 279.292 145.893 279.104 145.758 278.875C145.628 278.646 145.562 278.401 145.562 278.141C145.562 277.964 145.586 277.799 145.633 277.648C145.68 277.492 145.74 277.344 145.812 277.203C145.891 277.062 145.979 276.927 146.078 276.797C146.177 276.667 146.281 276.539 146.391 276.414C146.198 276.221 146.036 275.99 145.906 275.719C145.781 275.443 145.719 275.099 145.719 274.688C145.719 274.245 145.797 273.852 145.953 273.508C146.115 273.159 146.336 272.867 146.617 272.633C146.898 272.393 147.232 272.214 147.617 272.094C148.008 271.969 148.432 271.906 148.891 271.906C149.125 271.906 149.349 271.919 149.562 271.945C149.781 271.966 149.979 272.005 150.156 272.062H152.906V273.453H151.656ZM147.164 281.055C147.164 281.362 147.318 281.589 147.625 281.734C147.938 281.88 148.375 281.953 148.938 281.953C149.297 281.953 149.599 281.919 149.844 281.852C150.094 281.784 150.297 281.695 150.453 281.586C150.609 281.477 150.721 281.349 150.789 281.203C150.857 281.057 150.891 280.906 150.891 280.75C150.891 280.609 150.857 280.49 150.789 280.391C150.727 280.297 150.635 280.216 150.516 280.148C150.401 280.086 150.263 280.036 150.102 280C149.945 279.969 149.771 279.948 149.578 279.938L147.898 279.906C147.747 280.01 147.622 280.109 147.523 280.203C147.43 280.297 147.354 280.388 147.297 280.477C147.245 280.57 147.208 280.664 147.188 280.758C147.172 280.852 147.164 280.951 147.164 281.055ZM147.484 274.688C147.484 275.109 147.607 275.445 147.852 275.695C148.102 275.94 148.448 276.062 148.891 276.062C149.125 276.062 149.328 276.023 149.5 275.945C149.677 275.867 149.823 275.763 149.938 275.633C150.052 275.503 150.138 275.352 150.195 275.18C150.253 275.008 150.281 274.828 150.281 274.641C150.281 274.198 150.156 273.854 149.906 273.609C149.661 273.359 149.318 273.234 148.875 273.234C148.641 273.234 148.435 273.273 148.258 273.352C148.086 273.43 147.943 273.536 147.828 273.672C147.714 273.802 147.628 273.956 147.57 274.133C147.513 274.31 147.484 274.495 147.484 274.688ZM156.391 272.062V277.234C156.391 277.667 156.471 277.995 156.633 278.219C156.794 278.438 157.039 278.547 157.367 278.547C157.685 278.547 157.99 278.417 158.281 278.156C158.578 277.891 158.891 277.534 159.219 277.086V272.062H161.125V280H159.477L159.43 278.828C159.263 279.031 159.094 279.216 158.922 279.383C158.75 279.549 158.562 279.693 158.359 279.812C158.161 279.927 157.943 280.016 157.703 280.078C157.469 280.146 157.208 280.18 156.922 280.18C156.516 280.18 156.159 280.115 155.852 279.984C155.549 279.849 155.297 279.659 155.094 279.414C154.891 279.169 154.737 278.878 154.633 278.539C154.534 278.195 154.484 277.812 154.484 277.391V272.062H156.391ZM168.031 280V274.828C168.031 273.958 167.708 273.523 167.062 273.523C166.74 273.523 166.43 273.654 166.133 273.914C165.841 274.174 165.531 274.529 165.203 274.977V280H163.297V272.062H164.945L164.992 273.234C165.154 273.031 165.32 272.846 165.492 272.68C165.669 272.513 165.859 272.372 166.062 272.258C166.266 272.138 166.484 272.047 166.719 271.984C166.953 271.922 167.216 271.891 167.508 271.891C167.914 271.891 168.268 271.958 168.57 272.094C168.872 272.224 169.125 272.411 169.328 272.656C169.531 272.896 169.682 273.188 169.781 273.531C169.885 273.87 169.938 274.25 169.938 274.672V280H168.031ZM172.445 280V269.789H178.594V271.414H174.398V273.953H178.398V275.539H174.398V278.375H178.594V280H172.445ZM186.492 280V274.594C186.492 274.396 186.487 274.224 186.477 274.078C186.466 273.927 186.445 273.802 186.414 273.703C186.383 273.604 186.336 273.531 186.273 273.484C186.216 273.432 186.135 273.406 186.031 273.406C185.87 273.406 185.711 273.516 185.555 273.734C185.398 273.953 185.221 274.326 185.023 274.852V280H183.391V274.594C183.391 274.396 183.385 274.224 183.375 274.078C183.365 273.927 183.344 273.802 183.312 273.703C183.281 273.604 183.234 273.531 183.172 273.484C183.109 273.432 183.026 273.406 182.922 273.406C182.786 273.406 182.635 273.516 182.469 273.734C182.302 273.953 182.117 274.326 181.914 274.852V280H180.266V272.062H181.68L181.711 273.219C181.826 272.984 181.94 272.784 182.055 272.617C182.169 272.451 182.292 272.315 182.422 272.211C182.552 272.102 182.69 272.023 182.836 271.977C182.987 271.93 183.156 271.906 183.344 271.906C183.786 271.906 184.122 272.023 184.352 272.258C184.586 272.487 184.719 272.807 184.75 273.219C184.875 272.984 184.997 272.784 185.117 272.617C185.242 272.451 185.37 272.315 185.5 272.211C185.635 272.102 185.779 272.023 185.93 271.977C186.086 271.93 186.258 271.906 186.445 271.906C187.023 271.906 187.451 272.109 187.727 272.516C188.003 272.917 188.141 273.513 188.141 274.305V280H186.492ZM194.664 280L194.617 278.961C194.451 279.138 194.276 279.302 194.094 279.453C193.911 279.599 193.711 279.727 193.492 279.836C193.273 279.945 193.034 280.029 192.773 280.086C192.518 280.148 192.237 280.18 191.93 280.18C191.523 280.18 191.167 280.12 190.859 280C190.552 279.88 190.294 279.714 190.086 279.5C189.878 279.286 189.719 279.029 189.609 278.727C189.505 278.424 189.453 278.091 189.453 277.727C189.453 277.352 189.531 277.005 189.688 276.688C189.849 276.37 190.091 276.096 190.414 275.867C190.742 275.638 191.148 275.458 191.633 275.328C192.122 275.198 192.695 275.133 193.352 275.133H194.391V274.656C194.391 274.453 194.362 274.271 194.305 274.109C194.247 273.943 194.154 273.802 194.023 273.688C193.898 273.573 193.734 273.484 193.531 273.422C193.328 273.359 193.078 273.328 192.781 273.328C192.312 273.328 191.849 273.383 191.391 273.492C190.938 273.596 190.497 273.745 190.07 273.938V272.414C190.451 272.263 190.888 272.138 191.383 272.039C191.883 271.94 192.401 271.891 192.938 271.891C193.526 271.891 194.031 271.948 194.453 272.062C194.875 272.172 195.221 272.339 195.492 272.562C195.768 272.786 195.971 273.068 196.102 273.406C196.232 273.74 196.297 274.13 196.297 274.578V280H194.664ZM194.391 276.492H193.227C192.904 276.492 192.63 276.523 192.406 276.586C192.182 276.648 192 276.734 191.859 276.844C191.719 276.953 191.615 277.081 191.547 277.227C191.484 277.367 191.453 277.518 191.453 277.68C191.453 278.003 191.557 278.25 191.766 278.422C191.974 278.589 192.258 278.672 192.617 278.672C192.883 278.672 193.159 278.576 193.445 278.383C193.732 278.19 194.047 277.914 194.391 277.555V276.492ZM203.156 269.891C203.156 270.062 203.125 270.224 203.062 270.375C203 270.526 202.911 270.659 202.797 270.773C202.688 270.883 202.557 270.971 202.406 271.039C202.255 271.102 202.091 271.133 201.914 271.133C201.737 271.133 201.57 271.102 201.414 271.039C201.263 270.971 201.13 270.883 201.016 270.773C200.906 270.659 200.82 270.526 200.758 270.375C200.695 270.224 200.664 270.062 200.664 269.891C200.664 269.719 200.695 269.557 200.758 269.406C200.82 269.255 200.906 269.122 201.016 269.008C201.13 268.893 201.263 268.805 201.414 268.742C201.57 268.674 201.737 268.641 201.914 268.641C202.091 268.641 202.255 268.674 202.406 268.742C202.557 268.805 202.688 268.893 202.797 269.008C202.911 269.122 203 269.255 203.062 269.406C203.125 269.557 203.156 269.719 203.156 269.891ZM201.047 273.547H198.805V272.062H203V278.516H205.289V280H198.531V278.516H201.047V273.547ZM209.844 270.445H207.602V268.961H211.797V278.516H214.086V280H207.328V278.516H209.844V270.445ZM222.961 276.914C222.961 277.471 222.857 277.956 222.648 278.367C222.445 278.779 222.159 279.12 221.789 279.391C221.419 279.656 220.979 279.854 220.469 279.984C219.958 280.115 219.401 280.18 218.797 280.18C218.26 280.18 217.742 280.148 217.242 280.086C216.742 280.023 216.247 279.919 215.758 279.773V277.875C215.997 277.958 216.247 278.036 216.508 278.109C216.768 278.182 217.029 278.247 217.289 278.305C217.555 278.357 217.818 278.398 218.078 278.43C218.339 278.461 218.591 278.477 218.836 278.477C219.201 278.477 219.51 278.445 219.766 278.383C220.021 278.32 220.229 278.234 220.391 278.125C220.552 278.016 220.669 277.885 220.742 277.734C220.815 277.583 220.852 277.417 220.852 277.234C220.852 276.984 220.779 276.776 220.633 276.609C220.492 276.438 220.305 276.286 220.07 276.156C219.836 276.026 219.568 275.909 219.266 275.805C218.969 275.701 218.664 275.589 218.352 275.469C218.044 275.349 217.74 275.214 217.438 275.062C217.141 274.911 216.875 274.724 216.641 274.5C216.406 274.276 216.216 274.01 216.07 273.703C215.93 273.391 215.859 273.016 215.859 272.578C215.859 272.177 215.932 271.797 216.078 271.438C216.224 271.078 216.453 270.766 216.766 270.5C217.078 270.229 217.479 270.016 217.969 269.859C218.458 269.698 219.049 269.617 219.742 269.617C219.945 269.617 220.156 269.628 220.375 269.648C220.599 269.664 220.818 269.688 221.031 269.719C221.25 269.745 221.458 269.779 221.656 269.82C221.859 269.857 222.044 269.896 222.211 269.938V271.695C222.044 271.633 221.862 271.576 221.664 271.523C221.466 271.471 221.26 271.427 221.047 271.391C220.839 271.349 220.628 271.318 220.414 271.297C220.201 271.276 219.997 271.266 219.805 271.266C219.466 271.266 219.18 271.294 218.945 271.352C218.711 271.404 218.518 271.479 218.367 271.578C218.216 271.672 218.107 271.789 218.039 271.93C217.971 272.07 217.938 272.227 217.938 272.398C217.938 272.612 218.008 272.797 218.148 272.953C218.294 273.104 218.484 273.242 218.719 273.367C218.958 273.487 219.227 273.602 219.523 273.711C219.826 273.815 220.133 273.93 220.445 274.055C220.763 274.174 221.07 274.312 221.367 274.469C221.669 274.625 221.938 274.815 222.172 275.039C222.411 275.263 222.602 275.529 222.742 275.836C222.888 276.138 222.961 276.497 222.961 276.914ZM231.789 275.422C231.789 275.552 231.784 275.721 231.773 275.93C231.768 276.138 231.758 276.333 231.742 276.516H226.523C226.523 276.865 226.576 277.172 226.68 277.438C226.789 277.703 226.94 277.927 227.133 278.109C227.331 278.286 227.565 278.422 227.836 278.516C228.112 278.609 228.417 278.656 228.75 278.656C229.135 278.656 229.547 278.628 229.984 278.57C230.427 278.508 230.885 278.409 231.359 278.273V279.789C231.156 279.846 230.935 279.898 230.695 279.945C230.456 279.992 230.211 280.034 229.961 280.07C229.711 280.107 229.458 280.133 229.203 280.148C228.948 280.169 228.701 280.18 228.461 280.18C227.857 280.18 227.315 280.094 226.836 279.922C226.357 279.75 225.951 279.497 225.617 279.164C225.284 278.826 225.029 278.409 224.852 277.914C224.674 277.419 224.586 276.846 224.586 276.195C224.586 275.549 224.674 274.964 224.852 274.438C225.029 273.906 225.279 273.453 225.602 273.078C225.924 272.698 226.315 272.406 226.773 272.203C227.237 271.995 227.753 271.891 228.32 271.891C228.883 271.891 229.38 271.979 229.812 272.156C230.245 272.328 230.607 272.57 230.898 272.883C231.19 273.195 231.411 273.568 231.562 274C231.714 274.432 231.789 274.906 231.789 275.422ZM229.852 275.148C229.857 274.836 229.818 274.565 229.734 274.336C229.651 274.102 229.536 273.909 229.391 273.758C229.25 273.607 229.083 273.495 228.891 273.422C228.703 273.349 228.5 273.312 228.281 273.312C227.802 273.312 227.409 273.474 227.102 273.797C226.794 274.115 226.612 274.565 226.555 275.148H229.852ZM238.781 275.148C238.792 274.852 238.776 274.599 238.734 274.391C238.698 274.182 238.635 274.01 238.547 273.875C238.464 273.74 238.359 273.641 238.234 273.578C238.109 273.516 237.966 273.484 237.805 273.484C237.523 273.484 237.232 273.602 236.93 273.836C236.633 274.065 236.305 274.445 235.945 274.977V280H233.992V272.062H235.719L235.789 273.219C235.919 273.016 236.065 272.833 236.227 272.672C236.393 272.51 236.576 272.372 236.773 272.258C236.977 272.138 237.201 272.047 237.445 271.984C237.69 271.922 237.958 271.891 238.25 271.891C238.651 271.891 239.005 271.961 239.312 272.102C239.625 272.237 239.885 272.44 240.094 272.711C240.307 272.982 240.464 273.323 240.562 273.734C240.667 274.141 240.711 274.612 240.695 275.148H238.781ZM246.906 280H244.711L241.562 272.062H243.688L245.336 276.562L245.828 278.016L246.312 276.625L247.977 272.062H250.023L246.906 280ZM255.938 269.891C255.938 270.062 255.906 270.224 255.844 270.375C255.781 270.526 255.693 270.659 255.578 270.773C255.469 270.883 255.339 270.971 255.188 271.039C255.036 271.102 254.872 271.133 254.695 271.133C254.518 271.133 254.352 271.102 254.195 271.039C254.044 270.971 253.911 270.883 253.797 270.773C253.688 270.659 253.602 270.526 253.539 270.375C253.477 270.224 253.445 270.062 253.445 269.891C253.445 269.719 253.477 269.557 253.539 269.406C253.602 269.255 253.688 269.122 253.797 269.008C253.911 268.893 254.044 268.805 254.195 268.742C254.352 268.674 254.518 268.641 254.695 268.641C254.872 268.641 255.036 268.674 255.188 268.742C255.339 268.805 255.469 268.893 255.578 269.008C255.693 269.122 255.781 269.255 255.844 269.406C255.906 269.557 255.938 269.719 255.938 269.891ZM253.828 273.547H251.586V272.062H255.781V278.516H258.07V280H251.312V278.516H253.828V273.547ZM266.484 279.695C266.109 279.846 265.721 279.958 265.32 280.031C264.919 280.104 264.5 280.141 264.062 280.141C263.432 280.141 262.867 280.055 262.367 279.883C261.867 279.711 261.443 279.456 261.094 279.117C260.745 278.779 260.477 278.359 260.289 277.859C260.107 277.359 260.016 276.781 260.016 276.125C260.016 275.49 260.115 274.914 260.312 274.398C260.516 273.883 260.799 273.443 261.164 273.078C261.529 272.714 261.966 272.432 262.477 272.234C262.992 272.036 263.565 271.938 264.195 271.938C264.711 271.938 265.143 271.966 265.492 272.023C265.846 272.076 266.164 272.143 266.445 272.227V274.078C266.122 273.917 265.771 273.792 265.391 273.703C265.016 273.615 264.659 273.57 264.32 273.57C263.966 273.57 263.648 273.63 263.367 273.75C263.086 273.87 262.849 274.036 262.656 274.25C262.464 274.464 262.315 274.724 262.211 275.031C262.112 275.333 262.062 275.667 262.062 276.031C262.062 276.411 262.117 276.753 262.227 277.055C262.336 277.357 262.49 277.615 262.688 277.828C262.891 278.036 263.133 278.198 263.414 278.312C263.695 278.422 264.008 278.477 264.352 278.477C264.518 278.477 264.693 278.466 264.875 278.445C265.062 278.419 265.247 278.385 265.43 278.344C265.617 278.297 265.799 278.245 265.977 278.188C266.159 278.13 266.328 278.068 266.484 278V279.695ZM275.773 275.422C275.773 275.552 275.768 275.721 275.758 275.93C275.753 276.138 275.742 276.333 275.727 276.516H270.508C270.508 276.865 270.56 277.172 270.664 277.438C270.773 277.703 270.924 277.927 271.117 278.109C271.315 278.286 271.549 278.422 271.82 278.516C272.096 278.609 272.401 278.656 272.734 278.656C273.12 278.656 273.531 278.628 273.969 278.57C274.411 278.508 274.87 278.409 275.344 278.273V279.789C275.141 279.846 274.919 279.898 274.68 279.945C274.44 279.992 274.195 280.034 273.945 280.07C273.695 280.107 273.443 280.133 273.188 280.148C272.932 280.169 272.685 280.18 272.445 280.18C271.841 280.18 271.299 280.094 270.82 279.922C270.341 279.75 269.935 279.497 269.602 279.164C269.268 278.826 269.013 278.409 268.836 277.914C268.659 277.419 268.57 276.846 268.57 276.195C268.57 275.549 268.659 274.964 268.836 274.438C269.013 273.906 269.263 273.453 269.586 273.078C269.909 272.698 270.299 272.406 270.758 272.203C271.221 271.995 271.737 271.891 272.305 271.891C272.867 271.891 273.365 271.979 273.797 272.156C274.229 272.328 274.591 272.57 274.883 272.883C275.174 273.195 275.396 273.568 275.547 274C275.698 274.432 275.773 274.906 275.773 275.422ZM273.836 275.148C273.841 274.836 273.802 274.565 273.719 274.336C273.635 274.102 273.521 273.909 273.375 273.758C273.234 273.607 273.068 273.495 272.875 273.422C272.688 273.349 272.484 273.312 272.266 273.312C271.786 273.312 271.393 273.474 271.086 273.797C270.779 274.115 270.596 274.565 270.539 275.148H273.836Z" fill="black"/>
</svg>
