<svg width="116" height="108" viewBox="0 0 116 108" fill="none" xmlns="http://www.w3.org/2000/svg">
<path d="M1.99219 92.8594V91.2891H8.44531V92.8594H6.19531V99.9141H8.44531V101.5H1.99219V99.9141H4.24219V92.8594H1.99219ZM11.0547 101.5V91.2891H17.2031V92.9141H13.0078V95.4531H17.0078V97.0391H13.0078V99.875H17.2031V101.5H11.0547ZM25.1016 101.5V96.0938C25.1016 95.8958 25.0964 95.724 25.0859 95.5781C25.0755 95.4271 25.0547 95.3021 25.0234 95.2031C24.9922 95.1042 24.9453 95.0312 24.8828 94.9844C24.8255 94.9323 24.7448 94.9062 24.6406 94.9062C24.4792 94.9062 24.3203 95.0156 24.1641 95.2344C24.0078 95.4531 23.8307 95.8255 23.6328 96.3516V101.5H22V96.0938C22 95.8958 21.9948 95.724 21.9844 95.5781C21.974 95.4271 21.9531 95.3021 21.9219 95.2031C21.8906 95.1042 21.8438 95.0312 21.7812 94.9844C21.7188 94.9323 21.6354 94.9062 21.5312 94.9062C21.3958 94.9062 21.2448 95.0156 21.0781 95.2344C20.9115 95.4531 20.7266 95.8255 20.5234 96.3516V101.5H18.875V93.5625H20.2891L20.3203 94.7188C20.4349 94.4844 20.5495 94.2839 20.6641 94.1172C20.7786 93.9505 20.901 93.8151 21.0312 93.7109C21.1615 93.6016 21.2995 93.5234 21.4453 93.4766C21.5964 93.4297 21.7656 93.4062 21.9531 93.4062C22.3958 93.4062 22.7318 93.5234 22.9609 93.7578C23.1953 93.987 23.3281 94.3073 23.3594 94.7188C23.4844 94.4844 23.6068 94.2839 23.7266 94.1172C23.8516 93.9505 23.9792 93.8151 24.1094 93.7109C24.2448 93.6016 24.388 93.5234 24.5391 93.4766C24.6953 93.4297 24.8672 93.4062 25.0547 93.4062C25.6328 93.4062 26.0599 93.6094 26.3359 94.0156C26.612 94.4167 26.75 95.013 26.75 95.8047V101.5H25.1016ZM33.2734 101.5L33.2266 100.461C33.0599 100.638 32.8854 100.802 32.7031 100.953C32.5208 101.099 32.3203 101.227 32.1016 101.336C31.8828 101.445 31.6432 101.529 31.3828 101.586C31.1276 101.648 30.8464 101.68 30.5391 101.68C30.1328 101.68 29.776 101.62 29.4688 101.5C29.1615 101.38 28.9036 101.214 28.6953 101C28.487 100.786 28.3281 100.529 28.2188 100.227C28.1146 99.9245 28.0625 99.5911 28.0625 99.2266C28.0625 98.8516 28.1406 98.5052 28.2969 98.1875C28.4583 97.8698 28.7005 97.5964 29.0234 97.3672C29.3516 97.138 29.7578 96.9583 30.2422 96.8281C30.7318 96.6979 31.3047 96.6328 31.9609 96.6328H33V96.1562C33 95.9531 32.9714 95.7708 32.9141 95.6094C32.8568 95.4427 32.763 95.3021 32.6328 95.1875C32.5078 95.0729 32.3438 94.9844 32.1406 94.9219C31.9375 94.8594 31.6875 94.8281 31.3906 94.8281C30.9219 94.8281 30.4583 94.8828 30 94.9922C29.5469 95.0964 29.1068 95.2448 28.6797 95.4375V93.9141C29.0599 93.763 29.4974 93.638 29.9922 93.5391C30.4922 93.4401 31.0104 93.3906 31.5469 93.3906C32.1354 93.3906 32.6406 93.4479 33.0625 93.5625C33.4844 93.6719 33.8307 93.8385 34.1016 94.0625C34.3776 94.2865 34.5807 94.5677 34.7109 94.9062C34.8411 95.2396 34.9062 95.6302 34.9062 96.0781V101.5H33.2734ZM33 97.9922H31.8359C31.513 97.9922 31.2396 98.0234 31.0156 98.0859C30.7917 98.1484 30.6094 98.2344 30.4688 98.3438C30.3281 98.4531 30.224 98.5807 30.1562 98.7266C30.0938 98.8672 30.0625 99.0182 30.0625 99.1797C30.0625 99.5026 30.1667 99.75 30.375 99.9219C30.5833 100.089 30.8672 100.172 31.2266 100.172C31.4922 100.172 31.7682 100.076 32.0547 99.8828C32.3411 99.6901 32.6562 99.4141 33 99.0547V97.9922ZM41.7656 91.3906C41.7656 91.5625 41.7344 91.724 41.6719 91.875C41.6094 92.026 41.5208 92.1589 41.4062 92.2734C41.2969 92.3828 41.1667 92.4714 41.0156 92.5391C40.8646 92.6016 40.7005 92.6328 40.5234 92.6328C40.3464 92.6328 40.1797 92.6016 40.0234 92.5391C39.8724 92.4714 39.7396 92.3828 39.625 92.2734C39.5156 92.1589 39.4297 92.026 39.3672 91.875C39.3047 91.724 39.2734 91.5625 39.2734 91.3906C39.2734 91.2188 39.3047 91.0573 39.3672 90.9062C39.4297 90.7552 39.5156 90.6224 39.625 90.5078C39.7396 90.3932 39.8724 90.3047 40.0234 90.2422C40.1797 90.1745 40.3464 90.1406 40.5234 90.1406C40.7005 90.1406 40.8646 90.1745 41.0156 90.2422C41.1667 90.3047 41.2969 90.3932 41.4062 90.5078C41.5208 90.6224 41.6094 90.7552 41.6719 90.9062C41.7344 91.0573 41.7656 91.2188 41.7656 91.3906ZM39.6562 95.0469H37.4141V93.5625H41.6094V100.016H43.8984V101.5H37.1406V100.016H39.6562V95.0469ZM48.4531 91.9453H46.2109V90.4609H50.4062V100.016H52.6953V101.5H45.9375V100.016H48.4531V91.9453ZM61.5703 98.4141C61.5703 98.9714 61.4661 99.4557 61.2578 99.8672C61.0547 100.279 60.7682 100.62 60.3984 100.891C60.0286 101.156 59.5885 101.354 59.0781 101.484C58.5677 101.615 58.0104 101.68 57.4062 101.68C56.8698 101.68 56.3516 101.648 55.8516 101.586C55.3516 101.523 54.8568 101.419 54.3672 101.273V99.375C54.6068 99.4583 54.8568 99.5365 55.1172 99.6094C55.3776 99.6823 55.638 99.7474 55.8984 99.8047C56.1641 99.8568 56.4271 99.8984 56.6875 99.9297C56.9479 99.9609 57.2005 99.9766 57.4453 99.9766C57.8099 99.9766 58.1198 99.9453 58.375 99.8828C58.6302 99.8203 58.8385 99.7344 59 99.625C59.1615 99.5156 59.2786 99.3854 59.3516 99.2344C59.4245 99.0833 59.4609 98.9167 59.4609 98.7344C59.4609 98.4844 59.388 98.276 59.2422 98.1094C59.1016 97.9375 58.9141 97.7865 58.6797 97.6562C58.4453 97.526 58.1771 97.4089 57.875 97.3047C57.5781 97.2005 57.2734 97.0885 56.9609 96.9688C56.6536 96.849 56.349 96.7135 56.0469 96.5625C55.75 96.4115 55.4844 96.224 55.25 96C55.0156 95.776 54.8255 95.5104 54.6797 95.2031C54.5391 94.8906 54.4688 94.5156 54.4688 94.0781C54.4688 93.6771 54.5417 93.2969 54.6875 92.9375C54.8333 92.5781 55.0625 92.2656 55.375 92C55.6875 91.7292 56.0885 91.5156 56.5781 91.3594C57.0677 91.1979 57.6589 91.1172 58.3516 91.1172C58.5547 91.1172 58.7656 91.1276 58.9844 91.1484C59.2083 91.1641 59.4271 91.1875 59.6406 91.2188C59.8594 91.2448 60.0677 91.2786 60.2656 91.3203C60.4688 91.3568 60.6536 91.3958 60.8203 91.4375V93.1953C60.6536 93.1328 60.4714 93.0755 60.2734 93.0234C60.0755 92.9714 59.8698 92.9271 59.6562 92.8906C59.4479 92.849 59.237 92.8177 59.0234 92.7969C58.8099 92.776 58.6068 92.7656 58.4141 92.7656C58.0755 92.7656 57.7891 92.7943 57.5547 92.8516C57.3203 92.9036 57.1276 92.9792 56.9766 93.0781C56.8255 93.1719 56.7161 93.2891 56.6484 93.4297C56.5807 93.5703 56.5469 93.7266 56.5469 93.8984C56.5469 94.112 56.6172 94.2969 56.7578 94.4531C56.9036 94.6042 57.0938 94.7422 57.3281 94.8672C57.5677 94.987 57.8359 95.1016 58.1328 95.2109C58.4349 95.3151 58.7422 95.4297 59.0547 95.5547C59.3724 95.6745 59.6797 95.8125 59.9766 95.9688C60.2786 96.125 60.5469 96.3151 60.7812 96.5391C61.0208 96.763 61.2109 97.0286 61.3516 97.3359C61.4974 97.638 61.5703 97.9974 61.5703 98.4141ZM70.3984 96.9219C70.3984 97.0521 70.3932 97.2214 70.3828 97.4297C70.3776 97.638 70.3672 97.8333 70.3516 98.0156H65.1328C65.1328 98.3646 65.1849 98.6719 65.2891 98.9375C65.3984 99.2031 65.5495 99.4271 65.7422 99.6094C65.9401 99.7865 66.1745 99.9219 66.4453 100.016C66.7214 100.109 67.026 100.156 67.3594 100.156C67.7448 100.156 68.1562 100.128 68.5938 100.07C69.0365 100.008 69.4948 99.9089 69.9688 99.7734V101.289C69.7656 101.346 69.5443 101.398 69.3047 101.445C69.0651 101.492 68.8203 101.534 68.5703 101.57C68.3203 101.607 68.0677 101.633 67.8125 101.648C67.5573 101.669 67.3099 101.68 67.0703 101.68C66.4661 101.68 65.9245 101.594 65.4453 101.422C64.9661 101.25 64.5599 100.997 64.2266 100.664C63.8932 100.326 63.638 99.9089 63.4609 99.4141C63.2839 98.9193 63.1953 98.3464 63.1953 97.6953C63.1953 97.0495 63.2839 96.4635 63.4609 95.9375C63.638 95.4062 63.888 94.9531 64.2109 94.5781C64.5339 94.1979 64.9245 93.9062 65.3828 93.7031C65.8464 93.4948 66.362 93.3906 66.9297 93.3906C67.4922 93.3906 67.9896 93.4792 68.4219 93.6562C68.8542 93.8281 69.2161 94.0703 69.5078 94.3828C69.7995 94.6953 70.0208 95.0677 70.1719 95.5C70.3229 95.9323 70.3984 96.4062 70.3984 96.9219ZM68.4609 96.6484C68.4661 96.3359 68.4271 96.0651 68.3438 95.8359C68.2604 95.6016 68.1458 95.4089 68 95.2578C67.8594 95.1068 67.6927 94.9948 67.5 94.9219C67.3125 94.849 67.1094 94.8125 66.8906 94.8125C66.4115 94.8125 66.0182 94.974 65.7109 95.2969C65.4036 95.6146 65.2214 96.0651 65.1641 96.6484H68.4609ZM77.3906 96.6484C77.401 96.3516 77.3854 96.099 77.3438 95.8906C77.3073 95.6823 77.2448 95.5104 77.1562 95.375C77.0729 95.2396 76.9688 95.1406 76.8438 95.0781C76.7188 95.0156 76.5755 94.9844 76.4141 94.9844C76.1328 94.9844 75.8411 95.1016 75.5391 95.3359C75.2422 95.5651 74.9141 95.9453 74.5547 96.4766V101.5H72.6016V93.5625H74.3281L74.3984 94.7188C74.5286 94.5156 74.6745 94.3333 74.8359 94.1719C75.0026 94.0104 75.1849 93.8724 75.3828 93.7578C75.5859 93.638 75.8099 93.5469 76.0547 93.4844C76.2995 93.4219 76.5677 93.3906 76.8594 93.3906C77.2604 93.3906 77.6146 93.4609 77.9219 93.6016C78.2344 93.737 78.4948 93.9401 78.7031 94.2109C78.9167 94.4818 79.0729 94.8229 79.1719 95.2344C79.276 95.6406 79.3203 96.112 79.3047 96.6484H77.3906ZM85.5156 101.5H83.3203L80.1719 93.5625H82.2969L83.9453 98.0625L84.4375 99.5156L84.9219 98.125L86.5859 93.5625H88.6328L85.5156 101.5ZM94.5469 91.3906C94.5469 91.5625 94.5156 91.724 94.4531 91.875C94.3906 92.026 94.3021 92.1589 94.1875 92.2734C94.0781 92.3828 93.9479 92.4714 93.7969 92.5391C93.6458 92.6016 93.4818 92.6328 93.3047 92.6328C93.1276 92.6328 92.9609 92.6016 92.8047 92.5391C92.6536 92.4714 92.5208 92.3828 92.4062 92.2734C92.2969 92.1589 92.2109 92.026 92.1484 91.875C92.0859 91.724 92.0547 91.5625 92.0547 91.3906C92.0547 91.2188 92.0859 91.0573 92.1484 90.9062C92.2109 90.7552 92.2969 90.6224 92.4062 90.5078C92.5208 90.3932 92.6536 90.3047 92.8047 90.2422C92.9609 90.1745 93.1276 90.1406 93.3047 90.1406C93.4818 90.1406 93.6458 90.1745 93.7969 90.2422C93.9479 90.3047 94.0781 90.3932 94.1875 90.5078C94.3021 90.6224 94.3906 90.7552 94.4531 90.9062C94.5156 91.0573 94.5469 91.2188 94.5469 91.3906ZM92.4375 95.0469H90.1953V93.5625H94.3906V100.016H96.6797V101.5H89.9219V100.016H92.4375V95.0469ZM105.094 101.195C104.719 101.346 104.331 101.458 103.93 101.531C103.529 101.604 103.109 101.641 102.672 101.641C102.042 101.641 101.477 101.555 100.977 101.383C100.477 101.211 100.052 100.956 99.7031 100.617C99.3542 100.279 99.0859 99.8594 98.8984 99.3594C98.7161 98.8594 98.625 98.2812 98.625 97.625C98.625 96.9896 98.724 96.4141 98.9219 95.8984C99.125 95.3828 99.4089 94.9427 99.7734 94.5781C100.138 94.2135 100.576 93.9323 101.086 93.7344C101.602 93.5365 102.174 93.4375 102.805 93.4375C103.32 93.4375 103.753 93.4661 104.102 93.5234C104.456 93.5755 104.773 93.6432 105.055 93.7266V95.5781C104.732 95.4167 104.38 95.2917 104 95.2031C103.625 95.1146 103.268 95.0703 102.93 95.0703C102.576 95.0703 102.258 95.1302 101.977 95.25C101.695 95.3698 101.458 95.5365 101.266 95.75C101.073 95.9635 100.924 96.224 100.82 96.5312C100.721 96.8333 100.672 97.1667 100.672 97.5312C100.672 97.9115 100.727 98.2526 100.836 98.5547C100.945 98.8568 101.099 99.1146 101.297 99.3281C101.5 99.5365 101.742 99.6979 102.023 99.8125C102.305 99.9219 102.617 99.9766 102.961 99.9766C103.128 99.9766 103.302 99.9661 103.484 99.9453C103.672 99.9193 103.857 99.8854 104.039 99.8438C104.227 99.7969 104.409 99.7448 104.586 99.6875C104.768 99.6302 104.938 99.5677 105.094 99.5V101.195ZM114.383 96.9219C114.383 97.0521 114.378 97.2214 114.367 97.4297C114.362 97.638 114.352 97.8333 114.336 98.0156H109.117C109.117 98.3646 109.169 98.6719 109.273 98.9375C109.383 99.2031 109.534 99.4271 109.727 99.6094C109.924 99.7865 110.159 99.9219 110.43 100.016C110.706 100.109 111.01 100.156 111.344 100.156C111.729 100.156 112.141 100.128 112.578 100.07C113.021 100.008 113.479 99.9089 113.953 99.7734V101.289C113.75 101.346 113.529 101.398 113.289 101.445C113.049 101.492 112.805 101.534 112.555 101.57C112.305 101.607 112.052 101.633 111.797 101.648C111.542 101.669 111.294 101.68 111.055 101.68C110.451 101.68 109.909 101.594 109.43 101.422C108.951 101.25 108.544 100.997 108.211 100.664C107.878 100.326 107.622 99.9089 107.445 99.4141C107.268 98.9193 107.18 98.3464 107.18 97.6953C107.18 97.0495 107.268 96.4635 107.445 95.9375C107.622 95.4062 107.872 94.9531 108.195 94.5781C108.518 94.1979 108.909 93.9062 109.367 93.7031C109.831 93.4948 110.346 93.3906 110.914 93.3906C111.477 93.3906 111.974 93.4792 112.406 93.6562C112.839 93.8281 113.201 94.0703 113.492 94.3828C113.784 94.6953 114.005 95.0677 114.156 95.5C114.307 95.9323 114.383 96.4062 114.383 96.9219ZM112.445 96.6484C112.451 96.3359 112.411 96.0651 112.328 95.8359C112.245 95.6016 112.13 95.4089 111.984 95.2578C111.844 95.1068 111.677 94.9948 111.484 94.9219C111.297 94.849 111.094 94.8125 110.875 94.8125C110.396 94.8125 110.003 94.974 109.695 95.2969C109.388 95.6146 109.206 96.0651 109.148 96.6484H112.445Z" fill="black"/>
<path d="M86 54L86 2L101 2L101 71L13 71L13 2L28 2L28 54L28 56L30 56L45 56L47 56L47 54L47 2L67 2L67 54L67 56L69 56L84 56L86 56L86 54Z" fill="#FFFD54" stroke="black" stroke-width="4"/>
</svg>
