<svg width="47" height="47" viewBox="0 0 47 47" fill="none" xmlns="http://www.w3.org/2000/svg">
<path d="M23.4971 45.9778L45.9753 17.3691H33.7145L23.4971 45.9778Z" fill="#00FF33"/>
<path d="M23.4972 1.02148L13.2798 17.3693H33.7146L23.4972 1.02148Z" fill="#00FF33"/>
<path d="M1.01904 17.3691L23.4973 45.9778L13.2799 17.3691H1.01904Z" fill="#00FF33"/>
<path d="M0.030437 17.6035C0.0379205 17.634 0.049894 17.6619 0.0603708 17.6914C0.0758366 17.7363 0.083819 17.7822 0.105272 17.8261C0.127722 17.8715 0.161647 17.9079 0.190084 17.9488C0.20106 17.9652 0.203554 17.9847 0.216525 18.0012L22.6948 46.6099C22.6998 46.6158 22.7083 46.6178 22.7132 46.6238C22.7951 46.7231 22.8973 46.8009 23.0096 46.8623C23.04 46.8793 23.069 46.8937 23.1004 46.9072C23.2241 46.9621 23.3558 47 23.497 47C23.6382 47 23.7709 46.9621 23.8946 46.9082C23.9261 46.8947 23.9545 46.8793 23.9854 46.8633C24.0977 46.8009 24.2 46.7241 24.2818 46.6238C24.2868 46.6178 24.2947 46.6158 24.3002 46.6099L46.7785 18.0012C46.7905 17.9847 46.7935 17.9652 46.8049 17.9488C46.8334 17.9079 46.8663 17.8715 46.8897 17.8261C46.9112 17.7831 46.9192 17.7363 46.9346 17.6924C46.9446 17.6629 46.9571 17.634 46.9641 17.6045C46.991 17.4913 47.001 17.3756 46.989 17.2613C46.9865 17.2418 46.9786 17.2244 46.9756 17.2049C46.9591 17.1091 46.9297 17.0168 46.8868 16.928C46.8713 16.8956 46.8548 16.8657 46.8354 16.8352C46.8204 16.8098 46.8109 16.7819 46.7925 16.7574L34.5316 0.409594C34.5196 0.39313 34.4982 0.386146 34.4847 0.37068C34.4163 0.290358 34.3355 0.226998 34.2447 0.170623C34.2098 0.14917 34.1814 0.120733 34.1435 0.102274C34.0127 0.0399117 33.8696 0 33.7144 0H13.2796C13.1245 0 12.9813 0.0399117 12.8506 0.101276C12.8127 0.118737 12.7842 0.147174 12.7493 0.169625C12.6595 0.226 12.5777 0.28936 12.5093 0.369682C12.4959 0.386146 12.4744 0.392132 12.4619 0.408596L0.20106 16.7564C0.183099 16.7809 0.17362 16.8088 0.158154 16.8342C0.139196 16.8647 0.122733 16.8946 0.107267 16.927C0.064362 17.0158 0.0339293 17.1081 0.0184635 17.2039C0.0154702 17.2234 0.00698896 17.2409 0.00499337 17.2603C-0.00698013 17.3756 0.00299779 17.4903 0.030437 17.6035V17.6035ZM14.3014 2.04348H21.6536L14.3014 13.8069V2.04348ZM32.2646 18.3913L23.497 42.9395L14.7294 18.3913H32.2646ZM15.1225 16.3478L23.497 2.94997L31.871 16.3478H15.1225ZM34.4338 18.3913H43.8724L26.5672 40.4171L34.4338 18.3913ZM32.6927 13.8069L25.3399 2.04348H32.6927V13.8069ZM12.5602 18.3913L20.4268 40.4171L3.1206 18.3913H12.5602ZM34.7361 16.3478V4.08696L43.9318 16.3478H34.7361ZM12.2579 4.08696V16.3478H3.06223L12.2579 4.08696Z" fill="#7DE67B"/>
</svg>
