<svg width="40" height="38" viewBox="0 0 40 38" fill="none" xmlns="http://www.w3.org/2000/svg">
<rect y="0.000976562" width="1.99544" height="37.9997" rx="0.997718" fill="white"/>
<rect y="38" width="1.93876" height="39.5096" rx="0.969381" transform="rotate(-90 0 38)" fill="white"/>
<rect x="37.5142" width="1.99544" height="37.9997" rx="0.997718" fill="white"/>
<rect x="3.79126" y="1.93848" width="1.93876" height="34.7206" rx="0.969381" transform="rotate(-90 3.79126 1.93848)" fill="white"/>
<rect x="5.78687" y="33.9287" width="1.99544" height="33.9283" rx="0.99772" transform="rotate(-180 5.78687 33.9287)" fill="white"/>
<rect x="35.5188" y="31.9893" width="1.93876" height="31.7274" rx="0.969381" transform="rotate(90 35.5188 31.9893)" fill="white"/>
<rect x="35.5188" y="33.9287" width="1.99544" height="30.0508" rx="0.997719" transform="rotate(-180 35.5188 33.9287)" fill="white"/>
<rect x="35.5188" y="3.87793" width="1.93876" height="27.537" rx="0.969381" transform="rotate(90 35.5188 3.87793)" fill="white"/>
<rect x="7.98169" y="3.87793" width="1.99544" height="25.9794" rx="0.997721" fill="white"/>
<rect x="7.98169" y="29.8574" width="1.93876" height="21.7503" rx="0.96938" transform="rotate(-90 7.98169 29.8574)" fill="white"/>
<rect x="28.5347" y="8.91895" width="1.99544" height="20.9386" rx="0.997718" fill="white"/>
<rect x="12.1721" y="10.082" width="1.93876" height="18.358" rx="0.969381" transform="rotate(-90 12.1721 10.082)" fill="white"/>
<rect x="14.1677" y="25.5918" width="1.99544" height="17.255" rx="0.997718" transform="rotate(180 14.1677 25.5918)" fill="white"/>
<rect x="26.5393" y="23.8467" width="1.93876" height="14.3671" rx="0.969381" transform="rotate(90 26.5393 23.8467)" fill="white"/>
<rect x="26.7388" y="25.7852" width="1.99543" height="13.7652" rx="0.997717" transform="rotate(180 26.7388 25.7852)" fill="white"/>
<rect x="26.5393" y="12.0205" width="1.93876" height="10.3763" rx="0.96938" transform="rotate(90 26.5393 12.0205)" fill="white"/>
<rect x="15.9636" y="12.0205" width="1.99543" height="10.0816" rx="0.997717" fill="white"/>
<rect x="15.9636" y="22.1016" width="1.93876" height="6.78448" rx="0.96938" transform="rotate(-90 15.9636 22.1016)" fill="white"/>
<rect x="21.3511" y="15.5098" width="1.99544" height="6.59179" rx="0.997718" fill="white"/>
<rect x="18.7571" y="17.0615" width="1.93876" height="4.5895" rx="0.96938" transform="rotate(-90 18.7571 17.0615)" fill="white"/>
</svg>
