<svg width="45" height="44" viewBox="0 0 45 44" fill="none" xmlns="http://www.w3.org/2000/svg">
<rect width="2.27273" height="43.2802" rx="1.13636" fill="black"/>
<rect y="43.2803" width="2.20818" height="45" rx="1.10409" transform="rotate(-90 0 43.2803)" fill="black"/>
<rect x="42.7275" width="2.27273" height="43.2802" rx="1.13636" fill="black"/>
<rect x="4.31787" y="2.20801" width="2.20818" height="39.5454" rx="1.10409" transform="rotate(-90 4.31787 2.20801)" fill="black"/>
<rect x="6.59082" y="38.6426" width="2.27273" height="38.6431" rx="1.13636" transform="rotate(-180 6.59082 38.6426)" fill="black"/>
<rect x="40.4546" y="36.4346" width="2.20818" height="36.1363" rx="1.10409" transform="rotate(90 40.4546 36.4346)" fill="black"/>
<rect x="40.4546" y="38.6426" width="2.27273" height="34.2267" rx="1.13636" transform="rotate(-180 40.4546 38.6426)" fill="black"/>
<rect x="40.4546" y="4.41602" width="2.20818" height="31.3636" rx="1.10409" transform="rotate(90 40.4546 4.41602)" fill="black"/>
<rect x="9.09082" y="4.41602" width="2.27273" height="29.5895" rx="1.13637" fill="black"/>
<rect x="9.09082" y="34.0059" width="2.20817" height="24.7727" rx="1.10409" transform="rotate(-90 9.09082 34.0059)" fill="black"/>
<rect x="32.5" y="10.1572" width="2.27273" height="23.8483" rx="1.13636" fill="black"/>
<rect x="13.8638" y="11.4824" width="2.20818" height="20.9091" rx="1.10409" transform="rotate(-90 13.8638 11.4824)" fill="black"/>
<rect x="16.1362" y="29.1484" width="2.27273" height="19.6528" rx="1.13636" transform="rotate(180 16.1362 29.1484)" fill="black"/>
<rect x="30.2271" y="27.1602" width="2.20818" height="16.3636" rx="1.10409" transform="rotate(90 30.2271 27.1602)" fill="black"/>
<rect x="30.4546" y="29.3691" width="2.27272" height="15.678" rx="1.13636" transform="rotate(180 30.4546 29.3691)" fill="black"/>
<rect x="30.2271" y="13.6904" width="2.20817" height="11.8182" rx="1.10409" transform="rotate(90 30.2271 13.6904)" fill="black"/>
<rect x="18.1821" y="13.6904" width="2.27272" height="11.4825" rx="1.13636" fill="black"/>
<rect x="18.1821" y="25.1729" width="2.20817" height="7.72727" rx="1.10409" transform="rotate(-90 18.1821 25.1729)" fill="black"/>
<rect x="24.3179" y="17.666" width="2.27273" height="7.50779" rx="1.13636" fill="black"/>
<rect x="21.3638" y="19.4316" width="2.20817" height="5.22727" rx="1.10409" transform="rotate(-90 21.3638 19.4316)" fill="black"/>
</svg>
