<svg width="27" height="22" viewBox="0 0 27 22" fill="none" xmlns="http://www.w3.org/2000/svg">
<path d="M26.2988 0.758637C26.2988 0.339691 25.9591 0 25.5402 0H23.2645C22.9647 0 22.6932 0.176367 22.5714 0.450046C22.4494 0.723725 22.5 1.04335 22.7005 1.26607L23.4051 2.04898L14.2999 6.90518L10.6513 3.25666C10.4314 3.03676 10.0994 2.97335 9.81386 3.09675L0.457597 7.14275C0.0731625 7.30908 -0.103806 7.75551 0.0625283 8.14015C0.226455 8.51957 0.680112 8.69955 1.05993 8.53542L9.94307 4.69388L13.6245 8.37551C13.8607 8.61166 14.2234 8.66564 14.518 8.50833L24.4509 3.21092L24.9764 3.79479C25.2001 4.04359 25.5713 4.11582 25.8722 3.96935C26.1307 3.84375 26.2988 3.57468 26.2988 3.28736V0.758637Z" fill="black"/>
<path d="M25.9307 5.16571C25.7022 5.02867 25.4185 5.02144 25.1833 5.14685L14.3 10.9513L10.6517 7.30277C10.4316 7.08287 10.0997 7.01946 9.81417 7.14286L0.457714 11.1889C0.180022 11.3088 0.000244141 11.5825 0.000244141 11.8851V21.2413C0.000244141 21.6605 0.339935 22 0.758881 22H25.5403C25.9594 22 26.2989 21.6605 26.2989 21.2413V5.8162C26.2989 5.54974 26.1591 5.30275 25.9307 5.16571V5.16571ZM1.51752 12.3835L4.95657 10.8963V20.4827H1.51752V12.3835ZM6.47384 10.2402L9.91289 8.75323V20.4829H6.47384V10.2402ZM11.4302 10.227L13.6246 12.4216C13.8608 12.6578 14.2235 12.7117 14.5181 12.5544L14.8692 12.3672V20.4829H11.4302V10.227ZM16.3863 11.5578L19.8253 9.72395V20.4827H16.3863V11.5578ZM24.7817 20.4827H21.3426V8.91495L24.7817 7.08066V20.4827Z" fill="black"/>
</svg>
