<svg width="1025" height="185" viewBox="0 0 1025 185" fill="none" xmlns="http://www.w3.org/2000/svg">
<path d="M749.695 10.7656C749.695 11.5573 749.596 12.276 749.398 12.9219C749.206 13.5677 748.901 14.1198 748.484 14.5781C748.073 15.0312 747.544 15.3828 746.898 15.6328C746.253 15.8776 745.479 16 744.578 16H741.984V5.78906H745.008C745.789 5.78906 746.471 5.88802 747.055 6.08594C747.643 6.27865 748.133 6.57812 748.523 6.98438C748.914 7.39062 749.206 7.90625 749.398 8.53125C749.596 9.15625 749.695 9.90104 749.695 10.7656ZM747.633 10.8906C747.633 10.3385 747.589 9.84635 747.5 9.41406C747.411 8.98177 747.26 8.61719 747.047 8.32031C746.839 8.01823 746.557 7.78906 746.203 7.63281C745.849 7.47656 745.409 7.39844 744.883 7.39844H743.906V14.3906H744.75C745.693 14.3906 746.409 14.1094 746.898 13.5469C747.388 12.9844 747.633 12.099 747.633 10.8906ZM755.867 5.89062C755.867 6.0625 755.836 6.22396 755.773 6.375C755.711 6.52604 755.622 6.65885 755.508 6.77344C755.398 6.88281 755.268 6.97135 755.117 7.03906C754.966 7.10156 754.802 7.13281 754.625 7.13281C754.448 7.13281 754.281 7.10156 754.125 7.03906C753.974 6.97135 753.841 6.88281 753.727 6.77344C753.617 6.65885 753.531 6.52604 753.469 6.375C753.406 6.22396 753.375 6.0625 753.375 5.89062C753.375 5.71875 753.406 5.55729 753.469 5.40625C753.531 5.25521 753.617 5.1224 753.727 5.00781C753.841 4.89323 753.974 4.80469 754.125 4.74219C754.281 4.67448 754.448 4.64062 754.625 4.64062C754.802 4.64062 754.966 4.67448 755.117 4.74219C755.268 4.80469 755.398 4.89323 755.508 5.00781C755.622 5.1224 755.711 5.25521 755.773 5.40625C755.836 5.55729 755.867 5.71875 755.867 5.89062ZM753.758 9.54688H751.516V8.0625H755.711V14.5156H758V16H751.242V14.5156H753.758V9.54688ZM766.539 13.6641C766.539 14.1172 766.438 14.5052 766.234 14.8281C766.036 15.1458 765.771 15.4062 765.438 15.6094C765.109 15.8073 764.734 15.9505 764.312 16.0391C763.896 16.1328 763.469 16.1797 763.031 16.1797C762.448 16.1797 761.922 16.151 761.453 16.0938C760.984 16.0417 760.542 15.9635 760.125 15.8594V14.1406C760.615 14.3438 761.102 14.4922 761.586 14.5859C762.076 14.6745 762.536 14.7188 762.969 14.7188C763.469 14.7188 763.841 14.6406 764.086 14.4844C764.336 14.3229 764.461 14.1146 764.461 13.8594C764.461 13.7396 764.435 13.6302 764.383 13.5312C764.331 13.4323 764.232 13.3385 764.086 13.25C763.945 13.1562 763.745 13.0625 763.484 12.9688C763.224 12.8698 762.883 12.7604 762.461 12.6406C762.07 12.5312 761.727 12.4089 761.43 12.2734C761.138 12.1328 760.896 11.9688 760.703 11.7812C760.51 11.5938 760.365 11.3776 760.266 11.1328C760.172 10.8828 760.125 10.5911 760.125 10.2578C760.125 9.9349 760.198 9.63021 760.344 9.34375C760.49 9.05729 760.706 8.80729 760.992 8.59375C761.284 8.375 761.646 8.20312 762.078 8.07812C762.51 7.95312 763.016 7.89062 763.594 7.89062C764.094 7.89062 764.536 7.91667 764.922 7.96875C765.307 8.02083 765.648 8.07812 765.945 8.14062V9.69531C765.492 9.54948 765.065 9.44792 764.664 9.39062C764.268 9.32812 763.875 9.29688 763.484 9.29688C763.094 9.29688 762.779 9.36719 762.539 9.50781C762.305 9.64844 762.188 9.84375 762.188 10.0938C762.188 10.2135 762.211 10.3203 762.258 10.4141C762.305 10.5078 762.396 10.599 762.531 10.6875C762.672 10.776 762.865 10.8698 763.109 10.9688C763.359 11.0625 763.688 11.1667 764.094 11.2812C764.552 11.4115 764.938 11.5521 765.25 11.7031C765.562 11.849 765.812 12.0156 766 12.2031C766.193 12.3906 766.331 12.6042 766.414 12.8438C766.497 13.0833 766.539 13.3568 766.539 13.6641ZM775.93 11.8906C775.93 12.6198 775.826 13.25 775.617 13.7812C775.414 14.3125 775.128 14.7552 774.758 15.1094C774.393 15.4583 773.961 15.7188 773.461 15.8906C772.961 16.0573 772.417 16.1406 771.828 16.1406C771.63 16.1406 771.432 16.1276 771.234 16.1016C771.036 16.0755 770.857 16.0417 770.695 16V19.1016H768.789V8.0625H770.438L770.484 9.23438C770.646 9.03125 770.812 8.84635 770.984 8.67969C771.161 8.51302 771.352 8.3724 771.555 8.25781C771.758 8.13802 771.977 8.04688 772.211 7.98438C772.445 7.92188 772.708 7.89062 773 7.89062C773.469 7.89062 773.885 7.98438 774.25 8.17188C774.615 8.35938 774.919 8.6276 775.164 8.97656C775.414 9.32031 775.604 9.73958 775.734 10.2344C775.865 10.724 775.93 11.276 775.93 11.8906ZM773.93 11.9688C773.93 11.5312 773.898 11.1589 773.836 10.8516C773.773 10.5443 773.682 10.2917 773.562 10.0938C773.448 9.89583 773.305 9.7526 773.133 9.66406C772.966 9.57031 772.773 9.52344 772.555 9.52344C772.232 9.52344 771.922 9.65365 771.625 9.91406C771.333 10.1745 771.023 10.5286 770.695 10.9766V14.4453C770.846 14.5026 771.031 14.5495 771.25 14.5859C771.474 14.6224 771.701 14.6406 771.93 14.6406C772.232 14.6406 772.505 14.5781 772.75 14.4531C773 14.3281 773.211 14.151 773.383 13.9219C773.56 13.6927 773.695 13.4141 773.789 13.0859C773.883 12.7526 773.93 12.3802 773.93 11.9688ZM782.562 16L782.516 14.9609C782.349 15.138 782.174 15.3021 781.992 15.4531C781.81 15.599 781.609 15.7266 781.391 15.8359C781.172 15.9453 780.932 16.0286 780.672 16.0859C780.417 16.1484 780.135 16.1797 779.828 16.1797C779.422 16.1797 779.065 16.1198 778.758 16C778.451 15.8802 778.193 15.7135 777.984 15.5C777.776 15.2865 777.617 15.0286 777.508 14.7266C777.404 14.4245 777.352 14.0911 777.352 13.7266C777.352 13.3516 777.43 13.0052 777.586 12.6875C777.747 12.3698 777.99 12.0964 778.312 11.8672C778.641 11.638 779.047 11.4583 779.531 11.3281C780.021 11.1979 780.594 11.1328 781.25 11.1328H782.289V10.6562C782.289 10.4531 782.26 10.2708 782.203 10.1094C782.146 9.94271 782.052 9.80208 781.922 9.6875C781.797 9.57292 781.633 9.48438 781.43 9.42188C781.227 9.35938 780.977 9.32812 780.68 9.32812C780.211 9.32812 779.747 9.38281 779.289 9.49219C778.836 9.59635 778.396 9.74479 777.969 9.9375V8.41406C778.349 8.26302 778.786 8.13802 779.281 8.03906C779.781 7.9401 780.299 7.89062 780.836 7.89062C781.424 7.89062 781.93 7.94792 782.352 8.0625C782.773 8.17188 783.12 8.33854 783.391 8.5625C783.667 8.78646 783.87 9.06771 784 9.40625C784.13 9.73958 784.195 10.1302 784.195 10.5781V16H782.562ZM782.289 12.4922H781.125C780.802 12.4922 780.529 12.5234 780.305 12.5859C780.081 12.6484 779.898 12.7344 779.758 12.8438C779.617 12.9531 779.513 13.0807 779.445 13.2266C779.383 13.3672 779.352 13.5182 779.352 13.6797C779.352 14.0026 779.456 14.25 779.664 14.4219C779.872 14.5885 780.156 14.6719 780.516 14.6719C780.781 14.6719 781.057 14.5755 781.344 14.3828C781.63 14.1901 781.945 13.9141 782.289 13.5547V12.4922ZM792.93 15.9219C792.586 16 792.24 16.0625 791.891 16.1094C791.542 16.1562 791.211 16.1797 790.898 16.1797C790.378 16.1797 789.927 16.125 789.547 16.0156C789.172 15.9062 788.859 15.7396 788.609 15.5156C788.365 15.2917 788.182 15.0078 788.062 14.6641C787.948 14.3151 787.891 13.901 787.891 13.4219V9.54688H785.758V8.0625H787.891V6.03125L789.844 5.52344V8.0625H792.93V9.54688H789.844V13.2812C789.844 13.7344 789.948 14.0781 790.156 14.3125C790.365 14.5417 790.714 14.6562 791.203 14.6562C791.516 14.6562 791.82 14.6302 792.117 14.5781C792.414 14.526 792.685 14.4661 792.93 14.3984V15.9219ZM801.602 15.6953C801.227 15.8464 800.839 15.9583 800.438 16.0312C800.036 16.1042 799.617 16.1406 799.18 16.1406C798.549 16.1406 797.984 16.0547 797.484 15.8828C796.984 15.7109 796.56 15.4557 796.211 15.1172C795.862 14.7786 795.594 14.3594 795.406 13.8594C795.224 13.3594 795.133 12.7812 795.133 12.125C795.133 11.4896 795.232 10.9141 795.43 10.3984C795.633 9.88281 795.917 9.44271 796.281 9.07812C796.646 8.71354 797.083 8.43229 797.594 8.23438C798.109 8.03646 798.682 7.9375 799.312 7.9375C799.828 7.9375 800.26 7.96615 800.609 8.02344C800.964 8.07552 801.281 8.14323 801.562 8.22656V10.0781C801.24 9.91667 800.888 9.79167 800.508 9.70312C800.133 9.61458 799.776 9.57031 799.438 9.57031C799.083 9.57031 798.766 9.63021 798.484 9.75C798.203 9.86979 797.966 10.0365 797.773 10.25C797.581 10.4635 797.432 10.724 797.328 11.0312C797.229 11.3333 797.18 11.6667 797.18 12.0312C797.18 12.4115 797.234 12.7526 797.344 13.0547C797.453 13.3568 797.607 13.6146 797.805 13.8281C798.008 14.0365 798.25 14.1979 798.531 14.3125C798.812 14.4219 799.125 14.4766 799.469 14.4766C799.635 14.4766 799.81 14.4661 799.992 14.4453C800.18 14.4193 800.365 14.3854 800.547 14.3438C800.734 14.2969 800.917 14.2448 801.094 14.1875C801.276 14.1302 801.445 14.0677 801.602 14V15.6953ZM808.711 16V10.8281C808.711 9.95833 808.388 9.52344 807.742 9.52344C807.419 9.52344 807.109 9.65365 806.812 9.91406C806.521 10.1745 806.211 10.5286 805.883 10.9766V16H803.977V4.96094H805.883V7.67969L805.789 9.11719C805.951 8.92448 806.115 8.7526 806.281 8.60156C806.448 8.44531 806.628 8.3151 806.82 8.21094C807.013 8.10677 807.221 8.02865 807.445 7.97656C807.669 7.91927 807.917 7.89062 808.188 7.89062C808.594 7.89062 808.948 7.95833 809.25 8.09375C809.552 8.22396 809.805 8.41146 810.008 8.65625C810.211 8.89583 810.362 9.1875 810.461 9.53125C810.565 9.86979 810.617 10.25 810.617 10.6719V16H808.711Z" fill="black"/>
<path d="M281.891 89L279.156 82.9062L278.594 81.5938V85.8281V89H276.844V78.7891H279.203L281.992 84.9219L282.484 86.1172V81.6094V78.7891H284.234V89H281.891ZM293.141 84.9688C293.141 85.5938 293.052 86.1667 292.875 86.6875C292.698 87.2031 292.443 87.6458 292.109 88.0156C291.776 88.3854 291.367 88.6719 290.883 88.875C290.398 89.0781 289.846 89.1797 289.227 89.1797C288.638 89.1797 288.112 89.0938 287.648 88.9219C287.185 88.75 286.792 88.4948 286.469 88.1562C286.146 87.8125 285.898 87.3854 285.727 86.875C285.555 86.3594 285.469 85.7604 285.469 85.0781C285.469 84.4479 285.557 83.875 285.734 83.3594C285.917 82.8438 286.174 82.4036 286.508 82.0391C286.846 81.6745 287.258 81.3932 287.742 81.1953C288.227 80.9922 288.773 80.8906 289.383 80.8906C289.977 80.8906 290.505 80.9792 290.969 81.1562C291.432 81.3281 291.826 81.5859 292.148 81.9297C292.471 82.2734 292.716 82.7005 292.883 83.2109C293.055 83.7161 293.141 84.3021 293.141 84.9688ZM291.156 85.0156C291.156 84.1927 291 83.5755 290.688 83.1641C290.38 82.7474 289.924 82.5391 289.32 82.5391C288.987 82.5391 288.703 82.6042 288.469 82.7344C288.234 82.8646 288.042 83.0443 287.891 83.2734C287.74 83.4974 287.628 83.7604 287.555 84.0625C287.487 84.3646 287.453 84.6875 287.453 85.0312C287.453 85.8594 287.62 86.4844 287.953 86.9062C288.286 87.3229 288.742 87.5312 289.32 87.5312C289.638 87.5312 289.914 87.4688 290.148 87.3438C290.383 87.2135 290.573 87.0365 290.719 86.8125C290.865 86.5833 290.974 86.3151 291.047 86.0078C291.12 85.7005 291.156 85.3698 291.156 85.0156ZM301.336 88.9219C300.992 89 300.646 89.0625 300.297 89.1094C299.948 89.1562 299.617 89.1797 299.305 89.1797C298.784 89.1797 298.333 89.125 297.953 89.0156C297.578 88.9062 297.266 88.7396 297.016 88.5156C296.771 88.2917 296.589 88.0078 296.469 87.6641C296.354 87.3151 296.297 86.901 296.297 86.4219V82.5469H294.164V81.0625H296.297V79.0312L298.25 78.5234V81.0625H301.336V82.5469H298.25V86.2812C298.25 86.7344 298.354 87.0781 298.562 87.3125C298.771 87.5417 299.12 87.6562 299.609 87.6562C299.922 87.6562 300.227 87.6302 300.523 87.5781C300.82 87.526 301.091 87.4661 301.336 87.3984V88.9219ZM308.258 78.8906C308.258 79.0625 308.227 79.224 308.164 79.375C308.102 79.526 308.013 79.6589 307.898 79.7734C307.789 79.8828 307.659 79.9714 307.508 80.0391C307.357 80.1016 307.193 80.1328 307.016 80.1328C306.839 80.1328 306.672 80.1016 306.516 80.0391C306.365 79.9714 306.232 79.8828 306.117 79.7734C306.008 79.6589 305.922 79.526 305.859 79.375C305.797 79.224 305.766 79.0625 305.766 78.8906C305.766 78.7188 305.797 78.5573 305.859 78.4062C305.922 78.2552 306.008 78.1224 306.117 78.0078C306.232 77.8932 306.365 77.8047 306.516 77.7422C306.672 77.6745 306.839 77.6406 307.016 77.6406C307.193 77.6406 307.357 77.6745 307.508 77.7422C307.659 77.8047 307.789 77.8932 307.898 78.0078C308.013 78.1224 308.102 78.2552 308.164 78.4062C308.227 78.5573 308.258 78.7188 308.258 78.8906ZM306.148 82.5469H303.906V81.0625H308.102V87.5156H310.391V89H303.633V87.5156H306.148V82.5469ZM319.508 79.5781C319.279 79.5052 319.005 79.4453 318.688 79.3984C318.375 79.3464 318.055 79.3203 317.727 79.3203C317.503 79.3203 317.294 79.3516 317.102 79.4141C316.909 79.4714 316.742 79.5651 316.602 79.6953C316.461 79.8255 316.349 79.9922 316.266 80.1953C316.188 80.3932 316.148 80.6354 316.148 80.9219V82.2031H319.266V83.6875H316.148V89H314.227V83.6875H311.922V82.2031H314.227V81C314.227 80.4375 314.307 79.9557 314.469 79.5547C314.635 79.1484 314.867 78.8177 315.164 78.5625C315.466 78.3021 315.828 78.112 316.25 77.9922C316.672 77.8724 317.143 77.8125 317.664 77.8125C318.008 77.8125 318.333 77.8359 318.641 77.8828C318.953 77.9245 319.242 77.9766 319.508 78.0391V79.5781ZM325.953 88.1328C325.677 88.8203 325.388 89.4219 325.086 89.9375C324.789 90.4583 324.461 90.8906 324.102 91.2344C323.742 91.5833 323.341 91.8438 322.898 92.0156C322.461 92.1927 321.969 92.2812 321.422 92.2812C321.292 92.2812 321.148 92.2734 320.992 92.2578C320.841 92.2474 320.685 92.2292 320.523 92.2031V90.5859C320.586 90.5964 320.656 90.6068 320.734 90.6172C320.818 90.6328 320.904 90.6432 320.992 90.6484C321.081 90.6589 321.169 90.6667 321.258 90.6719C321.352 90.6771 321.438 90.6797 321.516 90.6797C321.734 90.6797 321.938 90.638 322.125 90.5547C322.312 90.4714 322.484 90.3542 322.641 90.2031C322.802 90.0573 322.948 89.8802 323.078 89.6719C323.208 89.4688 323.323 89.2448 323.422 89L320.273 81.0625H322.398L324.047 85.5625L324.539 87.0156L325.023 85.625L326.688 81.0625H328.734L325.953 88.1328Z" fill="black"/>
<path d="M56.9688 24.9141C56.9688 25.4714 56.8646 25.9557 56.6562 26.3672C56.4531 26.7786 56.1667 27.1198 55.7969 27.3906C55.4271 27.6562 54.987 27.8542 54.4766 27.9844C53.9661 28.1146 53.4089 28.1797 52.8047 28.1797C52.2682 28.1797 51.75 28.1484 51.25 28.0859C50.75 28.0234 50.2552 27.9193 49.7656 27.7734V25.875C50.0052 25.9583 50.2552 26.0365 50.5156 26.1094C50.776 26.1823 51.0365 26.2474 51.2969 26.3047C51.5625 26.3568 51.8255 26.3984 52.0859 26.4297C52.3464 26.4609 52.599 26.4766 52.8438 26.4766C53.2083 26.4766 53.5182 26.4453 53.7734 26.3828C54.0286 26.3203 54.237 26.2344 54.3984 26.125C54.5599 26.0156 54.6771 25.8854 54.75 25.7344C54.8229 25.5833 54.8594 25.4167 54.8594 25.2344C54.8594 24.9844 54.7865 24.776 54.6406 24.6094C54.5 24.4375 54.3125 24.2865 54.0781 24.1562C53.8438 24.026 53.5755 23.9089 53.2734 23.8047C52.9766 23.7005 52.6719 23.5885 52.3594 23.4688C52.0521 23.349 51.7474 23.2135 51.4453 23.0625C51.1484 22.9115 50.8828 22.724 50.6484 22.5C50.4141 22.276 50.224 22.0104 50.0781 21.7031C49.9375 21.3906 49.8672 21.0156 49.8672 20.5781C49.8672 20.1771 49.9401 19.7969 50.0859 19.4375C50.2318 19.0781 50.4609 18.7656 50.7734 18.5C51.0859 18.2292 51.487 18.0156 51.9766 17.8594C52.4661 17.6979 53.0573 17.6172 53.75 17.6172C53.9531 17.6172 54.1641 17.6276 54.3828 17.6484C54.6068 17.6641 54.8255 17.6875 55.0391 17.7188C55.2578 17.7448 55.4661 17.7786 55.6641 17.8203C55.8672 17.8568 56.0521 17.8958 56.2188 17.9375V19.6953C56.0521 19.6328 55.8698 19.5755 55.6719 19.5234C55.474 19.4714 55.2682 19.4271 55.0547 19.3906C54.8464 19.349 54.6354 19.3177 54.4219 19.2969C54.2083 19.276 54.0052 19.2656 53.8125 19.2656C53.474 19.2656 53.1875 19.2943 52.9531 19.3516C52.7188 19.4036 52.526 19.4792 52.375 19.5781C52.224 19.6719 52.1146 19.7891 52.0469 19.9297C51.9792 20.0703 51.9453 20.2266 51.9453 20.3984C51.9453 20.612 52.0156 20.7969 52.1562 20.9531C52.3021 21.1042 52.4922 21.2422 52.7266 21.3672C52.9661 21.487 53.2344 21.6016 53.5312 21.7109C53.8333 21.8151 54.1406 21.9297 54.4531 22.0547C54.7708 22.1745 55.0781 22.3125 55.375 22.4688C55.6771 22.625 55.9453 22.8151 56.1797 23.0391C56.4193 23.263 56.6094 23.5286 56.75 23.8359C56.8958 24.138 56.9688 24.4974 56.9688 24.9141ZM60.7734 20.0625V25.2344C60.7734 25.6667 60.8542 25.9948 61.0156 26.2188C61.1771 26.4375 61.4219 26.5469 61.75 26.5469C62.0677 26.5469 62.3724 26.4167 62.6641 26.1562C62.9609 25.8906 63.2734 25.5339 63.6016 25.0859V20.0625H65.5078V28H63.8594L63.8125 26.8281C63.6458 27.0312 63.4766 27.2161 63.3047 27.3828C63.1328 27.5495 62.9453 27.6927 62.7422 27.8125C62.5443 27.9271 62.3255 28.0156 62.0859 28.0781C61.8516 28.1458 61.5911 28.1797 61.3047 28.1797C60.8984 28.1797 60.5417 28.1146 60.2344 27.9844C59.9323 27.849 59.6797 27.6589 59.4766 27.4141C59.2734 27.1693 59.1198 26.8776 59.0156 26.5391C58.9167 26.1953 58.8672 25.8125 58.8672 25.3906V20.0625H60.7734ZM74.8203 23.8906C74.8203 24.6198 74.7161 25.25 74.5078 25.7812C74.3047 26.3125 74.0182 26.7552 73.6484 27.1094C73.2839 27.4583 72.8516 27.7188 72.3516 27.8906C71.8516 28.0573 71.3073 28.1406 70.7188 28.1406C70.1406 28.1406 69.6016 28.0964 69.1016 28.0078C68.6068 27.9245 68.1328 27.8099 67.6797 27.6641V16.9609H69.5859V19.5547L69.5078 21.1172C69.7943 20.7474 70.1276 20.4505 70.5078 20.2266C70.8932 20.0026 71.3542 19.8906 71.8906 19.8906C72.3594 19.8906 72.776 19.9844 73.1406 20.1719C73.5052 20.3594 73.8099 20.6276 74.0547 20.9766C74.3047 21.3203 74.4948 21.7396 74.625 22.2344C74.7552 22.724 74.8203 23.276 74.8203 23.8906ZM72.8203 23.9688C72.8203 23.5312 72.7891 23.1589 72.7266 22.8516C72.6641 22.5443 72.5729 22.2917 72.4531 22.0938C72.3385 21.8958 72.1953 21.7526 72.0234 21.6641C71.8568 21.5703 71.6641 21.5234 71.4453 21.5234C71.1224 21.5234 70.8125 21.6536 70.5156 21.9141C70.224 22.1745 69.9141 22.5286 69.5859 22.9766V26.4453C69.737 26.5026 69.9219 26.5495 70.1406 26.5859C70.3646 26.6224 70.5911 26.6406 70.8203 26.6406C71.1224 26.6406 71.3958 26.5781 71.6406 26.4531C71.8906 26.3281 72.1016 26.151 72.2734 25.9219C72.4505 25.6927 72.5859 25.4141 72.6797 25.0859C72.7734 24.7526 72.8203 24.3802 72.8203 23.9688ZM83.0234 25.6641C83.0234 26.1172 82.9219 26.5052 82.7188 26.8281C82.5208 27.1458 82.2552 27.4062 81.9219 27.6094C81.5938 27.8073 81.2188 27.9505 80.7969 28.0391C80.3802 28.1328 79.9531 28.1797 79.5156 28.1797C78.9323 28.1797 78.4062 28.151 77.9375 28.0938C77.4688 28.0417 77.026 27.9635 76.6094 27.8594V26.1406C77.099 26.3438 77.5859 26.4922 78.0703 26.5859C78.5599 26.6745 79.0208 26.7188 79.4531 26.7188C79.9531 26.7188 80.3255 26.6406 80.5703 26.4844C80.8203 26.3229 80.9453 26.1146 80.9453 25.8594C80.9453 25.7396 80.9193 25.6302 80.8672 25.5312C80.8151 25.4323 80.7161 25.3385 80.5703 25.25C80.4297 25.1562 80.2292 25.0625 79.9688 24.9688C79.7083 24.8698 79.3672 24.7604 78.9453 24.6406C78.5547 24.5312 78.2109 24.4089 77.9141 24.2734C77.6224 24.1328 77.3802 23.9688 77.1875 23.7812C76.9948 23.5938 76.849 23.3776 76.75 23.1328C76.6562 22.8828 76.6094 22.5911 76.6094 22.2578C76.6094 21.9349 76.6823 21.6302 76.8281 21.3438C76.974 21.0573 77.1901 20.8073 77.4766 20.5938C77.7682 20.375 78.1302 20.2031 78.5625 20.0781C78.9948 19.9531 79.5 19.8906 80.0781 19.8906C80.5781 19.8906 81.0208 19.9167 81.4062 19.9688C81.7917 20.0208 82.1328 20.0781 82.4297 20.1406V21.6953C81.9766 21.5495 81.5495 21.4479 81.1484 21.3906C80.7526 21.3281 80.3594 21.2969 79.9688 21.2969C79.5781 21.2969 79.263 21.3672 79.0234 21.5078C78.7891 21.6484 78.6719 21.8438 78.6719 22.0938C78.6719 22.2135 78.6953 22.3203 78.7422 22.4141C78.7891 22.5078 78.8802 22.599 79.0156 22.6875C79.1562 22.776 79.349 22.8698 79.5938 22.9688C79.8438 23.0625 80.1719 23.1667 80.5781 23.2812C81.0365 23.4115 81.4219 23.5521 81.7344 23.7031C82.0469 23.849 82.2969 24.0156 82.4844 24.2031C82.6771 24.3906 82.8151 24.6042 82.8984 24.8438C82.9818 25.0833 83.0234 25.3568 83.0234 25.6641ZM91.6953 27.6953C91.3203 27.8464 90.9323 27.9583 90.5312 28.0312C90.1302 28.1042 89.7109 28.1406 89.2734 28.1406C88.6432 28.1406 88.0781 28.0547 87.5781 27.8828C87.0781 27.7109 86.6536 27.4557 86.3047 27.1172C85.9557 26.7786 85.6875 26.3594 85.5 25.8594C85.3177 25.3594 85.2266 24.7812 85.2266 24.125C85.2266 23.4896 85.3255 22.9141 85.5234 22.3984C85.7266 21.8828 86.0104 21.4427 86.375 21.0781C86.7396 20.7135 87.1771 20.4323 87.6875 20.2344C88.2031 20.0365 88.776 19.9375 89.4062 19.9375C89.9219 19.9375 90.3542 19.9661 90.7031 20.0234C91.0573 20.0755 91.375 20.1432 91.6562 20.2266V22.0781C91.3333 21.9167 90.9818 21.7917 90.6016 21.7031C90.2266 21.6146 89.8698 21.5703 89.5312 21.5703C89.1771 21.5703 88.8594 21.6302 88.5781 21.75C88.2969 21.8698 88.0599 22.0365 87.8672 22.25C87.6745 22.4635 87.526 22.724 87.4219 23.0312C87.3229 23.3333 87.2734 23.6667 87.2734 24.0312C87.2734 24.4115 87.3281 24.7526 87.4375 25.0547C87.5469 25.3568 87.7005 25.6146 87.8984 25.8281C88.1016 26.0365 88.3438 26.1979 88.625 26.3125C88.9062 26.4219 89.2188 26.4766 89.5625 26.4766C89.7292 26.4766 89.9036 26.4661 90.0859 26.4453C90.2734 26.4193 90.4583 26.3854 90.6406 26.3438C90.8281 26.2969 91.0104 26.2448 91.1875 26.1875C91.3698 26.1302 91.5391 26.0677 91.6953 26V27.6953ZM99.1797 23.1484C99.1901 22.8516 99.1745 22.599 99.1328 22.3906C99.0964 22.1823 99.0339 22.0104 98.9453 21.875C98.862 21.7396 98.7578 21.6406 98.6328 21.5781C98.5078 21.5156 98.3646 21.4844 98.2031 21.4844C97.9219 21.4844 97.6302 21.6016 97.3281 21.8359C97.0312 22.0651 96.7031 22.4453 96.3438 22.9766V28H94.3906V20.0625H96.1172L96.1875 21.2188C96.3177 21.0156 96.4635 20.8333 96.625 20.6719C96.7917 20.5104 96.974 20.3724 97.1719 20.2578C97.375 20.138 97.599 20.0469 97.8438 19.9844C98.0885 19.9219 98.3568 19.8906 98.6484 19.8906C99.0495 19.8906 99.4036 19.9609 99.7109 20.1016C100.023 20.237 100.284 20.4401 100.492 20.7109C100.706 20.9818 100.862 21.3229 100.961 21.7344C101.065 22.1406 101.109 22.612 101.094 23.1484H99.1797ZM107.539 17.8906C107.539 18.0625 107.508 18.224 107.445 18.375C107.383 18.526 107.294 18.6589 107.18 18.7734C107.07 18.8828 106.94 18.9714 106.789 19.0391C106.638 19.1016 106.474 19.1328 106.297 19.1328C106.12 19.1328 105.953 19.1016 105.797 19.0391C105.646 18.9714 105.513 18.8828 105.398 18.7734C105.289 18.6589 105.203 18.526 105.141 18.375C105.078 18.224 105.047 18.0625 105.047 17.8906C105.047 17.7188 105.078 17.5573 105.141 17.4062C105.203 17.2552 105.289 17.1224 105.398 17.0078C105.513 16.8932 105.646 16.8047 105.797 16.7422C105.953 16.6745 106.12 16.6406 106.297 16.6406C106.474 16.6406 106.638 16.6745 106.789 16.7422C106.94 16.8047 107.07 16.8932 107.18 17.0078C107.294 17.1224 107.383 17.2552 107.445 17.4062C107.508 17.5573 107.539 17.7188 107.539 17.8906ZM105.43 21.5469H103.188V20.0625H107.383V26.5156H109.672V28H102.914V26.5156H105.43V21.5469ZM118.805 23.8906C118.805 24.6198 118.701 25.25 118.492 25.7812C118.289 26.3125 118.003 26.7552 117.633 27.1094C117.268 27.4583 116.836 27.7188 116.336 27.8906C115.836 28.0573 115.292 28.1406 114.703 28.1406C114.125 28.1406 113.586 28.0964 113.086 28.0078C112.591 27.9245 112.117 27.8099 111.664 27.6641V16.9609H113.57V19.5547L113.492 21.1172C113.779 20.7474 114.112 20.4505 114.492 20.2266C114.878 20.0026 115.339 19.8906 115.875 19.8906C116.344 19.8906 116.76 19.9844 117.125 20.1719C117.49 20.3594 117.794 20.6276 118.039 20.9766C118.289 21.3203 118.479 21.7396 118.609 22.2344C118.74 22.724 118.805 23.276 118.805 23.8906ZM116.805 23.9688C116.805 23.5312 116.773 23.1589 116.711 22.8516C116.648 22.5443 116.557 22.2917 116.438 22.0938C116.323 21.8958 116.18 21.7526 116.008 21.6641C115.841 21.5703 115.648 21.5234 115.43 21.5234C115.107 21.5234 114.797 21.6536 114.5 21.9141C114.208 22.1745 113.898 22.5286 113.57 22.9766V26.4453C113.721 26.5026 113.906 26.5495 114.125 26.5859C114.349 26.6224 114.576 26.6406 114.805 26.6406C115.107 26.6406 115.38 26.5781 115.625 26.4531C115.875 26.3281 116.086 26.151 116.258 25.9219C116.435 25.6927 116.57 25.4141 116.664 25.0859C116.758 24.7526 116.805 24.3802 116.805 23.9688ZM127.375 23.4219C127.375 23.5521 127.37 23.7214 127.359 23.9297C127.354 24.138 127.344 24.3333 127.328 24.5156H122.109C122.109 24.8646 122.161 25.1719 122.266 25.4375C122.375 25.7031 122.526 25.9271 122.719 26.1094C122.917 26.2865 123.151 26.4219 123.422 26.5156C123.698 26.6094 124.003 26.6562 124.336 26.6562C124.721 26.6562 125.133 26.6276 125.57 26.5703C126.013 26.5078 126.471 26.4089 126.945 26.2734V27.7891C126.742 27.8464 126.521 27.8984 126.281 27.9453C126.042 27.9922 125.797 28.0339 125.547 28.0703C125.297 28.1068 125.044 28.1328 124.789 28.1484C124.534 28.1693 124.286 28.1797 124.047 28.1797C123.443 28.1797 122.901 28.0938 122.422 27.9219C121.943 27.75 121.536 27.4974 121.203 27.1641C120.87 26.8255 120.615 26.4089 120.438 25.9141C120.26 25.4193 120.172 24.8464 120.172 24.1953C120.172 23.5495 120.26 22.9635 120.438 22.4375C120.615 21.9062 120.865 21.4531 121.188 21.0781C121.51 20.6979 121.901 20.4062 122.359 20.2031C122.823 19.9948 123.339 19.8906 123.906 19.8906C124.469 19.8906 124.966 19.9792 125.398 20.1562C125.831 20.3281 126.193 20.5703 126.484 20.8828C126.776 21.1953 126.997 21.5677 127.148 22C127.299 22.4323 127.375 22.9062 127.375 23.4219ZM125.438 23.1484C125.443 22.8359 125.404 22.5651 125.32 22.3359C125.237 22.1016 125.122 21.9089 124.977 21.7578C124.836 21.6068 124.669 21.4948 124.477 21.4219C124.289 21.349 124.086 21.3125 123.867 21.3125C123.388 21.3125 122.995 21.474 122.688 21.7969C122.38 22.1146 122.198 22.5651 122.141 23.1484H125.438ZM134.25 28L134.203 26.8281C134.036 27.0312 133.865 27.2161 133.688 27.3828C133.51 27.5495 133.32 27.6927 133.117 27.8125C132.914 27.9271 132.695 28.0156 132.461 28.0781C132.232 28.1458 131.977 28.1797 131.695 28.1797C131.227 28.1797 130.81 28.0859 130.445 27.8984C130.081 27.7109 129.773 27.4453 129.523 27.1016C129.279 26.7526 129.091 26.3307 128.961 25.8359C128.831 25.3411 128.766 24.7891 128.766 24.1797C128.766 23.4505 128.867 22.8203 129.07 22.2891C129.279 21.7526 129.565 21.3099 129.93 20.9609C130.294 20.6068 130.727 20.3464 131.227 20.1797C131.727 20.0078 132.271 19.9219 132.859 19.9219C133.057 19.9219 133.255 19.9349 133.453 19.9609C133.656 19.987 133.836 20.0208 133.992 20.0625V16.9609H135.898V28H134.25ZM130.766 24.0938C130.766 24.5312 130.794 24.9062 130.852 25.2188C130.914 25.526 131.003 25.7786 131.117 25.9766C131.237 26.1745 131.383 26.3203 131.555 26.4141C131.727 26.5026 131.922 26.5469 132.141 26.5469C132.464 26.5469 132.771 26.4167 133.062 26.1562C133.354 25.8958 133.664 25.5391 133.992 25.0859V21.6172C133.841 21.5599 133.654 21.513 133.43 21.4766C133.211 21.4401 132.99 21.4219 132.766 21.4219C132.458 21.4219 132.182 21.4844 131.938 21.6094C131.693 21.7344 131.482 21.9115 131.305 22.1406C131.133 22.3698 131 22.651 130.906 22.9844C130.812 23.3125 130.766 23.6823 130.766 24.0938ZM153.398 27.9219C153.055 28 152.708 28.0625 152.359 28.1094C152.01 28.1562 151.68 28.1797 151.367 28.1797C150.846 28.1797 150.396 28.125 150.016 28.0156C149.641 27.9062 149.328 27.7396 149.078 27.5156C148.833 27.2917 148.651 27.0078 148.531 26.6641C148.417 26.3151 148.359 25.901 148.359 25.4219V21.5469H146.227V20.0625H148.359V18.0312L150.312 17.5234V20.0625H153.398V21.5469H150.312V25.2812C150.312 25.7344 150.417 26.0781 150.625 26.3125C150.833 26.5417 151.182 26.6562 151.672 26.6562C151.984 26.6562 152.289 26.6302 152.586 26.5781C152.883 26.526 153.154 26.4661 153.398 26.3984V27.9219ZM162.797 23.9688C162.797 24.5938 162.708 25.1667 162.531 25.6875C162.354 26.2031 162.099 26.6458 161.766 27.0156C161.432 27.3854 161.023 27.6719 160.539 27.875C160.055 28.0781 159.503 28.1797 158.883 28.1797C158.294 28.1797 157.768 28.0938 157.305 27.9219C156.841 27.75 156.448 27.4948 156.125 27.1562C155.802 26.8125 155.555 26.3854 155.383 25.875C155.211 25.3594 155.125 24.7604 155.125 24.0781C155.125 23.4479 155.214 22.875 155.391 22.3594C155.573 21.8438 155.831 21.4036 156.164 21.0391C156.503 20.6745 156.914 20.3932 157.398 20.1953C157.883 19.9922 158.43 19.8906 159.039 19.8906C159.633 19.8906 160.161 19.9792 160.625 20.1562C161.089 20.3281 161.482 20.5859 161.805 20.9297C162.128 21.2734 162.372 21.7005 162.539 22.2109C162.711 22.7161 162.797 23.3021 162.797 23.9688ZM160.812 24.0156C160.812 23.1927 160.656 22.5755 160.344 22.1641C160.036 21.7474 159.581 21.5391 158.977 21.5391C158.643 21.5391 158.359 21.6042 158.125 21.7344C157.891 21.8646 157.698 22.0443 157.547 22.2734C157.396 22.4974 157.284 22.7604 157.211 23.0625C157.143 23.3646 157.109 23.6875 157.109 24.0312C157.109 24.8594 157.276 25.4844 157.609 25.9062C157.943 26.3229 158.398 26.5312 158.977 26.5312C159.294 26.5312 159.57 26.4688 159.805 26.3438C160.039 26.2135 160.229 26.0365 160.375 25.8125C160.521 25.5833 160.63 25.3151 160.703 25.0078C160.776 24.7005 160.812 24.3698 160.812 24.0156ZM167.758 19.9844C167.956 19.9844 168.141 20.0208 168.312 20.0938C168.484 20.1667 168.633 20.2682 168.758 20.3984C168.883 20.5234 168.982 20.6719 169.055 20.8438C169.128 21.0156 169.164 21.1979 169.164 21.3906C169.164 21.5885 169.128 21.7734 169.055 21.9453C168.982 22.1172 168.883 22.2656 168.758 22.3906C168.633 22.5156 168.484 22.6146 168.312 22.6875C168.141 22.7604 167.956 22.7969 167.758 22.7969C167.56 22.7969 167.375 22.7604 167.203 22.6875C167.036 22.6146 166.888 22.5156 166.758 22.3906C166.633 22.2656 166.534 22.1172 166.461 21.9453C166.388 21.7734 166.352 21.5885 166.352 21.3906C166.352 21.1979 166.388 21.0156 166.461 20.8438C166.534 20.6719 166.633 20.5234 166.758 20.3984C166.888 20.2682 167.036 20.1667 167.203 20.0938C167.375 20.0208 167.56 19.9844 167.758 19.9844ZM167.758 25.3672C167.956 25.3672 168.141 25.4036 168.312 25.4766C168.484 25.5495 168.633 25.6484 168.758 25.7734C168.883 25.8984 168.982 26.0469 169.055 26.2188C169.128 26.3906 169.164 26.5729 169.164 26.7656C169.164 26.9635 169.128 27.1484 169.055 27.3203C168.982 27.4922 168.883 27.6432 168.758 27.7734C168.633 27.8984 168.484 27.9974 168.312 28.0703C168.141 28.1432 167.956 28.1797 167.758 28.1797C167.56 28.1797 167.375 28.1432 167.203 28.0703C167.036 27.9974 166.888 27.8984 166.758 27.7734C166.633 27.6432 166.534 27.4922 166.461 27.3203C166.388 27.1484 166.352 26.9635 166.352 26.7656C166.352 26.5729 166.388 26.3906 166.461 26.2188C166.534 26.0469 166.633 25.8984 166.758 25.7734C166.888 25.6484 167.036 25.5495 167.203 25.4766C167.375 25.4036 167.56 25.3672 167.758 25.3672ZM50.9688 43.5938V41.8984H55.8281V43.5938H50.9688ZM75.1016 41.8516C75.1016 42.7786 74.9922 43.5781 74.7734 44.25C74.5599 44.9219 74.263 45.474 73.8828 45.9062C73.5078 46.3385 73.0651 46.6589 72.5547 46.8672C72.0495 47.0755 71.5078 47.1797 70.9297 47.1797C69.5859 47.1797 68.5755 46.7344 67.8984 45.8438C67.2214 44.9479 66.8828 43.6484 66.8828 41.9453C66.8828 41.0182 66.9896 40.2188 67.2031 39.5469C67.4219 38.875 67.7188 38.3229 68.0938 37.8906C68.474 37.4583 68.9167 37.138 69.4219 36.9297C69.9323 36.7214 70.4766 36.6172 71.0547 36.6172C72.3984 36.6172 73.4089 37.0625 74.0859 37.9531C74.763 38.8438 75.1016 40.1432 75.1016 41.8516ZM73.0703 41.9453C73.0703 40.737 72.9089 39.8359 72.5859 39.2422C72.263 38.6484 71.7318 38.3516 70.9922 38.3516C70.6224 38.3516 70.3073 38.4297 70.0469 38.5859C69.7865 38.737 69.5703 38.9609 69.3984 39.2578C69.2318 39.5547 69.1094 39.9219 69.0312 40.3594C68.9531 40.7917 68.9141 41.2891 68.9141 41.8516C68.9141 43.0599 69.0755 43.9609 69.3984 44.5547C69.7266 45.1484 70.2578 45.4453 70.9922 45.4453C71.362 45.4453 71.6771 45.3698 71.9375 45.2188C72.2031 45.0625 72.4193 44.8359 72.5859 44.5391C72.7526 44.2422 72.875 43.8776 72.9531 43.4453C73.0312 43.0078 73.0703 42.5078 73.0703 41.9453ZM83.6016 37.5781C83.3724 37.5052 83.099 37.4453 82.7812 37.3984C82.4688 37.3464 82.1484 37.3203 81.8203 37.3203C81.5964 37.3203 81.388 37.3516 81.1953 37.4141C81.0026 37.4714 80.8359 37.5651 80.6953 37.6953C80.5547 37.8255 80.4427 37.9922 80.3594 38.1953C80.2812 38.3932 80.2422 38.6354 80.2422 38.9219V40.2031H83.3594V41.6875H80.2422V47H78.3203V41.6875H76.0156V40.2031H78.3203V39C78.3203 38.4375 78.401 37.9557 78.5625 37.5547C78.7292 37.1484 78.9609 36.8177 79.2578 36.5625C79.5599 36.3021 79.9219 36.112 80.3438 35.9922C80.7656 35.8724 81.237 35.8125 81.7578 35.8125C82.1016 35.8125 82.4271 35.8359 82.7344 35.8828C83.0469 35.9245 83.3359 35.9766 83.6016 36.0391V37.5781ZM92.3984 37.5781C92.1693 37.5052 91.8958 37.4453 91.5781 37.3984C91.2656 37.3464 90.9453 37.3203 90.6172 37.3203C90.3932 37.3203 90.1849 37.3516 89.9922 37.4141C89.7995 37.4714 89.6328 37.5651 89.4922 37.6953C89.3516 37.8255 89.2396 37.9922 89.1562 38.1953C89.0781 38.3932 89.0391 38.6354 89.0391 38.9219V40.2031H92.1562V41.6875H89.0391V47H87.1172V41.6875H84.8125V40.2031H87.1172V39C87.1172 38.4375 87.1979 37.9557 87.3594 37.5547C87.526 37.1484 87.7578 36.8177 88.0547 36.5625C88.3568 36.3021 88.7188 36.112 89.1406 35.9922C89.5625 35.8724 90.0339 35.8125 90.5547 35.8125C90.8984 35.8125 91.224 35.8359 91.5312 35.8828C91.8438 35.9245 92.1328 35.9766 92.3984 36.0391V37.5781ZM100.984 42.4219C100.984 42.5521 100.979 42.7214 100.969 42.9297C100.964 43.138 100.953 43.3333 100.938 43.5156H95.7188C95.7188 43.8646 95.7708 44.1719 95.875 44.4375C95.9844 44.7031 96.1354 44.9271 96.3281 45.1094C96.526 45.2865 96.7604 45.4219 97.0312 45.5156C97.3073 45.6094 97.612 45.6562 97.9453 45.6562C98.3307 45.6562 98.7422 45.6276 99.1797 45.5703C99.6224 45.5078 100.081 45.4089 100.555 45.2734V46.7891C100.352 46.8464 100.13 46.8984 99.8906 46.9453C99.651 46.9922 99.4062 47.0339 99.1562 47.0703C98.9062 47.1068 98.6536 47.1328 98.3984 47.1484C98.1432 47.1693 97.8958 47.1797 97.6562 47.1797C97.0521 47.1797 96.5104 47.0938 96.0312 46.9219C95.5521 46.75 95.1458 46.4974 94.8125 46.1641C94.4792 45.8255 94.224 45.4089 94.0469 44.9141C93.8698 44.4193 93.7812 43.8464 93.7812 43.1953C93.7812 42.5495 93.8698 41.9635 94.0469 41.4375C94.224 40.9062 94.474 40.4531 94.7969 40.0781C95.1198 39.6979 95.5104 39.4062 95.9688 39.2031C96.4323 38.9948 96.9479 38.8906 97.5156 38.8906C98.0781 38.8906 98.5755 38.9792 99.0078 39.1562C99.4401 39.3281 99.8021 39.5703 100.094 39.8828C100.385 40.1953 100.607 40.5677 100.758 41C100.909 41.4323 100.984 41.9062 100.984 42.4219ZM99.0469 42.1484C99.0521 41.8359 99.013 41.5651 98.9297 41.3359C98.8464 41.1016 98.7318 40.9089 98.5859 40.7578C98.4453 40.6068 98.2786 40.4948 98.0859 40.4219C97.8984 40.349 97.6953 40.3125 97.4766 40.3125C96.9974 40.3125 96.6042 40.474 96.2969 40.7969C95.9896 41.1146 95.8073 41.5651 95.75 42.1484H99.0469ZM107.977 42.1484C107.987 41.8516 107.971 41.599 107.93 41.3906C107.893 41.1823 107.831 41.0104 107.742 40.875C107.659 40.7396 107.555 40.6406 107.43 40.5781C107.305 40.5156 107.161 40.4844 107 40.4844C106.719 40.4844 106.427 40.6016 106.125 40.8359C105.828 41.0651 105.5 41.4453 105.141 41.9766V47H103.188V39.0625H104.914L104.984 40.2188C105.115 40.0156 105.26 39.8333 105.422 39.6719C105.589 39.5104 105.771 39.3724 105.969 39.2578C106.172 39.138 106.396 39.0469 106.641 38.9844C106.885 38.9219 107.154 38.8906 107.445 38.8906C107.846 38.8906 108.201 38.9609 108.508 39.1016C108.82 39.237 109.081 39.4401 109.289 39.7109C109.503 39.9818 109.659 40.3229 109.758 40.7344C109.862 41.1406 109.906 41.612 109.891 42.1484H107.977ZM117.219 47L116.656 44.9844H113.094L112.516 47H110.609L113.633 36.7891H116.32L119.344 47H117.219ZM114.898 38.6641L113.555 43.4141H116.227L114.898 38.6641ZM126.883 46.6953C126.508 46.8464 126.12 46.9583 125.719 47.0312C125.318 47.1042 124.898 47.1406 124.461 47.1406C123.831 47.1406 123.266 47.0547 122.766 46.8828C122.266 46.7109 121.841 46.4557 121.492 46.1172C121.143 45.7786 120.875 45.3594 120.688 44.8594C120.505 44.3594 120.414 43.7812 120.414 43.125C120.414 42.4896 120.513 41.9141 120.711 41.3984C120.914 40.8828 121.198 40.4427 121.562 40.0781C121.927 39.7135 122.365 39.4323 122.875 39.2344C123.391 39.0365 123.964 38.9375 124.594 38.9375C125.109 38.9375 125.542 38.9661 125.891 39.0234C126.245 39.0755 126.562 39.1432 126.844 39.2266V41.0781C126.521 40.9167 126.169 40.7917 125.789 40.7031C125.414 40.6146 125.057 40.5703 124.719 40.5703C124.365 40.5703 124.047 40.6302 123.766 40.75C123.484 40.8698 123.247 41.0365 123.055 41.25C122.862 41.4635 122.714 41.724 122.609 42.0312C122.51 42.3333 122.461 42.6667 122.461 43.0312C122.461 43.4115 122.516 43.7526 122.625 44.0547C122.734 44.3568 122.888 44.6146 123.086 44.8281C123.289 45.0365 123.531 45.1979 123.812 45.3125C124.094 45.4219 124.406 45.4766 124.75 45.4766C124.917 45.4766 125.091 45.4661 125.273 45.4453C125.461 45.4193 125.646 45.3854 125.828 45.3438C126.016 45.2969 126.198 45.2448 126.375 45.1875C126.557 45.1302 126.727 45.0677 126.883 45V46.6953ZM135.68 46.6953C135.305 46.8464 134.917 46.9583 134.516 47.0312C134.115 47.1042 133.695 47.1406 133.258 47.1406C132.628 47.1406 132.062 47.0547 131.562 46.8828C131.062 46.7109 130.638 46.4557 130.289 46.1172C129.94 45.7786 129.672 45.3594 129.484 44.8594C129.302 44.3594 129.211 43.7812 129.211 43.125C129.211 42.4896 129.31 41.9141 129.508 41.3984C129.711 40.8828 129.995 40.4427 130.359 40.0781C130.724 39.7135 131.161 39.4323 131.672 39.2344C132.188 39.0365 132.76 38.9375 133.391 38.9375C133.906 38.9375 134.339 38.9661 134.688 39.0234C135.042 39.0755 135.359 39.1432 135.641 39.2266V41.0781C135.318 40.9167 134.966 40.7917 134.586 40.7031C134.211 40.6146 133.854 40.5703 133.516 40.5703C133.161 40.5703 132.844 40.6302 132.562 40.75C132.281 40.8698 132.044 41.0365 131.852 41.25C131.659 41.4635 131.51 41.724 131.406 42.0312C131.307 42.3333 131.258 42.6667 131.258 43.0312C131.258 43.4115 131.312 43.7526 131.422 44.0547C131.531 44.3568 131.685 44.6146 131.883 44.8281C132.086 45.0365 132.328 45.1979 132.609 45.3125C132.891 45.4219 133.203 45.4766 133.547 45.4766C133.714 45.4766 133.888 45.4661 134.07 45.4453C134.258 45.4193 134.443 45.3854 134.625 45.3438C134.812 45.2969 134.995 45.2448 135.172 45.1875C135.354 45.1302 135.523 45.0677 135.68 45V46.6953ZM144.969 42.4219C144.969 42.5521 144.964 42.7214 144.953 42.9297C144.948 43.138 144.938 43.3333 144.922 43.5156H139.703C139.703 43.8646 139.755 44.1719 139.859 44.4375C139.969 44.7031 140.12 44.9271 140.312 45.1094C140.51 45.2865 140.745 45.4219 141.016 45.5156C141.292 45.6094 141.596 45.6562 141.93 45.6562C142.315 45.6562 142.727 45.6276 143.164 45.5703C143.607 45.5078 144.065 45.4089 144.539 45.2734V46.7891C144.336 46.8464 144.115 46.8984 143.875 46.9453C143.635 46.9922 143.391 47.0339 143.141 47.0703C142.891 47.1068 142.638 47.1328 142.383 47.1484C142.128 47.1693 141.88 47.1797 141.641 47.1797C141.036 47.1797 140.495 47.0938 140.016 46.9219C139.536 46.75 139.13 46.4974 138.797 46.1641C138.464 45.8255 138.208 45.4089 138.031 44.9141C137.854 44.4193 137.766 43.8464 137.766 43.1953C137.766 42.5495 137.854 41.9635 138.031 41.4375C138.208 40.9062 138.458 40.4531 138.781 40.0781C139.104 39.6979 139.495 39.4062 139.953 39.2031C140.417 38.9948 140.932 38.8906 141.5 38.8906C142.062 38.8906 142.56 38.9792 142.992 39.1562C143.424 39.3281 143.786 39.5703 144.078 39.8828C144.37 40.1953 144.591 40.5677 144.742 41C144.893 41.4323 144.969 41.9062 144.969 42.4219ZM143.031 42.1484C143.036 41.8359 142.997 41.5651 142.914 41.3359C142.831 41.1016 142.716 40.9089 142.57 40.7578C142.43 40.6068 142.263 40.4948 142.07 40.4219C141.883 40.349 141.68 40.3125 141.461 40.3125C140.982 40.3125 140.589 40.474 140.281 40.7969C139.974 41.1146 139.792 41.5651 139.734 42.1484H143.031ZM153.992 42.8906C153.992 43.6198 153.888 44.25 153.68 44.7812C153.477 45.3125 153.19 45.7552 152.82 46.1094C152.456 46.4583 152.023 46.7188 151.523 46.8906C151.023 47.0573 150.479 47.1406 149.891 47.1406C149.693 47.1406 149.495 47.1276 149.297 47.1016C149.099 47.0755 148.919 47.0417 148.758 47V50.1016H146.852V39.0625H148.5L148.547 40.2344C148.708 40.0312 148.875 39.8464 149.047 39.6797C149.224 39.513 149.414 39.3724 149.617 39.2578C149.82 39.138 150.039 39.0469 150.273 38.9844C150.508 38.9219 150.771 38.8906 151.062 38.8906C151.531 38.8906 151.948 38.9844 152.312 39.1719C152.677 39.3594 152.982 39.6276 153.227 39.9766C153.477 40.3203 153.667 40.7396 153.797 41.2344C153.927 41.724 153.992 42.276 153.992 42.8906ZM151.992 42.9688C151.992 42.5312 151.961 42.1589 151.898 41.8516C151.836 41.5443 151.745 41.2917 151.625 41.0938C151.51 40.8958 151.367 40.7526 151.195 40.6641C151.029 40.5703 150.836 40.5234 150.617 40.5234C150.294 40.5234 149.984 40.6536 149.688 40.9141C149.396 41.1745 149.086 41.5286 148.758 41.9766V45.4453C148.909 45.5026 149.094 45.5495 149.312 45.5859C149.536 45.6224 149.763 45.6406 149.992 45.6406C150.294 45.6406 150.568 45.5781 150.812 45.4531C151.062 45.3281 151.273 45.151 151.445 44.9219C151.622 44.6927 151.758 44.4141 151.852 44.0859C151.945 43.7526 151.992 43.3802 151.992 42.9688ZM162.195 46.9219C161.852 47 161.505 47.0625 161.156 47.1094C160.807 47.1562 160.477 47.1797 160.164 47.1797C159.643 47.1797 159.193 47.125 158.812 47.0156C158.438 46.9062 158.125 46.7396 157.875 46.5156C157.63 46.2917 157.448 46.0078 157.328 45.6641C157.214 45.3151 157.156 44.901 157.156 44.4219V40.5469H155.023V39.0625H157.156V37.0312L159.109 36.5234V39.0625H162.195V40.5469H159.109V44.2812C159.109 44.7344 159.214 45.0781 159.422 45.3125C159.63 45.5417 159.979 45.6562 160.469 45.6562C160.781 45.6562 161.086 45.6302 161.383 45.5781C161.68 45.526 161.951 45.4661 162.195 45.3984V46.9219ZM171.359 42.4219C171.359 42.5521 171.354 42.7214 171.344 42.9297C171.339 43.138 171.328 43.3333 171.312 43.5156H166.094C166.094 43.8646 166.146 44.1719 166.25 44.4375C166.359 44.7031 166.51 44.9271 166.703 45.1094C166.901 45.2865 167.135 45.4219 167.406 45.5156C167.682 45.6094 167.987 45.6562 168.32 45.6562C168.706 45.6562 169.117 45.6276 169.555 45.5703C169.997 45.5078 170.456 45.4089 170.93 45.2734V46.7891C170.727 46.8464 170.505 46.8984 170.266 46.9453C170.026 46.9922 169.781 47.0339 169.531 47.0703C169.281 47.1068 169.029 47.1328 168.773 47.1484C168.518 47.1693 168.271 47.1797 168.031 47.1797C167.427 47.1797 166.885 47.0938 166.406 46.9219C165.927 46.75 165.521 46.4974 165.188 46.1641C164.854 45.8255 164.599 45.4089 164.422 44.9141C164.245 44.4193 164.156 43.8464 164.156 43.1953C164.156 42.5495 164.245 41.9635 164.422 41.4375C164.599 40.9062 164.849 40.4531 165.172 40.0781C165.495 39.6979 165.885 39.4062 166.344 39.2031C166.807 38.9948 167.323 38.8906 167.891 38.8906C168.453 38.8906 168.951 38.9792 169.383 39.1562C169.815 39.3281 170.177 39.5703 170.469 39.8828C170.76 40.1953 170.982 40.5677 171.133 41C171.284 41.4323 171.359 41.9062 171.359 42.4219ZM169.422 42.1484C169.427 41.8359 169.388 41.5651 169.305 41.3359C169.221 41.1016 169.107 40.9089 168.961 40.7578C168.82 40.6068 168.654 40.4948 168.461 40.4219C168.273 40.349 168.07 40.3125 167.852 40.3125C167.372 40.3125 166.979 40.474 166.672 40.7969C166.365 41.1146 166.182 41.5651 166.125 42.1484H169.422ZM178.234 47L178.188 45.8281C178.021 46.0312 177.849 46.2161 177.672 46.3828C177.495 46.5495 177.305 46.6927 177.102 46.8125C176.898 46.9271 176.68 47.0156 176.445 47.0781C176.216 47.1458 175.961 47.1797 175.68 47.1797C175.211 47.1797 174.794 47.0859 174.43 46.8984C174.065 46.7109 173.758 46.4453 173.508 46.1016C173.263 45.7526 173.076 45.3307 172.945 44.8359C172.815 44.3411 172.75 43.7891 172.75 43.1797C172.75 42.4505 172.852 41.8203 173.055 41.2891C173.263 40.7526 173.549 40.3099 173.914 39.9609C174.279 39.6068 174.711 39.3464 175.211 39.1797C175.711 39.0078 176.255 38.9219 176.844 38.9219C177.042 38.9219 177.24 38.9349 177.438 38.9609C177.641 38.987 177.82 39.0208 177.977 39.0625V35.9609H179.883V47H178.234ZM174.75 43.0938C174.75 43.5312 174.779 43.9062 174.836 44.2188C174.898 44.526 174.987 44.7786 175.102 44.9766C175.221 45.1745 175.367 45.3203 175.539 45.4141C175.711 45.5026 175.906 45.5469 176.125 45.5469C176.448 45.5469 176.755 45.4167 177.047 45.1562C177.339 44.8958 177.648 44.5391 177.977 44.0859V40.6172C177.826 40.5599 177.638 40.513 177.414 40.4766C177.195 40.4401 176.974 40.4219 176.75 40.4219C176.443 40.4219 176.167 40.4844 175.922 40.6094C175.677 40.7344 175.466 40.9115 175.289 41.1406C175.117 41.3698 174.984 41.651 174.891 41.9844C174.797 42.3125 174.75 42.6823 174.75 43.0938ZM182.391 47V36.7891H188.539V38.4141H184.344V40.9531H188.344V42.5391H184.344V45.375H188.539V47H182.391ZM195.273 47H193.078L189.93 39.0625H192.055L193.703 43.5625L194.195 45.0156L194.68 43.625L196.344 39.0625H198.391L195.273 47ZM206.547 42.4219C206.547 42.5521 206.542 42.7214 206.531 42.9297C206.526 43.138 206.516 43.3333 206.5 43.5156H201.281C201.281 43.8646 201.333 44.1719 201.438 44.4375C201.547 44.7031 201.698 44.9271 201.891 45.1094C202.089 45.2865 202.323 45.4219 202.594 45.5156C202.87 45.6094 203.174 45.6562 203.508 45.6562C203.893 45.6562 204.305 45.6276 204.742 45.5703C205.185 45.5078 205.643 45.4089 206.117 45.2734V46.7891C205.914 46.8464 205.693 46.8984 205.453 46.9453C205.214 46.9922 204.969 47.0339 204.719 47.0703C204.469 47.1068 204.216 47.1328 203.961 47.1484C203.706 47.1693 203.458 47.1797 203.219 47.1797C202.615 47.1797 202.073 47.0938 201.594 46.9219C201.115 46.75 200.708 46.4974 200.375 46.1641C200.042 45.8255 199.786 45.4089 199.609 44.9141C199.432 44.4193 199.344 43.8464 199.344 43.1953C199.344 42.5495 199.432 41.9635 199.609 41.4375C199.786 40.9062 200.036 40.4531 200.359 40.0781C200.682 39.6979 201.073 39.4062 201.531 39.2031C201.995 38.9948 202.51 38.8906 203.078 38.8906C203.641 38.8906 204.138 38.9792 204.57 39.1562C205.003 39.3281 205.365 39.5703 205.656 39.8828C205.948 40.1953 206.169 40.5677 206.32 41C206.471 41.4323 206.547 41.9062 206.547 42.4219ZM204.609 42.1484C204.615 41.8359 204.576 41.5651 204.492 41.3359C204.409 41.1016 204.294 40.9089 204.148 40.7578C204.008 40.6068 203.841 40.4948 203.648 40.4219C203.461 40.349 203.258 40.3125 203.039 40.3125C202.56 40.3125 202.167 40.474 201.859 40.7969C201.552 41.1146 201.37 41.5651 201.312 42.1484H204.609ZM213.164 47V41.8281C213.164 40.9583 212.841 40.5234 212.195 40.5234C211.872 40.5234 211.562 40.6536 211.266 40.9141C210.974 41.1745 210.664 41.5286 210.336 41.9766V47H208.43V39.0625H210.078L210.125 40.2344C210.286 40.0312 210.453 39.8464 210.625 39.6797C210.802 39.513 210.992 39.3724 211.195 39.2578C211.398 39.138 211.617 39.0469 211.852 38.9844C212.086 38.9219 212.349 38.8906 212.641 38.8906C213.047 38.8906 213.401 38.9583 213.703 39.0938C214.005 39.224 214.258 39.4115 214.461 39.6562C214.664 39.8958 214.815 40.1875 214.914 40.5312C215.018 40.8698 215.07 41.25 215.07 41.6719V47H213.164ZM223.773 46.9219C223.43 47 223.083 47.0625 222.734 47.1094C222.385 47.1562 222.055 47.1797 221.742 47.1797C221.221 47.1797 220.771 47.125 220.391 47.0156C220.016 46.9062 219.703 46.7396 219.453 46.5156C219.208 46.2917 219.026 46.0078 218.906 45.6641C218.792 45.3151 218.734 44.901 218.734 44.4219V40.5469H216.602V39.0625H218.734V37.0312L220.688 36.5234V39.0625H223.773V40.5469H220.688V44.2812C220.688 44.7344 220.792 45.0781 221 45.3125C221.208 45.5417 221.557 45.6562 222.047 45.6562C222.359 45.6562 222.664 45.6302 222.961 45.5781C223.258 45.526 223.529 45.4661 223.773 45.3984V46.9219Z" fill="black"/>
<path d="M722.939 46.9393C722.354 47.5251 722.354 48.4749 722.939 49.0607L732.485 58.6066C733.071 59.1924 734.021 59.1924 734.607 58.6066C735.192 58.0208 735.192 57.0711 734.607 56.4853L726.121 48L734.607 39.5147C735.192 38.9289 735.192 37.9792 734.607 37.3934C734.021 36.8076 733.071 36.8076 732.485 37.3934L722.939 46.9393ZM829 46.5L724 46.5L724 49.5L829 49.5L829 46.5Z" fill="black"/>
<path d="M246.939 123.939C246.354 124.525 246.354 125.475 246.939 126.061L256.485 135.607C257.071 136.192 258.021 136.192 258.607 135.607C259.192 135.021 259.192 134.071 258.607 133.485L250.121 125L258.607 116.515C259.192 115.929 259.192 114.979 258.607 114.393C258.021 113.808 257.071 113.808 256.485 114.393L246.939 123.939ZM353 123.5L248 123.5L248 126.5L353 126.5L353 123.5Z" fill="black"/>
<rect x="863.5" y="1.5" width="160" height="92" rx="2.5" fill="#7DE77B" stroke="black" stroke-width="3"/>
<path d="M918.594 41.3906V50H916.625V41.3906H913.828V39.7891H921.391V41.3906H918.594ZM928.203 45.1484C928.214 44.8516 928.198 44.599 928.156 44.3906C928.12 44.1823 928.057 44.0104 927.969 43.875C927.885 43.7396 927.781 43.6406 927.656 43.5781C927.531 43.5156 927.388 43.4844 927.227 43.4844C926.945 43.4844 926.654 43.6016 926.352 43.8359C926.055 44.0651 925.727 44.4453 925.367 44.9766V50H923.414V42.0625H925.141L925.211 43.2188C925.341 43.0156 925.487 42.8333 925.648 42.6719C925.815 42.5104 925.997 42.3724 926.195 42.2578C926.398 42.138 926.622 42.0469 926.867 41.9844C927.112 41.9219 927.38 41.8906 927.672 41.8906C928.073 41.8906 928.427 41.9609 928.734 42.1016C929.047 42.237 929.307 42.4401 929.516 42.7109C929.729 42.9818 929.885 43.3229 929.984 43.7344C930.089 44.1406 930.133 44.612 930.117 45.1484H928.203ZM936.867 50L936.82 48.9609C936.654 49.138 936.479 49.3021 936.297 49.4531C936.115 49.599 935.914 49.7266 935.695 49.8359C935.477 49.9453 935.237 50.0286 934.977 50.0859C934.721 50.1484 934.44 50.1797 934.133 50.1797C933.727 50.1797 933.37 50.1198 933.062 50C932.755 49.8802 932.497 49.7135 932.289 49.5C932.081 49.2865 931.922 49.0286 931.812 48.7266C931.708 48.4245 931.656 48.0911 931.656 47.7266C931.656 47.3516 931.734 47.0052 931.891 46.6875C932.052 46.3698 932.294 46.0964 932.617 45.8672C932.945 45.638 933.352 45.4583 933.836 45.3281C934.326 45.1979 934.898 45.1328 935.555 45.1328H936.594V44.6562C936.594 44.4531 936.565 44.2708 936.508 44.1094C936.451 43.9427 936.357 43.8021 936.227 43.6875C936.102 43.5729 935.938 43.4844 935.734 43.4219C935.531 43.3594 935.281 43.3281 934.984 43.3281C934.516 43.3281 934.052 43.3828 933.594 43.4922C933.141 43.5964 932.701 43.7448 932.273 43.9375V42.4141C932.654 42.263 933.091 42.138 933.586 42.0391C934.086 41.9401 934.604 41.8906 935.141 41.8906C935.729 41.8906 936.234 41.9479 936.656 42.0625C937.078 42.1719 937.424 42.3385 937.695 42.5625C937.971 42.7865 938.174 43.0677 938.305 43.4062C938.435 43.7396 938.5 44.1302 938.5 44.5781V50H936.867ZM936.594 46.4922H935.43C935.107 46.4922 934.833 46.5234 934.609 46.5859C934.385 46.6484 934.203 46.7344 934.062 46.8438C933.922 46.9531 933.818 47.0807 933.75 47.2266C933.688 47.3672 933.656 47.5182 933.656 47.6797C933.656 48.0026 933.76 48.25 933.969 48.4219C934.177 48.5885 934.461 48.6719 934.82 48.6719C935.086 48.6719 935.362 48.5755 935.648 48.3828C935.935 48.1901 936.25 47.9141 936.594 47.5547V46.4922ZM945.68 50L945.633 48.8281C945.466 49.0312 945.294 49.2161 945.117 49.3828C944.94 49.5495 944.75 49.6927 944.547 49.8125C944.344 49.9271 944.125 50.0156 943.891 50.0781C943.661 50.1458 943.406 50.1797 943.125 50.1797C942.656 50.1797 942.24 50.0859 941.875 49.8984C941.51 49.7109 941.203 49.4453 940.953 49.1016C940.708 48.7526 940.521 48.3307 940.391 47.8359C940.26 47.3411 940.195 46.7891 940.195 46.1797C940.195 45.4505 940.297 44.8203 940.5 44.2891C940.708 43.7526 940.995 43.3099 941.359 42.9609C941.724 42.6068 942.156 42.3464 942.656 42.1797C943.156 42.0078 943.701 41.9219 944.289 41.9219C944.487 41.9219 944.685 41.9349 944.883 41.9609C945.086 41.987 945.266 42.0208 945.422 42.0625V38.9609H947.328V50H945.68ZM942.195 46.0938C942.195 46.5312 942.224 46.9062 942.281 47.2188C942.344 47.526 942.432 47.7786 942.547 47.9766C942.667 48.1745 942.812 48.3203 942.984 48.4141C943.156 48.5026 943.352 48.5469 943.57 48.5469C943.893 48.5469 944.201 48.4167 944.492 48.1562C944.784 47.8958 945.094 47.5391 945.422 47.0859V43.6172C945.271 43.5599 945.083 43.513 944.859 43.4766C944.641 43.4401 944.419 43.4219 944.195 43.4219C943.888 43.4219 943.612 43.4844 943.367 43.6094C943.122 43.7344 942.911 43.9115 942.734 44.1406C942.562 44.3698 942.43 44.651 942.336 44.9844C942.242 45.3125 942.195 45.6823 942.195 46.0938ZM954.156 39.8906C954.156 40.0625 954.125 40.224 954.062 40.375C954 40.526 953.911 40.6589 953.797 40.7734C953.688 40.8828 953.557 40.9714 953.406 41.0391C953.255 41.1016 953.091 41.1328 952.914 41.1328C952.737 41.1328 952.57 41.1016 952.414 41.0391C952.263 40.9714 952.13 40.8828 952.016 40.7734C951.906 40.6589 951.82 40.526 951.758 40.375C951.695 40.224 951.664 40.0625 951.664 39.8906C951.664 39.7188 951.695 39.5573 951.758 39.4062C951.82 39.2552 951.906 39.1224 952.016 39.0078C952.13 38.8932 952.263 38.8047 952.414 38.7422C952.57 38.6745 952.737 38.6406 952.914 38.6406C953.091 38.6406 953.255 38.6745 953.406 38.7422C953.557 38.8047 953.688 38.8932 953.797 39.0078C953.911 39.1224 954 39.2552 954.062 39.4062C954.125 39.5573 954.156 39.7188 954.156 39.8906ZM952.047 43.5469H949.805V42.0625H954V48.5156H956.289V50H949.531V48.5156H952.047V43.5469ZM963.016 50V44.8281C963.016 43.9583 962.693 43.5234 962.047 43.5234C961.724 43.5234 961.414 43.6536 961.117 43.9141C960.826 44.1745 960.516 44.5286 960.188 44.9766V50H958.281V42.0625H959.93L959.977 43.2344C960.138 43.0312 960.305 42.8464 960.477 42.6797C960.654 42.513 960.844 42.3724 961.047 42.2578C961.25 42.138 961.469 42.0469 961.703 41.9844C961.938 41.9219 962.201 41.8906 962.492 41.8906C962.898 41.8906 963.253 41.9583 963.555 42.0938C963.857 42.224 964.109 42.4115 964.312 42.6562C964.516 42.8958 964.667 43.1875 964.766 43.5312C964.87 43.8698 964.922 44.25 964.922 44.6719V50H963.016ZM973.031 43.4531C973.177 43.6354 973.279 43.8281 973.336 44.0312C973.398 44.2292 973.43 44.4323 973.43 44.6406C973.43 45.0833 973.352 45.474 973.195 45.8125C973.044 46.151 972.828 46.4349 972.547 46.6641C972.271 46.8932 971.938 47.0677 971.547 47.1875C971.161 47.3021 970.734 47.3594 970.266 47.3594C969.99 47.3594 969.734 47.3333 969.5 47.2812C969.266 47.224 969.089 47.1589 968.969 47.0859C968.88 47.1745 968.805 47.2734 968.742 47.3828C968.68 47.487 968.648 47.6068 968.648 47.7422C968.648 47.8255 968.669 47.9089 968.711 47.9922C968.753 48.0755 968.812 48.151 968.891 48.2188C968.974 48.2812 969.07 48.3333 969.18 48.375C969.294 48.4167 969.422 48.4401 969.562 48.4453L971.445 48.5156C971.867 48.526 972.247 48.5807 972.586 48.6797C972.93 48.7734 973.224 48.9089 973.469 49.0859C973.714 49.263 973.901 49.4792 974.031 49.7344C974.167 49.9844 974.234 50.2708 974.234 50.5938C974.234 50.9635 974.151 51.3125 973.984 51.6406C973.818 51.9688 973.565 52.2526 973.227 52.4922C972.893 52.737 972.477 52.9297 971.977 53.0703C971.477 53.2109 970.896 53.2812 970.234 53.2812C969.594 53.2812 969.042 53.2292 968.578 53.125C968.12 53.026 967.742 52.8854 967.445 52.7031C967.154 52.5208 966.938 52.3021 966.797 52.0469C966.656 51.7969 966.586 51.5208 966.586 51.2188C966.586 51.0365 966.609 50.8672 966.656 50.7109C966.703 50.5547 966.773 50.4036 966.867 50.2578C966.961 50.1172 967.078 49.9792 967.219 49.8438C967.359 49.7083 967.526 49.5729 967.719 49.4375C967.464 49.2917 967.268 49.1042 967.133 48.875C967.003 48.6458 966.938 48.401 966.938 48.1406C966.938 47.9635 966.961 47.7995 967.008 47.6484C967.055 47.4922 967.115 47.3438 967.188 47.2031C967.266 47.0625 967.354 46.9271 967.453 46.7969C967.552 46.6667 967.656 46.5391 967.766 46.4141C967.573 46.2214 967.411 45.9896 967.281 45.7188C967.156 45.4427 967.094 45.099 967.094 44.6875C967.094 44.2448 967.172 43.8516 967.328 43.5078C967.49 43.1589 967.711 42.8672 967.992 42.6328C968.273 42.3932 968.607 42.2135 968.992 42.0938C969.383 41.9688 969.807 41.9062 970.266 41.9062C970.5 41.9062 970.724 41.9193 970.938 41.9453C971.156 41.9661 971.354 42.0052 971.531 42.0625H974.281V43.4531H973.031ZM968.539 51.0547C968.539 51.362 968.693 51.5885 969 51.7344C969.312 51.8802 969.75 51.9531 970.312 51.9531C970.672 51.9531 970.974 51.9193 971.219 51.8516C971.469 51.7839 971.672 51.6953 971.828 51.5859C971.984 51.4766 972.096 51.349 972.164 51.2031C972.232 51.0573 972.266 50.9062 972.266 50.75C972.266 50.6094 972.232 50.4896 972.164 50.3906C972.102 50.2969 972.01 50.2161 971.891 50.1484C971.776 50.0859 971.638 50.0365 971.477 50C971.32 49.9688 971.146 49.9479 970.953 49.9375L969.273 49.9062C969.122 50.0104 968.997 50.1094 968.898 50.2031C968.805 50.2969 968.729 50.388 968.672 50.4766C968.62 50.5703 968.583 50.6641 968.562 50.7578C968.547 50.8516 968.539 50.9505 968.539 51.0547ZM968.859 44.6875C968.859 45.1094 968.982 45.4453 969.227 45.6953C969.477 45.9401 969.823 46.0625 970.266 46.0625C970.5 46.0625 970.703 46.0234 970.875 45.9453C971.052 45.8672 971.198 45.763 971.312 45.6328C971.427 45.5026 971.513 45.3516 971.57 45.1797C971.628 45.0078 971.656 44.8281 971.656 44.6406C971.656 44.1979 971.531 43.8542 971.281 43.6094C971.036 43.3594 970.693 43.2344 970.25 43.2344C970.016 43.2344 969.81 43.2734 969.633 43.3516C969.461 43.4297 969.318 43.5365 969.203 43.6719C969.089 43.8021 969.003 43.9557 968.945 44.1328C968.888 44.3099 968.859 44.4948 968.859 44.6875Z" fill="black"/>
<rect x="830.5" y="54.5" width="62" height="22" rx="2.5" fill="#FFFD54" stroke="black" stroke-width="3"/>
<rect x="830.5" y="16.5" width="62" height="23" rx="2.5" fill="#FFFD54" stroke="black" stroke-width="3"/>
<rect x="39.3828" y="79.5" width="184.117" height="92" rx="2.5" fill="#7DE77B" stroke="black" stroke-width="3"/>
<path d="M102.233 128V117.789H105.53C106.691 117.789 107.561 117.992 108.139 118.398C108.723 118.805 109.014 119.419 109.014 120.242C109.014 120.497 108.983 120.747 108.92 120.992C108.863 121.232 108.772 121.453 108.647 121.656C108.522 121.859 108.366 122.039 108.178 122.195C107.991 122.352 107.769 122.474 107.514 122.562C107.769 122.604 108.012 122.688 108.241 122.812C108.475 122.932 108.678 123.091 108.85 123.289C109.027 123.482 109.165 123.711 109.264 123.977C109.368 124.242 109.42 124.539 109.42 124.867C109.42 125.909 109.071 126.693 108.374 127.219C107.676 127.74 106.668 128 105.35 128H102.233ZM107.014 120.578C107.014 120.385 106.983 120.211 106.92 120.055C106.858 119.898 106.756 119.766 106.616 119.656C106.48 119.547 106.303 119.464 106.084 119.406C105.871 119.344 105.611 119.312 105.303 119.312H104.139V122.016H105.303C105.616 122.016 105.879 121.979 106.092 121.906C106.311 121.828 106.488 121.724 106.624 121.594C106.764 121.458 106.863 121.305 106.92 121.133C106.983 120.961 107.014 120.776 107.014 120.578ZM105.483 126.43C105.79 126.43 106.058 126.391 106.288 126.312C106.522 126.234 106.717 126.128 106.874 125.992C107.03 125.852 107.147 125.688 107.225 125.5C107.308 125.312 107.35 125.112 107.35 124.898C107.35 124.456 107.183 124.109 106.85 123.859C106.522 123.609 106.017 123.484 105.334 123.484H104.139V126.43H105.483ZM115.78 117.891C115.78 118.062 115.749 118.224 115.686 118.375C115.624 118.526 115.535 118.659 115.42 118.773C115.311 118.883 115.181 118.971 115.03 119.039C114.879 119.102 114.715 119.133 114.538 119.133C114.361 119.133 114.194 119.102 114.038 119.039C113.887 118.971 113.754 118.883 113.639 118.773C113.53 118.659 113.444 118.526 113.381 118.375C113.319 118.224 113.288 118.062 113.288 117.891C113.288 117.719 113.319 117.557 113.381 117.406C113.444 117.255 113.53 117.122 113.639 117.008C113.754 116.893 113.887 116.805 114.038 116.742C114.194 116.674 114.361 116.641 114.538 116.641C114.715 116.641 114.879 116.674 115.03 116.742C115.181 116.805 115.311 116.893 115.42 117.008C115.535 117.122 115.624 117.255 115.686 117.406C115.749 117.557 115.78 117.719 115.78 117.891ZM113.67 121.547H111.428V120.062H115.624V126.516H117.913V128H111.155V126.516H113.67V121.547ZM122.467 118.445H120.225V116.961H124.42V126.516H126.709V128H119.952V126.516H122.467V118.445ZM131.264 118.445H129.022V116.961H133.217V126.516H135.506V128H128.749V126.516H131.264V118.445ZM142.17 117.891C142.17 118.062 142.139 118.224 142.077 118.375C142.014 118.526 141.926 118.659 141.811 118.773C141.702 118.883 141.571 118.971 141.42 119.039C141.269 119.102 141.105 119.133 140.928 119.133C140.751 119.133 140.585 119.102 140.428 119.039C140.277 118.971 140.144 118.883 140.03 118.773C139.92 118.659 139.835 118.526 139.772 118.375C139.71 118.224 139.678 118.062 139.678 117.891C139.678 117.719 139.71 117.557 139.772 117.406C139.835 117.255 139.92 117.122 140.03 117.008C140.144 116.893 140.277 116.805 140.428 116.742C140.585 116.674 140.751 116.641 140.928 116.641C141.105 116.641 141.269 116.674 141.42 116.742C141.571 116.805 141.702 116.893 141.811 117.008C141.926 117.122 142.014 117.255 142.077 117.406C142.139 117.557 142.17 117.719 142.17 117.891ZM140.061 121.547H137.819V120.062H142.014V126.516H144.303V128H137.545V126.516H140.061V121.547ZM151.03 128V122.828C151.03 121.958 150.707 121.523 150.061 121.523C149.738 121.523 149.428 121.654 149.131 121.914C148.84 122.174 148.53 122.529 148.202 122.977V128H146.295V120.062H147.944L147.991 121.234C148.152 121.031 148.319 120.846 148.491 120.68C148.668 120.513 148.858 120.372 149.061 120.258C149.264 120.138 149.483 120.047 149.717 119.984C149.952 119.922 150.215 119.891 150.506 119.891C150.913 119.891 151.267 119.958 151.569 120.094C151.871 120.224 152.124 120.411 152.327 120.656C152.53 120.896 152.681 121.188 152.78 121.531C152.884 121.87 152.936 122.25 152.936 122.672V128H151.03ZM161.045 121.453C161.191 121.635 161.293 121.828 161.35 122.031C161.413 122.229 161.444 122.432 161.444 122.641C161.444 123.083 161.366 123.474 161.21 123.812C161.058 124.151 160.842 124.435 160.561 124.664C160.285 124.893 159.952 125.068 159.561 125.188C159.176 125.302 158.749 125.359 158.28 125.359C158.004 125.359 157.749 125.333 157.514 125.281C157.28 125.224 157.103 125.159 156.983 125.086C156.894 125.174 156.819 125.273 156.756 125.383C156.694 125.487 156.663 125.607 156.663 125.742C156.663 125.826 156.683 125.909 156.725 125.992C156.767 126.076 156.827 126.151 156.905 126.219C156.988 126.281 157.085 126.333 157.194 126.375C157.308 126.417 157.436 126.44 157.577 126.445L159.46 126.516C159.881 126.526 160.262 126.581 160.6 126.68C160.944 126.773 161.238 126.909 161.483 127.086C161.728 127.263 161.915 127.479 162.045 127.734C162.181 127.984 162.249 128.271 162.249 128.594C162.249 128.964 162.165 129.312 161.999 129.641C161.832 129.969 161.579 130.253 161.241 130.492C160.907 130.737 160.491 130.93 159.991 131.07C159.491 131.211 158.91 131.281 158.249 131.281C157.608 131.281 157.056 131.229 156.592 131.125C156.134 131.026 155.756 130.885 155.46 130.703C155.168 130.521 154.952 130.302 154.811 130.047C154.67 129.797 154.6 129.521 154.6 129.219C154.6 129.036 154.624 128.867 154.67 128.711C154.717 128.555 154.788 128.404 154.881 128.258C154.975 128.117 155.092 127.979 155.233 127.844C155.374 127.708 155.54 127.573 155.733 127.438C155.478 127.292 155.282 127.104 155.147 126.875C155.017 126.646 154.952 126.401 154.952 126.141C154.952 125.964 154.975 125.799 155.022 125.648C155.069 125.492 155.129 125.344 155.202 125.203C155.28 125.062 155.368 124.927 155.467 124.797C155.566 124.667 155.67 124.539 155.78 124.414C155.587 124.221 155.426 123.99 155.295 123.719C155.17 123.443 155.108 123.099 155.108 122.688C155.108 122.245 155.186 121.852 155.342 121.508C155.504 121.159 155.725 120.867 156.006 120.633C156.288 120.393 156.621 120.214 157.006 120.094C157.397 119.969 157.821 119.906 158.28 119.906C158.514 119.906 158.738 119.919 158.952 119.945C159.17 119.966 159.368 120.005 159.545 120.062H162.295V121.453H161.045ZM156.553 129.055C156.553 129.362 156.707 129.589 157.014 129.734C157.327 129.88 157.764 129.953 158.327 129.953C158.686 129.953 158.988 129.919 159.233 129.852C159.483 129.784 159.686 129.695 159.842 129.586C159.999 129.477 160.111 129.349 160.178 129.203C160.246 129.057 160.28 128.906 160.28 128.75C160.28 128.609 160.246 128.49 160.178 128.391C160.116 128.297 160.025 128.216 159.905 128.148C159.79 128.086 159.652 128.036 159.491 128C159.335 127.969 159.16 127.948 158.967 127.938L157.288 127.906C157.137 128.01 157.012 128.109 156.913 128.203C156.819 128.297 156.743 128.388 156.686 128.477C156.634 128.57 156.598 128.664 156.577 128.758C156.561 128.852 156.553 128.951 156.553 129.055ZM156.874 122.688C156.874 123.109 156.996 123.445 157.241 123.695C157.491 123.94 157.837 124.062 158.28 124.062C158.514 124.062 158.717 124.023 158.889 123.945C159.066 123.867 159.212 123.763 159.327 123.633C159.441 123.503 159.527 123.352 159.585 123.18C159.642 123.008 159.67 122.828 159.67 122.641C159.67 122.198 159.545 121.854 159.295 121.609C159.051 121.359 158.707 121.234 158.264 121.234C158.03 121.234 157.824 121.273 157.647 121.352C157.475 121.43 157.332 121.536 157.217 121.672C157.103 121.802 157.017 121.956 156.96 122.133C156.902 122.31 156.874 122.495 156.874 122.688Z" fill="black"/>
<rect x="1.5" y="132.5" width="71.6173" height="22" rx="2.5" fill="#FFFD54" stroke="black" stroke-width="3"/>
<rect x="1.5" y="94.5" width="71.6173" height="23" rx="2.5" fill="#FFFD54" stroke="black" stroke-width="3"/>
<rect x="383.5" y="2.5" width="256" height="180" rx="7.5" fill="#8B2DF5" stroke="black" stroke-width="5"/>
<g opacity="0.6">
<rect x="492.5" y="23.5" width="213" height="52" rx="2.5" fill="#7DE77B" stroke="black" stroke-width="3"/>
<path d="M546.553 51.1387C546.553 51.834 546.471 52.4336 546.307 52.9375C546.147 53.4414 545.924 53.8555 545.639 54.1797C545.358 54.5039 545.026 54.7441 544.643 54.9004C544.264 55.0566 543.858 55.1348 543.424 55.1348C542.416 55.1348 541.658 54.8008 541.151 54.1328C540.643 53.4609 540.389 52.4863 540.389 51.209C540.389 50.5137 540.469 49.9141 540.629 49.4102C540.793 48.9062 541.016 48.4922 541.297 48.168C541.582 47.8438 541.914 47.6035 542.293 47.4473C542.676 47.291 543.084 47.2129 543.518 47.2129C544.526 47.2129 545.283 47.5469 545.791 48.2148C546.299 48.8828 546.553 49.8574 546.553 51.1387ZM545.03 51.209C545.03 50.3027 544.908 49.627 544.666 49.1816C544.424 48.7363 544.026 48.5137 543.471 48.5137C543.194 48.5137 542.957 48.5723 542.762 48.6895C542.567 48.8027 542.405 48.9707 542.276 49.1934C542.151 49.416 542.059 49.6914 542 50.0195C541.942 50.3438 541.912 50.7168 541.912 51.1387C541.912 52.0449 542.033 52.7207 542.276 53.166C542.522 53.6113 542.92 53.834 543.471 53.834C543.748 53.834 543.985 53.7773 544.18 53.6641C544.379 53.5469 544.541 53.377 544.666 53.1543C544.791 52.9316 544.883 52.6582 544.942 52.334C545 52.0059 545.03 51.6309 545.03 51.209ZM552.928 47.9336C552.756 47.8789 552.551 47.834 552.313 47.7988C552.078 47.7598 551.838 47.7402 551.592 47.7402C551.424 47.7402 551.268 47.7637 551.123 47.8105C550.979 47.8535 550.854 47.9238 550.748 48.0215C550.643 48.1191 550.559 48.2441 550.496 48.3965C550.438 48.5449 550.408 48.7266 550.408 48.9414V49.9023H552.746V51.0156H550.408V55H548.967V51.0156H547.239V49.9023H548.967V49C548.967 48.5781 549.028 48.2168 549.149 47.916C549.274 47.6113 549.448 47.3633 549.67 47.1719C549.897 46.9766 550.168 46.834 550.485 46.7441C550.801 46.6543 551.155 46.6094 551.545 46.6094C551.803 46.6094 552.047 46.627 552.278 46.6621C552.512 46.6934 552.729 46.7324 552.928 46.7793V47.9336ZM559.526 47.9336C559.354 47.8789 559.149 47.834 558.91 47.7988C558.676 47.7598 558.436 47.7402 558.19 47.7402C558.022 47.7402 557.866 47.7637 557.721 47.8105C557.576 47.8535 557.451 47.9238 557.346 48.0215C557.241 48.1191 557.157 48.2441 557.094 48.3965C557.035 48.5449 557.006 48.7266 557.006 48.9414V49.9023H559.344V51.0156H557.006V55H555.565V51.0156H553.836V49.9023H555.565V49C555.565 48.5781 555.625 48.2168 555.746 47.916C555.871 47.6113 556.045 47.3633 556.268 47.1719C556.494 46.9766 556.766 46.834 557.082 46.7441C557.399 46.6543 557.752 46.6094 558.143 46.6094C558.401 46.6094 558.645 46.627 558.875 46.6621C559.11 46.6934 559.326 46.7324 559.526 46.7793V47.9336ZM565.965 51.5664C565.965 51.6641 565.961 51.791 565.953 51.9473C565.949 52.1035 565.942 52.25 565.93 52.3867H562.016C562.016 52.6484 562.055 52.8789 562.133 53.0781C562.215 53.2773 562.328 53.4453 562.473 53.582C562.621 53.7148 562.797 53.8164 563 53.8867C563.207 53.957 563.436 53.9922 563.686 53.9922C563.975 53.9922 564.283 53.9707 564.612 53.9277C564.944 53.8809 565.287 53.8066 565.643 53.7051V54.8418C565.491 54.8848 565.324 54.9238 565.145 54.959C564.965 54.9941 564.782 55.0254 564.594 55.0527C564.407 55.0801 564.217 55.0996 564.026 55.1113C563.834 55.127 563.649 55.1348 563.469 55.1348C563.016 55.1348 562.61 55.0703 562.25 54.9414C561.891 54.8125 561.586 54.623 561.336 54.373C561.086 54.1191 560.895 53.8066 560.762 53.4355C560.629 53.0645 560.563 52.6348 560.563 52.1465C560.563 51.6621 560.629 51.2227 560.762 50.8281C560.895 50.4297 561.082 50.0898 561.324 49.8086C561.567 49.5234 561.86 49.3047 562.203 49.1523C562.551 48.9961 562.938 48.918 563.364 48.918C563.785 48.918 564.158 48.9844 564.483 49.1172C564.807 49.2461 565.078 49.4277 565.297 49.6621C565.516 49.8965 565.682 50.1758 565.795 50.5C565.908 50.8242 565.965 51.1797 565.965 51.5664ZM564.512 51.3613C564.516 51.127 564.487 50.9238 564.424 50.752C564.362 50.5762 564.276 50.4316 564.166 50.3184C564.061 50.2051 563.936 50.1211 563.791 50.0664C563.651 50.0117 563.498 49.9844 563.334 49.9844C562.975 49.9844 562.68 50.1055 562.449 50.3477C562.219 50.5859 562.082 50.9238 562.039 51.3613H564.512ZM571.209 51.3613C571.217 51.1387 571.205 50.9492 571.174 50.793C571.147 50.6367 571.1 50.5078 571.033 50.4062C570.971 50.3047 570.893 50.2305 570.799 50.1836C570.705 50.1367 570.598 50.1133 570.477 50.1133C570.266 50.1133 570.047 50.2012 569.821 50.377C569.598 50.5488 569.352 50.834 569.082 51.2324V55H567.617V49.0469H568.912L568.965 49.9141C569.063 49.7617 569.172 49.625 569.293 49.5039C569.418 49.3828 569.555 49.2793 569.703 49.1934C569.856 49.1035 570.024 49.0352 570.207 48.9883C570.391 48.9414 570.592 48.918 570.811 48.918C571.112 48.918 571.377 48.9707 571.608 49.0762C571.842 49.1777 572.037 49.3301 572.194 49.5332C572.354 49.7363 572.471 49.9922 572.545 50.3008C572.623 50.6055 572.657 50.959 572.645 51.3613H571.209ZM578.141 55L577.719 53.4883H575.047L574.614 55H573.184L575.451 47.3418H577.467L579.735 55H578.141ZM576.401 48.748L575.393 52.3105H577.397L576.401 48.748ZM585.389 54.7715C585.108 54.8848 584.817 54.9688 584.516 55.0234C584.215 55.0781 583.901 55.1055 583.573 55.1055C583.1 55.1055 582.676 55.041 582.301 54.9121C581.926 54.7832 581.608 54.5918 581.346 54.3379C581.084 54.084 580.883 53.7695 580.742 53.3945C580.606 53.0195 580.537 52.5859 580.537 52.0938C580.537 51.6172 580.612 51.1855 580.76 50.7988C580.912 50.4121 581.125 50.082 581.399 49.8086C581.672 49.5352 582 49.3242 582.383 49.1758C582.77 49.0273 583.199 48.9531 583.672 48.9531C584.059 48.9531 584.383 48.9746 584.645 49.0176C584.91 49.0566 585.149 49.1074 585.36 49.1699V50.5586C585.117 50.4375 584.854 50.3438 584.569 50.2773C584.287 50.2109 584.02 50.1777 583.766 50.1777C583.5 50.1777 583.262 50.2227 583.051 50.3125C582.84 50.4023 582.662 50.5273 582.518 50.6875C582.373 50.8477 582.262 51.043 582.184 51.2734C582.11 51.5 582.073 51.75 582.073 52.0234C582.073 52.3086 582.114 52.5645 582.196 52.791C582.278 53.0176 582.393 53.2109 582.541 53.3711C582.694 53.5273 582.875 53.6484 583.086 53.7344C583.297 53.8164 583.532 53.8574 583.789 53.8574C583.914 53.8574 584.045 53.8496 584.182 53.834C584.323 53.8145 584.461 53.7891 584.598 53.7578C584.739 53.7227 584.875 53.6836 585.008 53.6406C585.145 53.5977 585.272 53.5508 585.389 53.5V54.7715ZM591.987 54.7715C591.705 54.8848 591.414 54.9688 591.114 55.0234C590.813 55.0781 590.498 55.1055 590.17 55.1055C589.698 55.1055 589.274 55.041 588.899 54.9121C588.524 54.7832 588.205 54.5918 587.944 54.3379C587.682 54.084 587.481 53.7695 587.34 53.3945C587.203 53.0195 587.135 52.5859 587.135 52.0938C587.135 51.6172 587.209 51.1855 587.358 50.7988C587.51 50.4121 587.723 50.082 587.996 49.8086C588.27 49.5352 588.598 49.3242 588.981 49.1758C589.367 49.0273 589.797 48.9531 590.27 48.9531C590.657 48.9531 590.981 48.9746 591.242 49.0176C591.508 49.0566 591.746 49.1074 591.957 49.1699V50.5586C591.715 50.4375 591.451 50.3438 591.166 50.2773C590.885 50.2109 590.617 50.1777 590.364 50.1777C590.098 50.1777 589.86 50.2227 589.649 50.3125C589.438 50.4023 589.26 50.5273 589.116 50.6875C588.971 50.8477 588.86 51.043 588.782 51.2734C588.707 51.5 588.67 51.75 588.67 52.0234C588.67 52.3086 588.711 52.5645 588.793 52.791C588.875 53.0176 588.991 53.2109 589.139 53.3711C589.291 53.5273 589.473 53.6484 589.684 53.7344C589.895 53.8164 590.129 53.8574 590.387 53.8574C590.512 53.8574 590.643 53.8496 590.78 53.834C590.92 53.8145 591.059 53.7891 591.196 53.7578C591.336 53.7227 591.473 53.6836 591.606 53.6406C591.742 53.5977 591.869 53.5508 591.987 53.5V54.7715ZM598.953 51.5664C598.953 51.6641 598.949 51.791 598.942 51.9473C598.938 52.1035 598.93 52.25 598.918 52.3867H595.004C595.004 52.6484 595.043 52.8789 595.121 53.0781C595.203 53.2773 595.317 53.4453 595.461 53.582C595.61 53.7148 595.785 53.8164 595.989 53.8867C596.196 53.957 596.424 53.9922 596.674 53.9922C596.963 53.9922 597.272 53.9707 597.6 53.9277C597.932 53.8809 598.276 53.8066 598.631 53.7051V54.8418C598.479 54.8848 598.313 54.9238 598.133 54.959C597.953 54.9941 597.77 55.0254 597.582 55.0527C597.395 55.0801 597.205 55.0996 597.014 55.1113C596.823 55.127 596.637 55.1348 596.457 55.1348C596.004 55.1348 595.598 55.0703 595.239 54.9414C594.879 54.8125 594.574 54.623 594.324 54.373C594.074 54.1191 593.883 53.8066 593.75 53.4355C593.617 53.0645 593.551 52.6348 593.551 52.1465C593.551 51.6621 593.617 51.2227 593.75 50.8281C593.883 50.4297 594.071 50.0898 594.313 49.8086C594.555 49.5234 594.848 49.3047 595.192 49.1523C595.539 48.9961 595.926 48.918 596.352 48.918C596.774 48.918 597.147 48.9844 597.471 49.1172C597.795 49.2461 598.067 49.4277 598.285 49.6621C598.504 49.8965 598.67 50.1758 598.783 50.5C598.897 50.8242 598.953 51.1797 598.953 51.5664ZM597.5 51.3613C597.504 51.127 597.475 50.9238 597.412 50.752C597.35 50.5762 597.264 50.4316 597.155 50.3184C597.049 50.2051 596.924 50.1211 596.78 50.0664C596.639 50.0117 596.487 49.9844 596.323 49.9844C595.963 49.9844 595.668 50.1055 595.438 50.3477C595.207 50.5859 595.071 50.9238 595.028 51.3613H597.5ZM605.721 51.918C605.721 52.4648 605.643 52.9375 605.487 53.3359C605.334 53.7344 605.119 54.0664 604.842 54.332C604.569 54.5938 604.244 54.7891 603.869 54.918C603.494 55.043 603.086 55.1055 602.645 55.1055C602.496 55.1055 602.348 55.0957 602.199 55.0762C602.051 55.0566 601.916 55.0312 601.795 55V57.3262H600.366V49.0469H601.602L601.637 49.9258C601.758 49.7734 601.883 49.6348 602.012 49.5098C602.145 49.3848 602.287 49.2793 602.44 49.1934C602.592 49.1035 602.756 49.0352 602.932 48.9883C603.108 48.9414 603.305 48.918 603.524 48.918C603.875 48.918 604.188 48.9883 604.461 49.1289C604.735 49.2695 604.963 49.4707 605.147 49.7324C605.334 49.9902 605.477 50.3047 605.574 50.6758C605.672 51.043 605.721 51.457 605.721 51.918ZM604.221 51.9766C604.221 51.6484 604.198 51.3691 604.151 51.1387C604.104 50.9082 604.035 50.7188 603.946 50.5703C603.86 50.4219 603.752 50.3145 603.623 50.248C603.498 50.1777 603.354 50.1426 603.19 50.1426C602.948 50.1426 602.715 50.2402 602.492 50.4355C602.274 50.6309 602.041 50.8965 601.795 51.2324V53.834C601.908 53.877 602.047 53.9121 602.211 53.9395C602.379 53.9668 602.549 53.9805 602.721 53.9805C602.948 53.9805 603.153 53.9336 603.336 53.8398C603.524 53.7461 603.682 53.6133 603.811 53.4414C603.944 53.2695 604.045 53.0605 604.116 52.8145C604.186 52.5645 604.221 52.2852 604.221 51.9766ZM611.873 54.9414C611.616 55 611.356 55.0469 611.094 55.082C610.832 55.1172 610.584 55.1348 610.35 55.1348C609.959 55.1348 609.621 55.0938 609.336 55.0117C609.055 54.9297 608.821 54.8047 608.633 54.6367C608.449 54.4688 608.313 54.2559 608.223 53.998C608.137 53.7363 608.094 53.4258 608.094 53.0664V50.1602H606.494V49.0469H608.094V47.5234L609.559 47.1426V49.0469H611.873V50.1602H609.559V52.9609C609.559 53.3008 609.637 53.5586 609.793 53.7344C609.949 53.9062 610.211 53.9922 610.578 53.9922C610.813 53.9922 611.041 53.9727 611.264 53.9336C611.487 53.8945 611.69 53.8496 611.873 53.7988V54.9414ZM618.746 51.5664C618.746 51.6641 618.742 51.791 618.735 51.9473C618.731 52.1035 618.723 52.25 618.711 52.3867H614.797C614.797 52.6484 614.836 52.8789 614.914 53.0781C614.996 53.2773 615.11 53.4453 615.254 53.582C615.403 53.7148 615.578 53.8164 615.782 53.8867C615.989 53.957 616.217 53.9922 616.467 53.9922C616.756 53.9922 617.065 53.9707 617.393 53.9277C617.725 53.8809 618.069 53.8066 618.424 53.7051V54.8418C618.272 54.8848 618.106 54.9238 617.926 54.959C617.746 54.9941 617.563 55.0254 617.375 55.0527C617.188 55.0801 616.998 55.0996 616.807 55.1113C616.616 55.127 616.43 55.1348 616.25 55.1348C615.797 55.1348 615.391 55.0703 615.032 54.9414C614.672 54.8125 614.367 54.623 614.117 54.373C613.867 54.1191 613.676 53.8066 613.543 53.4355C613.41 53.0645 613.344 52.6348 613.344 52.1465C613.344 51.6621 613.41 51.2227 613.543 50.8281C613.676 50.4297 613.864 50.0898 614.106 49.8086C614.348 49.5234 614.641 49.3047 614.985 49.1523C615.332 48.9961 615.719 48.918 616.145 48.918C616.567 48.918 616.94 48.9844 617.264 49.1172C617.588 49.2461 617.86 49.4277 618.078 49.6621C618.297 49.8965 618.463 50.1758 618.576 50.5C618.69 50.8242 618.746 51.1797 618.746 51.5664ZM617.293 51.3613C617.297 51.127 617.268 50.9238 617.205 50.752C617.143 50.5762 617.057 50.4316 616.948 50.3184C616.842 50.2051 616.717 50.1211 616.573 50.0664C616.432 50.0117 616.28 49.9844 616.116 49.9844C615.756 49.9844 615.461 50.1055 615.231 50.3477C615 50.5859 614.864 50.9238 614.821 51.3613H617.293ZM623.903 55L623.867 54.1211C623.742 54.2734 623.614 54.4121 623.481 54.5371C623.348 54.6621 623.205 54.7695 623.053 54.8594C622.901 54.9453 622.737 55.0117 622.561 55.0586C622.389 55.1094 622.198 55.1348 621.987 55.1348C621.635 55.1348 621.323 55.0645 621.049 54.9238C620.776 54.7832 620.545 54.584 620.358 54.3262C620.174 54.0645 620.033 53.748 619.936 53.377C619.838 53.0059 619.789 52.5918 619.789 52.1348C619.789 51.5879 619.866 51.1152 620.018 50.7168C620.174 50.3145 620.389 49.9824 620.662 49.7207C620.936 49.4551 621.26 49.2598 621.635 49.1348C622.01 49.0059 622.418 48.9414 622.86 48.9414C623.008 48.9414 623.157 48.9512 623.305 48.9707C623.457 48.9902 623.592 49.0156 623.709 49.0469V46.7207H625.139V55H623.903ZM621.289 52.0703C621.289 52.3984 621.311 52.6797 621.354 52.9141C621.401 53.1445 621.467 53.334 621.553 53.4824C621.643 53.6309 621.752 53.7402 621.881 53.8105C622.01 53.877 622.157 53.9102 622.321 53.9102C622.563 53.9102 622.793 53.8125 623.012 53.6172C623.231 53.4219 623.463 53.1543 623.709 52.8145V50.2129C623.596 50.1699 623.455 50.1348 623.287 50.1074C623.123 50.0801 622.957 50.0664 622.789 50.0664C622.559 50.0664 622.352 50.1133 622.168 50.207C621.985 50.3008 621.826 50.4336 621.694 50.6055C621.565 50.7773 621.465 50.9883 621.395 51.2383C621.324 51.4844 621.289 51.7617 621.289 52.0703ZM627.02 55V47.3418H631.631V48.5605H628.485V50.4648H631.485V51.6543H628.485V53.7812H631.631V55H627.02ZM636.682 55H635.035L632.674 49.0469H634.268L635.504 52.4219L635.873 53.5117L636.237 52.4688L637.485 49.0469H639.02L636.682 55ZM645.137 51.5664C645.137 51.6641 645.133 51.791 645.125 51.9473C645.121 52.1035 645.114 52.25 645.102 52.3867H641.188C641.188 52.6484 641.227 52.8789 641.305 53.0781C641.387 53.2773 641.5 53.4453 641.645 53.582C641.793 53.7148 641.969 53.8164 642.172 53.8867C642.379 53.957 642.608 53.9922 642.858 53.9922C643.147 53.9922 643.455 53.9707 643.783 53.9277C644.116 53.8809 644.459 53.8066 644.815 53.7051V54.8418C644.662 54.8848 644.496 54.9238 644.317 54.959C644.137 54.9941 643.953 55.0254 643.766 55.0527C643.578 55.0801 643.389 55.0996 643.198 55.1113C643.006 55.127 642.821 55.1348 642.641 55.1348C642.188 55.1348 641.782 55.0703 641.422 54.9414C641.063 54.8125 640.758 54.623 640.508 54.373C640.258 54.1191 640.067 53.8066 639.934 53.4355C639.801 53.0645 639.735 52.6348 639.735 52.1465C639.735 51.6621 639.801 51.2227 639.934 50.8281C640.067 50.4297 640.254 50.0898 640.496 49.8086C640.739 49.5234 641.032 49.3047 641.375 49.1523C641.723 48.9961 642.11 48.918 642.535 48.918C642.957 48.918 643.33 48.9844 643.655 49.1172C643.979 49.2461 644.25 49.4277 644.469 49.6621C644.688 49.8965 644.854 50.1758 644.967 50.5C645.08 50.8242 645.137 51.1797 645.137 51.5664ZM643.684 51.3613C643.688 51.127 643.658 50.9238 643.596 50.752C643.533 50.5762 643.448 50.4316 643.338 50.3184C643.233 50.2051 643.108 50.1211 642.963 50.0664C642.823 50.0117 642.67 49.9844 642.506 49.9844C642.147 49.9844 641.852 50.1055 641.621 50.3477C641.391 50.5859 641.254 50.9238 641.211 51.3613H643.684ZM650.1 55V51.1211C650.1 50.4688 649.858 50.1426 649.373 50.1426C649.131 50.1426 648.899 50.2402 648.676 50.4355C648.457 50.6309 648.225 50.8965 647.979 51.2324V55H646.549V49.0469H647.785L647.821 49.9258C647.942 49.7734 648.067 49.6348 648.196 49.5098C648.328 49.3848 648.471 49.2793 648.623 49.1934C648.776 49.1035 648.94 49.0352 649.116 48.9883C649.291 48.9414 649.489 48.918 649.707 48.918C650.012 48.918 650.278 48.9688 650.504 49.0703C650.731 49.168 650.92 49.3086 651.073 49.4922C651.225 49.6719 651.338 49.8906 651.412 50.1484C651.491 50.4023 651.53 50.6875 651.53 51.0039V55H650.1ZM658.057 54.9414C657.799 55 657.539 55.0469 657.278 55.082C657.016 55.1172 656.768 55.1348 656.533 55.1348C656.143 55.1348 655.805 55.0938 655.52 55.0117C655.239 54.9297 655.004 54.8047 654.817 54.6367C654.633 54.4688 654.496 54.2559 654.407 53.998C654.321 53.7363 654.278 53.4258 654.278 53.0664V50.1602H652.678V49.0469H654.278V47.5234L655.742 47.1426V49.0469H658.057V50.1602H655.742V52.9609C655.742 53.3008 655.821 53.5586 655.977 53.7344C656.133 53.9062 656.395 53.9922 656.762 53.9922C656.996 53.9922 657.225 53.9727 657.448 53.9336C657.67 53.8945 657.873 53.8496 658.057 53.7988V54.9414Z" fill="black"/>
</g>
<rect x="364.5" y="96.5" width="213" height="52" rx="2.5" fill="#7DE77B" stroke="black" stroke-width="3"/>
<path d="M418.553 124.139C418.553 124.834 418.471 125.434 418.307 125.938C418.147 126.441 417.924 126.855 417.639 127.18C417.358 127.504 417.026 127.744 416.643 127.9C416.264 128.057 415.858 128.135 415.424 128.135C414.416 128.135 413.658 127.801 413.151 127.133C412.643 126.461 412.389 125.486 412.389 124.209C412.389 123.514 412.469 122.914 412.629 122.41C412.793 121.906 413.016 121.492 413.297 121.168C413.582 120.844 413.914 120.604 414.293 120.447C414.676 120.291 415.084 120.213 415.518 120.213C416.526 120.213 417.283 120.547 417.791 121.215C418.299 121.883 418.553 122.857 418.553 124.139ZM417.03 124.209C417.03 123.303 416.908 122.627 416.666 122.182C416.424 121.736 416.026 121.514 415.471 121.514C415.194 121.514 414.957 121.572 414.762 121.689C414.567 121.803 414.405 121.971 414.276 122.193C414.151 122.416 414.059 122.691 414 123.02C413.942 123.344 413.912 123.717 413.912 124.139C413.912 125.045 414.033 125.721 414.276 126.166C414.522 126.611 414.92 126.834 415.471 126.834C415.748 126.834 415.985 126.777 416.18 126.664C416.379 126.547 416.541 126.377 416.666 126.154C416.791 125.932 416.883 125.658 416.942 125.334C417 125.006 417.03 124.631 417.03 124.209ZM424.928 120.934C424.756 120.879 424.551 120.834 424.313 120.799C424.078 120.76 423.838 120.74 423.592 120.74C423.424 120.74 423.268 120.764 423.123 120.811C422.979 120.854 422.854 120.924 422.748 121.021C422.643 121.119 422.559 121.244 422.496 121.396C422.438 121.545 422.408 121.727 422.408 121.941V122.902H424.746V124.016H422.408V128H420.967V124.016H419.239V122.902H420.967V122C420.967 121.578 421.028 121.217 421.149 120.916C421.274 120.611 421.448 120.363 421.67 120.172C421.897 119.977 422.168 119.834 422.485 119.744C422.801 119.654 423.155 119.609 423.545 119.609C423.803 119.609 424.047 119.627 424.278 119.662C424.512 119.693 424.729 119.732 424.928 119.779V120.934ZM431.526 120.934C431.354 120.879 431.149 120.834 430.91 120.799C430.676 120.76 430.436 120.74 430.19 120.74C430.022 120.74 429.866 120.764 429.721 120.811C429.576 120.854 429.451 120.924 429.346 121.021C429.241 121.119 429.157 121.244 429.094 121.396C429.035 121.545 429.006 121.727 429.006 121.941V122.902H431.344V124.016H429.006V128H427.565V124.016H425.836V122.902H427.565V122C427.565 121.578 427.625 121.217 427.746 120.916C427.871 120.611 428.045 120.363 428.268 120.172C428.494 119.977 428.766 119.834 429.082 119.744C429.399 119.654 429.752 119.609 430.143 119.609C430.401 119.609 430.645 119.627 430.875 119.662C431.11 119.693 431.326 119.732 431.526 119.779V120.934ZM437.965 124.566C437.965 124.664 437.961 124.791 437.953 124.947C437.949 125.104 437.942 125.25 437.93 125.387H434.016C434.016 125.648 434.055 125.879 434.133 126.078C434.215 126.277 434.328 126.445 434.473 126.582C434.621 126.715 434.797 126.816 435 126.887C435.207 126.957 435.436 126.992 435.686 126.992C435.975 126.992 436.283 126.971 436.612 126.928C436.944 126.881 437.287 126.807 437.643 126.705V127.842C437.491 127.885 437.324 127.924 437.145 127.959C436.965 127.994 436.782 128.025 436.594 128.053C436.407 128.08 436.217 128.1 436.026 128.111C435.834 128.127 435.649 128.135 435.469 128.135C435.016 128.135 434.61 128.07 434.25 127.941C433.891 127.812 433.586 127.623 433.336 127.373C433.086 127.119 432.895 126.807 432.762 126.436C432.629 126.064 432.563 125.635 432.563 125.146C432.563 124.662 432.629 124.223 432.762 123.828C432.895 123.43 433.082 123.09 433.324 122.809C433.567 122.523 433.86 122.305 434.203 122.152C434.551 121.996 434.938 121.918 435.364 121.918C435.785 121.918 436.158 121.984 436.483 122.117C436.807 122.246 437.078 122.428 437.297 122.662C437.516 122.896 437.682 123.176 437.795 123.5C437.908 123.824 437.965 124.18 437.965 124.566ZM436.512 124.361C436.516 124.127 436.487 123.924 436.424 123.752C436.362 123.576 436.276 123.432 436.166 123.318C436.061 123.205 435.936 123.121 435.791 123.066C435.651 123.012 435.498 122.984 435.334 122.984C434.975 122.984 434.68 123.105 434.449 123.348C434.219 123.586 434.082 123.924 434.039 124.361H436.512ZM443.209 124.361C443.217 124.139 443.205 123.949 443.174 123.793C443.147 123.637 443.1 123.508 443.033 123.406C442.971 123.305 442.893 123.23 442.799 123.184C442.705 123.137 442.598 123.113 442.477 123.113C442.266 123.113 442.047 123.201 441.821 123.377C441.598 123.549 441.352 123.834 441.082 124.232V128H439.617V122.047H440.912L440.965 122.914C441.063 122.762 441.172 122.625 441.293 122.504C441.418 122.383 441.555 122.279 441.703 122.193C441.856 122.104 442.024 122.035 442.207 121.988C442.391 121.941 442.592 121.918 442.811 121.918C443.112 121.918 443.377 121.971 443.608 122.076C443.842 122.178 444.037 122.33 444.194 122.533C444.354 122.736 444.471 122.992 444.545 123.301C444.623 123.605 444.657 123.959 444.645 124.361H443.209ZM450.141 128L449.719 126.488H447.047L446.614 128H445.184L447.451 120.342H449.467L451.735 128H450.141ZM448.401 121.748L447.393 125.311H449.397L448.401 121.748ZM457.389 127.771C457.108 127.885 456.817 127.969 456.516 128.023C456.215 128.078 455.901 128.105 455.573 128.105C455.1 128.105 454.676 128.041 454.301 127.912C453.926 127.783 453.608 127.592 453.346 127.338C453.084 127.084 452.883 126.77 452.742 126.395C452.606 126.02 452.537 125.586 452.537 125.094C452.537 124.617 452.612 124.186 452.76 123.799C452.912 123.412 453.125 123.082 453.399 122.809C453.672 122.535 454 122.324 454.383 122.176C454.77 122.027 455.199 121.953 455.672 121.953C456.059 121.953 456.383 121.975 456.645 122.018C456.91 122.057 457.149 122.107 457.36 122.17V123.559C457.117 123.438 456.854 123.344 456.569 123.277C456.287 123.211 456.02 123.178 455.766 123.178C455.5 123.178 455.262 123.223 455.051 123.312C454.84 123.402 454.662 123.527 454.518 123.688C454.373 123.848 454.262 124.043 454.184 124.273C454.11 124.5 454.073 124.75 454.073 125.023C454.073 125.309 454.114 125.564 454.196 125.791C454.278 126.018 454.393 126.211 454.541 126.371C454.694 126.527 454.875 126.648 455.086 126.734C455.297 126.816 455.532 126.857 455.789 126.857C455.914 126.857 456.045 126.85 456.182 126.834C456.323 126.814 456.461 126.789 456.598 126.758C456.739 126.723 456.875 126.684 457.008 126.641C457.145 126.598 457.272 126.551 457.389 126.5V127.771ZM463.987 127.771C463.705 127.885 463.414 127.969 463.114 128.023C462.813 128.078 462.498 128.105 462.17 128.105C461.698 128.105 461.274 128.041 460.899 127.912C460.524 127.783 460.205 127.592 459.944 127.338C459.682 127.084 459.481 126.77 459.34 126.395C459.203 126.02 459.135 125.586 459.135 125.094C459.135 124.617 459.209 124.186 459.358 123.799C459.51 123.412 459.723 123.082 459.996 122.809C460.27 122.535 460.598 122.324 460.981 122.176C461.367 122.027 461.797 121.953 462.27 121.953C462.657 121.953 462.981 121.975 463.242 122.018C463.508 122.057 463.746 122.107 463.957 122.17V123.559C463.715 123.438 463.451 123.344 463.166 123.277C462.885 123.211 462.617 123.178 462.364 123.178C462.098 123.178 461.86 123.223 461.649 123.312C461.438 123.402 461.26 123.527 461.116 123.688C460.971 123.848 460.86 124.043 460.782 124.273C460.707 124.5 460.67 124.75 460.67 125.023C460.67 125.309 460.711 125.564 460.793 125.791C460.875 126.018 460.991 126.211 461.139 126.371C461.291 126.527 461.473 126.648 461.684 126.734C461.895 126.816 462.129 126.857 462.387 126.857C462.512 126.857 462.643 126.85 462.78 126.834C462.92 126.814 463.059 126.789 463.196 126.758C463.336 126.723 463.473 126.684 463.606 126.641C463.742 126.598 463.869 126.551 463.987 126.5V127.771ZM470.953 124.566C470.953 124.664 470.949 124.791 470.942 124.947C470.938 125.104 470.93 125.25 470.918 125.387H467.004C467.004 125.648 467.043 125.879 467.121 126.078C467.203 126.277 467.317 126.445 467.461 126.582C467.61 126.715 467.785 126.816 467.989 126.887C468.196 126.957 468.424 126.992 468.674 126.992C468.963 126.992 469.272 126.971 469.6 126.928C469.932 126.881 470.276 126.807 470.631 126.705V127.842C470.479 127.885 470.313 127.924 470.133 127.959C469.953 127.994 469.77 128.025 469.582 128.053C469.395 128.08 469.205 128.1 469.014 128.111C468.823 128.127 468.637 128.135 468.457 128.135C468.004 128.135 467.598 128.07 467.239 127.941C466.879 127.812 466.574 127.623 466.324 127.373C466.074 127.119 465.883 126.807 465.75 126.436C465.617 126.064 465.551 125.635 465.551 125.146C465.551 124.662 465.617 124.223 465.75 123.828C465.883 123.43 466.071 123.09 466.313 122.809C466.555 122.523 466.848 122.305 467.192 122.152C467.539 121.996 467.926 121.918 468.352 121.918C468.774 121.918 469.147 121.984 469.471 122.117C469.795 122.246 470.067 122.428 470.285 122.662C470.504 122.896 470.67 123.176 470.783 123.5C470.897 123.824 470.953 124.18 470.953 124.566ZM469.5 124.361C469.504 124.127 469.475 123.924 469.412 123.752C469.35 123.576 469.264 123.432 469.155 123.318C469.049 123.205 468.924 123.121 468.78 123.066C468.639 123.012 468.487 122.984 468.323 122.984C467.963 122.984 467.668 123.105 467.438 123.348C467.207 123.586 467.071 123.924 467.028 124.361H469.5ZM477.721 124.918C477.721 125.465 477.643 125.938 477.487 126.336C477.334 126.734 477.119 127.066 476.842 127.332C476.569 127.594 476.244 127.789 475.869 127.918C475.494 128.043 475.086 128.105 474.645 128.105C474.496 128.105 474.348 128.096 474.199 128.076C474.051 128.057 473.916 128.031 473.795 128V130.326H472.366V122.047H473.602L473.637 122.926C473.758 122.773 473.883 122.635 474.012 122.51C474.145 122.385 474.287 122.279 474.44 122.193C474.592 122.104 474.756 122.035 474.932 121.988C475.108 121.941 475.305 121.918 475.524 121.918C475.875 121.918 476.188 121.988 476.461 122.129C476.735 122.27 476.963 122.471 477.147 122.732C477.334 122.99 477.477 123.305 477.574 123.676C477.672 124.043 477.721 124.457 477.721 124.918ZM476.221 124.977C476.221 124.648 476.198 124.369 476.151 124.139C476.104 123.908 476.035 123.719 475.946 123.57C475.86 123.422 475.752 123.314 475.623 123.248C475.498 123.178 475.354 123.143 475.19 123.143C474.948 123.143 474.715 123.24 474.492 123.436C474.274 123.631 474.041 123.896 473.795 124.232V126.834C473.908 126.877 474.047 126.912 474.211 126.939C474.379 126.967 474.549 126.98 474.721 126.98C474.948 126.98 475.153 126.934 475.336 126.84C475.524 126.746 475.682 126.613 475.811 126.441C475.944 126.27 476.045 126.061 476.116 125.814C476.186 125.564 476.221 125.285 476.221 124.977ZM483.873 127.941C483.616 128 483.356 128.047 483.094 128.082C482.832 128.117 482.584 128.135 482.35 128.135C481.959 128.135 481.621 128.094 481.336 128.012C481.055 127.93 480.821 127.805 480.633 127.637C480.449 127.469 480.313 127.256 480.223 126.998C480.137 126.736 480.094 126.426 480.094 126.066V123.16H478.494V122.047H480.094V120.523L481.559 120.143V122.047H483.873V123.16H481.559V125.961C481.559 126.301 481.637 126.559 481.793 126.734C481.949 126.906 482.211 126.992 482.578 126.992C482.813 126.992 483.041 126.973 483.264 126.934C483.487 126.895 483.69 126.85 483.873 126.799V127.941ZM490.746 124.566C490.746 124.664 490.742 124.791 490.735 124.947C490.731 125.104 490.723 125.25 490.711 125.387H486.797C486.797 125.648 486.836 125.879 486.914 126.078C486.996 126.277 487.11 126.445 487.254 126.582C487.403 126.715 487.578 126.816 487.782 126.887C487.989 126.957 488.217 126.992 488.467 126.992C488.756 126.992 489.065 126.971 489.393 126.928C489.725 126.881 490.069 126.807 490.424 126.705V127.842C490.272 127.885 490.106 127.924 489.926 127.959C489.746 127.994 489.563 128.025 489.375 128.053C489.188 128.08 488.998 128.1 488.807 128.111C488.616 128.127 488.43 128.135 488.25 128.135C487.797 128.135 487.391 128.07 487.032 127.941C486.672 127.812 486.367 127.623 486.117 127.373C485.867 127.119 485.676 126.807 485.543 126.436C485.41 126.064 485.344 125.635 485.344 125.146C485.344 124.662 485.41 124.223 485.543 123.828C485.676 123.43 485.864 123.09 486.106 122.809C486.348 122.523 486.641 122.305 486.985 122.152C487.332 121.996 487.719 121.918 488.145 121.918C488.567 121.918 488.94 121.984 489.264 122.117C489.588 122.246 489.86 122.428 490.078 122.662C490.297 122.896 490.463 123.176 490.576 123.5C490.69 123.824 490.746 124.18 490.746 124.566ZM489.293 124.361C489.297 124.127 489.268 123.924 489.205 123.752C489.143 123.576 489.057 123.432 488.948 123.318C488.842 123.205 488.717 123.121 488.573 123.066C488.432 123.012 488.28 122.984 488.116 122.984C487.756 122.984 487.461 123.105 487.231 123.348C487 123.586 486.864 123.924 486.821 124.361H489.293ZM495.903 128L495.867 127.121C495.742 127.273 495.614 127.412 495.481 127.537C495.348 127.662 495.205 127.77 495.053 127.859C494.901 127.945 494.737 128.012 494.561 128.059C494.389 128.109 494.198 128.135 493.987 128.135C493.635 128.135 493.323 128.064 493.049 127.924C492.776 127.783 492.545 127.584 492.358 127.326C492.174 127.064 492.033 126.748 491.936 126.377C491.838 126.006 491.789 125.592 491.789 125.135C491.789 124.588 491.866 124.115 492.018 123.717C492.174 123.314 492.389 122.982 492.662 122.721C492.936 122.455 493.26 122.26 493.635 122.135C494.01 122.006 494.418 121.941 494.86 121.941C495.008 121.941 495.157 121.951 495.305 121.971C495.457 121.99 495.592 122.016 495.709 122.047V119.721H497.139V128H495.903ZM493.289 125.07C493.289 125.398 493.311 125.68 493.354 125.914C493.401 126.145 493.467 126.334 493.553 126.482C493.643 126.631 493.752 126.74 493.881 126.811C494.01 126.877 494.157 126.91 494.321 126.91C494.563 126.91 494.793 126.812 495.012 126.617C495.231 126.422 495.463 126.154 495.709 125.814V123.213C495.596 123.17 495.455 123.135 495.287 123.107C495.123 123.08 494.957 123.066 494.789 123.066C494.559 123.066 494.352 123.113 494.168 123.207C493.985 123.301 493.826 123.434 493.694 123.605C493.565 123.777 493.465 123.988 493.395 124.238C493.324 124.484 493.289 124.762 493.289 125.07ZM499.02 128V120.342H503.631V121.561H500.485V123.465H503.485V124.654H500.485V126.781H503.631V128H499.02ZM508.682 128H507.035L504.674 122.047H506.268L507.504 125.422L507.873 126.512L508.237 125.469L509.485 122.047H511.02L508.682 128ZM517.137 124.566C517.137 124.664 517.133 124.791 517.125 124.947C517.121 125.104 517.114 125.25 517.102 125.387H513.188C513.188 125.648 513.227 125.879 513.305 126.078C513.387 126.277 513.5 126.445 513.645 126.582C513.793 126.715 513.969 126.816 514.172 126.887C514.379 126.957 514.608 126.992 514.858 126.992C515.147 126.992 515.455 126.971 515.783 126.928C516.116 126.881 516.459 126.807 516.815 126.705V127.842C516.662 127.885 516.496 127.924 516.317 127.959C516.137 127.994 515.953 128.025 515.766 128.053C515.578 128.08 515.389 128.1 515.198 128.111C515.006 128.127 514.821 128.135 514.641 128.135C514.188 128.135 513.782 128.07 513.422 127.941C513.063 127.812 512.758 127.623 512.508 127.373C512.258 127.119 512.067 126.807 511.934 126.436C511.801 126.064 511.735 125.635 511.735 125.146C511.735 124.662 511.801 124.223 511.934 123.828C512.067 123.43 512.254 123.09 512.496 122.809C512.739 122.523 513.032 122.305 513.375 122.152C513.723 121.996 514.11 121.918 514.535 121.918C514.957 121.918 515.33 121.984 515.655 122.117C515.979 122.246 516.25 122.428 516.469 122.662C516.688 122.896 516.854 123.176 516.967 123.5C517.08 123.824 517.137 124.18 517.137 124.566ZM515.684 124.361C515.688 124.127 515.658 123.924 515.596 123.752C515.533 123.576 515.448 123.432 515.338 123.318C515.233 123.205 515.108 123.121 514.963 123.066C514.823 123.012 514.67 122.984 514.506 122.984C514.147 122.984 513.852 123.105 513.621 123.348C513.391 123.586 513.254 123.924 513.211 124.361H515.684ZM522.1 128V124.121C522.1 123.469 521.858 123.143 521.373 123.143C521.131 123.143 520.899 123.24 520.676 123.436C520.457 123.631 520.225 123.896 519.979 124.232V128H518.549V122.047H519.785L519.821 122.926C519.942 122.773 520.067 122.635 520.196 122.51C520.328 122.385 520.471 122.279 520.623 122.193C520.776 122.104 520.94 122.035 521.116 121.988C521.291 121.941 521.489 121.918 521.707 121.918C522.012 121.918 522.278 121.969 522.504 122.07C522.731 122.168 522.92 122.309 523.073 122.492C523.225 122.672 523.338 122.891 523.412 123.148C523.491 123.402 523.53 123.688 523.53 124.004V128H522.1ZM530.057 127.941C529.799 128 529.539 128.047 529.278 128.082C529.016 128.117 528.768 128.135 528.533 128.135C528.143 128.135 527.805 128.094 527.52 128.012C527.239 127.93 527.004 127.805 526.817 127.637C526.633 127.469 526.496 127.256 526.407 126.998C526.321 126.736 526.278 126.426 526.278 126.066V123.16H524.678V122.047H526.278V120.523L527.742 120.143V122.047H530.057V123.16H527.742V125.961C527.742 126.301 527.821 126.559 527.977 126.734C528.133 126.906 528.395 126.992 528.762 126.992C528.996 126.992 529.225 126.973 529.448 126.934C529.67 126.895 529.873 126.85 530.057 126.799V127.941Z" fill="black"/>
</svg>
