<svg width="392" height="244" viewBox="0 0 392 244" fill="none" xmlns="http://www.w3.org/2000/svg">
<path d="M75.0607 0.93934C74.4749 0.353553 73.5251 0.353553 72.9393 0.93934L63.3934 10.4853C62.8076 11.0711 62.8076 12.0208 63.3934 12.6066C63.9792 13.1924 64.9289 13.1924 65.5147 12.6066L74 4.12132L82.4853 12.6066C83.0711 13.1924 84.0208 13.1924 84.6066 12.6066C85.1924 12.0208 85.1924 11.0711 84.6066 10.4853L75.0607 0.93934ZM75.5 204L75.5 2L72.5 2L72.5 204L75.5 204Z" fill="black"/>
<path d="M357.061 205.061C357.646 204.475 357.646 203.525 357.061 202.939L347.515 193.393C346.929 192.808 345.979 192.808 345.393 193.393C344.808 193.979 344.808 194.929 345.393 195.515L353.879 204L345.393 212.485C344.808 213.071 344.808 214.021 345.393 214.607C345.979 215.192 346.929 215.192 347.515 214.607L357.061 205.061ZM74 205.5H356V202.5H74V205.5Z" fill="black"/>
<path d="M285.026 227.853V237H282.934V227.853H279.962V226.151H287.998V227.853H285.026ZM294.771 226.259C294.771 226.441 294.738 226.613 294.671 226.773C294.605 226.934 294.511 227.075 294.389 227.197C294.273 227.313 294.135 227.407 293.974 227.479C293.814 227.545 293.639 227.579 293.451 227.579C293.263 227.579 293.086 227.545 292.92 227.479C292.759 227.407 292.618 227.313 292.497 227.197C292.38 227.075 292.289 226.934 292.223 226.773C292.156 226.613 292.123 226.441 292.123 226.259C292.123 226.076 292.156 225.905 292.223 225.744C292.289 225.584 292.38 225.443 292.497 225.321C292.618 225.199 292.759 225.105 292.92 225.039C293.086 224.967 293.263 224.931 293.451 224.931C293.639 224.931 293.814 224.967 293.974 225.039C294.135 225.105 294.273 225.199 294.389 225.321C294.511 225.443 294.605 225.584 294.671 225.744C294.738 225.905 294.771 226.076 294.771 226.259ZM292.53 230.144H290.147V228.566H294.605V235.423H297.037V237H289.857V235.423H292.53V230.144ZM305.105 237V231.256C305.105 231.046 305.1 230.863 305.089 230.708C305.078 230.548 305.056 230.415 305.022 230.31C304.989 230.204 304.939 230.127 304.873 230.077C304.812 230.022 304.726 229.994 304.616 229.994C304.444 229.994 304.275 230.11 304.109 230.343C303.943 230.575 303.755 230.971 303.545 231.53V237H301.81V231.256C301.81 231.046 301.805 230.863 301.793 230.708C301.782 230.548 301.76 230.415 301.727 230.31C301.694 230.204 301.644 230.127 301.578 230.077C301.511 230.022 301.423 229.994 301.312 229.994C301.168 229.994 301.008 230.11 300.831 230.343C300.653 230.575 300.457 230.971 300.241 231.53V237H298.49V228.566H299.992L300.025 229.795C300.147 229.546 300.269 229.333 300.391 229.156C300.512 228.979 300.642 228.835 300.781 228.724C300.919 228.608 301.066 228.525 301.221 228.475C301.381 228.425 301.561 228.4 301.76 228.4C302.231 228.4 302.588 228.525 302.831 228.774C303.08 229.017 303.221 229.358 303.254 229.795C303.387 229.546 303.517 229.333 303.645 229.156C303.777 228.979 303.913 228.835 304.051 228.724C304.195 228.608 304.347 228.525 304.508 228.475C304.674 228.425 304.856 228.4 305.056 228.4C305.67 228.4 306.124 228.616 306.417 229.048C306.71 229.474 306.857 230.108 306.857 230.949V237H305.105ZM315.847 232.136C315.847 232.274 315.841 232.454 315.83 232.675C315.825 232.897 315.813 233.104 315.797 233.298H310.252C310.252 233.669 310.307 233.995 310.418 234.277C310.534 234.56 310.695 234.798 310.899 234.991C311.11 235.179 311.359 235.323 311.646 235.423C311.94 235.522 312.264 235.572 312.618 235.572C313.027 235.572 313.464 235.542 313.929 235.481C314.4 235.415 314.887 235.309 315.39 235.166V236.776C315.174 236.837 314.939 236.892 314.685 236.942C314.43 236.992 314.17 237.036 313.904 237.075C313.639 237.113 313.37 237.141 313.099 237.158C312.828 237.18 312.565 237.191 312.311 237.191C311.669 237.191 311.093 237.1 310.584 236.917C310.075 236.734 309.643 236.466 309.289 236.112C308.935 235.752 308.664 235.309 308.476 234.784C308.287 234.258 308.193 233.649 308.193 232.958C308.193 232.271 308.287 231.649 308.476 231.09C308.664 230.525 308.929 230.044 309.272 229.646C309.616 229.242 310.031 228.932 310.518 228.716C311.01 228.494 311.558 228.384 312.161 228.384C312.759 228.384 313.287 228.478 313.747 228.666C314.206 228.849 314.59 229.106 314.9 229.438C315.21 229.77 315.445 230.166 315.606 230.625C315.766 231.084 315.847 231.588 315.847 232.136ZM313.788 231.845C313.794 231.513 313.752 231.225 313.664 230.982C313.575 230.733 313.453 230.528 313.298 230.368C313.149 230.207 312.972 230.088 312.767 230.011C312.568 229.933 312.352 229.895 312.12 229.895C311.611 229.895 311.193 230.066 310.866 230.409C310.54 230.747 310.346 231.225 310.285 231.845H313.788Z" fill="black"/>
<path d="M304.808 106L303.28 102.514C303.136 102.182 302.934 101.933 302.674 101.767C302.42 101.595 302.118 101.509 301.77 101.509H301.379V106H299.337V95.1509H302.5C303.098 95.1509 303.64 95.2035 304.127 95.3086C304.614 95.4082 305.029 95.577 305.372 95.8149C305.715 96.0529 305.978 96.3628 306.161 96.7446C306.349 97.1265 306.443 97.5941 306.443 98.1475C306.443 98.5459 306.385 98.9001 306.269 99.21C306.152 99.5199 305.989 99.7882 305.779 100.015C305.569 100.236 305.317 100.416 305.023 100.555C304.736 100.693 304.42 100.79 304.077 100.845C304.343 100.901 304.586 101.053 304.808 101.302C305.029 101.545 305.25 101.899 305.472 102.364L307.207 106H304.808ZM304.301 98.3467C304.301 97.8154 304.132 97.4336 303.795 97.2012C303.457 96.9688 302.951 96.8525 302.276 96.8525H301.379V99.9155H302.209C302.525 99.9155 302.81 99.8823 303.064 99.8159C303.325 99.7495 303.546 99.6499 303.729 99.5171C303.911 99.3843 304.052 99.221 304.152 99.0273C304.251 98.8281 304.301 98.6012 304.301 98.3467ZM313.731 95.2588C313.731 95.4414 313.698 95.613 313.631 95.7734C313.565 95.9339 313.471 96.075 313.349 96.1968C313.233 96.313 313.095 96.4071 312.934 96.479C312.774 96.5454 312.599 96.5786 312.411 96.5786C312.223 96.5786 312.046 96.5454 311.88 96.479C311.719 96.4071 311.578 96.313 311.457 96.1968C311.34 96.075 311.249 95.9339 311.183 95.7734C311.116 95.613 311.083 95.4414 311.083 95.2588C311.083 95.0762 311.116 94.9046 311.183 94.7441C311.249 94.5837 311.34 94.4425 311.457 94.3208C311.578 94.1991 311.719 94.105 311.88 94.0386C312.046 93.9666 312.223 93.9307 312.411 93.9307C312.599 93.9307 312.774 93.9666 312.934 94.0386C313.095 94.105 313.233 94.1991 313.349 94.3208C313.471 94.4425 313.565 94.5837 313.631 94.7441C313.698 94.9046 313.731 95.0762 313.731 95.2588ZM311.49 99.1436H309.107V97.5664H313.565V104.423H315.997V106H308.817V104.423H311.49V99.1436ZM324.937 105.676C324.539 105.837 324.126 105.956 323.7 106.033C323.274 106.111 322.829 106.149 322.364 106.149C321.694 106.149 321.094 106.058 320.562 105.875C320.031 105.693 319.58 105.422 319.209 105.062C318.839 104.702 318.554 104.257 318.354 103.726C318.161 103.194 318.064 102.58 318.064 101.883C318.064 101.208 318.169 100.596 318.379 100.048C318.595 99.5005 318.897 99.0329 319.284 98.6455C319.672 98.2581 320.136 97.9593 320.679 97.749C321.227 97.5387 321.835 97.4336 322.505 97.4336C323.053 97.4336 323.512 97.464 323.883 97.5249C324.259 97.5802 324.597 97.6522 324.896 97.7407V99.708C324.552 99.5365 324.179 99.4036 323.775 99.3096C323.376 99.2155 322.997 99.1685 322.638 99.1685C322.261 99.1685 321.924 99.2321 321.625 99.3594C321.326 99.4867 321.074 99.6637 320.87 99.8906C320.665 100.118 320.507 100.394 320.396 100.721C320.291 101.042 320.239 101.396 320.239 101.783C320.239 102.187 320.297 102.55 320.413 102.871C320.529 103.192 320.693 103.465 320.903 103.692C321.119 103.914 321.376 104.085 321.675 104.207C321.974 104.323 322.306 104.381 322.671 104.381C322.848 104.381 323.033 104.37 323.227 104.348C323.426 104.32 323.623 104.285 323.816 104.24C324.016 104.19 324.209 104.135 324.397 104.074C324.591 104.013 324.771 103.947 324.937 103.875V105.676ZM332.491 106V100.505C332.491 99.5807 332.148 99.1187 331.461 99.1187C331.118 99.1187 330.789 99.257 330.474 99.5337C330.164 99.8104 329.834 100.187 329.486 100.663V106H327.46V94.271H329.486V97.1597L329.386 98.687C329.558 98.4823 329.732 98.2996 329.909 98.1392C330.086 97.9731 330.277 97.8348 330.482 97.7241C330.687 97.6134 330.908 97.5304 331.146 97.4751C331.384 97.4142 331.647 97.3838 331.935 97.3838C332.366 97.3838 332.743 97.4557 333.063 97.5996C333.384 97.738 333.653 97.9372 333.869 98.1973C334.084 98.4518 334.245 98.7617 334.35 99.127C334.461 99.4867 334.516 99.8906 334.516 100.339V106H332.491ZM352.105 106V100.256C352.105 100.046 352.1 99.863 352.089 99.708C352.078 99.5475 352.056 99.4147 352.022 99.3096C351.989 99.2044 351.939 99.127 351.873 99.0771C351.812 99.0218 351.726 98.9941 351.616 98.9941C351.444 98.9941 351.275 99.1104 351.109 99.3428C350.943 99.5752 350.755 99.9709 350.545 100.53V106H348.81V100.256C348.81 100.046 348.805 99.863 348.793 99.708C348.782 99.5475 348.76 99.4147 348.727 99.3096C348.694 99.2044 348.644 99.127 348.578 99.0771C348.511 99.0218 348.423 98.9941 348.312 98.9941C348.168 98.9941 348.008 99.1104 347.831 99.3428C347.653 99.5752 347.457 99.9709 347.241 100.53V106H345.49V97.5664H346.992L347.025 98.7949C347.147 98.5459 347.269 98.3328 347.391 98.1558C347.512 97.9787 347.642 97.8348 347.781 97.7241C347.919 97.6079 348.066 97.5249 348.221 97.4751C348.381 97.4253 348.561 97.4004 348.76 97.4004C349.231 97.4004 349.588 97.5249 349.831 97.7739C350.08 98.0174 350.221 98.3577 350.254 98.7949C350.387 98.5459 350.517 98.3328 350.645 98.1558C350.777 97.9787 350.913 97.8348 351.051 97.7241C351.195 97.6079 351.347 97.5249 351.508 97.4751C351.674 97.4253 351.856 97.4004 352.056 97.4004C352.67 97.4004 353.124 97.6162 353.417 98.0479C353.71 98.474 353.857 99.1076 353.857 99.9487V106H352.105ZM363.096 101.717C363.096 102.381 363.002 102.99 362.813 103.543C362.625 104.091 362.354 104.561 362 104.954C361.646 105.347 361.211 105.651 360.697 105.867C360.182 106.083 359.596 106.191 358.937 106.191C358.312 106.191 357.753 106.1 357.26 105.917C356.768 105.734 356.35 105.463 356.007 105.104C355.664 104.738 355.401 104.285 355.218 103.742C355.036 103.194 354.944 102.558 354.944 101.833C354.944 101.163 355.038 100.555 355.227 100.007C355.42 99.459 355.694 98.9914 356.048 98.604C356.408 98.2166 356.845 97.9178 357.36 97.7075C357.875 97.4917 358.456 97.3838 359.103 97.3838C359.734 97.3838 360.296 97.4779 360.788 97.666C361.281 97.8486 361.698 98.1226 362.042 98.4878C362.385 98.853 362.645 99.3068 362.822 99.8491C363.004 100.386 363.096 101.008 363.096 101.717ZM360.987 101.767C360.987 100.892 360.821 100.236 360.489 99.7993C360.163 99.3566 359.679 99.1353 359.037 99.1353C358.682 99.1353 358.381 99.2044 358.132 99.3428C357.883 99.4811 357.678 99.672 357.518 99.9155C357.357 100.153 357.238 100.433 357.161 100.754C357.089 101.075 357.053 101.418 357.053 101.783C357.053 102.663 357.23 103.327 357.584 103.775C357.938 104.218 358.422 104.439 359.037 104.439C359.374 104.439 359.667 104.373 359.917 104.24C360.166 104.102 360.368 103.914 360.522 103.676C360.677 103.432 360.794 103.147 360.871 102.821C360.949 102.494 360.987 102.143 360.987 101.767ZM370.151 106L370.102 104.755C369.924 104.971 369.742 105.167 369.554 105.344C369.366 105.521 369.164 105.674 368.948 105.801C368.732 105.923 368.5 106.017 368.25 106.083C368.007 106.155 367.736 106.191 367.437 106.191C366.939 106.191 366.496 106.091 366.109 105.892C365.722 105.693 365.395 105.411 365.129 105.045C364.869 104.675 364.67 104.226 364.532 103.701C364.393 103.175 364.324 102.588 364.324 101.941C364.324 101.166 364.432 100.497 364.648 99.9321C364.869 99.3621 365.174 98.8918 365.561 98.521C365.948 98.1447 366.408 97.868 366.939 97.6909C367.47 97.5083 368.049 97.417 368.674 97.417C368.884 97.417 369.094 97.4308 369.305 97.4585C369.521 97.4862 369.711 97.5221 369.877 97.5664V94.271H371.903V106H370.151ZM366.449 101.85C366.449 102.314 366.48 102.713 366.541 103.045C366.607 103.371 366.701 103.64 366.823 103.85C366.95 104.06 367.105 104.215 367.288 104.315C367.47 104.409 367.678 104.456 367.91 104.456C368.253 104.456 368.58 104.318 368.89 104.041C369.2 103.764 369.529 103.385 369.877 102.904V99.2183C369.717 99.1574 369.518 99.1076 369.28 99.0688C369.047 99.0301 368.812 99.0107 368.574 99.0107C368.248 99.0107 367.954 99.0771 367.694 99.21C367.434 99.3428 367.21 99.5309 367.022 99.7744C366.839 100.018 366.698 100.317 366.599 100.671C366.499 101.02 366.449 101.412 366.449 101.85ZM381.54 101.136C381.54 101.274 381.535 101.454 381.523 101.675C381.518 101.897 381.507 102.104 381.49 102.298H375.945C375.945 102.669 376.001 102.995 376.111 103.277C376.228 103.56 376.388 103.798 376.593 103.991C376.803 104.179 377.052 104.323 377.34 104.423C377.633 104.522 377.957 104.572 378.311 104.572C378.721 104.572 379.158 104.542 379.623 104.481C380.093 104.415 380.58 104.309 381.083 104.166V105.776C380.868 105.837 380.632 105.892 380.378 105.942C380.123 105.992 379.863 106.036 379.598 106.075C379.332 106.113 379.064 106.141 378.792 106.158C378.521 106.18 378.258 106.191 378.004 106.191C377.362 106.191 376.786 106.1 376.277 105.917C375.768 105.734 375.337 105.466 374.982 105.112C374.628 104.752 374.357 104.309 374.169 103.784C373.981 103.258 373.887 102.649 373.887 101.958C373.887 101.271 373.981 100.649 374.169 100.09C374.357 99.5254 374.623 99.0439 374.966 98.6455C375.309 98.2415 375.724 97.9316 376.211 97.7158C376.703 97.4945 377.251 97.3838 377.854 97.3838C378.452 97.3838 378.981 97.4779 379.44 97.666C379.899 97.8486 380.284 98.106 380.594 98.438C380.904 98.77 381.139 99.1657 381.299 99.625C381.46 100.084 381.54 100.588 381.54 101.136ZM379.481 100.845C379.487 100.513 379.445 100.225 379.357 99.9819C379.268 99.7329 379.147 99.5282 378.992 99.3677C378.842 99.2072 378.665 99.0882 378.46 99.0107C378.261 98.9333 378.045 98.8945 377.813 98.8945C377.304 98.8945 376.886 99.0661 376.56 99.4092C376.233 99.7467 376.039 100.225 375.979 100.845H379.481ZM386.263 95.8481H383.881V94.271H388.338V104.423H390.771V106H383.59V104.423H386.263V95.8481Z" fill="black"/>
<path d="M1.0708 83V72.1509H4.57373C5.80778 72.1509 6.73193 72.3667 7.34619 72.7983C7.96598 73.23 8.27588 73.883 8.27588 74.7573C8.27588 75.0285 8.24268 75.2941 8.17627 75.5542C8.1154 75.8088 8.01855 76.0439 7.88574 76.2598C7.75293 76.4756 7.58691 76.6665 7.3877 76.8325C7.18848 76.9985 6.95329 77.1286 6.68213 77.2227C6.95329 77.2669 7.21061 77.3555 7.4541 77.4883C7.70312 77.6156 7.91895 77.7843 8.10156 77.9946C8.28971 78.1994 8.43636 78.4429 8.5415 78.7251C8.65218 79.0073 8.70752 79.3228 8.70752 79.6714C8.70752 80.7782 8.33675 81.611 7.59521 82.1699C6.85368 82.7233 5.78288 83 4.38281 83H1.0708ZM6.15088 75.1143C6.15088 74.9095 6.11768 74.7241 6.05127 74.5581C5.98486 74.3921 5.87695 74.251 5.72754 74.1348C5.58366 74.0186 5.39551 73.93 5.16309 73.8691C4.9362 73.8027 4.65951 73.7695 4.33301 73.7695H3.09619V76.6416H4.33301C4.66504 76.6416 4.9445 76.6029 5.17139 76.5254C5.40381 76.4424 5.59196 76.3317 5.73584 76.1934C5.88525 76.0495 5.9904 75.8862 6.05127 75.7036C6.11768 75.521 6.15088 75.3245 6.15088 75.1143ZM4.52393 81.3315C4.85042 81.3315 5.13542 81.29 5.37891 81.207C5.62793 81.124 5.83545 81.0106 6.00146 80.8667C6.16748 80.7173 6.29199 80.543 6.375 80.3438C6.46354 80.1445 6.50781 79.9315 6.50781 79.7046C6.50781 79.2342 6.33073 78.8662 5.97656 78.6006C5.62793 78.335 5.09115 78.2021 4.36621 78.2021H3.09619V81.3315H4.52393ZM13.2231 72.8481H10.8408V71.271H15.2983V81.4229H17.7305V83H10.5503V81.4229H13.2231V72.8481ZM27.4424 78.7168C27.4424 79.3809 27.3483 79.9896 27.1602 80.543C26.972 81.0908 26.7008 81.5612 26.3467 81.9541C25.9925 82.347 25.5581 82.6514 25.0435 82.8672C24.5288 83.083 23.9422 83.1909 23.2837 83.1909C22.6584 83.1909 22.0994 83.0996 21.6069 82.917C21.1144 82.7344 20.6966 82.4632 20.3535 82.1035C20.0104 81.7383 19.7476 81.2845 19.5649 80.7422C19.3823 80.1943 19.291 79.5579 19.291 78.833C19.291 78.1634 19.3851 77.5547 19.5732 77.0068C19.7669 76.459 20.0409 75.9914 20.395 75.604C20.7547 75.2166 21.1919 74.9178 21.7065 74.7075C22.2212 74.4917 22.8022 74.3838 23.4497 74.3838C24.0806 74.3838 24.6423 74.4779 25.1348 74.666C25.6273 74.8486 26.0451 75.1226 26.3882 75.4878C26.7313 75.853 26.9914 76.3068 27.1685 76.8491C27.3511 77.3859 27.4424 78.0085 27.4424 78.7168ZM25.334 78.7666C25.334 77.8923 25.168 77.2365 24.8359 76.7993C24.5094 76.3566 24.0252 76.1353 23.3833 76.1353C23.0291 76.1353 22.7275 76.2044 22.4785 76.3428C22.2295 76.4811 22.0247 76.672 21.8643 76.9155C21.7038 77.1535 21.5848 77.4329 21.5073 77.7539C21.4354 78.0749 21.3994 78.418 21.3994 78.7832C21.3994 79.6631 21.5765 80.3271 21.9307 80.7754C22.2848 81.2181 22.769 81.4395 23.3833 81.4395C23.7209 81.4395 24.0142 81.373 24.2632 81.2402C24.5122 81.1019 24.7142 80.9137 24.8691 80.6758C25.0241 80.4323 25.1403 80.1473 25.2178 79.8208C25.2952 79.4943 25.334 79.1429 25.334 78.7666ZM36.7891 78.7168C36.7891 79.3809 36.695 79.9896 36.5068 80.543C36.3187 81.0908 36.0475 81.5612 35.6934 81.9541C35.3392 82.347 34.9048 82.6514 34.3901 82.8672C33.8755 83.083 33.2889 83.1909 32.6304 83.1909C32.005 83.1909 31.4461 83.0996 30.9536 82.917C30.4611 82.7344 30.0433 82.4632 29.7002 82.1035C29.3571 81.7383 29.0942 81.2845 28.9116 80.7422C28.729 80.1943 28.6377 79.5579 28.6377 78.833C28.6377 78.1634 28.7318 77.5547 28.9199 77.0068C29.1136 76.459 29.3875 75.9914 29.7417 75.604C30.1014 75.2166 30.5386 74.9178 31.0532 74.7075C31.5679 74.4917 32.1489 74.3838 32.7964 74.3838C33.4272 74.3838 33.9889 74.4779 34.4814 74.666C34.974 74.8486 35.3918 75.1226 35.7349 75.4878C36.078 75.853 36.3381 76.3068 36.5151 76.8491C36.6978 77.3859 36.7891 78.0085 36.7891 78.7168ZM34.6807 78.7666C34.6807 77.8923 34.5146 77.2365 34.1826 76.7993C33.8561 76.3566 33.3719 76.1353 32.73 76.1353C32.3758 76.1353 32.0742 76.2044 31.8252 76.3428C31.5762 76.4811 31.3714 76.672 31.2109 76.9155C31.0505 77.1535 30.9315 77.4329 30.854 77.7539C30.7821 78.0749 30.7461 78.418 30.7461 78.7832C30.7461 79.6631 30.9232 80.3271 31.2773 80.7754C31.6315 81.2181 32.1157 81.4395 32.73 81.4395C33.0675 81.4395 33.3608 81.373 33.6099 81.2402C33.8589 81.1019 34.0609 80.9137 34.2158 80.6758C34.3708 80.4323 34.487 80.1473 34.5645 79.8208C34.6419 79.4943 34.6807 79.1429 34.6807 78.7666ZM43.8447 83L43.7949 81.7549C43.6178 81.9707 43.4352 82.1672 43.2471 82.3442C43.0589 82.5213 42.8569 82.6735 42.6411 82.8008C42.4253 82.9225 42.1929 83.0166 41.9438 83.083C41.7004 83.1549 41.4292 83.1909 41.1304 83.1909C40.6323 83.1909 40.1896 83.0913 39.8022 82.8921C39.4149 82.6929 39.0884 82.4106 38.8228 82.0454C38.5627 81.6746 38.3634 81.2264 38.2251 80.7007C38.0868 80.175 38.0176 79.5884 38.0176 78.9409C38.0176 78.1662 38.1255 77.4966 38.3413 76.9321C38.5627 76.3621 38.867 75.8918 39.2544 75.521C39.6418 75.1447 40.1011 74.868 40.6323 74.6909C41.1636 74.5083 41.7419 74.417 42.3672 74.417C42.5775 74.417 42.7878 74.4308 42.998 74.4585C43.2139 74.4862 43.4048 74.5221 43.5708 74.5664V71.271H45.5962V83H43.8447ZM40.1426 78.8496C40.1426 79.3145 40.173 79.7129 40.2339 80.0449C40.3003 80.3714 40.3944 80.6398 40.5161 80.8501C40.6434 81.0604 40.7983 81.2153 40.981 81.3149C41.1636 81.409 41.3711 81.4561 41.6035 81.4561C41.9466 81.4561 42.2731 81.3177 42.583 81.041C42.8929 80.7643 43.2222 80.3853 43.5708 79.9038V76.2183C43.4103 76.1574 43.2111 76.1076 42.9731 76.0688C42.7407 76.0301 42.5055 76.0107 42.2676 76.0107C41.9411 76.0107 41.6478 76.0771 41.3877 76.21C41.1276 76.3428 40.9035 76.5309 40.7153 76.7744C40.5327 77.0179 40.3916 77.3167 40.292 77.6709C40.1924 78.0195 40.1426 78.4124 40.1426 78.8496ZM48.4849 84.6021C48.8169 84.6131 49.1268 84.5938 49.4146 84.5439C49.7023 84.4941 49.9513 84.4139 50.1616 84.3032C50.3774 84.1981 50.5462 84.0625 50.668 83.8965C50.7897 83.7305 50.8506 83.534 50.8506 83.3071C50.8506 83.1466 50.8257 83.0111 50.7759 82.9004C50.7316 82.7842 50.6735 82.6818 50.6016 82.5933C50.5296 82.4992 50.4521 82.4106 50.3691 82.3276C50.2917 82.2391 50.217 82.1478 50.145 82.0537C50.0731 81.9541 50.0122 81.8434 49.9624 81.7217C49.9181 81.5944 49.896 81.4422 49.896 81.2651C49.896 81.0936 49.9264 80.9276 49.9873 80.7671C50.0482 80.6011 50.1367 80.4544 50.2529 80.3271C50.3691 80.1999 50.5103 80.0975 50.6763 80.02C50.8478 79.9425 51.0415 79.9038 51.2573 79.9038C51.5285 79.9038 51.772 79.9674 51.9878 80.0947C52.2036 80.2165 52.3862 80.3853 52.5356 80.6011C52.6851 80.8114 52.7985 81.0549 52.876 81.3315C52.9535 81.6027 52.9922 81.8877 52.9922 82.1865C52.9922 82.7012 52.8981 83.1854 52.71 83.6392C52.5218 84.0929 52.2396 84.4886 51.8633 84.8262C51.487 85.1637 51.0166 85.4294 50.4521 85.623C49.8932 85.8223 49.2375 85.9219 48.4849 85.9219V84.6021ZM8.4668 99.7212C8.4668 100.313 8.35612 100.828 8.13477 101.265C7.91895 101.702 7.61458 102.065 7.22168 102.353C6.82878 102.635 6.36117 102.845 5.81885 102.983C5.27653 103.122 4.68441 103.191 4.04248 103.191C3.47249 103.191 2.92188 103.158 2.39062 103.091C1.85938 103.025 1.33366 102.914 0.813477 102.759V100.742C1.06803 100.831 1.33366 100.914 1.61035 100.991C1.88704 101.069 2.16374 101.138 2.44043 101.199C2.72266 101.254 3.00212 101.298 3.27881 101.332C3.5555 101.365 3.82389 101.381 4.08398 101.381C4.47135 101.381 4.80062 101.348 5.07178 101.282C5.34294 101.215 5.56429 101.124 5.73584 101.008C5.90739 100.892 6.0319 100.753 6.10938 100.593C6.18685 100.432 6.22559 100.255 6.22559 100.062C6.22559 99.7959 6.14811 99.5745 5.99316 99.3975C5.84375 99.2148 5.64453 99.0544 5.39551 98.916C5.14648 98.7777 4.86149 98.6532 4.54053 98.5425C4.2251 98.4318 3.90137 98.3128 3.56934 98.1855C3.24284 98.0583 2.91911 97.9144 2.59814 97.7539C2.28271 97.5934 2.00049 97.3942 1.75146 97.1562C1.50244 96.9183 1.30046 96.6361 1.14551 96.3096C0.996094 95.9775 0.921387 95.5791 0.921387 95.1143C0.921387 94.6882 0.998861 94.2842 1.15381 93.9023C1.30876 93.5205 1.55225 93.1885 1.88428 92.9062C2.21631 92.6185 2.64242 92.3916 3.1626 92.2256C3.68278 92.054 4.31087 91.9683 5.04688 91.9683C5.2627 91.9683 5.48682 91.9793 5.71924 92.0015C5.95719 92.0181 6.18962 92.043 6.4165 92.0762C6.64893 92.1038 6.87028 92.1398 7.08057 92.1841C7.29639 92.2228 7.49284 92.2643 7.66992 92.3086V94.1763C7.49284 94.1099 7.29915 94.049 7.08887 93.9937C6.87858 93.9383 6.65999 93.8913 6.43311 93.8525C6.21175 93.8083 5.98763 93.7751 5.76074 93.7529C5.53385 93.7308 5.31803 93.7197 5.11328 93.7197C4.75358 93.7197 4.44922 93.7502 4.2002 93.811C3.95117 93.8664 3.74642 93.9466 3.58594 94.0518C3.42546 94.1514 3.30924 94.2759 3.2373 94.4253C3.16536 94.5747 3.12939 94.7407 3.12939 94.9233C3.12939 95.1502 3.2041 95.3467 3.35352 95.5127C3.50846 95.6732 3.71045 95.8198 3.95947 95.9526C4.21403 96.0799 4.49902 96.2017 4.81445 96.3179C5.13542 96.4285 5.46191 96.5503 5.79395 96.6831C6.13151 96.8104 6.45801 96.957 6.77344 97.123C7.0944 97.2891 7.37939 97.491 7.62842 97.729C7.88298 97.967 8.08496 98.2492 8.23438 98.5757C8.38932 98.8966 8.4668 99.2785 8.4668 99.7212ZM17.4233 103H15.1738L14.2773 100.327L14.0034 99.3975L13.7295 100.352L12.8662 103H10.6084L9.41309 94.5664H11.3389L11.9448 99.3311L12.0859 100.634L12.4263 99.4639L13.2729 96.8989H14.8169L15.7217 99.4473L16.1118 100.651L16.2695 99.3145L16.7759 94.5664H18.6104L17.4233 103ZM27.1934 98.1357C27.1934 98.2741 27.1878 98.4539 27.1768 98.6753C27.1712 98.8966 27.1602 99.1042 27.1436 99.2979H21.5986C21.5986 99.6686 21.654 99.9951 21.7646 100.277C21.8809 100.56 22.0413 100.798 22.2461 100.991C22.4564 101.179 22.7054 101.323 22.9932 101.423C23.2865 101.522 23.6102 101.572 23.9644 101.572C24.3739 101.572 24.811 101.542 25.2759 101.481C25.7463 101.415 26.2332 101.309 26.7368 101.166V102.776C26.521 102.837 26.2858 102.892 26.0312 102.942C25.7767 102.992 25.5166 103.036 25.251 103.075C24.9854 103.113 24.717 103.141 24.4458 103.158C24.1746 103.18 23.9118 103.191 23.6572 103.191C23.0153 103.191 22.4398 103.1 21.9307 102.917C21.4215 102.734 20.9899 102.466 20.6357 102.112C20.2816 101.752 20.0104 101.309 19.8223 100.784C19.6341 100.258 19.54 99.6493 19.54 98.9575C19.54 98.2713 19.6341 97.6488 19.8223 97.0898C20.0104 96.5254 20.276 96.0439 20.6191 95.6455C20.9622 95.2415 21.3773 94.9316 21.8643 94.7158C22.3568 94.4945 22.9046 94.3838 23.5078 94.3838C24.1055 94.3838 24.634 94.4779 25.0933 94.666C25.5526 94.8486 25.9372 95.106 26.2471 95.438C26.557 95.77 26.7922 96.1657 26.9526 96.625C27.1131 97.0843 27.1934 97.5879 27.1934 98.1357ZM25.1348 97.8452C25.1403 97.5132 25.0988 97.2254 25.0103 96.9819C24.9217 96.7329 24.8 96.5282 24.645 96.3677C24.4956 96.2072 24.3185 96.0882 24.1138 96.0107C23.9146 95.9333 23.6987 95.8945 23.4663 95.8945C22.9572 95.8945 22.5394 96.0661 22.2129 96.4092C21.8864 96.7467 21.6927 97.2254 21.6318 97.8452H25.1348ZM34.4814 103L34.4316 101.896C34.2546 102.084 34.0692 102.258 33.8755 102.419C33.6818 102.574 33.4688 102.709 33.2363 102.826C33.0039 102.942 32.7493 103.03 32.4727 103.091C32.2015 103.158 31.9027 103.191 31.5762 103.191C31.1445 103.191 30.7655 103.127 30.439 103C30.1125 102.873 29.8385 102.696 29.6172 102.469C29.3958 102.242 29.2271 101.968 29.1108 101.647C29.0002 101.326 28.9448 100.972 28.9448 100.584C28.9448 100.186 29.0278 99.818 29.1938 99.4805C29.3654 99.1429 29.6227 98.8524 29.9658 98.6089C30.3145 98.3654 30.7461 98.1745 31.2607 98.0361C31.7809 97.8978 32.3896 97.8286 33.0869 97.8286H34.1909V97.3223C34.1909 97.1064 34.1605 96.9128 34.0996 96.7412C34.0387 96.5641 33.9391 96.4147 33.8008 96.293C33.668 96.1712 33.4937 96.0771 33.2778 96.0107C33.062 95.9443 32.7964 95.9111 32.481 95.9111C31.9829 95.9111 31.4904 95.9692 31.0034 96.0854C30.522 96.1961 30.0544 96.3538 29.6006 96.5586V94.9399C30.0046 94.7795 30.4694 94.6466 30.9951 94.5415C31.5264 94.4364 32.077 94.3838 32.647 94.3838C33.2723 94.3838 33.8091 94.4447 34.2573 94.5664C34.7056 94.6826 35.0736 94.8597 35.3613 95.0977C35.6546 95.3356 35.8704 95.6344 36.0088 95.9941C36.1471 96.3483 36.2163 96.7633 36.2163 97.2393V103H34.4814ZM34.1909 99.2729H32.9541C32.611 99.2729 32.3205 99.3062 32.0825 99.3726C31.8446 99.439 31.6509 99.5303 31.5015 99.6465C31.3521 99.7627 31.2414 99.8983 31.1694 100.053C31.103 100.203 31.0698 100.363 31.0698 100.535C31.0698 100.878 31.1805 101.141 31.4019 101.323C31.6232 101.5 31.9248 101.589 32.3066 101.589C32.5889 101.589 32.8822 101.486 33.1865 101.282C33.4909 101.077 33.8257 100.784 34.1909 100.402V99.2729ZM45.4966 102.917C45.1313 103 44.7633 103.066 44.3926 103.116C44.0218 103.166 43.6704 103.191 43.3384 103.191C42.785 103.191 42.3063 103.133 41.9023 103.017C41.5039 102.9 41.1719 102.723 40.9062 102.485C40.6462 102.247 40.4525 101.946 40.3252 101.581C40.2035 101.21 40.1426 100.77 40.1426 100.261V96.1436H37.8765V94.5664H40.1426V92.4082L42.2178 91.8687V94.5664H45.4966V96.1436H42.2178V100.111C42.2178 100.593 42.3285 100.958 42.5498 101.207C42.7712 101.451 43.1419 101.572 43.6621 101.572C43.9941 101.572 44.3179 101.545 44.6333 101.489C44.9487 101.434 45.2365 101.37 45.4966 101.298V102.917ZM48.4849 104.602C48.8169 104.613 49.1268 104.594 49.4146 104.544C49.7023 104.494 49.9513 104.414 50.1616 104.303C50.3774 104.198 50.5462 104.062 50.668 103.896C50.7897 103.73 50.8506 103.534 50.8506 103.307C50.8506 103.147 50.8257 103.011 50.7759 102.9C50.7316 102.784 50.6735 102.682 50.6016 102.593C50.5296 102.499 50.4521 102.411 50.3691 102.328C50.2917 102.239 50.217 102.148 50.145 102.054C50.0731 101.954 50.0122 101.843 49.9624 101.722C49.9181 101.594 49.896 101.442 49.896 101.265C49.896 101.094 49.9264 100.928 49.9873 100.767C50.0482 100.601 50.1367 100.454 50.2529 100.327C50.3691 100.2 50.5103 100.097 50.6763 100.02C50.8478 99.9425 51.0415 99.9038 51.2573 99.9038C51.5285 99.9038 51.772 99.9674 51.9878 100.095C52.2036 100.216 52.3862 100.385 52.5356 100.601C52.6851 100.811 52.7985 101.055 52.876 101.332C52.9535 101.603 52.9922 101.888 52.9922 102.187C52.9922 102.701 52.8981 103.185 52.71 103.639C52.5218 104.093 52.2396 104.489 51.8633 104.826C51.487 105.164 51.0166 105.429 50.4521 105.623C49.8932 105.822 49.2375 105.922 48.4849 105.922V104.602ZM5.71924 112.853V122H3.62744V112.853H0.655762V111.151H8.69092V112.853H5.71924ZM17.8467 117.136C17.8467 117.274 17.8411 117.454 17.8301 117.675C17.8245 117.897 17.8135 118.104 17.7969 118.298H12.252C12.252 118.669 12.3073 118.995 12.418 119.277C12.5342 119.56 12.6947 119.798 12.8994 119.991C13.1097 120.179 13.3587 120.323 13.6465 120.423C13.9398 120.522 14.2635 120.572 14.6177 120.572C15.0272 120.572 15.4644 120.542 15.9292 120.481C16.3996 120.415 16.8866 120.309 17.3901 120.166V121.776C17.1743 121.837 16.9391 121.892 16.6846 121.942C16.43 121.992 16.1699 122.036 15.9043 122.075C15.6387 122.113 15.3703 122.141 15.0991 122.158C14.828 122.18 14.5651 122.191 14.3105 122.191C13.6686 122.191 13.0931 122.1 12.584 121.917C12.0749 121.734 11.6432 121.466 11.2891 121.112C10.9349 120.752 10.6637 120.309 10.4756 119.784C10.2874 119.258 10.1934 118.649 10.1934 117.958C10.1934 117.271 10.2874 116.649 10.4756 116.09C10.6637 115.525 10.9294 115.044 11.2725 114.646C11.6156 114.242 12.0306 113.932 12.5176 113.716C13.0101 113.494 13.5579 113.384 14.1611 113.384C14.7588 113.384 15.2873 113.478 15.7466 113.666C16.2059 113.849 16.5905 114.106 16.9004 114.438C17.2103 114.77 17.4455 115.166 17.606 115.625C17.7664 116.084 17.8467 116.588 17.8467 117.136ZM15.7881 116.845C15.7936 116.513 15.7521 116.225 15.6636 115.982C15.575 115.733 15.4533 115.528 15.2983 115.368C15.1489 115.207 14.9718 115.088 14.7671 115.011C14.5679 114.933 14.3521 114.895 14.1196 114.895C13.6105 114.895 13.1927 115.066 12.8662 115.409C12.5397 115.747 12.346 116.225 12.2852 116.845H15.7881ZM25.1348 122L25.085 120.896C24.9079 121.084 24.7225 121.258 24.5288 121.419C24.3351 121.574 24.1221 121.709 23.8896 121.826C23.6572 121.942 23.4027 122.03 23.126 122.091C22.8548 122.158 22.556 122.191 22.2295 122.191C21.7979 122.191 21.4188 122.127 21.0923 122C20.7658 121.873 20.4919 121.696 20.2705 121.469C20.0492 121.242 19.8804 120.968 19.7642 120.647C19.6535 120.326 19.5981 119.972 19.5981 119.584C19.5981 119.186 19.6812 118.818 19.8472 118.48C20.0187 118.143 20.276 117.852 20.6191 117.609C20.9678 117.365 21.3994 117.174 21.9141 117.036C22.4342 116.898 23.043 116.829 23.7402 116.829H24.8442V116.322C24.8442 116.106 24.8138 115.913 24.7529 115.741C24.6921 115.564 24.5924 115.415 24.4541 115.293C24.3213 115.171 24.147 115.077 23.9312 115.011C23.7153 114.944 23.4497 114.911 23.1343 114.911C22.6362 114.911 22.1437 114.969 21.6567 115.085C21.1753 115.196 20.7077 115.354 20.2539 115.559V113.94C20.6579 113.779 21.1227 113.647 21.6484 113.542C22.1797 113.436 22.7303 113.384 23.3003 113.384C23.9256 113.384 24.4624 113.445 24.9106 113.566C25.3589 113.683 25.7269 113.86 26.0146 114.098C26.3079 114.336 26.5238 114.634 26.6621 114.994C26.8005 115.348 26.8696 115.763 26.8696 116.239V122H25.1348ZM24.8442 118.273H23.6074C23.2643 118.273 22.9738 118.306 22.7358 118.373C22.4979 118.439 22.3042 118.53 22.1548 118.646C22.0054 118.763 21.8947 118.898 21.8228 119.053C21.7563 119.203 21.7231 119.363 21.7231 119.535C21.7231 119.878 21.8338 120.141 22.0552 120.323C22.2765 120.5 22.5781 120.589 22.96 120.589C23.2422 120.589 23.5355 120.486 23.8398 120.282C24.1442 120.077 24.479 119.784 24.8442 119.402V118.273ZM34.6226 116.845C34.6336 116.53 34.617 116.261 34.5728 116.04C34.534 115.819 34.4676 115.636 34.3735 115.492C34.285 115.348 34.1743 115.243 34.0415 115.177C33.9087 115.11 33.7565 115.077 33.585 115.077C33.2861 115.077 32.9762 115.202 32.6553 115.451C32.3398 115.694 31.9912 116.098 31.6094 116.663V122H29.5342V113.566H31.3687L31.4434 114.795C31.5817 114.579 31.7367 114.385 31.9082 114.214C32.0853 114.042 32.279 113.896 32.4893 113.774C32.7051 113.647 32.943 113.55 33.2031 113.483C33.4632 113.417 33.7482 113.384 34.0581 113.384C34.4842 113.384 34.8605 113.458 35.187 113.608C35.519 113.752 35.7957 113.968 36.0171 114.255C36.244 114.543 36.41 114.906 36.5151 115.343C36.6258 115.774 36.6729 116.275 36.6562 116.845H34.6226ZM45.4966 119.518C45.4966 120 45.3887 120.412 45.1729 120.755C44.9626 121.092 44.6803 121.369 44.3262 121.585C43.9775 121.795 43.5791 121.947 43.1309 122.042C42.6882 122.141 42.2344 122.191 41.7695 122.191C41.1497 122.191 40.5908 122.16 40.0928 122.1C39.5947 122.044 39.1243 121.961 38.6816 121.851V120.024C39.2018 120.24 39.7192 120.398 40.2339 120.498C40.7541 120.592 41.2438 120.639 41.7031 120.639C42.2344 120.639 42.63 120.556 42.8901 120.39C43.1558 120.218 43.2886 119.997 43.2886 119.726C43.2886 119.598 43.2609 119.482 43.2056 119.377C43.1502 119.272 43.0451 119.172 42.8901 119.078C42.7407 118.979 42.5277 118.879 42.251 118.779C41.9743 118.674 41.6118 118.558 41.1636 118.431C40.7485 118.314 40.3833 118.184 40.0679 118.041C39.758 117.891 39.5007 117.717 39.2959 117.518C39.0911 117.318 38.9362 117.089 38.8311 116.829C38.7314 116.563 38.6816 116.253 38.6816 115.899C38.6816 115.556 38.7591 115.232 38.9141 114.928C39.069 114.623 39.2987 114.358 39.603 114.131C39.9129 113.898 40.2975 113.716 40.7568 113.583C41.2161 113.45 41.7529 113.384 42.3672 113.384C42.8984 113.384 43.3688 113.411 43.7783 113.467C44.1878 113.522 44.5503 113.583 44.8657 113.649V115.301C44.3843 115.146 43.9305 115.038 43.5044 114.978C43.0838 114.911 42.666 114.878 42.251 114.878C41.8359 114.878 41.5011 114.953 41.2466 115.102C40.9976 115.251 40.873 115.459 40.873 115.725C40.873 115.852 40.8979 115.965 40.9478 116.065C40.9976 116.165 41.0944 116.261 41.2383 116.355C41.3877 116.45 41.5924 116.549 41.8525 116.654C42.1182 116.754 42.4668 116.865 42.8984 116.986C43.3854 117.125 43.7949 117.274 44.127 117.435C44.459 117.59 44.7246 117.767 44.9238 117.966C45.1286 118.165 45.2752 118.392 45.3638 118.646C45.4523 118.901 45.4966 119.192 45.4966 119.518Z" fill="black"/>
<path d="M146.476 56L145.878 53.8584H142.093L141.479 56H139.453L142.666 45.1509H145.521L148.733 56H146.476ZM144.01 47.1431L142.583 52.1899H145.421L144.01 47.1431ZM154.951 56V50.5049C154.951 49.5807 154.608 49.1187 153.921 49.1187C153.578 49.1187 153.249 49.257 152.934 49.5337C152.624 49.8104 152.294 50.1867 151.946 50.6626V56H149.92V47.5664H151.672L151.722 48.8115C151.893 48.5957 152.07 48.3993 152.253 48.2222C152.441 48.0451 152.643 47.8957 152.859 47.7739C153.075 47.6466 153.307 47.5498 153.556 47.4834C153.805 47.417 154.085 47.3838 154.395 47.3838C154.826 47.3838 155.202 47.4557 155.523 47.5996C155.844 47.738 156.113 47.9372 156.329 48.1973C156.544 48.4518 156.705 48.7617 156.81 49.127C156.921 49.4867 156.976 49.8906 156.976 50.3389V56H154.951ZM166.613 51.1357C166.613 51.2741 166.608 51.4539 166.597 51.6753C166.591 51.8966 166.58 52.1042 166.563 52.2979H161.019C161.019 52.6686 161.074 52.9951 161.185 53.2773C161.301 53.5596 161.461 53.7975 161.666 53.9912C161.876 54.1794 162.125 54.3232 162.413 54.4229C162.706 54.5225 163.03 54.5723 163.384 54.5723C163.794 54.5723 164.231 54.5418 164.696 54.481C165.166 54.4146 165.653 54.3094 166.157 54.1655V55.7759C165.941 55.8368 165.706 55.8921 165.451 55.9419C165.197 55.9917 164.937 56.036 164.671 56.0747C164.405 56.1134 164.137 56.1411 163.866 56.1577C163.595 56.1799 163.332 56.1909 163.077 56.1909C162.435 56.1909 161.86 56.0996 161.351 55.917C160.841 55.7344 160.41 55.466 160.056 55.1118C159.701 54.7521 159.43 54.3094 159.242 53.7837C159.054 53.258 158.96 52.6493 158.96 51.9575C158.96 51.2713 159.054 50.6488 159.242 50.0898C159.43 49.5254 159.696 49.0439 160.039 48.6455C160.382 48.2415 160.797 47.9316 161.284 47.7158C161.777 47.4945 162.325 47.3838 162.928 47.3838C163.525 47.3838 164.054 47.4779 164.513 47.666C164.972 47.8486 165.357 48.106 165.667 48.438C165.977 48.77 166.212 49.1657 166.373 49.625C166.533 50.0843 166.613 50.5879 166.613 51.1357ZM164.555 50.8452C164.56 50.5132 164.519 50.2254 164.43 49.9819C164.342 49.7329 164.22 49.5282 164.065 49.3677C163.916 49.2072 163.738 49.0882 163.534 49.0107C163.334 48.9333 163.119 48.8945 162.886 48.8945C162.377 48.8945 161.959 49.0661 161.633 49.4092C161.306 49.7467 161.113 50.2254 161.052 50.8452H164.555ZM174.565 56V50.2559C174.565 50.0456 174.56 49.863 174.549 49.708C174.538 49.5475 174.516 49.4147 174.482 49.3096C174.449 49.2044 174.399 49.127 174.333 49.0771C174.272 49.0218 174.186 48.9941 174.076 48.9941C173.904 48.9941 173.735 49.1104 173.569 49.3428C173.403 49.5752 173.215 49.9709 173.005 50.5298V56H171.27V50.2559C171.27 50.0456 171.264 49.863 171.253 49.708C171.242 49.5475 171.22 49.4147 171.187 49.3096C171.154 49.2044 171.104 49.127 171.038 49.0771C170.971 49.0218 170.883 48.9941 170.772 48.9941C170.628 48.9941 170.468 49.1104 170.291 49.3428C170.113 49.5752 169.917 49.9709 169.701 50.5298V56H167.95V47.5664H169.452L169.485 48.7949C169.607 48.5459 169.729 48.3328 169.851 48.1558C169.972 47.9787 170.102 47.8348 170.241 47.7241C170.379 47.6079 170.526 47.5249 170.681 47.4751C170.841 47.4253 171.021 47.4004 171.22 47.4004C171.691 47.4004 172.048 47.5249 172.291 47.7739C172.54 48.0174 172.681 48.3577 172.714 48.7949C172.847 48.5459 172.977 48.3328 173.104 48.1558C173.237 47.9787 173.373 47.8348 173.511 47.7241C173.655 47.6079 173.807 47.5249 173.968 47.4751C174.134 47.4253 174.316 47.4004 174.516 47.4004C175.13 47.4004 175.584 47.6162 175.877 48.0479C176.17 48.474 176.317 49.1076 176.317 49.9487V56H174.565ZM182.924 45.2588C182.924 45.4414 182.891 45.613 182.825 45.7734C182.758 45.9339 182.664 46.075 182.542 46.1968C182.426 46.313 182.288 46.4071 182.127 46.479C181.967 46.5454 181.793 46.5786 181.604 46.5786C181.416 46.5786 181.239 46.5454 181.073 46.479C180.913 46.4071 180.772 46.313 180.65 46.1968C180.534 46.075 180.442 45.9339 180.376 45.7734C180.31 45.613 180.276 45.4414 180.276 45.2588C180.276 45.0762 180.31 44.9046 180.376 44.7441C180.442 44.5837 180.534 44.4425 180.65 44.3208C180.772 44.1991 180.913 44.105 181.073 44.0386C181.239 43.9666 181.416 43.9307 181.604 43.9307C181.793 43.9307 181.967 43.9666 182.127 44.0386C182.288 44.105 182.426 44.1991 182.542 44.3208C182.664 44.4425 182.758 44.5837 182.825 44.7441C182.891 44.9046 182.924 45.0762 182.924 45.2588ZM180.683 49.1436H178.301V47.5664H182.758V54.4229H185.19V56H178.01V54.4229H180.683V49.1436ZM194.13 55.6763C193.732 55.8368 193.32 55.9557 192.894 56.0332C192.467 56.1107 192.022 56.1494 191.557 56.1494C190.888 56.1494 190.287 56.0581 189.756 55.8755C189.225 55.6929 188.774 55.4217 188.403 55.062C188.032 54.7023 187.747 54.2568 187.548 53.7256C187.354 53.1943 187.257 52.5801 187.257 51.8828C187.257 51.2077 187.362 50.5962 187.573 50.0483C187.789 49.5005 188.09 49.0329 188.478 48.6455C188.865 48.2581 189.33 47.9593 189.872 47.749C190.42 47.5387 191.029 47.4336 191.698 47.4336C192.246 47.4336 192.705 47.464 193.076 47.5249C193.452 47.5802 193.79 47.6522 194.089 47.7407V49.708C193.746 49.5365 193.372 49.4036 192.968 49.3096C192.57 49.2155 192.191 49.1685 191.831 49.1685C191.455 49.1685 191.117 49.2321 190.818 49.3594C190.52 49.4867 190.268 49.6637 190.063 49.8906C189.858 50.1175 189.701 50.3942 189.59 50.7207C189.485 51.0417 189.432 51.3958 189.432 51.7832C189.432 52.1872 189.49 52.5496 189.606 52.8706C189.723 53.1916 189.886 53.4655 190.096 53.6924C190.312 53.9137 190.569 54.0853 190.868 54.207C191.167 54.3232 191.499 54.3813 191.864 54.3813C192.041 54.3813 192.227 54.3703 192.42 54.3481C192.62 54.3205 192.816 54.2845 193.01 54.2402C193.209 54.1904 193.403 54.1351 193.591 54.0742C193.785 54.0133 193.964 53.9469 194.13 53.875V55.6763ZM211.952 56V50.2559C211.952 50.0456 211.947 49.863 211.936 49.708C211.924 49.5475 211.902 49.4147 211.869 49.3096C211.836 49.2044 211.786 49.127 211.72 49.0771C211.659 49.0218 211.573 48.9941 211.462 48.9941C211.291 48.9941 211.122 49.1104 210.956 49.3428C210.79 49.5752 210.602 49.9709 210.392 50.5298V56H208.657V50.2559C208.657 50.0456 208.651 49.863 208.64 49.708C208.629 49.5475 208.607 49.4147 208.574 49.3096C208.541 49.2044 208.491 49.127 208.424 49.0771C208.358 49.0218 208.269 48.9941 208.159 48.9941C208.015 48.9941 207.854 49.1104 207.677 49.3428C207.5 49.5752 207.304 49.9709 207.088 50.5298V56H205.336V47.5664H206.839L206.872 48.7949C206.994 48.5459 207.116 48.3328 207.237 48.1558C207.359 47.9787 207.489 47.8348 207.627 47.7241C207.766 47.6079 207.912 47.5249 208.067 47.4751C208.228 47.4253 208.408 47.4004 208.607 47.4004C209.077 47.4004 209.434 47.5249 209.678 47.7739C209.927 48.0174 210.068 48.3577 210.101 48.7949C210.234 48.5459 210.364 48.3328 210.491 48.1558C210.624 47.9787 210.76 47.8348 210.898 47.7241C211.042 47.6079 211.194 47.5249 211.354 47.4751C211.521 47.4253 211.703 47.4004 211.902 47.4004C212.517 47.4004 212.97 47.6162 213.264 48.0479C213.557 48.474 213.704 49.1076 213.704 49.9487V56H211.952ZM222.942 51.7168C222.942 52.3809 222.848 52.9896 222.66 53.543C222.472 54.0908 222.201 54.5612 221.847 54.9541C221.493 55.347 221.058 55.6514 220.543 55.8672C220.029 56.083 219.442 56.1909 218.784 56.1909C218.158 56.1909 217.599 56.0996 217.107 55.917C216.614 55.7344 216.197 55.4632 215.854 55.1035C215.51 54.7383 215.248 54.2845 215.065 53.7422C214.882 53.1943 214.791 52.5579 214.791 51.833C214.791 51.1634 214.885 50.5547 215.073 50.0068C215.267 49.459 215.541 48.9914 215.895 48.604C216.255 48.2166 216.692 47.9178 217.207 47.7075C217.721 47.4917 218.302 47.3838 218.95 47.3838C219.581 47.3838 220.142 47.4779 220.635 47.666C221.127 47.8486 221.545 48.1226 221.888 48.4878C222.231 48.853 222.491 49.3068 222.668 49.8491C222.851 50.3859 222.942 51.0085 222.942 51.7168ZM220.834 51.7666C220.834 50.8923 220.668 50.2365 220.336 49.7993C220.009 49.3566 219.525 49.1353 218.883 49.1353C218.529 49.1353 218.228 49.2044 217.979 49.3428C217.729 49.4811 217.525 49.672 217.364 49.9155C217.204 50.1535 217.085 50.4329 217.007 50.7539C216.935 51.0749 216.899 51.418 216.899 51.7832C216.899 52.6631 217.076 53.3271 217.431 53.7754C217.785 54.2181 218.269 54.4395 218.883 54.4395C219.221 54.4395 219.514 54.373 219.763 54.2402C220.012 54.1019 220.214 53.9137 220.369 53.6758C220.524 53.4323 220.64 53.1473 220.718 52.8208C220.795 52.4943 220.834 52.1429 220.834 51.7666ZM229.998 56L229.948 54.7549C229.771 54.9707 229.589 55.1672 229.4 55.3442C229.212 55.5213 229.01 55.6735 228.794 55.8008C228.579 55.9225 228.346 56.0166 228.097 56.083C227.854 56.1549 227.583 56.1909 227.284 56.1909C226.786 56.1909 226.343 56.0913 225.956 55.8921C225.568 55.6929 225.242 55.4106 224.976 55.0454C224.716 54.6746 224.517 54.2264 224.378 53.7007C224.24 53.175 224.171 52.5884 224.171 51.9409C224.171 51.1662 224.279 50.4966 224.495 49.9321C224.716 49.3621 225.02 48.8918 225.408 48.521C225.795 48.1447 226.254 47.868 226.786 47.6909C227.317 47.5083 227.895 47.417 228.521 47.417C228.731 47.417 228.941 47.4308 229.151 47.4585C229.367 47.4862 229.558 47.5221 229.724 47.5664V44.271H231.75V56H229.998ZM226.296 51.8496C226.296 52.3145 226.326 52.7129 226.387 53.0449C226.454 53.3714 226.548 53.6398 226.669 53.8501C226.797 54.0604 226.952 54.2153 227.134 54.3149C227.317 54.409 227.524 54.4561 227.757 54.4561C228.1 54.4561 228.426 54.3177 228.736 54.041C229.046 53.7643 229.375 53.3853 229.724 52.9038V49.2183C229.564 49.1574 229.364 49.1076 229.126 49.0688C228.894 49.0301 228.659 49.0107 228.421 49.0107C228.094 49.0107 227.801 49.0771 227.541 49.21C227.281 49.3428 227.057 49.5309 226.869 49.7744C226.686 50.0179 226.545 50.3167 226.445 50.6709C226.346 51.0195 226.296 51.4124 226.296 51.8496ZM241.387 51.1357C241.387 51.2741 241.381 51.4539 241.37 51.6753C241.365 51.8966 241.354 52.1042 241.337 52.2979H235.792C235.792 52.6686 235.847 52.9951 235.958 53.2773C236.074 53.5596 236.235 53.7975 236.439 53.9912C236.65 54.1794 236.899 54.3232 237.187 54.4229C237.48 54.5225 237.804 54.5723 238.158 54.5723C238.567 54.5723 239.004 54.5418 239.469 54.481C239.94 54.4146 240.427 54.3094 240.93 54.1655V55.7759C240.714 55.8368 240.479 55.8921 240.225 55.9419C239.97 55.9917 239.71 56.036 239.444 56.0747C239.179 56.1134 238.91 56.1411 238.639 56.1577C238.368 56.1799 238.105 56.1909 237.851 56.1909C237.209 56.1909 236.633 56.0996 236.124 55.917C235.615 55.7344 235.183 55.466 234.829 55.1118C234.475 54.7521 234.204 54.3094 234.016 53.7837C233.827 53.258 233.733 52.6493 233.733 51.9575C233.733 51.2713 233.827 50.6488 234.016 50.0898C234.204 49.5254 234.469 49.0439 234.812 48.6455C235.156 48.2415 235.571 47.9316 236.058 47.7158C236.55 47.4945 237.098 47.3838 237.701 47.3838C238.299 47.3838 238.827 47.4779 239.287 47.666C239.746 47.8486 240.131 48.106 240.44 48.438C240.75 48.77 240.986 49.1657 241.146 49.625C241.306 50.0843 241.387 50.5879 241.387 51.1357ZM239.328 50.8452C239.334 50.5132 239.292 50.2254 239.204 49.9819C239.115 49.7329 238.993 49.5282 238.838 49.3677C238.689 49.2072 238.512 49.0882 238.307 49.0107C238.108 48.9333 237.892 48.8945 237.66 48.8945C237.151 48.8945 236.733 49.0661 236.406 49.4092C236.08 49.7467 235.886 50.2254 235.825 50.8452H239.328ZM246.11 45.8481H243.728V44.271H248.185V54.4229H250.617V56H243.437V54.4229H246.11V45.8481Z" fill="black"/>
<path d="M75 190.5C111 190.5 132.667 190.5 139 190.5L174 173L221.5 139L257 82.5L274.5 32.5" stroke="#8B2DF5" stroke-width="4"/>
<path d="M76 124.5H113.5L146 121.5L187 112L220.5 104.5L261.5 92.5L297 82.5L337.5 65.5L377.5 42.5" stroke="#7DE77B" stroke-width="4"/>
</svg>
