<svg width="102" height="100" viewBox="0 0 102 100" fill="none" xmlns="http://www.w3.org/2000/svg">
<g clip-path="url(#clip0)">
<path d="M73.6671 1.13641H1.13379V73.8637H73.6671V1.13641Z" fill="white" stroke="black" stroke-width="3"/>
<path d="M81.9777 8.7121H9.44434V81.4394H81.9777V8.7121Z" fill="white" stroke="black" stroke-width="3"/>
<path d="M92.5548 18.5606H20.0215V91.2879H92.5548V18.5606Z" fill="white" stroke="black" stroke-width="3"/>
<path d="M100.866 26.1364H28.333V98.8637H100.866V26.1364Z" fill="white" stroke="black" stroke-width="3"/>
<path d="M57.5847 45.9162L56.3363 53.0007H61.1175L60.1347 58.647H55.3535L52.9097 73.0824C52.8035 73.9879 52.8743 74.6804 53.1222 75.1598C53.3701 75.6392 53.9722 75.897 54.9285 75.9318C55.2118 75.95 55.9732 75.9053 57.2129 75.7992L56.6816 81.6848C55.3535 82.1288 53.9191 82.3333 52.3785 82.2977C49.917 82.2621 48.0842 81.4894 46.8801 79.9803C45.6759 78.4712 45.1801 76.4295 45.3925 73.8547L47.8629 58.647H43.7988L44.7816 53.0007H48.8456L50.0675 45.9162H57.5847ZM77.1613 73.6949C77.4446 72.2744 76.4617 71.2447 74.2129 70.6054L71.7956 69.9929C66.0759 68.4126 63.2956 65.625 63.4551 61.63C63.5436 58.9133 64.7389 56.7028 67.041 54.9982C69.3608 53.2759 72.1498 52.4325 75.4082 52.468C78.649 52.5035 81.2692 53.3647 83.2707 55.0515C85.2714 56.7382 86.2899 58.9844 86.3254 61.7898L78.8877 61.7631C78.9233 59.2951 77.7015 58.0433 75.2222 58.0078C74.0535 58.0078 73.0353 58.3007 72.1675 58.8867C71.3175 59.4726 70.7951 60.2628 70.6004 61.2571C70.3347 62.6776 71.4061 63.6807 73.8144 64.2666L74.8769 64.5063C77.3207 65.0923 79.1892 65.767 80.482 66.5305C81.774 67.2763 82.766 68.2085 83.4566 69.327C84.1653 70.4457 84.4925 71.7862 84.4396 73.3487C84.3867 75.1776 83.7928 76.7757 82.6595 78.1424C81.5443 79.5098 80.0037 80.5666 78.0377 81.3121C76.0899 82.0576 74.0358 82.4038 71.8754 82.3507C68.6879 82.3151 66.0316 81.4007 63.9066 79.6076C61.7816 77.7962 60.7014 75.4616 60.666 72.6029L67.7316 72.6562C67.8025 75.4084 69.2722 76.8023 72.141 76.8379C73.5222 76.8379 74.6556 76.5538 75.541 75.9856C76.4443 75.4173 76.9845 74.6538 77.1613 73.6949Z" fill="black"/>
</g>
<defs>
<clipPath id="clip0">
<rect width="102" height="100" fill="white"/>
</clipPath>
</defs>
</svg>
